<svg version="1.1" id="Layer_2" xmlns="http://www.w3.org/2000/svg" x="0" y="0" viewBox="0 0 36 36" xml:space="preserve"><style>.st0{fill:#fff}</style><path class="st0" d="M3.6 23.8c-.7 0-1.3-.6-1.3-1.3v-3c0-.7.6-1.3 1.3-1.3h10.7l3.5-.5.9-1.7H3.6c-.7 0-1.3-.6-1.3-1.3v-3c0-.7.6-1.3 1.3-1.3h18c.5-.4 1.1-.7 1.7-.7.9 0 1.8.5 2.2 1.4l.5 1V2.2C26 1 25 0 23.8 0H2.2C1 .1.1 1 .1 2.2v21.7c0 1.2 1 2.2 2.2 2.2h10l-2.4-2.3H3.6zM2.3 3.7c0-.7.6-1.3 1.3-1.3h18.9c.7 0 1.3.6 1.3 1.3v3c0 .7-.6 1.3-1.3 1.3H3.6c-.7 0-1.3-.6-1.3-1.3v-3z"/><path class="st0" d="M4 6.7h3.8c.2 0 .4-.2.4-.4V4c0-.2-.2-.4-.4-.4H4c-.2 0-.4.2-.4.4v2.3c0 .2.2.4.4.4zM7.9 19.4H4c-.2 0-.4.2-.4.4v2.3c0 .2.2.4.4.4h3.8c.2 0 .4-.2.4-.4v-.7-1.6c.1-.2-.1-.4-.3-.4zM11.2 11.5c-.2 0-.4.2-.4.4v2.3c0 .2.2.4.4.4H15c.2 0 .4-.2.4-.4v-2.3c0-.2-.2-.4-.4-.4h-3.8zM35.9 21.2l-8.7-1.3-3.8-7.9-3.9 7.9-8.7 1.3 6.3 6.1-1.5 8.6 7.8-4.1 7.7 4.1-1.5-8.6z"/></svg>