<svg version="1.1" id="Layer_1" xmlns="http://www.w3.org/2000/svg" x="0" y="0" viewBox="0 0 36 36" xml:space="preserve"><style>.st0{fill:#fff}</style><path class="st0" d="M11.8 12.9c-.1-.2-.5-.5-.8-.7h5.6c-1.1.4-2 .9-2 .9-1 .5-2.7.1-2.8-.2m11.3-.7c.7 0 1.2-.5 1.2-1.2h.4c.2 0 .4-.2.4-.4s-.2-.4-.4-.4H2.8c-.2 0-.4.2-.4.4s.2.4.4.4h.4c0 .7.6 1.2 1.2 1.2h4.7c-.3.3-.1.6-.1.6.2 0 .3-.1.5 0 .5.3.3.8.3.9-.4.8-.3 1.1-.3 1.1l4 1.8.7-.5c1.1-.3 1.3-1.2 1.3-1.2.1-.3 1.7-1.5 2.1-1.7.4-.1 2.1-.1 2.1-.1.2-.5-.2-.9-.2-.9h3.6zM2.4.2h22.7c1.3 0 2.3 1 2.3 2.3v12.8h-.1c-2.5 0-4.6 1.7-4.6 3.9V22.8h-3.4c-2.1 0-3.9 2-3.9 4.6v.1H5.3L7.2 25c1.3-1.4 1.8-1.9 2.3-2.6.1-.2-2.4-4.2-2.4-4.2l3.8 3.5 2.8-3.3-4.9-3.9-2.9 2.8.2.2-3.8 3.1c-.9.8-1.7 1.3-2.2 1.6V2.4C.1 1.2 1.2.2 2.4.2zm16.2 27c0-1.1.9-1.9 1.9-1.9h4.8v-4.8c0-1.1.9-1.9 1.9-1.9 1.1 0 1.9.9 1.9 1.9v4.8h4.8c1.1 0 1.9.9 1.9 1.9s-.9 1.9-1.9 1.9h-4.8v4.8c0 1.1-.9 1.9-1.9 1.9-1.1 0-1.9-.9-1.9-1.9v-4.8h-4.8c-1 .1-1.9-.8-1.9-1.9z"/></svg>