<?xml version="1.0" encoding="utf-8"?>
<!-- Generator: Adobe Illustrator 27.2.0, SVG Export Plug-In . SVG Version: 6.00 Build 0)  -->
<svg version="1.1" id="Layer_1" xmlns="http://www.w3.org/2000/svg" xmlns:xlink="http://www.w3.org/1999/xlink" x="0px" y="0px"
	 viewBox="0 0 36 36" style="enable-background:new 0 0 36 36;" xml:space="preserve">
<style type="text/css">
	.st0{fill:#D1C4E9;}
</style>
<path class="st0" d="M31.59,0H4.41C1.97,0,0,1.97,0,4.41v27.18C0,34.03,1.97,36,4.41,36h27.18c2.44,0,4.41-1.97,4.41-4.41V4.41
	C36,1.97,34.03,0,31.59,0z M26.63,20.5H20.5v6.14c0,1.38-1.12,2.5-2.5,2.5c-1.38,0-2.5-1.12-2.5-2.5V20.5H9.37
	c-1.38,0-2.5-1.12-2.5-2.5c0-1.38,1.12-2.5,2.5-2.5h6.14V9.37c0-1.38,1.12-2.5,2.5-2.5c1.38,0,2.5,1.12,2.5,2.5v6.14h6.14
	c1.38,0,2.5,1.12,2.5,2.5C29.13,19.38,28.01,20.5,26.63,20.5z"/>
</svg>
