<svg version="1.1" id="Layer_1" xmlns="http://www.w3.org/2000/svg" x="0" y="0" viewBox="0 0 36 36" xml:space="preserve"><style>.st0{fill:#fff}</style><path class="st0" d="M5.3 7.8h7.5c-.6.7-1.2 1.5-1.7 2.3H5.3c-.6 0-1.2-.5-1.2-1.2 0-.6.5-1.1 1.2-1.1m-4 0c.6 0 1.2.5 1.2 1.2 0 .6-.5 1.2-1.2 1.2C.7 10.2.1 9.7.1 9s.6-1.2 1.2-1.2zm4-7.7h9.4c.6 0 1.2.5 1.2 1.2s-.5 1.2-1.2 1.2H5.3c-.7 0-1.2-.5-1.2-1.2S4.6.1 5.3.1zm-4 0c.6 0 1.2.5 1.2 1.2S2 2.5 1.3 2.5C.7 2.5.1 2 .1 1.3S.7.1 1.3.1zm4 4h9.4c.6 0 1.1.4 1.2 1-.5.3-1.1.8-1.8 1.3H5.3c-.6 0-1.2-.5-1.2-1.2 0-.6.5-1.1 1.2-1.1zm-4 0c.6 0 1.2.5 1.2 1.2 0 .6-.5 1.2-1.2 1.2C.7 6.5.1 6 .1 5.3s.6-1.2 1.2-1.2zm4 15.1h3.5L8 21.5H5.3c-.6 0-1.2-.5-1.2-1.2 0-.6.5-1.1 1.2-1.1zm-4 0c.6 0 1.2.5 1.2 1.2 0 .6-.5 1.2-1.2 1.2-.6 0-1.2-.5-1.2-1.2s.6-1.2 1.2-1.2zm4-7.6h5.1c-.3.7-.5 1.5-.6 2.3H5.3c-.6 0-1.2-.5-1.2-1.2 0-.6.5-1.1 1.2-1.1zm-4 0c.6 0 1.2.5 1.2 1.2 0 .6-.5 1.2-1.2 1.2-.6 0-1.2-.5-1.2-1.2s.6-1.2 1.2-1.2zm4 3.9h4.4l-.5 2.3H5.3c-.6 0-1.2-.5-1.2-1.2 0-.5.5-1.1 1.2-1.1zm-4 0c.6 0 1.2.5 1.2 1.2 0 .6-.5 1.2-1.2 1.2-.6 0-1.2-.5-1.2-1.2 0-.6.6-1.2 1.2-1.2zm27.8-4.8c.6.8 1 1.8 1.3 2.9l-6-6.1c1.2.4 2.3.9 3.2 1.6l1.5 1.6zm-6.6-5.1c1 .2 1.7.7 1.7 1.8l-1.7-1.8zm1.7 22.9h1.6l3.1 3.1h-1.6l-3.1-3.1zm3.5 0h1.6l3.1 3.1h-1.6l-3.1-3.1zm3.5 0h1.6l3.1 3.1h-1.6l-3.1-3.1zM13.1 15.4c.1-4.4 2.8-6.8 6.4-7.9 0-1.3.9-1.8 2.1-1.9h.3v1.3l8.8 8.9.3 1.9-9.1-9.2v1.9l9.6 9.7.5 2-10.2-10.2v1.9l10.9 11c.4 1 .7 1.8 1 2.2h-.5L21.8 15.5v1.9l9.5 9.6h-1.6l-7.9-8v1.9l6 6.1h-1.6l-4.4-4.5v1.9l2.5 2.6h-1.6l-1-1v1H10c1-1.3 2.5-6.5 3.1-11.6zm8.7 20.5c-1.4 0-2.5-1.1-2.5-2.5v-.3h4l1 1c-.1.4-.3.7-.6 1l-1.9-1.9V35l.7.7-.7.2zM35 28.5l.6 1-1-1h.4zm-26.3 0h13.6l3.1 3.1h-1.6l-2-2v1.9l.1.1H6.8l1.9-3.1z"/></svg>