<svg version="1.1" id="Layer_1" xmlns="http://www.w3.org/2000/svg" x="0" y="0" viewBox="0 0 36 36" xml:space="preserve"><style>.st0{fill:#fff}</style><path class="st0" d="M4.9 20.8h2.9c.3 0 .6.2.6.5V23c0 .3-.3.5-.6.5H4.9c-.3 0-.6-.2-.6-.5v-1.7c0-.3.2-.5.6-.5m5.3-7.5h2.9c.3 0 .6.2.6.5v1.7c0 .3-.3.5-.6.5h-2.9c-.3 0-.6-.2-.6-.5v-1.7c0-.3.3-.5.6-.5zM5 5.5h2.9c.3 0 .6.2.6.5v1.7c0 .3-.3.5-.6.5H5c-.3 0-.6-.2-.6-.5V6c0-.3.3-.5.6-.5zm-.6-.9c-.5 0-1 .4-1 1v2.5c0 .5.4 1 1 1h20.3c.5 0 1-.4 1-1V5.6c0-.5-.4-1-1-1H4.4zM2.5.1h24c1.3 0 2.4 1.1 2.4 2.4v10.9c-.8-.4-1.9-.8-3.5-.6-.2-.3-.5-.4-.8-.4H4.4c-.5 0-1 .4-1 1v2.5c0 .5.4 1 1 1H19c-.7 1-1.1 2-1.4 3.1H4.4c-.5 0-1 .4-1 1v2.5c0 .5.4 1 1 1h12.2c-.2.6-.3 1.2-.6 1.8-.4 1.1-.9 2-1.4 2.8h-12C1.3 29.1.2 28 .2 26.7v-24C.1 1.2 1.2.1 2.5.1zm28.8 18.7c.4.6.7 1.2.9 2l-4.1-4.1c.8.3 1.5.6 2.2 1.1l1 1zm-4.5-3.5c.6.1 1.1.5 1.2 1.2l-1.2-1.2zM28 30.9h1l2.1 2.1H30l-2-2.1zm2.3 0h1.1l2.1 2.1h-1.1l-2.1-2.1zm2.4 0h1.1l2.1 2.1h-1.1l-2.1-2.1zM20.4 22c.1-3 1.9-4.6 4.3-5.4 0-.9.6-1.2 1.4-1.3h.2v.9l6 6.1.2 1.3-6.2-6.3v1.3l6.5 6.6.3 1.4-6.8-6.9V21l7.4 7.5c.2.7.5 1.2.7 1.5h-.3l-7.8-8v1.3l6.4 6.5h-1.1l-5.4-5.4v1.3l4.1 4.1h-1.1l-3-3v1.3l1.7 1.7H27l-.6-.7v.7h-8c.6-.8 1.6-4.4 2-7.8zm5.9 13.9c-.9 0-1.7-.8-1.7-1.7V34h2.7l.7.7c-.1.3-.2.5-.4.7L26.3 34v1.3l.5.5-.5.1zm9-5l.4.7-.7-.7h.3zm-17.9 0h9.2l2.1 2.1h-1.1l-1.3-1.4v1.3l.1.1H16.1l1.3-2.1z"/></svg>