<svg version="1.1" id="Layer_1" xmlns="http://www.w3.org/2000/svg" x="0" y="0" viewBox="0 0 36 36" xml:space="preserve"><style>.st0{fill:#fff}</style><path class="st0" d="M20.1 12.3V11.7c0-1-1-1.8-2.2-1.8-1.2 0-2.2.8-2.2 1.8v.5l1 10.8c0 .3.2.6.3.7.2.1.5.2.8.2.3 0 .5-.1.7-.2.2-.1.3-.4.3-.7l1.3-10.7M17.9 26c-1.1 0-2 .9-2 2.1 0 1.1.9 2.1 2 2.1s2-.9 2-2.1c.1-1.2-.9-2.1-2-2.1zM.1 29.4V29c0-.6.2-1.2.5-1.7L14.8 4.8c.5-.9 1.4-1.4 2.4-1.6 1.6-.4 3.3.3 4.2 1.6l14 22.6c.5.8.6 1.6.4 2.4-.2 1.7-1.8 3.1-3.7 3.1H3.9c-2.1 0-3.8-1.5-3.8-3.5z"/></svg>