<svg version="1.1" id="Layer_1" xmlns="http://www.w3.org/2000/svg" x="0" y="0" viewBox="0 0 36 36" xml:space="preserve"><style>.st0{fill:#fff}</style><path class="st0" d="M7.8 20H11v-3.1H7.8V20m3.2-4.3c0-.8.1-1.4.2-1.8.2-.3.6-.8 1.2-1.3 1.3-1 2.1-1.9 2.5-2.5.4-.6.6-1.3.6-1.9 0-1.2-.5-2.3-1.6-3.2-1.1-.9-2.5-1.4-4.3-1.4-1.7 0-3.1.4-4.1 1.4-1 .9-1.6 2-1.7 3.3l3.1.2c.2-.8.5-1.5 1-1.9C8.4 6.2 9 6 9.8 6c.8 0 1.4.2 1.8.6.5.4.7.9.7 1.5 0 .4-.1.8-.4 1.2-.2.2-.8.7-1.7 1.4s-1.6 1.4-1.9 2c-.3.6-.5 1.4-.5 2.3v.7H11zM3.1.1H22c1.6 0 3 1.3 3 3v.4c-4.7.1-8.5 5-8.5 11.1 0 2.6.7 5 1.8 6.9-1.8.3-3.5 1.7-5 3.5H3.1c-1.6 0-3-1.3-3-3V3.1c0-1.6 1.4-3 3-3zm21 27.3s2.3 3.3 4.2.5c0 0 4.6-8.1 7.5 4-1.3.3-2.4 1.9-2.6 4h-14c-.8-3.1-2.8-5.4-5.2-5.7 1.9-4.7 5.2-9.5 10.1-2.8zm1.4-20.5c3.3 0 6 3.5 6 7.9 0 4.3-2.7 7.9-6 7.9s-6-3.5-6-7.9 2.7-7.9 6-7.9z"/></svg>