<svg version="1.1" id="Layer_1" xmlns="http://www.w3.org/2000/svg" x="0" y="0" viewBox="0 0 36 36" xml:space="preserve"><style>.st0{fill:#fff}</style><path class="st0" d="M17.2 22.3h-6.9v-.6l1-.1.9-.1c.2-.1.4-.2.5-.3.1-.2.2-.4.2-.7v-7.3h-2.5v-.8h.6c.7 0 1.4-.1 2-.4.6-.3 1-.6 1.2-.9h.8v9.3c0 .2.1.5.2.6.1.2.2.3.4.4l.8.2.9.1v.6M2.4 27.5c-1.3 0-2.3-1-2.3-2.3V4.9c0-1.3 1-2.3 2.3-2.3h2.5v1c0 1.2 1 2.2 2.2 2.2 1.2 0 2.2-1 2.2-2.2v-1h9v1c0 1.2 1 2.2 2.2 2.2 1.2 0 2.2-1 2.2-2.2v-1h2.6c1.3 0 2.3 1 2.3 2.3v17.6h-1.8V7.4h-24v17.2c0 .6.5 1.1 1.1 1.1h.7v1.7H2.4zM20.5.1c.6 0 1.1.5 1.1 1.1v2.4c0 .5-.3 1-.8 1.1v-3c0-.2-.1-.3-.3-.3-.2 0-.3.1-.3.3v2.9c-.5-.1-.8-.6-.8-1.1V1.2c-.1-.6.4-1.1 1.1-1.1zM7 .1c.6 0 1.1.5 1.1 1.1v2.4c0 .5-.3 1-.8 1.1v-3c0-.2-.1-.3-.3-.3-.2 0-.3.1-.3.3v2.9c-.5-.1-.8-.5-.8-1V1.2C5.9.6 6.4.1 7 .1zm12.7 29.1c.4 0 .8.3.8.8 0 .4-.3.8-.8.8-.4 0-.8-.3-.8-.8 0-.4.3-.8.8-.8zm-2.1 0c.4 0 .8.3.8.8 0 .4-.3.8-.8.8-.4 0-.8-.3-.8-.8 0-.4.3-.8.8-.8zm-2.2 0c.4 0 .8.3.8.8 0 .4-.3.8-.8.8-.4 0-.8-.3-.8-.8 0-.4.4-.8.8-.8zm-2.1 0c.4 0 .8.3.8.8 0 .4-.3.8-.8.8-.4 0-.8-.3-.8-.8 0-.4.3-.8.8-.8zm10.6-1.9c.4 0 .8.3.8.8 0 .4-.3.8-.8.8-.4 0-.8-.3-.8-.8s.4-.8.8-.8zm-2.1 0c.4 0 .8.3.8.8 0 .4-.3.8-.8.8-.4 0-.8-.3-.8-.8s.3-.8.8-.8zm-2.1 0c.4 0 .8.3.8.8 0 .4-.3.8-.8.8-.4 0-.8-.3-.8-.8s.3-.8.8-.8zm-2.1 0c.4 0 .8.3.8.8 0 .4-.3.8-.8.8-.4 0-.8-.3-.8-.8s.3-.8.8-.8zm-2.2 0c.4 0 .8.3.8.8 0 .4-.3.8-.8.8-.4 0-.8-.3-.8-.8s.4-.8.8-.8zm-2.1 0c.4 0 .8.3.8.8 0 .4-.3.8-.8.8-.4 0-.8-.3-.8-.8s.3-.8.8-.8zm20.4-1.2H11.3v8.6h21.1l2.1-2.1v-5.7c0-.4-.4-.8-.8-.8zm-25.6 0c-.4 0-.7.3-.7.7 0 .4.3.7.7.7h2.4v-1.3H8.1zm-.2-1.2h26.5c.8 0 1.5.7 1.5 1.5v8.1c0 .8-.7 1.5-1.5 1.5H7.9c-.8 0-1.5-.7-1.5-1.5v-8.1c.1-.9.7-1.5 1.5-1.5z"/></svg>