<svg version="1.1" id="Layer_1" xmlns="http://www.w3.org/2000/svg" x="0" y="0" viewBox="0 0 36 36" xml:space="preserve"><style>.st0{fill:#fff}</style><path class="st0" d="M25.3 12c-1 0-1.8.8-1.8 1.9v17.4c0 1 .8 1.9 1.8 1.9s1.8-.8 1.8-1.9V13.9c.1-1.1-.8-1.9-1.8-1.9m-14.6 0c-1 0-1.8.8-1.8 1.9v17.4c0 1 .8 1.9 1.8 1.9s1.8-.8 1.8-1.9V13.9c0-1.1-.8-1.9-1.8-1.9zm7.3 0c-1 0-1.8.8-1.8 1.9v17.4c0 1 .8 1.9 1.8 1.9s1.8-.8 1.8-1.9V13.9c0-1.1-.8-1.9-1.8-1.9zm12.7 20.5c0 1.8-1.4 3.3-3.1 3.3H8.4c-1.7 0-3.1-1.5-3.1-3.3V9.4h25.5v23.1zM14.8.1h6.4c.2 0 .3.1.3.3v2.1c0 .2-.1.3-.3.3h-6.4c-.2 0-.3-.1-.3-.3V.4c0-.1.1-.3.3-.3zM4.3 4.3h27.5c.2 0 .3.1.3.3v2.8c0 .2-.1.3-.3.3H4.3c-.2 0-.3-.2-.3-.3V4.6c0-.1.1-.3.3-.3z"/></svg>