<svg version="1.1" id="Layer_1" xmlns="http://www.w3.org/2000/svg" x="0" y="0" viewBox="0 0 36 36" xml:space="preserve"><style>.st0{fill:#fff}</style><path class="st0" d="M5.8 3.1c-.6 0-1.1.5-1.1 1.1v.2c0 .6.5 1.1 1.1 1.1h11.5c.6 0 1.1-.5 1.1-1.1v-.1c0-.6-.5-1.1-1.1-1.1H5.8M3.4.1h17c.6 0 1.1.5 1.1 1.1v5.6h-8.2c-.7 0-1.3.4-1.6 1h-6c-.5.2-1.1.7-1.1 1.3v.2c0 .6.5 1.1 1.1 1.1h5.9v2.1H5.8c-.6 0-1.1.5-1.1 1.1v.2c0 .6.5 1.1 1.1 1.1h5.9v2H5.8c-.6 0-1.1.5-1.1 1.1v.2c0 .6.5 1.1 1.1 1.1h5.9V26H3.4c-.6 0-1.2-.5-1.2-1.1V1.3C2.3.7 2.8.1 3.4.1zm14.5 26.6c-.6 0-1.1.5-1.1 1.1v.2c0 .6.5 1.1 1.1 1.1h5.9c.6 0 1.2-.5 1.2-1.1v-.2c0-.6-.5-1.1-1.2-1.1h-5.9zm0-4.5c-.6 0-1.1.5-1.1 1.1v.2c0 .6.5 1.1 1.1 1.1h11.5c.6 0 1.2-.5 1.2-1.1v-.2c0-.6-.5-1.1-1.2-1.1H17.9zm0-4.6c-.6 0-1.1.5-1.1 1.1v.2c0 .6.5 1.1 1.1 1.1h11.5c.6 0 1.2-.5 1.2-1.1v-.2c0-.6-.5-1.1-1.2-1.1H17.9zm0-4.9c-.6 0-1.1.5-1.1 1.1v.2c0 .6.5 1.1 1.1 1.1h11.5c.6 0 1.2-.5 1.2-1.1v-.2c0-.6-.5-1.1-1.2-1.1H17.9zm-2.4-3h17c.6 0 1.1.5 1.1 1.1v23.8c0 .6-.5 1.1-1.1 1.1h-17c-.6 0-1.1-.5-1.1-1.1V10.9c0-.6.5-1.2 1.1-1.2z"/></svg>