<svg version="1.1" id="Layer_1" xmlns="http://www.w3.org/2000/svg" x="0" y="0" viewBox="0 0 36 36" xml:space="preserve"><style>.st0{fill:#fff}</style><path class="st0" d="M23.6 32.1h-2.9l3.7-2.9h2.9l-3.7 2.9m6.3 0H27l3.7-2.9h2.9l-3.7 2.9zm-.2-11.9c.1.7.2 1.3.3 1.9l-6.7 5.2h-2.8l9.2-7.1zm-8.9 12.9c0 .6-.2 1.2-.6 1.7l-1.1.9c-.3.1-.7.2-1.1.2-1.5 0-2.8-1.2-2.8-2.8 0-.3.1-.7.2-1H.2l.8-2.9h17v.1l.1-.1h2.8L18 31.5v2.7l2.6-2c.1.3.2.6.2.9zm15-1h-2.5l2-1.6.5 1.6zm-32-4.7c.7-.6 1.2-1.3 1.6-2.6.9-2.7 1.6-12.7 4.2-17.4 1.7-3.2 5-4.3 6.9-4.7-.1-.2-.2-.5-.2-.8 0-.9.8-1.7 1.7-1.7.5 0 1 .2 1.3.6l-1.3 1v2.7l2.1-1.6c.6.2 1.3.4 2 .7L18 6.7v2.7l6.1-4.7c.4.3.9.7 1.3 1.2L18 11.7v2.7l8.5-6.7c.3.5.5 1.1.7 1.7L18 16.6v2.7l9.9-7.8c.2.6.3 1.2.5 1.9L18 21.6v2.7l10.9-8.5c.1.7.3 1.4.4 2L18 26.6v.7H3.8zm26.8-2.6c.2.6.4 1 .6 1.4l-1.5 1.2h-2.9l3.7-2.9c0 .1 0 .2.1.3z"/></svg>