<svg version="1.1" id="Layer_1" xmlns="http://www.w3.org/2000/svg" x="0" y="0" viewBox="0 0 36 36" xml:space="preserve"><style>.st0{fill:#fff}</style><path class="st0" d="M17 12.5V11h-4.7v1.4H17m6.7.1V11H19v1.4h4.7zM19 4.3v1.4h4.7V4.3H19zm-6.7 0v1.4H17V4.3h-4.7zm-5.6 8.2h3.5V11H7.5c-.3 0-.5-.2-.5-.5V9.4H5.3v1.7c0 .8.6 1.4 1.4 1.4zm24-1.3V9.4H29v1.1c0 .3-.2.5-.5.5h-2.7v1.4h3.5c.8.1 1.4-.5 1.4-1.2zm-1.4-6.9h-3.5v1.4h2.7c.3.1.5.3.5.6v1.1h1.6V5.7c.1-.8-.5-1.4-1.3-1.4zm-22.6 0c-.7 0-1.3.6-1.3 1.3v1.7H7v-1c0-.3.2-.5.5-.5h2.7V4.3H6.7zM17 22.1v-1.4h-4.7v1.4H17zm6.7 0v-1.4H19v1.4h4.7zM19 13.9v1.4h4.7v-1.4H19zm-6.7 0v1.4H17v-1.4h-4.7zm-5.6 8.2h3.5v-1.4H7.5c-.3 0-.5-.2-.5-.5V19H5.3v1.7c0 .8.6 1.4 1.4 1.4zm24-1.3V19H29v1.1c0 .3-.2.5-.5.5h-2.7V22h3.5c.8.1 1.4-.5 1.4-1.2zm-1.4-6.9h-3.5v1.4h2.7c.3 0 .5.2.5.5V17h1.6v-1.7c.1-.8-.5-1.4-1.3-1.4zm-22.6 0c-.7 0-1.3.6-1.3 1.3V17H7v-1.1c0-.3.2-.5.5-.5h2.7V14H6.7zm1.6 2.5c-.1 0-.3.1-.3.3v2.6c0 .1.1.3.3.3h19.4c.1 0 .3-.1.3-.3v-2.6c0-.1-.1-.3-.3-.3H8.3zM17 31.7v-1.4h-4.7v1.4H17zm6.7 0v-1.4H19v1.4h4.7zM19 23.5V25h4.7v-1.4H19zm-6.7 0V25H17v-1.4h-4.7zm-5.6 8.2h3.5v-1.4H7.5c-.3-.1-.5-.3-.5-.6v-1.1H5.3v1.7c0 .8.6 1.4 1.4 1.4zm24-1.4v-1.7H29v1.1c0 .3-.2.5-.5.5h-2.7v1.4h3.5c.8.1 1.4-.5 1.4-1.3zm-1.4-6.8h-3.5V25h2.7c.3 0 .5.2.5.5v1.1h1.6v-1.7c.1-.8-.5-1.4-1.3-1.4zm-22.6 0c-.7 0-1.3.6-1.3 1.3v1.7H7v-1.1c0-.2.2-.4.5-.4h2.7v-1.4H6.7zM2.4 0h31.1C34.9 0 36 1.1 36 2.4v31.1c0 1.3-1.1 2.4-2.4 2.4H2.4c-1.3 0-2.4-1.1-2.4-2.4V2.4C.1 1.1 1.1 0 2.4 0z"/></svg>