<svg version="1.1" id="Layer_1" xmlns="http://www.w3.org/2000/svg" x="0" y="0" viewBox="0 0 36 36" xml:space="preserve"><style>.st0{fill:#fff}</style><path class="st0" d="M27.1 20.9l.8 1.5-6.6 2.8 2.8-4.2h3m-18.3-.1H18.1l-1.9 5.9c-1.2.3-2 .8-2 1.4 0 .8 1.6 1.5 3.6 1.5.8 0 1.6-.1 2.2-.3l10.8-2 4.8 8.3H.3l8.5-14.8zm9.9 7.2c-.3.5-.8.6-1.5.4-.7-.2-.8-.8-.6-1.3l5.2-14.3.6.4-4.9 13.4c0 .2 0 .2.1.3.1.1.3 0 .3-.1l5.5-13.1c.6.3 1.2.5 1.9.6l-6.6 13.7zm10-26c-1.3-.6-2.8 0-3.4 1.3-.6 1.3 0 2.8 1.3 3.4 1.3.6 2.8 0 3.4-1.3.6-1.3 0-2.8-1.3-3.4zm.6-1.2c3.2 1.4 4.7 5.2 3.2 8.4-1.4 3.2-5.2 4.7-8.4 3.2-3.2-1.4-4.7-5.2-3.2-8.4C22.3.9 26-.5 29.3.9zm-.8 1.6c.8.3 1.1 1.3.8 2-.3.8-1.3 1.1-2 .8-.8-.3-1.1-1.3-.8-2 .3-.8 1.3-1.1 2-.8z"/></svg>