<svg version="1.1" id="Layer_1_copy" xmlns="http://www.w3.org/2000/svg" x="0" y="0" viewBox="0 0 36 36" xml:space="preserve"><style>.st3{fill:#f6921e!important}path,polygon{fill:#675980}</style><path d="M18 .1c9.9 0 17.9 8 17.9 17.9 0 9.9-8 17.9-17.9 17.9S.1 27.9.1 18C.1 8.1 8.1.1 18 .1"/><path class="st3" d="M24.8 26.1c0 .3-.3.6-.6.6H11.8c-.3 0-.6-.3-.6-.6V18l-1.4 1c-.2.2-.6.1-.8-.1l-1.2-1.7c-.1-.2-.1-.6.2-.8l3.2-2.3v-2.9c0-.3.3-.6.6-.6h1.5c.3 0 .6.3.6.6v.9l3.8-2.7.3-.1.3.1 9.7 7c.2.2.3.5.1.8L27 18.9c-.2.2-.5.3-.8.1l-1.4-1v8.1"/><path d="M27.6 19.3L18 12.5v-.1.1l-9.6 6.8.6.9 9-6.4 9 6.4z"/></svg>