<svg version="1.1" id="Layer_1" xmlns="http://www.w3.org/2000/svg" x="0" y="0" viewBox="0 0 36 36" xml:space="preserve"><style>.st0{fill:#d1c3e0}</style><path class="st0" d="M8.8 17.9c.6-.6 1.4-.6 2 0l5.6 5.6V9.2c0-.9.7-1.5 1.5-1.5s1.5.7 1.5 1.5v14.3l5.6-5.6c.6-.6 1.4-.6 2 0 .6.6.6 1.5 0 2L18.9 28c-.3.3-.6.4-1 .4s-.7-.1-1-.4l-8.1-8.1c-.6-.5-.6-1.4 0-2m9.1-15.1C9.5 2.8 2.6 9.6 2.6 18c0 8.4 6.8 15.3 15.3 15.3S33.2 26.5 33.2 18c0-8.4-6.9-15.2-15.3-15.2zm.1 33.1C8.1 35.9.1 27.9.1 18S8.1.1 18 .1s17.9 8 17.9 17.9-8 17.9-17.9 17.9z"/></svg>