<svg version="1.1" id="Layer_1" xmlns="http://www.w3.org/2000/svg" x="0" y="0" viewBox="0 0 36 36" xml:space="preserve"><style>.st0{fill-rule:evenodd;clip-rule:evenodd;fill:#64ff00}.st1{fill:#fff}</style><path class="st0" d="M7.7 16.6s5.5 4.4 6.5 8.8h3.5s4-14.7 18.2-19.2l-.5-1.7S22.9 6.6 15.9 18.8c0 0-1.5-4-5-5.6l-3.2 3.4"/><path class="st1" d="M15.9 2.3c3.5 0 6.7 1.1 9.3 3-.8.5-1.5 1-2.3 1.6-2-1.3-4.4-2-7-2C8.6 4.9 2.7 10.7 2.7 18s5.9 13.1 13.1 13.1S29 25.3 29 18c0-1.3-.2-2.5-.5-3.7.7-.7 1.4-1.3 2.1-2 .7 1.8 1.1 3.7 1.1 5.7 0 8.7-7 15.7-15.7 15.7C7.2 33.7.1 26.7.1 18S7.2 2.3 15.9 2.3"/></svg>