<svg version="1.1" id="Layer_1" xmlns="http://www.w3.org/2000/svg" x="0" y="0" viewBox="0 0 36 36" xml:space="preserve"><style>.st0{fill:#fff}</style><path class="st0" d="M22.7 9c.7-.7 1.7-.8 2.2-.3l2.4 2.4c.5.5.4 1.5-.3 2.2l-1 1-4.3-4.3 1-1m-14 17.3l2.8-5.9.1-.2c.1-.2.2-.4.4-.6l8.7-8.7 4.4 4.4-8.7 8.7c-.2.2-.4.3-.6.4l-.2.1-5.9 2.8c-.3.1-.6.1-.9-.2-.2-.1-.3-.5-.1-.8zM18 2.8C9.5 2.8 2.7 9.6 2.7 18.1S9.5 33.4 18 33.4s15.3-6.9 15.3-15.3S26.4 2.8 18 2.8zm0-2.7c9.9 0 17.9 8 17.9 17.9 0 9.9-8 17.9-17.9 17.9S.1 27.9.1 18C.1 8.1 8.1.1 18 .1z"/></svg>