<svg version="1.1" id="Layer_1" xmlns="http://www.w3.org/2000/svg" x="0" y="0" viewBox="0 0 36 36" xml:space="preserve"><style>.st0{fill:#e0d7f2}</style><path class="st0" d="M18 6.9c1.3 0 2.3 1.1 2.3 2.3 0 1.3-1.1 2.3-2.3 2.3-1.3 0-2.3-1.1-2.3-2.3 0-1.3 1-2.3 2.3-2.3m0 6.2c1.3 0 2.3 1 2.3 2.3v11.5c0 1.3-1 2.3-2.3 2.3-1.3 0-2.3-1-2.3-2.3V15.4c0-1.3 1-2.3 2.3-2.3zm0-10.3C9.5 2.8 2.7 9.7 2.7 18.1S9.5 33.4 18 33.4s15.3-6.8 15.3-15.3C33.2 9.7 26.4 2.8 18 2.8zm0-2.7c9.9 0 17.9 8 17.9 17.9 0 9.9-8 17.9-17.9 17.9S.1 27.9.1 18C.1 8.1 8.1.1 18 .1z"/></svg>