<svg version="1.1" id="Layer_1" xmlns="http://www.w3.org/2000/svg" x="0" y="0" viewBox="0 0 36 36" xml:space="preserve"><style>.st0{fill:#fff}</style><path class="st0" d="M28.7 16.8h3.6c.3 0 .5.2.5.4v2.7c0 .2-.2.4-.5.4h-3.6c-.3 0-.5-.2-.5-.4v-2.7c0-.2.2-.4.5-.4m-2.1 0c.3 0 .5.2.5.4v2.7c0 .2-.2.4-.5.4h-2.9c.7-1 1.2-2.2 1.4-3.5h1.5zm2.1 4.2h3.6c.3 0 .5.2.5.4v2.7c0 .2-.2.4-.5.4h-3.6c-.3 0-.5-.2-.5-.4v-2.7c0-.2.2-.4.5-.4zm-2.1 0c.3 0 .5.2.5.4v2.7c0 .2-.2.4-.5.4H23c-.3 0-.5-.2-.5-.4v-2.3l.6-.7h3.5zm-5.2 3.1c0 .2-.2.4-.5.4h-2.4c1-.4 2-1 2.9-1.7v1.3zm7.3 1.2h3.6c.3 0 .5.2.5.4v2.7c0 .2-.2.4-.5.4h-3.6c-.3 0-.5-.2-.5-.4v-2.7c0-.2.2-.4.5-.4zm-5.7 0h3.6c.3 0 .5.2.5.4v2.7c0 .2-.2.4-.5.4H23c-.3 0-.5-.2-.5-.4v-2.7c0-.2.2-.4.5-.4zm-5.7 0h3.6c.3 0 .5.2.5.4v2.7c0 .2-.2.4-.5.4h-3.6c-.3 0-.5-.2-.5-.4v-2.7c.1-.2.3-.4.5-.4zm-5.7 0h3.6c.3 0 .5.2.5.4v2.7c0 .2-.2.4-.5.4h-3.6c-.3 0-.5-.2-.5-.4v-2.7c0-.2.3-.4.5-.4zM23 29.5h3.6c.3 0 .5.2.5.4v2.7c0 .2-.2.4-.5.4H23c-.3 0-.5-.2-.5-.4v-2.7c0-.2.2-.4.5-.4zm-5.7 0h3.6c.3 0 .5.2.5.4v2.7c0 .2-.2.4-.5.4h-3.6c-.3 0-.5-.2-.5-.4v-2.7c.1-.2.3-.4.5-.4zm-5.7 0h3.6c.3 0 .5.2.5.4v2.7c0 .2-.2.4-.5.4h-3.6c-.3 0-.5-.2-.5-.4v-2.7c0-.2.3-.4.5-.4zm-1.1 6.3c-1.3 0-2.3-1-2.3-2.3V23.1c.6.4 1.2.8 1.8 1.1V33c0 .6.5 1.2 1.2 1.2H33c.6 0 1.2-.5 1.2-1.2V16.9c0-.6-.5-1.2-1.2-1.2h-7.6l.1-1.2c0-1.3-.2-2.6-.7-3.8h1.9v1c0 1.2 1 2.2 2.2 2.2s2.2-1 2.2-2.2v-1h2.6c1.3 0 2.3 1 2.3 2.3v20.5c0 1.3-1 2.3-2.3 2.3H10.5zM28.7 8.2c.6 0 1.2.5 1.2 1.2v2.4c0 .5-.3 1-.8 1.1v-3c0-.2-.1-.3-.3-.3s-.3.1-.3.3v3c-.5-.1-.8-.6-.8-1.1V9.3c-.1-.6.4-1.1 1-1.1zM8.8 6.8v.8l-.6.5c-.3 0-.5-.5-.5-1.3 0-.3.1-.6.2-.9.1-.2.3-.4.4-.4.2 0 .3.1.4.4.1.3.1.6.1.9zM6.3 4.7H4.2l-.4 2h.6c.7 0 1 .3 1 .7 0 .5-.3.7-.9.7-.3 0-.5-.1-.8-.2v.9l.8.2c.5 0 .8-.2 1.2-.4.3-.3.5-.7.5-1.2 0-.4-.1-.7-.4-1-.2-.2-.6-.3-1-.3l.2-.5h1.1l.2-.9zm.4-1.9c-1.1 0-2.1.5-2.9 1.2l.9-.2c.6-.4 1.3-.6 2-.6s1.4.2 2 .6l.9.2c-.7-.8-1.7-1.2-2.9-1.2zm0-.8c2.4 0 4.4 1.7 4.8 4-.6.2-1.2.5-1.8.9 0-.6-.1-1.1-.4-1.5-.2-.5-.6-.7-1.1-.7-.5 0-.8.2-1.1.6-.2.4-.3.9-.3 1.5s.1 1.2.4 1.6c.1.2.3.3.4.4-.5.6-.9 1.2-1.2 1.8-.6-.1-1.2-.3-1.7-.6l-.8-.2c.6.6 1.5 1 2.4 1.2l-.3.7c-2.3-.4-4.1-2.4-4.1-4.8C1.9 4.2 4.1 2 6.7 2zM6.8.3c3.2 0 5.8 2.3 6.4 5.2l-.9.2c-.5-2.6-2.8-4.6-5.6-4.6C3.6 1.2 1 3.7 1 6.9c0 2.8 2 5.1 4.7 5.6l-.2.8c-3-.6-5.3-3.2-5.3-6.5C.2 3.2 3.1.3 6.8.3zM5 17.5l.3 1.7-1.5-.8-1.5.8.3-1.7-1.2-1.2 1.7-.3.7-1.6.7 1.6 1 .1.1.7-.6.7zM22 2.6l-1.6 1.6.4 2.2-1.9-1.1-1 .5-.8-.2.2-1.5-1.6-1.6 2.1-.3 1-2 1 2 2.2.4zm-3.1 12.2c0 1.1-.2 1.6-.7 1.6-.5 0-.7-.5-.7-1.6 0-.4.1-.8.2-1.1.1-.3.3-.5.5-.5s.4.2.5.5c.2.3.2.6.2 1.1zm1.1 0c0-.7-.2-1.3-.5-1.8s-.8-.8-1.4-.8c-.6 0-1 .3-1.4.8-.3.5-.5 1.1-.5 1.8 0 .8.2 1.5.5 2s.8.8 1.4.8c.6 0 1-.3 1.4-.8.4-.6.5-1.2.5-2zm-5.2 0c0 1.1-.2 1.6-.7 1.6-.5 0-.7-.5-.7-1.6 0-.4.1-.8.2-1.1.1-.3.3-.5.5-.5s.4.2.5.5c.2.3.2.6.2 1.1zm1.1 0c0-.7-.2-1.3-.5-1.8s-.8-.8-1.4-.8c-.6 0-1 .3-1.4.8-.3.5-.5 1.1-.5 1.8 0 .8.2 1.5.5 2s.8.8 1.4.8c.6 0 1-.3 1.4-.8.4-.6.5-1.2.5-2zm-4.2 2.6v-5.1h-.9c-.2.5-.6.9-1.1 1.2v1.2l.5-.2.4-.2v3.2h1.1zm3.1 2.5c1.4 0 2.7-.6 3.6-1.5l-1.1.3c-.7.5-1.6.7-2.5.7-.9 0-1.8-.3-2.5-.7l-1.1-.3c1 1 2.2 1.5 3.6 1.5zm0-10.1c-1.4 0-2.7.6-3.6 1.5l1.1-.3c.7-.5 1.6-.7 2.5-.7.9 0 1.8.3 2.5.7l1.1.3c-.9-1-2.2-1.5-3.6-1.5zm0-1c3.3 0 6 2.7 6 6s-2.7 6-6 6-6-2.7-6-6 2.7-6 6-6zm0-1c-3.9 0-7.1 3.2-7.1 7.1s3.2 7.1 7.1 7.1 7.1-3.2 7.1-7.1-3.2-7.1-7.1-7.1zm0-1.1c4.5 0 8.1 3.6 8.1 8.1s-3.6 8.1-8.1 8.1-8.1-3.6-8.1-8.1 3.6-8.1 8.1-8.1z"/></svg>