<svg version="1.1" id="Layer_1" xmlns="http://www.w3.org/2000/svg" x="0" y="0" viewBox="0 0 36 36" xml:space="preserve"><style>.st0{fill:#fff}</style><path class="st0" d="M34.9 26.5l.5 1.5-8.1 7.9h-1.2l.2-1 8.6-8.4M23 .1l-1 1-.5-.7L23 .1zm5.9 3.1l.7 1.3-5.3 5.2-.1-1.8 4.7-4.7zm-1.8-1.9c.4.3.7.6 1.1.9l-4.1 4.1-.4-1.6 3.4-3.4zm6.1 25.2l-3.4 3.4-.4-1.6 4.3-4.3.7 1.3-1.2 1.2zm-3.7 0l-.5.5-.5-1.5 3.3-3.3c.4.2.8.5 1.1.9l-3.4 3.4zm-1.3-11.6l2.2-2.1c-.9 3.2-3.1 5.5-5.9 5.9l3.7-3.8zm1.9-9.3c.2.5.3 1 .4 1.6L23.7 14c.2-.8.4-1.6.5-2.5l5.9-5.9zm5.8 24.2C34.7 30 33.5 32 33 34l-2.1 1.9h-2l6.8-6.6.2.5zM30.4 22l-2.3 2.3-.2-.5c.6-.8 1.5-1.6 2.5-1.8zM24.6.2c.5.1 1 .3 1.5.5l-2.9 2.9-.6-1.4 2-2zm6.2 9.2l-.1 1.2-5.3 5.3-2 2.1c-.4-.2-.8-.3-1.2-.3l.6-1.2 7.9-7.9.1.8zM12.5 25.2s2.8 4 5.1.6c0 0 5.6-9.8 9.2 4.9-1.6.3-2.5 2.7-2.8 5.2H6.8c-.9-3.8-3.8-7-6.7-7.4 2.3-5.7 6.4-11.5 12.4-3.3zm1.7-25c4.1 0 7.4 4.3 7.4 9.6s-3.3 9.6-7.4 9.6S6.8 15 6.8 9.7 10.1.2 14.2.2z"/></svg>