<svg version="1.1" id="Layer_1" xmlns="http://www.w3.org/2000/svg" x="0" y="0" viewBox="0 0 36 36" xml:space="preserve"><style>.st0{fill:#fff}</style><path class="st0" d="M35.9 26.3c0 .8-.7 1.5-1.5 1.5h-4.6c-.8 0-1.5-.7-1.5-1.5V.1h7.5v26.2m-9.2.1c0 .8-.7 1.5-1.5 1.5h-4.6c-.8 0-1.5-.7-1.5-1.5V.1h7.5v26.3zM17 16.9c0 .8-.7 1.5-1.5 1.5h-4.6c-.8 0-1.5-.7-1.5-1.5V.1H17v16.8zm-9.3 0c0 .8-.7 1.5-1.5 1.5H1.6c-.8 0-1.5-.7-1.5-1.5V.1h7.5v16.8zm21.8 19h-2.1l5.8-5.8h1.4l.8-.1-5.9 5.9zm-18.6 0H8.7l8.6-8.6c0 .6.2 1.2.6 1.6l-7 7zm13.9 0h-2.1l6-6c.3.1.6.1.9.1h1.1l-5.9 5.9zm-4.6 0H18l5.8-5.8h1.5l.7-.1-5.8 5.9zm-4.7 0h-2.1l5.9-5.9c.3.1.6.1.9.1h1l-5.7 5.8zm-9.4 0h-2l13.2-13.2v2L6.1 35.9zm-4.2-.3c-.5-.2-.8-.6-1.1-1l14-14h1c.6 0 1.1-.2 1.6-.5L1.9 35.6zm-1.7-3v-2.1l9.9-9.9h2L.2 32.6zm0-4.7v-2.1l5.2-5.2h1c.5 0 1-.1 1.5-.4L.2 27.9zm0-4.6v-2.1l.6-.6.6.1h1.5L.2 23.3zm35.6 9.6c0 .8-.3 1.5-.8 2l-.1.1c-.5.5-1.3.8-2 .8H32l3.9-3.9v1z"/></svg>