<svg version="1.1" id="Layer_1" xmlns="http://www.w3.org/2000/svg" x="0" y="0" viewBox="0 0 36 36" xml:space="preserve"><style>.st0{fill:#fff}</style><path class="st0" d="M12.7 19.7L8 23.4c-.3.3-.4.7-.2 1l.4.6 6.1-4.3-.6-.8c-.2-.2-.7-.3-1-.2z"/><path class="st0" d="M9.7 26.5c2.7 1.1 7.6-.9 11.7-5s6.1-9 5-11.6c-.1-.3-.3-.7-.6-.9l-.1-.1-4.5 5.9c.5.3 1.1.4 1.8.4-.8 1.5-1.9 3.1-3.4 4.6-1.4 1.5-3 2.6-4.6 3.4.1-.7 0-1.3-.3-1.8l-.1-.1-6.1 4.3.1.1c.2.2.8.7 1.1.8z"/><path class="st0" d="M20.6 14.3l4.6-5.8-.8-.6c-.3-.2-.7-.1-1 .2l-3.7 4.7c-.2.4-.2.8.1 1l.8.5z"/></svg>