<svg version="1.1" id="Layer_1" xmlns="http://www.w3.org/2000/svg" x="0" y="0" viewBox="0 0 36 36" xml:space="preserve"><style>.st0{fill:#fff}</style><path class="st0" d="M14.6 16c.2.2.4.2.6 0l3.7-3.7c.2-.2.2-.4 0-.6-.2-.2-.4-.2-.6 0l-3.7 3.7c-.2.2-.2.4 0 .6zM15 13.8l1.7-1.7c.2-.2.2-.4 0-.6s-.4-.2-.6 0l-1.7 1.7c-.1.2-.1.4 0 .6.2.2.4.2.6 0z"/><path class="st0" d="M13.6 8.1c-.9 0-1.7.7-1.7 1.6v16.8c0 .9.8 1.7 1.7 1.7h8.7c.9 0 1.7-.8 1.7-1.7V9.8c0-.9-.8-1.7-1.7-1.7h-8.7zm3.1.8h2.6c.2 0 .4.2.4.4s-.2.4-.4.4h-2.6c-.2 0-.4-.2-.4-.4s.2-.4.4-.4zM18 27.6c-.5 0-.9-.4-.9-.9s.4-.9.9-.9.9.4.9.9-.4.9-.9.9zm4.4-2.5h-9V10.6h9v14.5z"/></svg>