<svg version="1.1" id="Layer_1" xmlns="http://www.w3.org/2000/svg" x="0" y="0" viewBox="0 0 36 36" xml:space="preserve"><style>.st0{fill:#e0d7f2}</style><path class="st0" d="M22.4 14.1c.6 0 1.1.5 1.1 1.2v11.1c0 .7-.5 1.2-1.1 1.2s-1.1-.5-1.1-1.2V15.3c0-.6.5-1.2 1.1-1.2m-8.8 0c.6 0 1.1.5 1.1 1.2v11.1c0 .7-.5 1.2-1.1 1.2s-1.1-.5-1.1-1.2V15.3c0-.6.5-1.2 1.1-1.2zm4.4 0c.6 0 1.1.5 1.1 1.2v11.1c0 .7-.5 1.2-1.1 1.2-.6 0-1.1-.5-1.1-1.2V15.3c0-.6.5-1.2 1.1-1.2zm7.7 13.2V12.5H10.3v14.9c0 1.2.8 2.1 1.9 2.1h11.6c1 0 1.9-1 1.9-2.2zM16.1 6.5c-.1 0-.2.1-.2.2V8c0 .1.1.2.2.2H20c.1 0 .2-.1.2-.2V6.7c0-.1-.1-.2-.2-.2h-3.9zM9.7 9.2c-.1 0-.2.1-.2.2v1.8c0 .1.1.2.2.2h16.6c.1 0 .2-.1.2-.2V9.4c0-.1-.1-.2-.2-.2H9.7zM18 .1c9.9 0 17.9 8 17.9 17.9s-8 17.9-17.9 17.9S.1 27.9.1 18 8.1.1 18 .1z"/></svg>