<svg version="1.1" id="Layer_2" xmlns="http://www.w3.org/2000/svg" x="0" y="0" viewBox="0 0 36 36" xml:space="preserve"><style>.st0{fill:#fff}</style><path class="st0" d="M31.1 0h-26C2.3 0 0 2.3 0 5.1v26C0 33.8 2.2 36 4.9 36H31c2.7 0 4.9-2.2 4.9-4.9V4.9C36 2.2 33.8 0 31.1 0zm2.4 31.1c0 1.3-1.1 2.4-2.4 2.4H4.9c-1.3 0-2.4-1.1-2.4-2.4v-26c0-1.4 1.2-2.6 2.6-2.6h26c1.3 0 2.4 1.1 2.4 2.4v26.2z"/><path class="st0" d="M9.2 13.5c-1.2 0-2.2 1-2.2 2.2 0 1.2 1 2.2 2.2 2.2 1.2 0 2.2-1 2.2-2.2 0-1.2-1-2.2-2.2-2.2zM26.8 13.5c-1.2 0-2.2 1-2.2 2.2 0 1.2 1 2.2 2.2 2.2 1.2 0 2.2-1 2.2-2.2 0-1.2-1-2.2-2.2-2.2zM15.2 13.5c-1.2 0-2.2 1-2.2 2.2 0 1.2 1 2.2 2.2 2.2 1.2 0 2.2-1 2.2-2.2-.1-1.2-1-2.2-2.2-2.2zM21 13.5c-1.2 0-2.2 1-2.2 2.2 0 1.2 1 2.2 2.2 2.2 1.2 0 2.2-1 2.2-2.2 0-1.2-1-2.2-2.2-2.2zM9.2 19.4c-1.2 0-2.2 1-2.2 2.2 0 1.2 1 2.2 2.2 2.2 1.2 0 2.2-1 2.2-2.2 0-1.2-1-2.2-2.2-2.2zM15.2 19.4c-1.2 0-2.2 1-2.2 2.2 0 1.2 1 2.2 2.2 2.2 1.2 0 2.2-1 2.2-2.2-.1-1.2-1-2.2-2.2-2.2zM21 19.4c-1.2 0-2.2 1-2.2 2.2 0 1.2 1 2.2 2.2 2.2 1.2 0 2.2-1 2.2-2.2 0-1.2-1-2.2-2.2-2.2zM9.2 25.3c-1.2 0-2.2 1-2.2 2.2 0 1.2 1 2.2 2.2 2.2 1.2 0 2.2-1 2.2-2.2 0-1.2-1-2.2-2.2-2.2zM15.2 25.3c-1.2 0-2.2 1-2.2 2.2 0 1.2 1 2.2 2.2 2.2 1.2 0 2.2-1 2.2-2.2-.1-1.2-1-2.2-2.2-2.2zM21 25.3c-1.2 0-2.2 1-2.2 2.2 0 1.2 1 2.2 2.2 2.2 1.2 0 2.2-1 2.2-2.2 0-1.2-1-2.2-2.2-2.2zM26.8 19.4c-1.2 0-2.2 1-2.2 2.2v6c.1 1.1 1 2.1 2.2 2.1 1.2 0 2.1-.9 2.2-2.1v-6c-.1-1.2-1-2.2-2.2-2.2zM26.8 6.3H9.2C8 6.3 7 7.3 7 8.5c0 1.2 1 2.2 2.2 2.2h17.6c1.2 0 2.2-1 2.2-2.2 0-1.2-1-2.2-2.2-2.2zM15 9.5c-.5 0-.9-.4-.9-.9s.4-.9.9-.9.9.4.9.9-.4.9-.9.9zm2.8 0c-.5 0-.9-.4-.9-.9s.4-.9.9-.9.9.4.9.9-.4.9-.9.9zm2.8 0c-.5 0-.9-.4-.9-.9s.4-.9.9-.9.9.4.9.9-.4.9-.9.9zm2.8 0c-.5 0-.9-.4-.9-.9s.4-.9.9-.9.9.4.9.9-.4.9-.9.9zm2.8 0c-.5 0-.9-.4-.9-.9s.4-.9.9-.9.9.4.9.9-.5.9-.9.9z"/></svg>