<svg version="1.1" id="Layer_2" xmlns="http://www.w3.org/2000/svg" x="0" y="0" viewBox="0 0 36 36" xml:space="preserve"><style>.st0{fill:#fff}</style><path class="st0" d="M10.1 7.9h.7v20.2h-.7zM7.9 7.9H9v20.2H7.9zM13.4 7.9h3v20.2h-3zM23.1 7.9h.7v20.2h-.7zM21.1 7.9h1.1v20.2h-1.1zM11.6 7.9h.7v20.2h-.7zM24.8 7.9h1.1v20.2h-1.1zM27 7.9h1.1v20.2H27zM17.3 7.9h.7v20.2h-.7zM18.9 7.9H20v20.2h-1.1zM0 18.6h2.5v5.6H0zM10.8 0h5.6v2.5h-5.6zM10.8 33.5h5.6V36h-5.6zM19.4 33.5H25V36h-5.6zM0 9.9h2.5v5.6H0zM28 2.5h3c1.3 0 2.4 1.1 2.4 2.4v2H36v-2C36 2.2 33.8 0 31.1 0h-3v2.5zM7.8 33.5H4.9c-1.3 0-2.4-1.1-2.4-2.4v-3.9H0v3.9C0 33.8 2.2 36 4.9 36h2.9v-2.5zM33.5 27.2v3.9c0 1.3-1.1 2.4-2.4 2.4h-3V36h3c2.7 0 4.9-2.2 4.9-4.9v-3.9h-2.5zM2.5 6.9V5.1c0-1.4 1.2-2.6 2.6-2.6h2.7V0H5.1C2.3 0 0 2.3 0 5.1v1.8h2.5zM19.4 0H25v2.5h-5.6zM33.5 18.6H36v5.6h-2.5zM33.5 9.9H36v5.6h-2.5z"/></svg>