<svg version="1.1" id="Layer_1" xmlns="http://www.w3.org/2000/svg" x="0" y="0" viewBox="0 0 36 36" xml:space="preserve"><style>.st0{fill:#fff}</style><path class="st0" d="M32.2 19.5l1.2-1.5.3 1.9-1.1 2.1-.4-2.5m-7.1 16.4l-1.5-.8-.6-4.2 1.2-1.4.9 6.4zM31.6 24l-1.1 2.1-.6-3.7 1.2-1.5.5 3.1zm-2.2 4l-1.1 2.1-.8-5 1.2-1.5.7 4.4zm-2.1 4.1l-1.1 2.1-1-6.2 1.2-1.5.9 5.6zM35 16l-1.2-4.2-.8-4.9 2 3.8.8 5.1-1.1 2.1-.2-1.3.5-.6zM20.7 33.6l1.1-1.4.3 2.1-1.4-.7zM16.8 22c.6-.6 1.2-1 1.5-1.1.3-.1.5 0 .7.2.2.2.3.4.2.7-.1.4-.4.9-1.1 1.5-.6.6-1.2 1-1.5 1.1-.3.1-.5 0-.7-.2-.2-.2-.3-.4-.2-.7.1-.4.5-.9 1.1-1.5zm-1.5-1.5c-.9.9-1.4 1.8-1.4 2.6s.3 1.6 1 2.2c.7.7 1.4 1 2.3.9.8 0 1.7-.5 2.6-1.4.9-.9 1.4-1.7 1.4-2.6 0-.8-.3-1.6-1-2.2-.7-.7-1.4-1-2.3-.9-.8 0-1.7.5-2.6 1.4zm-5.5-.1l15.9-5.5-1.5-1.5-15.9 5.5 1.5 1.5zm5.8-10.1c.6-.6 1.2-1 1.5-1.1.3-.1.5 0 .7.2.2.2.3.4.2.7-.1.4-.4.8-1.1 1.5-.6.6-1.2 1-1.5 1.1-.3.1-.5 0-.7-.2-.2-.2-.3-.4-.2-.7 0-.4.4-.9 1.1-1.5zM14 8.8c-.9.9-1.4 1.8-1.4 2.6s.3 1.6 1 2.2c.7.7 1.4 1 2.3.9.8-.1 1.7-.5 2.6-1.4.9-.9 1.4-1.8 1.4-2.6s-.3-1.6-1-2.2c-.7-.7-1.4-1-2.3-.9-.8.1-1.7.5-2.6 1.4zm14.4-3.4c-.7-.7-1.9-.7-2.7 0-.7.7-.7 1.9 0 2.6.7.7 1.9.7 2.7 0 .8-.7.8-1.9 0-2.6zm-1.2 16.8l-11.1 11-16-15.5 11.1-11L17.9.1 29.6 2c.5.1 1 .3 1.4.7.4.4.7.9.7 1.4l2 11.5-6.5 6.6z"/></svg>