<svg version="1.1" id="Layer_2" xmlns="http://www.w3.org/2000/svg" x="0" y="0" viewBox="0 0 36 36" xml:space="preserve"><style>.st0{fill:#fff}</style><path class="st0" d="M31.1 0h-26C2.3 0 0 2.3 0 5.1v26C0 33.8 2.2 36 4.9 36H31c2.7 0 4.9-2.2 4.9-4.9V4.9C36 2.2 33.8 0 31.1 0zm2.4 31.1c0 1.3-1.1 2.4-2.4 2.4H4.9c-1.3 0-2.4-1.1-2.4-2.4v-26c0-1.4 1.2-2.6 2.6-2.6h26c1.3 0 2.4 1.1 2.4 2.4v26.2z"/><path class="st0" d="M18.4 17.9c-.3 0-.4.3-.4.6l.2.9c-.9-.7-2.2-1.1-3.6-.8-2.2.4-3.7 2.2-3.4 4 .3 1.8 2.4 3 4.6 2.5 1.4-.3 2.5-1 3.1-2l.1.9c0 .3.3.4.6.4s.4-.3.4-.6l-1-5.6c-.1-.2-.4-.4-.6-.3zM11.6 10.7c-.1-.7-.9-1.1-1.7-1-.9.2-1.5.9-1.3 1.6.1.7.9 1.1 1.7 1 .8-.2 1.4-.9 1.3-1.6zM27.8 13.6c.1-.5-.2-1-.8-1.3v2.1c.4-.1.7-.4.8-.8zM16.6 11.1c.8-.2 1.4-.8 1.3-1.5-.1-.7-.9-1.1-1.7-1-.8.2-1.4.8-1.3 1.5.1.7.9 1.1 1.7 1z"/><path class="st0" d="M29.6 10.7l-2.6-.5v1.3l1.6.3c.2 0 .4.3.3.5l-2 10.1-.1 6.6 3.5-17.2c.1-.5-.2-1-.7-1.1zM24.4 7.4l-2.4.1.2 1.5h1.4c.3 0 .5.2.5.5l.6 20.9H26l-.6-22c0-.6-.5-1-1-1z"/><path class="st0" d="M23.1 11.1c0-.5-.4-.9-.9-1.1l.2 2.2c.4-.3.7-.7.7-1.1zM18.6 5.7L6.5 7.9c-.5.1-.9.7-.8 1.2l3.9 21.2H11L7.3 9.8c-.1-.3.1-.5.4-.6L18 7.3c.3 0 .5.1.6.4l4.1 22.5h1.4L19.8 6.5c-.1-.5-.6-.9-1.2-.8z"/></svg>