<svg version="1.1" id="Layer_2" xmlns="http://www.w3.org/2000/svg" x="0" y="0" viewBox="0 0 36 36" xml:space="preserve"><style>.st0{fill:#fff}</style><path class="st0" d="M24.4 18c-1.6 0-2.8.5-3.7 1.6-.9 1.1-1.3 2.6-1.3 4.7 0 1.9.4 3.3 1.2 4.3.8 1 2 1.5 3.4 1.5 1.6 0 2.8-.5 3.6-1.6.9-1 1.3-2.6 1.3-4.6.1-3.9-1.4-5.9-4.5-5.9zm-.2 10.7c-1.6 0-2.5-1.5-2.5-4.4 0-3.1.8-4.7 2.5-4.7 1.6 0 2.4 1.5 2.4 4.6 0 3-.8 4.5-2.4 4.5zM27.8 8.2c-.4-.4-1.2-.4-1.6 0l-18 18c-.4.4-.4 1.2 0 1.6.4.4 1.2.4 1.6 0l18-18c.4-.4.4-1.1 0-1.6zM11.6 18c1.6 0 2.8-.5 3.6-1.6.9-1 1.3-2.6 1.3-4.6 0-4-1.5-6-4.6-6-1.6 0-2.8.5-3.7 1.6C7.4 8.5 7 10.1 7 12.1c0 1.9.4 3.3 1.2 4.3.9 1.1 2 1.6 3.4 1.6zm.3-10.7c1.6 0 2.4 1.5 2.4 4.6 0 3-.8 4.5-2.4 4.5-1.6 0-2.5-1.5-2.5-4.4 0-3.1.8-4.7 2.5-4.7z"/><path class="st0" d="M31.1 0h-26C2.3 0 0 2.3 0 5.1v26C0 33.8 2.2 36 4.9 36H31c2.7 0 4.9-2.2 4.9-4.9V4.9C36 2.2 33.8 0 31.1 0zm2.4 31.1c0 1.3-1.1 2.4-2.4 2.4H4.9c-1.3 0-2.4-1.1-2.4-2.4v-26c0-1.4 1.2-2.6 2.6-2.6h26c1.3 0 2.4 1.1 2.4 2.4v26.2z"/></svg>