<svg version="1.1" id="Layer_1" xmlns="http://www.w3.org/2000/svg" x="0" y="0" viewBox="0 0 36 36" xml:space="preserve"><style>.st0{fill:#fff}</style><path class="st0" d="M24.7 32.4c-.7 0-1.2.5-1.2 1.2s.5 1.2 1.2 1.2 1.2-.5 1.2-1.2-.6-1.2-1.2-1.2m-20.2 0c-.7 0-1.2.5-1.2 1.2s.5 1.2 1.2 1.2 1.2-.5 1.2-1.2-.5-1.2-1.2-1.2zm3.6-7.5c-.3 0-.7.4-.8.7l-1.2 2c0 .3 0 .4.4.5h4c.3 0 1-.2 1-.6l-.5-2.1c0-.3-.2-.6-.6-.6H8.1zm6.5-4h20.6c.3 0 .6.3.6.6v12.1c0 .3-.3.6-.6.6h-7.5v-.6c0-1.7-1.4-3.1-3.1-3.1-1.7 0-3.1 1.4-3.1 3.1v.6h-7c-.3 0-.6-.3-.6-.6V21.5c.1-.3.4-.6.7-.6zm-13.9 8l4.1-1.1 2.3-3.6h4.6c.3 0 1 4.9 1 5.3v4.1c0 .3-.3.6-.6.6H7.6v-.6c0-1.7-1.4-3.1-3.1-3.1s-3.1 1.4-3.1 3.1v.6H.7c-.3 0-.6-.3-.6-.6v-4.1c0-.4.3-.6.6-.6zm24 2.5c1.2 0 2.3 1 2.3 2.3 0 1.2-1 2.3-2.3 2.3-1.2 0-2.3-1-2.3-2.3 0-1.3 1-2.3 2.3-2.3zm-20.2 0c1.2 0 2.3 1 2.3 2.3 0 1.2-1 2.3-2.3 2.3s-2.3-1-2.3-2.3c.1-1.3 1.1-2.3 2.3-2.3zM20.1.1L28.8 2v8l-5.7 2.1v6.1h-3V.1zm11.2 12.5v1.6l-4 4h-1.6l5.6-5.6zm0 2.9v1.6l-1.1 1.1h-1.6l2.7-2.7zm-2.7-3.1l2.6-1-6.6 6.6v-1.6l4-4zm-4 1.6l1.8-.7-1.8 1.8V14zm7.7-2.7l3.6.8v6.1h-3.6v-6.9zM6.9 8.5v1.6L.2 16.8v-1.6l6.7-6.7zm0 2.9V13L.2 19.7v-1.6l6.7-6.7zM4.2 8.2l2.7-1.1-6.7 6.7v-1.6l4-4zm2.7 12v1.1l-4 4.1-1.8.6 5.8-5.8zm-4-.3L.1 22.7v-1.6l6.7-6.7V16l-3.9 3.9zm2.2-.8l1.8-1.8v1.6L.2 25.6V24l4.9-4.9zm-5-9.3L2 9.1.1 11V9.8zm7.8-2.6l7.3 1.6v9.5h-1.4c-2.8.1-2.9 2.6-2.9 2.6h-3V7.2zm11-5.5v1.9l-3.2 3.2-1.5-.4 4.7-4.7zm0 3.5v1.9L17 9V7.2l1.9-2zm-3.2-3.8L18.9.1 13 6l-1.5-.4 4.2-4.2zm3.2 14.3v2l-.6.6H17v-.7l1.9-1.9zm0-7v1.9L17 12.5v-1.9l1.9-1.9zm0 3.5v1.9L17 16v-1.9l1.9-1.9zm-8.1-8.9l2.2-.8-2.2 2.2V3.3z"/></svg>