<svg version="1.1" id="Layer_1" xmlns="http://www.w3.org/2000/svg" x="0" y="0" viewBox="0 0 36 36" xml:space="preserve"><style>.st0{fill:#fff}</style><path class="st0" d="M17.2 10.8h-1.8l-3.7-2.9h1.8l3.7 2.9m4.1 0h-1.9l-3.7-2.9h1.9l3.7 2.9zm-8.1 0h-1.8L7.7 7.9h1.8l3.7 2.9zm3 3.9H18l2.8 2.2H19l-2.8-2.2zm-4 0H14l2.8 2.2H15l-2.8-2.2zm-4.1 0H10l2.8 2.2H11l-2.9-2.2zm-4 0h1.8l2.8 2.2c-.5 0-.9.2-1.3.4l-3.3-2.6zm-4-3.1v-1.5L3 12.4v1.5L.1 11.6zm0 6.5v-1.5L3 18.8v1.5L.1 18.1zm4.1 3.2h1.7v1.3l-1.7-1.3zm1 4l-5-4v-1.5l5.7 4.6v.9h-.7zM25.3 7.5V9l-2.9-2.3V5.2l2.9 2.3zM5.9.1h1.9l5 3.9h-1.9L5.9.1zm12.3 0H20l5.2 4.1v1.5l-7-5.6zm-4.1 0H16L20.9 4H19L14.1.1zm-4 0h1.8L16.8 4H15L10.1.1zm-5.8 18h2.2c-.4.5-.6 1.1-.6 1.7v.6H4.3c-.3 0-.5-.2-.5-.4v-1.5c-.1-.2.2-.4.5-.4zm5.9-6.5h2.5c.3 0 .5.2.5.4v1.5c0 .2-.2.4-.5.4h-2.5c-.3 0-.5-.2-.5-.4V12c-.1-.2.2-.4.5-.4zM4.4 4.8h2.5c.3 0 .5.2.5.4v1.5c0 .2-.2.4-.5.4H4.4c-.3 0-.5-.2-.5-.4V5.2c0-.2.2-.4.5-.4zm17.1 3.1h.2l3.6 2.8v1.5l-5.4-4.3h1.6zm-17.7 0h1.6l3.7 2.9H7.3l-3.8-3 .3.1zM3 7.1c0 .1 0 .3.1.4l-3-2.4V3.7L3 6v1.1zM3.8 4c-.2 0-.5.1-.6.3L.2 2c.1-.4.2-.8.5-1.1l4 3.2h-.9zm0 13.4l-.4.1-3.3-2.6v-1.5l5.1 4H3.8zm18.6-5.8l2.9 2.3v1.5l-2.9-2.3v-1.5zm-.9 3.1c.2 0 .3 0 .4-.1l2.9 2.3H23l-2.8-2.2h1.3zM3.8 10.8c-.2 0-.3 0-.4.1L.1 8.4V6.9L5 10.8H3.8zM2.2 25.3C1 25.3.1 24.4.1 23.2V23l2.8 2.2h-.7zM23.2.1c1.2 0 2.1.9 2.1 2.1v.3l-3-2.4h.9zm-21 0h1.5L8.6 4H6.8L2 .2l.2-.1zm12.9 32.4c-.4 0-.7.3-.7.7 0 .4.3.7.7.7.4 0 .7-.3.7-.7 0-.4-.3-.7-.7-.7zm3.4 0c-.4 0-.7.3-.7.7 0 .4.3.7.7.7.4 0 .7-.3.7-.7 0-.4-.3-.7-.7-.7zm-1.7 0c-.4 0-.7.3-.7.7 0 .4.3.7.7.7.4 0 .7-.3.7-.7 0-.4-.3-.7-.7-.7zm-5 0c-.4 0-.7.3-.7.7 0 .4.3.7.7.7.4 0 .7-.3.7-.7 0-.4-.4-.7-.7-.7zm1.6 0c-.4 0-.7.3-.7.7 0 .4.3.7.7.7s.7-.3.7-.7c0-.4-.3-.7-.7-.7zm10.1-7.3c-.5 0-.9.4-.9.9s.4.9.9.9h3.3c.5 0 .9-.4.9-.9s-.4-.9-.9-.9h-3.3zm5.9 0c-.5 0-.9.4-.9.9s.4.9.9.9h3.3c.5 0 .9-.4.9-.9s-.4-.9-.9-.9h-3.3zm0 5.1c-.5 0-.9.4-.9.9v1.9c0 .5.4.9.9.9h3.3c.5 0 .9-.4.9-.9v-1.9c0-.5-.4-.9-.9-.9h-3.3zm-17.5-5.1c-.5 0-.9.4-.9.9s.4.9.9.9h3.3c.5 0 .9-.4.9-.9s-.4-.9-.9-.9h-3.3zm5.8 0c-.5 0-.9.4-.9.9s.4.9.9.9H21c.5 0 .9-.4.9-.9s-.4-.9-.9-.9h-3.3zm-7.8-5.8h24.6c.8 0 1.4.6 1.4 1.4v13.7c0 .8-.6 1.4-1.4 1.4H9.9c-.8 0-1.4-.6-1.4-1.4V20.8c.1-.8.7-1.4 1.4-1.4z"/></svg>