<svg version="1.1" id="Layer_1" xmlns="http://www.w3.org/2000/svg" x="0" y="0" viewBox="0 0 36 36" xml:space="preserve"><style>.st0{fill:#fff}</style><path class="st0" d="M31.2 30.6c-.8.1-1.2-.3-1.3-.8-.1-.4.2-1 .8-1h.3c.2.1 1 .6.4 1.8h-.2m1.5.8c-.4.1-.9-.1-1.2-.6.5-.5.8-1.8-.4-2.5.1-.4.4-.6.7-.7.3-.1.6 0 .8.2.1.1 1.1.9.8 2.7-.1.5-.4.8-.7.9zm3.1-3.6c0 1-.5 1.8-2 2.3.2-.6.3-1.4-.3-2.1v-.2c0-.6-1.6-1.2-4.1-1.5l.3-1.4c3.7.4 6.1 1.6 6.1 2.9zM.2 19.2c0-.8 2-1.6 4.9-1.9l-.3.9c-1.8.2-3 .5-3 .9 0 .3 1 .6 2.5.9L4 21c-2.3-.4-3.8-1-3.8-1.8zM22.3 1.8c-.2-.1-.4.1-.5.3-.1.2.1.4.3.5.2.1.4-.1.5-.3.1-.3-.1-.5-.3-.5zm.2-.5c.4.1.7.6.6 1-.1.5-.6.8-1.1.7-.4-.1-.7-.6-.6-1 .2-.5.6-.8 1.1-.7zm-1.6 3.4l1.3.3-.2.7-1.3-.3.2-.7zm.8-3.9c-.2 0-.3.1-.4.2l-1.1 4.5c0 .2.1.3.2.4l1.7.4c.2 0 .3-.1.4-.2l1.1-4.5c0-.2-.1-.3-.2-.4L21.7.8zm-.1-.7l2.3.6c.3.1.5.4.4.7L23 6.5c-.1.3-.4.5-.7.4L20 6.3c-.3-.1-.5-.4-.4-.7L20.9.5c0-.3.3-.5.7-.4zm-6.3 29.6c-.5-.1-1 .2-1.1.7s.2 1 .7 1.1c.5.1 1-.2 1.1-.7.2-.4-.1-.9-.7-1.1zm4.6 1.2c-.5-.1-1 .2-1.1.7-.1.5.2 1 .7 1.1.5.1 1-.2 1.1-.7.1-.5-.2-1-.7-1.1zm-2.3-.6c-.5-.1-1 .2-1.1.7-.1.5.2 1 .7 1.1.5.1 1-.2 1.1-.7.1-.5-.2-1-.7-1.1zm-6.7-1.7c-.5-.1-1 .2-1.1.7-.1.5.2 1 .7 1.1.5.1 1-.2 1.1-.7s-.2-1-.7-1.1zm2.2.6c-.5-.1-1 .2-1.1.7-.1.5.2 1 .7 1.1.5.1 1-.2 1.1-.7.1-.5-.2-1-.7-1.1zm1.2-22.5c-.7-.2-1.4.3-1.6 1L8.5 24.4c-.2.7.3 1.4 1 1.6l12.9 3.2c.7.2 1.4-.3 1.6-1l4.2-16.7c.2-.7-.3-1.4-1-1.6L14.3 6.7zm-.5-3.8l5.6 1.4-.3 1c-.4 0-.7.2-.8.6-.1.4.1.8.5.9l4.3 1.1c.4.1.8-.2.9-.6.1-.4-.1-.7-.5-.9l.3-1 5.6 1.4c1.8.4 2.9 2.3 2.4 4l-5.6 22.5c-.4 1.8-2.2 2.9-4 2.4L6.5 31.9c-1.8-.4-2.9-2.3-2.4-4L9.7 5.3c.5-1.8 2.3-2.8 4.1-2.4zm3.1 18.7s.8 2.1 2.2.8c0 0 3.6-3.8 3.6 3.2-.8 0-1.6.7-2 1.8L13 25.6c0-1.8-.8-3.4-2-3.8 1.7-2.4 4.2-4.6 5.9-.2zm3.6-11.1c1.8.5 2.8 2.8 2.2 5.2-.6 2.4-2.6 4-4.4 3.5-1.8-.5-2.8-2.8-2.2-5.2.6-2.4 2.6-4 4.4-3.5z"/></svg>