<svg version="1.1" id="Layer_1" xmlns="http://www.w3.org/2000/svg" x="0" y="0" viewBox="0 0 36 36" xml:space="preserve"><style>.st0{fill:#fff}</style><path class="st0" d="M.2 29.6v-1.8l3.3-3.3c.4.3.9.4 1.4.5L.2 29.6m0-6.6v-1.9l3.5-3.5h.9l-1.7 1.6s-.8.7-.9 1.9L.2 23zm0-9.9v-1.8l3-3v1.8l-3 3zm0 13.3v-1.8l1.9-1.9c.1.4.3.8.6 1.2L.2 26.4zm0-6.7v-1.8l3-3v1.8l-3 3zM9 27.5H7.2L9 25.7v1.8zm-3.3 0H3.8l3.1-3h1.8l-3 3zm11-22.9v1.8l-3 3V7.7l3-3.1zm-6-.5h1.8l-3 3H7.6l3.1-3zm-3.4 0h1.8l-3 3H4.3l3-3zM4 4.1h1.8L.2 9.8V8L4 4.1zM7.4 14l3-3h1.8l-.4.4c-.7.1-1.3.4-1.8.9L8.3 14h-.9zm9.3-6v1.8L14.5 12c-.4-.3-.8-.5-1.2-.6L16.7 8zM2 12.7l1.8-1.8h1.8L.1 16.4v-1.8L2 12.7zm3.4 0l1.8-1.8H9l-3 3H4.1l1.3-1.2zm11.3-1.4v1.8l-.5.5-.9-.9 1.4-1.4zM3.2 30l-1.5 1.5c-.5 0-.9-.2-1.2-.6l2.7-2.7V30zM16.7 1.7v1.5l-4 4h-1.8l5.7-5.7.1.2zm-3 0c0-.3.1-.6.2-.8l.5-.5c.2-.2.5-.2.8-.2.3 0 .7.1.9.3l-2.4 2.4V1.7zm-10.5 0v1.8l-3 3V4.6l3-2.9zM1.7.1c.4 0 .8.2 1.1.4L.2 3.1V1.3L1.3.2l.4-.1zm12.1 17.7v5.8c-1.1 1.2-2 2.7-2.8 4.3V17.8l-5 5c-.5.5-1.3.5-1.8 0s-.5-1.3 0-1.8l7.3-7.3c.2-.2.6-.4.9-.4.3 0 .7.1.9.4l3.6 3.6c.3 1.3.7 2.4 1.3 3.5-.4 0-.7.1-1.1.3l-3.3-3.3zm10.4 9.7s2.3 3.2 4.2.5c0 0 4.6-8 7.5 4-1.3.3-2.4 1.9-2.6 3.9h-14c-.8-3.1-2.7-5.4-5.1-5.7 1.8-4.7 5.1-9.4 10-2.7zM25.6 7c3.3 0 6 3.5 6 7.8s-2.7 7.8-6 7.8-6-3.5-6-7.8 2.6-7.8 6-7.8z"/></svg>