<svg version="1.1" id="Layer_1" xmlns="http://www.w3.org/2000/svg" x="0" y="0" viewBox="0 0 36 36" xml:space="preserve"><style>.st0{fill:#fff}</style><path class="st0" d="M23.4 30.7l-.5.5V29l.5-.5v2.2M13 29.1l2.5-2.5v2.3L13 31.4v-2.3zm9.7-9.7l2.3-2.3v2.3l-2.3 2.3v-2.3zm6.6-9.2l-2.2.1.8-.8c.5.2.9.4 1.4.7zm-3.6-1.1l-3 3c.1-1.3.6-2.6 3-3zm4.2 4.9l-.1-1.6 1-1 1.1 1.1-2.4 2.4.4-.9zM9 10c0 .3.3.6.6.6l-1.3 1.3H6.1L9 9v1zm6.7 3.2v1c-.1-.5-.3-1.2-.5-1.7l.4-.4c0 .5.1.8.1 1.1zM11 11.9V14l-2.2 2.2V14l3.4-3.4h2.2l-1.3 1.3H11zm2 14.4c.1-1.2.5-2.2.8-2.8l1.7-1.7V24L13 26.5v-.2zM24.7 14l.2.6-2.3 2.3v-2.1l2.2-2.2-.1 1.4zm-1.8 10.9c0 .5.2.8.5 1l-.5.5v-2.2l2.3-2.3v2h-1.4c-.5.1-.9.7-.9 1zM11 4.8h2.9c.3 0 .6.3.6.6 1.2-.2 12.2-1.5 17.3 4.3l-.5.6s-3.6-3.7-8.7-1.9c0 0-2.1 1.9-2.2 4.6v.4h-3.9v-.2s0-3.7-2.1-4.2c0 .3-.3.6-.6.6H11c-.3 0-.6-.3-.6-.6V5.5c-.1-.4.2-.7.6-.7zM3.1.1H33c1.7 0 3 1.3 3 3V33c0 1.7-1.3 3-3 3H3.1c-1.6 0-3-1.3-3-3V3.1c0-1.7 1.3-3 3-3zm.5 2.4c-.3 0-.6.1-.8.3l-.1.1c-.2.2-.3.5-.3.8v2.2l3.4-3.3H3.6zm25.6 24.4v6.8h3.2c.3 0 .5-.1.7-.2l.3-.3c.1-.2.2-.4.2-.7v-2.2l-2.3 2.3v-2.2l2.3-2.3v-2.6l-2.3 2.3v-.4c0-.5-.2-.9-.6-1.2l.1-.1h.2c.3 0 .8-.7.9-1.1l1.7-1.7v-2.6L30.1 24h-.6v-1.6l4-4v-2.6l-4 4v-2.2l4-4V11h-.1l.1-.1V9.5l-.4-.5.4-.4V6l-1.8 1.8-1.3-.9 3.1-3.1v-.1c0-.7-.5-1.2-1.2-1.2h-.1L28.7 6l-1.6-.6L30 2.5h-2.6l-2.2 2.2-1.8-.4 1.9-1.9h-2.6L21.1 4h-2.2l1.5-1.5h-2.7l-1.3 1.3c-.1-.1-.2-.1-.4-.1h-1.7l1.2-1.2h-2.7l-1.2 1.2H9.4l1.2-1.2H7.9L2.4 8.1v2.6L9 4.1v2.2l-6.6 6.6v2.6l1.3-1.3c-.3.9-.5 1.9-.6 2.8l-.7.7v2.6l.9-.9c.2.6.4 1.1.7 1.6l-1.6 1.6v2.6l2.9-2.9c.2.2.6.7.9 1.3l-3.8 3.8V30l4.4-4.4.1.6v1.6l-4.5 4.5v.2c0 .7.5 1.2 1.2 1.2h.1l3.2-3.2v2.1l-1.1 1.1h2v-7.9c-.2-2.2-1.2-3.5-1.7-3.9-1.2-1-2-2.6-2-4.4 0-1.8.8-3.4 2-4.4h.5v4c0 1.1.8 2 1.9 2h.8c-.1-.1-.2-.3-.3-.5l2-2v.9c0 .6-.3 1.2-.7 1.5.9-.1 1.6-1 1.6-2v-4h.7c1.2 1 2 2.6 2 4.4 0 1.8-.8 3.4-2 4.4-.4.4-1.4 1.7-1.7 4v7.8h2.4l2-2v2h.9l.3-19.6h3.9l.3 19.6h2.2l.3-.3v.3h.9v-6.8c0-.5.3-1 .7-1.4h-.4c-.4 0-.7-.2-.7-.5s.3-.5.7-.5H26v-10l-.3-.9.3-2.6h1.5l.3 2.6-.3.9v10.1h1.4c.4 0 .7.2.7.5s-.3.5-.7.5h-.4c.4.4.7.9.7 1.4z"/></svg>