<svg version="1.1" id="Layer_1" xmlns="http://www.w3.org/2000/svg" x="0" y="0" viewBox="0 0 36 36" xml:space="preserve"><style>.st0{fill:#fff}</style><path class="st0" d="M31.554.072H4.446A4.374 4.374 0 00.072 4.446v27.108a4.374 4.374 0 004.374 4.374h14.286V22.044H14.06v-5.412h4.672v-3.991c0-4.63 2.827-7.153 6.959-7.153 1.981 0 3.679.148 4.175.213v4.84L27 10.542c-2.246 0-2.68 1.068-2.68 2.634v3.454h5.36l-.701 5.411H24.32v13.886h7.234a4.374 4.374 0 004.374-4.374V4.446A4.374 4.374 0 0031.554.072z"/></svg>