<svg version="1.1" id="Layer_1" xmlns="http://www.w3.org/2000/svg" x="0" y="0" viewBox="0 0 36 36" xml:space="preserve"><style>.st0{fill:#fff}</style><path class="st0" d="M27.4 9.2v1.6h-2.1v-.4l2.1-1.2-5.5-.5v-.4l3.4.3 2.1.2v.4m0-3.5v3.1l-2.1-.2V7.3l2.1-1.6zm0-.2l-2.1.7-3.4-.6V4.3l5.5 1.2zm-5.7-1.2v6.5h-.5V4.4l.5-.1zM23.1 7v-.2.2zm.1-.2h.1V7h-.1v-.2zm-.2 0V7v-.2zm-.1.3h.6v1.3H23l-.1-1.3zm-.5-.1v-.2.2zm.1-.2h.1V7h-.1v-.2zm-.1 0V7v-.2zm-.2.3h.6v1.3h-.5l-.1-1.3zm-1.5 1.5v2.2h-2.6V10l2.6-1.4L14 8v-.5l4.2.4 2.6.2v.5zm0-4.4V8l-2.6-.2V6.2l2.6-2zm0-.2l-2.6.9-4.1-.8V2.5L20.7 4zm-7-1.5v8.4l-.5.1V2.7l.5-.2zm.9 3.3v-.3.3zm.1-.3h.1v.2h-.1v-.2zm-.2 0v.2-.2zm-.1.4l.3-.1.3.1v1.6l-.6-.1V5.9zm-7 14.7v-.3.3zm.1-.4h.2v.3h-.2v-.3zm-.2.1l.1.3h-.1v-.3zm-.9.5v-.3.3zm0-.3h.2v.3h-.2v-.3zm-.1 0l.1.3h-.1v-.3zM4 18.3v-.6l5.2-.4 1.3-.1v.6l-6.5.5zm5.2 3.3v-1.8l1.3-.9V22l-1.3-.4zm3.2-13.9v3.6c-.3.2-.6.4-.9.7H9.2V9.5l3.2-1.8L4 7v-.6l5.2.5 3.2.3v.5zm0-5.4V7l-3.2-.3V4.8l3.2-2.5zM4 24.7v-2.1l2-.3V21l.4-.1.4.1v1.2h.3v-1.4l.4-.1.4.1V22l1.3-.2 1.4.4v1L4 24.7zm8.4-22.6l-3.2 1L4 2.2v-2l8.4 1.9zM.1 1.4L3.7.1v24.6L.1 23.2V1.4zM7.7 10v-.3.3zm0-.3h.2v.3h-.2v-.3zm-.1 0v.3h-.1v-.3zm-.3.5l.4-.1.4.1v1.9h-.8v-1.9zm-2 4.8v-.3.3zm.1-.3h.2v.3h-.2v-.3zm-.2 0l.1.3h-.1v-.3zM4 12.8v-.6h7.4l-.4.6H4zm1 2.3l.4-.1.4.1v1.7l3.4-.1v-1.8l1.4-.9-.1.7V17l-1.3.1-5.2.4v-.6h1v-1.8zm.8-10.8V4v.3zm.1-.3h.2v.3h-.2V4zm-.1 0l.1.3h-.1V4zm-.3.5l.4-.1.4.1v2l-.8-.1V4.5zm-.7-.2V4v.3zm.1-.4h.2v.3h-.2v-.3zm-.2.1l.1.3h-.1V4zm-.2.4l.4-.1.4.1v1.9h-.8V4.4zm11.1 10c-.6 0-1.2.5-1.2 1.2v17.3c0 .6.5 1.2 1.2 1.2h17.3c.6 0 1.2-.5 1.2-1.2V15.6c0-.6-.5-1.2-1.2-1.2H15.6zm-1-1.8h19.3c1.1 0 1.9.9 1.9 1.9v19.3c0 1.1-.9 1.9-1.9 1.9H14.6c-1.1 0-1.9-.9-1.9-1.9V14.6c-.1-1.1.8-2 1.9-2zm12.9 16.6l.1.2.2.2.2.1c.1 0 .2 0 .3-.1.1-.1.1-.2.1-.3 0-.1 0-.2-.1-.3-.1-.1-.2-.1-.3-.1-.1 0-.2 0-.3.1-.2-.1-.2 0-.2.2zm1-.8h-.2l-.1-.2c-.1-.1-.1-.1-.2-.1l-.2.1-.2.2-.1.4.2-.2.3-.1c.2 0 .3.1.4.2.1.1.2.3.2.5l-.1.3-.2.2-.3.1c-.2 0-.4-.1-.5-.2-.1-.1-.2-.4-.2-.7 0-.4.1-.7.2-.8.1-.2.3-.2.5-.2s.3 0 .4.1c0 .1.1.2.1.4zm-1.9 1.4h-.2v-1.5l-.2.2-.3.1v-.2l.4-.2.2-.3h.2v1.9zm-1.4-1.3c0-.1 0-.2-.1-.3-.1-.1-.2-.1-.3-.1-.1 0-.2 0-.3.1-.1.1-.1.2-.1.3 0 .1 0 .2.1.3.1.1.2.1.3.1.1 0 .2 0 .3-.1.1-.1.1-.2.1-.3zm-1 .8h.2l.1.3.2.1h.2l.1-.1.1-.2v-.3H25l-.3.1c-.2 0-.3-.1-.4-.2-.1-.1-.2-.3-.2-.5s.1-.4.2-.5c.1-.1.3-.2.4-.2l.3.1.2.3.1.6-.1.6c-.1.2-.1.3-.2.3-.1.1-.2.1-.4.1s-.3 0-.4-.1c.1-.1 0-.2 0-.4zm-1.6-.5c0 .3 0 .5.1.6.1.1.2.2.3.2.1 0 .2 0 .3-.2.1-.1.1-.3.1-.6s0-.5-.1-.6c-.1-.1-.2-.2-.3-.2-.1 0-.2 0-.3.1 0 .2-.1.4-.1.7zm-.2 0l.1-.6c0-.1.1-.3.2-.3.1-.1.2-.1.4-.1l.3.1.2.2.1.3v.5l-.1.6c0 .1-.1.3-.2.3-.1.1-.2.1-.4.1s-.3-.1-.4-.2c-.2-.2-.2-.5-.2-.9zm-.7 1h-.2v-1.5l-.2.2H21v-.2l.4-.2.2-.3h.2v2zm-1.3 0h-.2v-1.5l-.2.2-.3.1v-.2l.4-.2.2-.3h.2v1.9zm3.3-11.1h1.1V27h-1.1v-8.3zm1.9-.1h1.1V27h-1.1v-8.4zm1.7.1h1.1V27h-1.1v-8.3zm2.6-.1h1.5v11.2h-1.5V18.6zm-8.3.1h.7V27h-.7v-8.3zm-2-.1h1.1V27h-1.1v-8.4zm-2.6 0h1.5v11.2H17V18.6z"/></svg>