<svg version="1.1" id="Layer_1" xmlns="http://www.w3.org/2000/svg" x="0" y="0" viewBox="0 0 36 36" xml:space="preserve"><style>.st0{fill:#fff}</style><path class="st0" d="M11.7 18.2l.9-.9h-1.2l.3.9m-6.2 9.6l-.2-.7h-2l-1.5 1.5H6c-.2-.2-.4-.5-.5-.8zm21.5.9v7.2h-8.3v-7.2H27zm8.8 3c0 2.3-1.9 4.2-4.2 4.2h-3.1v-7.2h7.3v3zM31.7.2c2.3 0 4.2 1.9 4.2 4.2v3.2h-3.5L32.2 9h3.7v8.3h-4.6l-.3 1.6h4.8v8.3h-7.3v-2.7L27 23v4.1h-8.3v-3.3l-1.5 1.5v1.8h-1.8l-1.5 1.5h3.3v7.2H8.9v-5.3c-.5-.1-1.1-.3-1.5-.5v5.8H4.3C2 35.8.1 33.9.1 31.6v-3.4l5.5-5.5L7 26.5c.4 1.1 1.3 1.8 2.4 2 1 .2 2.1 0 2.9-.8l10.8-10.8 6 5.4 2.1-18.6-18.3 3.9 5.7 5.2-7.5 7.5-1.4-4c-.5-1.4-1.9-2.2-3.4-1.9-.6.1-1.2.4-1.7.9L.1 19.8v-2.2l.2-.2H.2V9h7.2v3.8c.5.1 1.1.3 1.5.6V9h2.8L10 7.5H8.9V.2h8.3V5l1.5-.3V.2H27V3l1.5-.3V.2h3.2zM4.3.2h3.1v7.4H.2V4.3C.2 2 2 .2 4.3.2z"/></svg>