<?xml version="1.0" encoding="utf-8"?>
<!-- Generator: Adobe Illustrator 26.5.0, SVG Export Plug-In . SVG Version: 6.00 Build 0)  -->
<svg version="1.1" id="Layer_1" xmlns="http://www.w3.org/2000/svg" xmlns:xlink="http://www.w3.org/1999/xlink" x="0px" y="0px"
	 viewBox="0 0 36 36" style="enable-background:new 0 0 36 36;" xml:space="preserve">
<style type="text/css">
	.st0{fill:#FFFFFF;}
</style>
<path class="st0" d="M35.5,17.84c-0.11,0-0.2-0.09-0.2-0.2c0-9.46-7.7-17.16-17.16-17.16S0.97,8.17,0.97,17.64
	c0,0.11-0.09,0.2-0.2,0.2s-0.2-0.09-0.2-0.2c0-9.68,7.88-17.56,17.56-17.56S35.7,7.95,35.7,17.64C35.7,17.75,35.61,17.84,35.5,17.84
	z M0.29,21.87c-0.02,0.06-0.03,0.11-0.01,0.17c0.02,0.06,0.06,0.1,0.11,0.12c0.06,0.02,0.11,0.03,0.17,0.01l1.84-0.61l-1.62,1.61
	c-0.08,0.07-0.1,0.15-0.07,0.23c0.03,0.08,0.09,0.12,0.17,0.15l2.27,0.33l-1.84,0.61c-0.06,0.02-0.1,0.06-0.12,0.11
	c-0.02,0.06-0.03,0.11-0.01,0.17s0.06,0.1,0.11,0.12s0.11,0.03,0.17,0.01L4.19,24c0.03-0.01,0.06-0.02,0.08-0.04
	c0.02-0.02,0.04-0.04,0.06-0.07c0.01-0.02,0.02-0.04,0.02-0.08s0-0.06-0.01-0.09c-0.03-0.08-0.09-0.12-0.18-0.15l-2.75-0.4
	l1.97-1.97c0.07-0.07,0.08-0.15,0.06-0.22c-0.01-0.03-0.02-0.06-0.04-0.08c-0.02-0.02-0.04-0.04-0.07-0.06
	c-0.02-0.01-0.04-0.02-0.08-0.02s-0.06,0-0.09,0.01l-2.74,0.9C0.36,21.77,0.31,21.8,0.29,21.87z M3.24,27.58l0.8-0.59l0.71,0.98
	c0.03,0.06,0.09,0.08,0.15,0.09c0.07,0,0.12-0.01,0.17-0.04c0.06-0.03,0.08-0.09,0.09-0.15c0-0.07-0.01-0.12-0.04-0.17L4.4,26.72
	l0.8-0.59l0.99,1.37c0.03,0.06,0.09,0.08,0.15,0.09c0.07,0,0.11-0.01,0.17-0.04s0.08-0.09,0.09-0.15c0-0.07-0.01-0.12-0.04-0.17
	L5.44,25.7c-0.02-0.02-0.04-0.04-0.07-0.06c-0.02-0.02-0.06-0.03-0.08-0.03c-0.03-0.01-0.06-0.01-0.09,0
	c-0.02,0-0.06,0.01-0.08,0.03l-2.32,1.7c-0.02,0.02-0.04,0.04-0.06,0.07c-0.02,0.02-0.03,0.04-0.03,0.08
	c-0.01,0.02-0.01,0.06,0,0.08c0,0.02,0.01,0.06,0.03,0.08l1.13,1.55c0.03,0.06,0.09,0.08,0.15,0.09c0.07,0,0.12-0.01,0.17-0.04
	c0.06-0.03,0.08-0.09,0.09-0.15c0-0.07-0.01-0.12-0.04-0.17L3.24,27.58z M6.51,31.26l0.61-0.78l0.96,0.75
	c0.06,0.03,0.11,0.06,0.17,0.04c0.06,0,0.11-0.03,0.15-0.08c0.03-0.04,0.06-0.1,0.04-0.16c0-0.06-0.03-0.11-0.08-0.15L7.4,30.14
	l0.61-0.78l1.34,1.05c0.06,0.03,0.11,0.06,0.17,0.04c0.06,0,0.11-0.03,0.15-0.08c0.03-0.06,0.06-0.11,0.04-0.17
	c0-0.06-0.03-0.11-0.08-0.15l-1.51-1.18c-0.02-0.02-0.06-0.03-0.08-0.04c-0.02-0.01-0.04-0.01-0.08-0.01
	c-0.02,0-0.06,0.01-0.08,0.02c-0.02,0.01-0.04,0.03-0.07,0.06l-1.78,2.27c-0.02,0.02-0.03,0.06-0.04,0.08C6,31.27,6,31.29,6,31.33
	c0,0.02,0.01,0.06,0.02,0.08c0.01,0.02,0.03,0.04,0.06,0.07l1.51,1.18c0.06,0.03,0.11,0.06,0.17,0.04c0.06,0,0.11-0.03,0.15-0.08
	c0.03-0.06,0.06-0.11,0.04-0.17c0-0.06-0.03-0.11-0.08-0.15L6.51,31.26z M11.67,34.62l2.08-2.23c0.03-0.03,0.06-0.07,0.07-0.1
	s0.01-0.06,0.01-0.09c0-0.02-0.01-0.06-0.02-0.08c-0.01-0.02-0.02-0.04-0.04-0.07c-0.02-0.02-0.04-0.03-0.08-0.04
	c-0.09-0.04-0.17-0.02-0.23,0.04l-1.72,1.85l0.01-2.52c-0.01-0.1-0.06-0.17-0.15-0.2c-0.03-0.01-0.06-0.01-0.09-0.01
	c-0.02,0-0.06,0.01-0.08,0.02c-0.02,0.01-0.04,0.02-0.07,0.04c-0.02,0.02-0.03,0.04-0.04,0.08c-0.01,0.03-0.02,0.07-0.02,0.11
	l-0.01,3.06c0,0.1,0.04,0.17,0.13,0.2S11.58,34.7,11.67,34.62z M18.61,33.73c-0.08-0.2-0.18-0.38-0.33-0.56
	c-0.3-0.35-0.68-0.52-1.14-0.56c-0.46-0.02-0.86,0.11-1.21,0.41c-0.35,0.3-0.52,0.68-0.56,1.14c-0.02,0.46,0.11,0.86,0.41,1.21
	s0.68,0.52,1.14,0.56c0.45,0.02,0.85-0.11,1.19-0.41s0.52-0.68,0.56-1.14C18.7,34.14,18.67,33.93,18.61,33.73z M17.94,33.45
	c0.22,0.26,0.32,0.55,0.3,0.88s-0.16,0.61-0.41,0.84c-0.26,0.22-0.55,0.32-0.88,0.3c-0.33-0.02-0.61-0.16-0.84-0.41
	c-0.22-0.26-0.32-0.55-0.3-0.88c0.01-0.17,0.06-0.32,0.12-0.46c0.07-0.13,0.17-0.26,0.29-0.37c0.13-0.11,0.27-0.2,0.41-0.25
	c0.15-0.04,0.3-0.07,0.47-0.06C17.44,33.07,17.72,33.2,17.94,33.45z M21.23,32.3c-0.08-0.05-0.15-0.06-0.24-0.05
	c-0.09,0.01-0.16,0.06-0.22,0.14c-0.05,0.08-0.06,0.16-0.05,0.25l0.55,2.82c0.01,0.09,0.06,0.16,0.14,0.22
	c0.06,0.03,0.12,0.05,0.18,0.05c0.02,0,0.04,0,0.06-0.01c0.07-0.01,0.16-0.04,0.22-0.14c0.05-0.08,0.06-0.16,0.05-0.25l-0.55-2.82
	C21.36,32.44,21.31,32.36,21.23,32.3z M25.79,30.88c-0.03-0.08-0.1-0.14-0.21-0.18c-0.08-0.02-0.16-0.01-0.23,0.02
	c-0.08,0.03-0.14,0.09-0.18,0.21c-0.02,0.08-0.01,0.16,0.02,0.24l0.79,1.74l-2.4-1.25c-0.09-0.03-0.19-0.03-0.27,0l-0.04,0.03
	c-0.01,0.01-0.02,0.01-0.02,0.02c-0.01,0.01-0.02,0.02-0.03,0.03c-0.04,0.03-0.06,0.07-0.08,0.11c-0.02,0.05-0.02,0.09-0.02,0.13
	c0,0.06,0.02,0.12,0.03,0.14l1.19,2.61c0.04,0.09,0.11,0.14,0.17,0.17l0.03,0.01c0.03,0.01,0.06,0.01,0.09,0.01
	c0.05,0,0.1-0.01,0.14-0.03c0.08-0.03,0.14-0.09,0.18-0.2c0.02-0.08,0.01-0.16-0.02-0.24l-0.79-1.74l2.4,1.24
	c0.09,0.03,0.19,0.03,0.27,0l0.04-0.03c0.01-0.01,0.02-0.01,0.02-0.02c0.01-0.01,0.02-0.02,0.03-0.03c0.04-0.03,0.06-0.07,0.08-0.11
	c0.02-0.05,0.02-0.09,0.02-0.13c0-0.05-0.01-0.08-0.03-0.14L25.79,30.88z M29.82,29.83c-0.12-0.07-0.25-0.11-0.4-0.13
	c-0.11-0.01-0.26-0.01-0.4,0.02c-0.14,0.02-0.27,0.08-0.4,0.18c-0.03,0.03-0.06,0.04-0.11,0.05c-0.05,0.01-0.07,0.02-0.12,0.01
	c-0.01,0-0.05-0.01-0.1-0.03c-0.03-0.02-0.06-0.04-0.08-0.07c-0.03-0.04-0.05-0.07-0.06-0.1c-0.01-0.05-0.01-0.1-0.01-0.13
	l0.01-0.04c0-0.03,0.01-0.06,0.02-0.07l0.03-0.04c0.02-0.03,0.03-0.05,0.05-0.06c0.04-0.03,0.09-0.05,0.12-0.07
	c0.05-0.01,0.1-0.01,0.11-0.01c0.02,0.01,0.05,0.02,0.08,0.02c0.08,0.04,0.13,0.04,0.21,0.01c0.03,0,0.08-0.02,0.12-0.07
	c0.03-0.03,0.06-0.06,0.08-0.09c0.01-0.02,0.03-0.07,0.03-0.13c0-0.03,0-0.06-0.02-0.12c-0.02-0.05-0.03-0.08-0.07-0.12
	c-0.05-0.05-0.1-0.08-0.15-0.1c-0.08-0.02-0.17-0.06-0.25-0.05c-0.1-0.01-0.19,0-0.26,0.01c-0.08,0.01-0.15,0.04-0.23,0.08
	c-0.08,0.04-0.14,0.08-0.2,0.13c-0.18,0.17-0.29,0.36-0.33,0.6c-0.01,0.12-0.01,0.27,0.03,0.41c0.04,0.15,0.11,0.27,0.2,0.37
	c0.08,0.11,0.18,0.19,0.29,0.24c0.12,0.06,0.23,0.09,0.34,0.1c0.1,0.01,0.23,0,0.35-0.02c0.12-0.03,0.23-0.08,0.34-0.16
	c0.04-0.03,0.1-0.05,0.16-0.07c0.06-0.01,0.11-0.02,0.17-0.01c0.04,0,0.09,0.01,0.14,0.04c0.04,0.03,0.1,0.07,0.15,0.12
	c0.04,0.04,0.06,0.09,0.08,0.15c0.02,0.06,0.02,0.12,0.02,0.19c0,0.05-0.02,0.11-0.05,0.18c-0.01,0.04-0.07,0.09-0.1,0.13
	c-0.07,0.06-0.13,0.09-0.21,0.11c-0.09,0.02-0.17,0.02-0.24-0.01c-0.11-0.03-0.21-0.01-0.31,0.07c-0.03,0.03-0.06,0.06-0.08,0.09
	c-0.01,0.02-0.03,0.07-0.03,0.13c0,0.04,0,0.09,0.02,0.13c0.02,0.05,0.03,0.08,0.06,0.11c0.05,0.06,0.11,0.1,0.19,0.12
	c0.11,0.03,0.2,0.03,0.28,0.03c0.02,0,0.05,0,0.07,0c0.07,0,0.14-0.01,0.22-0.03c0.09-0.03,0.18-0.06,0.25-0.1
	c0.07-0.04,0.15-0.09,0.23-0.15c0.21-0.18,0.33-0.4,0.38-0.68c0.06-0.35-0.03-0.66-0.26-0.93C30.05,29.98,29.93,29.89,29.82,29.83z
	 M32.8,28.66c0.02,0.08,0,0.17-0.05,0.24c-0.06,0.08-0.13,0.13-0.22,0.14l-0.02,0l-0.02,0c-0.07-0.01-0.14-0.03-0.2-0.08l-2.37-1.68
	c-0.02-0.02-0.05-0.05-0.07-0.1c0,0,0,0,0,0c0,0-0.01-0.02-0.01-0.03c0-0.01-0.01-0.02-0.01-0.03c-0.02-0.05-0.02-0.09-0.01-0.12
	l0.01-0.06c0-0.01,0.01-0.02,0.01-0.03c0.01-0.02,0.01-0.03,0.02-0.05l0.38-0.54c0.08-0.11,0.15-0.18,0.23-0.24
	c0.08-0.06,0.17-0.12,0.27-0.16c0.1-0.04,0.2-0.07,0.29-0.08c0.1-0.01,0.2-0.03,0.31-0.01c0.09,0.01,0.2,0.03,0.29,0.06
	c0.11,0.03,0.22,0.1,0.3,0.15c0.27,0.2,0.43,0.45,0.49,0.78c0.06,0.32-0.01,0.63-0.21,0.9l-0.18,0.25l0.65,0.46
	C32.74,28.5,32.79,28.57,32.8,28.66z M31.69,26.73c-0.04-0.07-0.08-0.11-0.15-0.16c-0.06-0.04-0.13-0.07-0.21-0.09
	c-0.07-0.02-0.13-0.02-0.2,0c-0.07,0.01-0.13,0.03-0.21,0.08c-0.06,0.03-0.1,0.08-0.15,0.15l-0.17,0.25l0.89,0.63l0.18-0.26
	c0.05-0.06,0.07-0.12,0.08-0.19c0.02-0.08,0.02-0.14,0.01-0.23C31.75,26.86,31.72,26.78,31.69,26.73z M35.64,23.42
	c-0.15,0.46-0.45,0.81-0.88,1.02c-0.26,0.13-0.52,0.19-0.78,0.19c-0.19,0-0.37-0.03-0.56-0.1c-0.47-0.16-0.81-0.45-1.03-0.88
	c-0.22-0.44-0.25-0.9-0.1-1.35c0.15-0.45,0.45-0.8,0.88-1.02c0.23-0.12,0.46-0.18,0.67-0.19c0.24-0.01,0.46,0.02,0.68,0.1
	c0.46,0.15,0.81,0.45,1.02,0.88C35.76,22.52,35.79,22.96,35.64,23.42z M33.96,21.76c-0.17,0-0.33,0.04-0.49,0.12
	c-0.28,0.14-0.46,0.35-0.56,0.64l0,0c-0.05,0.15-0.07,0.29-0.06,0.42c0.01,0.14,0.05,0.27,0.12,0.42c0.08,0.15,0.16,0.26,0.26,0.34
	c0.1,0.09,0.23,0.16,0.38,0.22c0.29,0.09,0.56,0.07,0.84-0.06c0.27-0.14,0.45-0.35,0.56-0.64c0.09-0.29,0.07-0.57-0.06-0.84
	c-0.14-0.27-0.35-0.45-0.64-0.56C34.19,21.78,34.07,21.76,33.96,21.76z M23.35,10.96c0.04,0.11,0.07,0.22,0.07,0.33v11.32
	c0,0.23-0.09,0.44-0.28,0.6c-0.18,0.17-0.4,0.25-0.67,0.25c-0.26,0-0.48-0.08-0.67-0.25s-0.28-0.37-0.28-0.6v-8.79l-4.46,5.07
	c-0.27,0.26-0.46,0.32-0.83,0.32c-0.39,0-0.56-0.1-0.87-0.41l-4.41-4.98v8.79c0,0.23-0.09,0.44-0.28,0.6
	c-0.18,0.17-0.41,0.25-0.67,0.25s-0.48-0.08-0.67-0.25c-0.19-0.17-0.28-0.37-0.28-0.6V11.29c0-0.12,0.02-0.23,0.07-0.33
	s0.11-0.19,0.2-0.27c0.09-0.08,0.19-0.13,0.3-0.18c0.11-0.04,0.25-0.07,0.38-0.07c0.38,0,0.6,0.21,0.85,0.46l5.39,5.87l5.39-5.87
	c0.26-0.26,0.5-0.46,0.85-0.46c0.12,0,0.26,0.02,0.37,0.07c0.11,0.04,0.21,0.1,0.3,0.18C23.25,10.77,23.32,10.86,23.35,10.96z
	 M26.89,10.86c0.21,0.21,0.32,0.48,0.32,0.78s-0.11,0.57-0.32,0.78c-0.21,0.21-0.48,0.32-0.78,0.32s-0.57-0.11-0.78-0.32
	C25.11,12.21,25,11.94,25,11.64s0.11-0.57,0.32-0.78c0.21-0.21,0.48-0.32,0.78-0.32S26.67,10.65,26.89,10.86z M26.77,13.71
	c0.18,0.18,0.27,0.4,0.28,0.67v8.17c0,0.27-0.1,0.49-0.28,0.67c-0.18,0.19-0.4,0.28-0.66,0.28c-0.26,0-0.48-0.1-0.66-0.28
	c-0.19-0.18-0.28-0.4-0.28-0.67v-8.17c0-0.27,0.1-0.49,0.28-0.67c0.18-0.19,0.4-0.28,0.66-0.28C26.36,13.43,26.58,13.52,26.77,13.71
	z M18.13,17.64 M18.13,17.64 M18.13,17.64"/>
</svg>
