<svg version="1.1" id="Layer_1" xmlns="http://www.w3.org/2000/svg" x="0" y="0" viewBox="0 0 36 36" xml:space="preserve"><style>.st0{fill:#fff}</style><path class="st0" d="M26.3 9.8c-.4-.4-.4-1-.1-1.4l1.2-1.2c.4-.4 1-.4 1.3 0l.1.1c.4.4.4 1 0 1.3l-1.2 1.2c-.4.4-.9.4-1.3 0m-8.8 7.3c.4-.4 1-.4 1.3 0l.1.1.2.4-1.9-.2.3-.3zm8.7.1c.4-.4 1-.4 1.4-.1l1.2 1.2c.4.4.4 1 0 1.3l-.1.1c-.4.4-1 .4-1.3 0l-1.2-1.2c-.4-.3-.4-.9 0-1.3zm-10-9.9c.4-.4 1-.4 1.4-.1l1.2 1.2c.4.4.4 1 0 1.3l-.1.1c-.4.4-1 .4-1.3 0l-1.2-1.2c-.3-.4-.3-1 0-1.3zm11.6 6.2v-.1c0-.5.4-.9.9-.9h1.8c.5 0 .9.4.9.9v.1c0 .5-.4.9-.9.9h-1.8c-.5.1-.9-.3-.9-.9zm-14.1 0v-.1c0-.5.4-.9.9-.9h1.8c.5 0 .9.4.9.9v.1c0 .5-.4.9-.9.9h-1.8c-.5.1-.9-.3-.9-.9zm8.8-8.9h.1c.5 0 .9.4.9.9v1.8c0 .5-.4.9-.9.9h-.1c-.5 0-.9-.4-.9-.9V5.5c-.1-.5.4-.9.9-.9zm0 4.5c2.4 0 4.4 2 4.4 4.4 0 2.4-2 4.4-4.4 4.4-2.4 0-4.4-2-4.4-4.4 0-2.4 2-4.4 4.4-4.4zm3.2 11.5l.7.3-.3.3-.9-.1.5-.5zm-1.5-.6l.7.3-.8.8h-1l1.1-1.1zm-1.6-.5l.7.2-1.4 1.4-1.1.1 1.8-1.7zm-7.5-1.1h1l-5.9 5.9-1.9.9 6.8-6.8zm5.7.7l.8.2-2.2 2.2-1.2.2 2.6-2.6zm-1.7-.4l.8.1-3.2 3.2-1.3.4 3.7-3.7zm-1.9-.2l.9.1-4.3 4.3-1.5.6 4.9-5zm-6.7.2l1.1-.2-7.1 7.1v-1l6-5.9zm-2.7.6l1.3-.3-4.5 4.5v-1l3.2-3.2zm-3.3 7.9v-.4l8.4-8.4h1l-8.1 8.1-1.3.7zm23.1-5.8l-.4-.1.1-.1.3.2zm-23.1-.9l1.5-.6-1.5 1.5v-.9zm0 10.3v-2.3c13.1-8.2 21.8-7.4 26.9-5.3v7.6c0 .3-.3.6-.6.6H5.1c-.3 0-.6-.2-.6-.6zm-.6-28c-.7 0-1.2.6-1.2 1.2v28.1c0 .7.5 1.2 1.2 1.2H32c.7 0 1.2-.5 1.2-1.2V4c0-.7-.5-1.2-1.2-1.2H3.9zM2.4 0h31.2C34.9 0 36 1.1 36 2.4v31.2c0 1.3-1.1 2.4-2.4 2.4H2.4C1.1 36 0 34.9 0 33.6V2.4C0 1.1 1.1 0 2.4 0z"/></svg>