<?xml version="1.0" encoding="utf-8"?>
<!-- Generator: Adobe Illustrator 26.3.1, SVG Export Plug-In . SVG Version: 6.00 Build 0)  -->
<svg version="1.1" id="Layer_2" xmlns="http://www.w3.org/2000/svg" xmlns:xlink="http://www.w3.org/1999/xlink" x="0px" y="0px"
	 viewBox="0 0 36 36" style="enable-background:new 0 0 36 36;" xml:space="preserve">
<style type="text/css">
	.st0{fill:#FFFFFF;}
</style>
<path class="st0" d="M11.58,5.28V0.65c0-0.36,0.29-0.65,0.65-0.65s0.65,0.29,0.65,0.65v4.64c0,0.36-0.29,0.65-0.65,0.65
	S11.58,5.64,11.58,5.28z M6.44,5.93c0.36,0,0.65-0.29,0.65-0.65V0.65C7.09,0.29,6.8,0,6.44,0C6.09,0,5.8,0.29,5.8,0.65v4.64
	C5.8,5.64,6.09,5.93,6.44,5.93z M18,5.93c0.36,0,0.65-0.29,0.65-0.65V0.65C18.65,0.29,18.36,0,18,0s-0.65,0.29-0.65,0.65v4.64
	C17.35,5.64,17.64,5.93,18,5.93z M36,6.72v24.77c0,2.49-2.02,4.51-4.51,4.51H4.51C2.02,36,0,33.98,0,31.49V6.72
	c0-2.49,2.02-4.51,4.51-4.51h0.64v1.29C4.54,3.92,4.12,4.6,4.12,5.39c0,1.28,1.04,2.32,2.32,2.32s2.32-1.04,2.32-2.32
	c0-0.79-0.41-1.47-1.02-1.89V2.21h3.18v1.29C10.32,3.92,9.9,4.6,9.9,5.39c0,1.28,1.04,2.32,2.32,2.32s2.32-1.04,2.32-2.32
	c0-0.79-0.41-1.47-1.02-1.89V2.21h3.18v1.29c-0.61,0.42-1.02,1.09-1.02,1.89c0,1.28,1.04,2.32,2.32,2.32s2.32-1.04,2.32-2.32
	c0-0.79-0.41-1.47-1.02-1.89V2.21h3.18v1.29c-0.61,0.42-1.02,1.09-1.02,1.89c0,1.28,1.04,2.32,2.32,2.32s2.32-1.04,2.32-2.32
	c0-0.79-0.41-1.47-1.02-1.89V2.21h3.18v1.29c-0.61,0.42-1.02,1.09-1.02,1.89c0,1.28,1.04,2.32,2.32,2.32s2.32-1.04,2.32-2.32
	c0-0.79-0.41-1.47-1.02-1.89V2.21h0.64C33.98,2.21,36,4.23,36,6.72z M7.62,29.16c0-0.88-0.71-1.59-1.59-1.59s-1.59,0.71-1.59,1.59
	s0.71,1.59,1.59,1.59S7.62,30.03,7.62,29.16z M7.62,23.91c0-0.88-0.71-1.59-1.59-1.59s-1.59,0.71-1.59,1.59s0.71,1.59,1.59,1.59
	S7.62,24.79,7.62,23.91z M7.62,18.66c0-0.88-0.71-1.59-1.59-1.59s-1.59,0.71-1.59,1.59s0.71,1.59,1.59,1.59S7.62,19.54,7.62,18.66z
	 M7.62,13.41c0-0.88-0.71-1.59-1.59-1.59s-1.59,0.71-1.59,1.59S5.15,15,6.03,15S7.62,14.29,7.62,13.41z M31.56,29.16
	c0-0.63-0.51-1.14-1.14-1.14H10.76c-0.63,0-1.14,0.51-1.14,1.14c0,0.63,0.51,1.14,1.14,1.14h19.66
	C31.05,30.3,31.56,29.79,31.56,29.16z M31.56,23.91c0-0.63-0.51-1.14-1.14-1.14H10.76c-0.63,0-1.14,0.51-1.14,1.14
	c0,0.63,0.51,1.14,1.14,1.14h19.66C31.05,25.05,31.56,24.54,31.56,23.91z M31.56,18.66c0-0.63-0.51-1.14-1.14-1.14H10.76
	c-0.63,0-1.14,0.51-1.14,1.14c0,0.63,0.51,1.14,1.14,1.14h19.66C31.05,19.8,31.56,19.29,31.56,18.66z M31.56,13.41
	c0-0.63-0.51-1.14-1.14-1.14H10.76c-0.63,0-1.14,0.51-1.14,1.14c0,0.63,0.51,1.14,1.14,1.14h19.66
	C31.05,14.56,31.56,14.04,31.56,13.41z M29.56,5.93c0.36,0,0.65-0.29,0.65-0.65V0.65C30.2,0.29,29.91,0,29.56,0
	c-0.36,0-0.65,0.29-0.65,0.65v4.64C28.91,5.64,29.2,5.93,29.56,5.93z M23.78,5.93c0.36,0,0.65-0.29,0.65-0.65V0.65
	c0-0.36-0.29-0.65-0.65-0.65s-0.65,0.29-0.65,0.65v4.64C23.13,5.64,23.42,5.93,23.78,5.93z"/>
</svg>
