<svg version="1.1" id="Layer_1" xmlns="http://www.w3.org/2000/svg" x="0" y="0" viewBox="0 0 36 36" xml:space="preserve"><style>.st0{fill:#fff}</style><path class="st0" d="M33.9 12.6c1.1 0 1.9.9 1.9 1.9v19.4c0 1.1-.9 1.9-1.9 1.9H14.6c-1.1 0-1.9-.9-1.9-1.9v-17l1.8-.7v16.7c0 .6.5 1.2 1.2 1.2H33c.6 0 1.2-.5 1.2-1.2V15.6c0-.6-.5-1.2-1.2-1.2H18.6c.4-.4.7-1 .5-1.8h14.8m-6.4 16.6l.1.2.2.2.2.1c.1 0 .2 0 .3-.1.1-.1.1-.2.1-.3 0-.1 0-.2-.1-.3-.1-.1-.2-.1-.3-.1-.1 0-.2 0-.3.1-.2-.1-.2 0-.2.2zm1-.8h-.2l-.1-.2c-.1-.1-.2-.2-.3-.2l-.2.1-.2.2-.1.4.2-.2.3-.1c.2 0 .3.1.4.2.1.1.2.3.2.5l-.1.3-.2.2-.3.1c-.2 0-.4-.1-.5-.2-.1-.1-.2-.4-.2-.7 0-.4.1-.7.2-.8.1-.2.3-.2.5-.2s.3 0 .4.1c.1.2.2.3.2.5zm-1.9 1.4h-.2v-1.6l-.2.2-.3.1v-.2l.4-.2.2-.3h.2v2zm-1.4-1.3c0-.1 0-.2-.1-.3-.1-.1-.2-.2-.3-.2-.1 0-.2 0-.3.1-.1.1-.1.2-.1.3 0 .1 0 .2.1.3.1.1.2.1.3.1.1 0 .2 0 .3-.1.1 0 .1-.1.1-.2zm-1 .8h.2l.1.3.2.1h.2l.1-.1.1-.2v-.3H25l-.3.1c-.2 0-.3-.1-.4-.2-.1-.1-.2-.3-.2-.5s.1-.4.2-.5c.1-.1.3-.2.4-.2l.3.1.2.3.1.6-.1.6c-.1.2-.1.3-.2.3-.1.1-.2.1-.4.1s-.3 0-.4-.1c.1-.1 0-.2 0-.4zm-1.6-.5c0 .3 0 .5.1.6.1.1.2.2.3.2.1 0 .2 0 .3-.2.1-.1.1-.3.1-.6s0-.5-.1-.6c-.1-.1-.2-.2-.3-.2-.1 0-.2 0-.3.1 0 .2-.1.4-.1.7zm-.2 0l.1-.6c0-.1.1-.3.2-.3.1-.1.2-.1.4-.1l.3.1.2.2.1.3v.5l-.1.6c0 .1-.1.3-.2.3-.1.1-.2.1-.4.1s-.3-.1-.4-.2c-.2-.2-.2-.5-.2-.9zm-.7 1h-.2v-1.6l-.2.2-.3.1v-.2l.4-.2.2-.3h.2v2zm-1.3 0h-.2v-1.6l-.2.2-.3.1v-.2l.4-.2.2-.3h.2v2zm3.3-11.1h1.1V27h-1.1v-8.3zm1.9-.1h1.1V27h-1.1v-8.4zm1.7.1h1.1V27h-1.1v-8.3zm2.6-.1h1.5v11.2h-1.5V18.6zm-8.3.1h.7V27h-.7v-8.3zm-2-.1h1.1V27h-1.1v-8.4zm-2.6 0h1.5v11.2H17V18.6zm2.9-16.2c.2-.1-7.5-5.3-15 5.1-.8 1.1-.8 2.5-.3 2.8.5.3 1.8.1 3-2.2 0 0 2.9-8.5 12.3-5.7zm-18 14.8c-.3-.1-.6-.3-.7-.7-2.1-6.8-.4-10 .4-11.1.1-.2.3-.2.3-.2.1 0 .3-.1.4 0l1.9 1c2.4-2.7 4.7-6 10.7-6 6.9 0 10.5 4.7 11.3 10.6h-2.4c-1.2-3.7-3.6-5.1-6.3-5.1-3.4.1-5.1 1.7-6.6 3.9 1 .5 2.5 1.3 3.3 1.8.3.2.5.6.4 1-.1.4-.5.6-.8.7-1.9.5-6.1 1.7-10.6 3.9-.6.3-1.1.2-1.3.2z"/></svg>