<svg version="1.1" id="Layer_1" xmlns="http://www.w3.org/2000/svg" x="0" y="0" viewBox="0 0 36 36" xml:space="preserve"><style>.st0{fill:#fff}</style><path class="st0" d="M20.9 4.9l-.1.3c-.1.1-.2.1-.3.1h-1.1c-.1 0-.2 0-.3-.1l-.1-.4V2.7l.1-.3c.1-.1.2-.1.3-.1h1.1c.1 0 .2 0 .3.1l.1.3v2.2m-.5-2.1v-.2l-.2-.1h-.6l-.1.1V5H20.4V2.8zm-2 2.1l-.1.3c-.1.1-.2.1-.3.1h-1.1c-.1 0-.2 0-.3-.1l-.1-.3V2.7l.1-.3c.1-.1.2-.1.3-.1H18c.1 0 .2 0 .3.1l.1.3v2.2zm-.5-2.1v-.2l-.2-.1h-.6l-.1.1V5H17.9V2.8zM15.4 5l.1-.2.2-.1.2.1.1.2-.1.2-.2.1-.2-.1-.1-.2zm-.7-.1l-.1.3c-.1.1-.2.1-.3.1h-1.1c-.1 0-.2 0-.3-.1l-.1-.3V2.7l.1-.3c.1 0 .1-.1.2-.1h1.1c.1 0 .2 0 .3.1l.1.3v2.2zm-.5-2.1v-.2l-.2-.1h-.6l-.1.1-.1.2v2l.1.2H14.2V2.8zm-2 2.1l-.1.3c-.1.1-.2.1-.3.1h-1.1c-.1 0-.2 0-.3-.1l-.1-.3V2.7l.1-.3c.1-.1.2-.1.3-.1h1.1c.1 0 .2 0 .3.1l.1.3v2.2zm-.5-2.1v-.2l-.2-.1h-.6l-.1.1V5H11.7V2.8zm-2 2.1l-.1.2c-.1.1-.2.1-.3.1H8.1c-.1 0-.1 0-.2-.1l-.1-.3V2.7l.1-.3c.1 0 .1-.1.2-.1h1.1c.1 0 .2 0 .3.1l.1.3v2.2zm-.5-2.1v-.2L9 2.5h-.6l-.1.1V5H9.2V2.8zm4.1 4.9h2.4c.2 0 .4.2.4.4v2.4c0 .2-.1.3-.2.4h-2.5c-.2 0-.4-.2-.4-.4V8.1c-.1-.3 0-.4.3-.4zM7.9 18.3h2.4l.3.1v3l-.3.1H7.9c-.2 0-.4-.2-.4-.4v-2.4c0-.2.2-.4.4-.4zm0-5.2h2.4c.2 0 .4.2.4.4v.2c-.1.3-.1.6-.1 1v1.4l-.3.1H7.9c-.2 0-.4-.2-.4-.4v-2.4c0-.2.2-.3.4-.3zm0-5.4h2.4c.2 0 .4.2.4.4v2.4c0 .2-.2.4-.4.4H7.9c-.2 0-.4-.2-.4-.4V8.1c0-.2.2-.4.4-.4zM7.5 7c-.4 0-.7.3-.7.7v3.1c0 .4.3.8.8.8h3.1c.4 0 .8-.3.8-.8V7.7c0-.4-.3-.8-.8-.8H7.5zm11.1.7H21c.2 0 .4.2.4.4v2.4c0 .1-.1.3-.2.3h-2.8c-.1-.1-.2-.2-.2-.3V8.1c0-.2.2-.4.4-.4zM2.5 18.3h2.4c.2 0 .4.2.4.4v2.4c0 .2-.2.4-.4.4H2.5c-.2 0-.4-.2-.4-.4v-2.4c0-.2.2-.4.4-.4zm0-5.2h2.4c.2 0 .4.2.4.4v2.4c0 .2-.2.4-.4.4H2.5c-.2 0-.4-.2-.4-.4v-2.4c0-.3.2-.4.4-.4zm0-5.4h2.4c.2 0 .4.2.4.4v2.4c0 .2-.2.4-.4.4H2.5c-.2 0-.4-.2-.4-.4V8.1c0-.2.2-.4.4-.4zm-.4 9.9c-.4 0-.8.3-.8.8v3.1c0 .4.3.8.8.8h3.1c.4 0 .8-.3.8-.8v-3.1c0-.4-.3-.8-.8-.8H2.1zm0-5.3c-.4 0-.8.3-.8.8v3.1c0 .4.3.8.8.8h3.1c.5 0 .8-.4.8-.8v-3.1c0-.4-.3-.8-.8-.8H2.1zm0-5.3c-.4 0-.7.3-.7.7v3.1c0 .4.3.8.8.8h3.1c.4 0 .8-.3.8-.8V7.7C6 7.3 5.7 7 5.2 7H2.1zm.2-5.5c-.5 0-1 .4-1 1V5c0 .5.4 1 1 1h18.8c.5 0 1-.4 1-1V2.4c0-.5-.4-1-1-1H2.3zM2.1.1h19.3c1.1 0 1.9.9 1.9 1.9v8.7h-1.2v-3c0-.4-.3-.8-.8-.8h-3.1c-.4 0-.8.3-.8.8v3.1h-.7V7.7c0-.4-.3-.8-.8-.8h-3.1c-.4 0-.8.3-.8.8v3.1c0 .2.1.4.3.6-.5.3-.9.7-1.2 1.2-.1-.1-.3-.2-.5-.2H7.5c-.4 0-.8.3-.8.8v3.1c0 .4.3.8.8.8h3v.6h-3c-.4 0-.8.3-.8.8v3.1c0 .4.3.8.8.8h3v1.1H2.1C1 23.5.2 22.6.2 21.6V2.1C.1 1 1 .1 2.1.1zm13.5 14.3c-.6 0-1.2.5-1.2 1.2v17.3c0 .6.5 1.2 1.2 1.2h17.3c.6 0 1.2-.5 1.2-1.2V15.6c0-.6-.5-1.2-1.2-1.2H15.6zm-1-1.8H34c1.1 0 1.9.9 1.9 1.9v19.4c0 1.1-.9 1.9-1.9 1.9H14.6c-1.1 0-1.9-.9-1.9-1.9V14.6c-.1-1.1.8-2 1.9-2zm12.9 16.6l.1.2.2.2.2.1c.1 0 .2 0 .3-.1.1-.1.1-.2.1-.3 0-.1 0-.2-.1-.3-.1-.1-.2-.1-.3-.1-.1 0-.2 0-.3.1-.2-.1-.2 0-.2.2zm1-.8h-.2l-.1-.2c-.1-.1-.1-.1-.2-.1l-.2.1-.2.2-.1.4.2-.2.3-.1c.2 0 .3.1.4.2.1.1.2.3.2.5l-.1.3-.2.2-.3.1c-.2 0-.4-.1-.5-.2-.1-.1-.2-.4-.2-.7 0-.4.1-.7.2-.8.1-.2.3-.2.5-.2s.3 0 .4.1.1.2.1.4zm-1.9 1.4h-.2v-1.6l-.2.2-.3.1v-.2l.4-.2.2-.3h.2v2zm-1.4-1.3c0-.1 0-.2-.1-.3-.1-.1-.2-.1-.3-.1-.1 0-.2 0-.3.1-.1.1-.1.2-.1.3 0 .1 0 .2.1.3.1.1.2.1.3.1.1 0 .2 0 .3-.1.1 0 .1-.2.1-.3zm-1 .8h.2l.1.3.2.1h.2l.1-.1.1-.2v-.3H25l-.3.1c-.2 0-.3-.1-.4-.2-.1-.1-.2-.3-.2-.5s.1-.4.2-.5c.1-.1.3-.2.4-.2l.3.1.2.3.1.6-.1.6c-.1.1-.1.3-.2.3-.1.1-.2.1-.4.1s-.3 0-.4-.1c.1-.1 0-.2 0-.4zm-1.6-.5c0 .3 0 .5.1.6.1.1.2.2.3.2s.2 0 .3-.2c.1-.1.1-.3.1-.6s0-.5-.1-.6c-.1-.1-.2-.2-.3-.2-.1 0-.2 0-.3.1 0 .2-.1.4-.1.7zm-.2 0l.1-.6c0-.1.1-.3.2-.3.1-.1.2-.1.4-.1l.3.1.2.2.1.3v.5l-.1.6c0 .1-.1.3-.2.3-.1.1-.2.1-.4.1s-.3-.1-.4-.2c-.2-.2-.2-.5-.2-.9zm-.7 1h-.2v-1.6l-.2.2-.3.1v-.2l.4-.2.2-.3h.2v2zm-1.3 0h-.2v-1.6l-.2.2-.3.1v-.2l.4-.2.2-.3h.2v2zm3.3-11.1h1.1V27h-1.1v-8.3zm1.9-.1h1.1V27h-1.1v-8.4zm1.7.1h1.1V27h-1.1v-8.3zm2.6-.1h1.5v11.2h-1.5V18.6zm-8.4.1h.7V27h-.7v-8.3zm-1.9-.1h1.1V27h-1.1v-8.4zm-2.6 0h1.5v11.2H17V18.6z"/></svg>