<svg version="1.0" id="Layer_1" xmlns="http://www.w3.org/2000/svg" x="0" y="0" viewBox="0 0 36 36" xml:space="preserve"><style>.st0{fill:#fff}</style><path class="st0" d="M25.094 29.49l-.132.128-.193.049-.205-.08-.109-.254-.25.029c.02.167.079.297.175.389a.524.524 0 00.376.139c.144 0 .27-.04.377-.118a.707.707 0 00.242-.343l.081-.606-.081-.559-.238-.298-.347-.104a.572.572 0 00-.438.186.69.69 0 00-.173.491c0 .196.055.356.165.475.11.121.245.181.404.181l.266-.072.193-.19.001.049-.035.291-.079.217zm.004-.635a.353.353 0 01-.276.117.368.368 0 01-.287-.117.43.43 0 01-.107-.303c0-.138.037-.252.112-.338a.366.366 0 01.288-.131c.114 0 .205.04.275.121a.49.49 0 01.104.328.454.454 0 01-.109.323zm-.308-1.797h-1.122v-8.396h1.122v8.396zm-1.504.84l-.283-.065a.564.564 0 00-.356.11.658.658 0 00-.212.332l-.072.574c0 .373.065.647.195.822a.553.553 0 00.446.192.557.557 0 00.356-.111.646.646 0 00.212-.332l.071-.571-.044-.469-.115-.296-.198-.186zm-.006 1.59a.334.334 0 01-.277.151.334.334 0 01-.277-.151c-.075-.1-.112-.314-.112-.641 0-.317.039-.535.116-.652a.327.327 0 01.271-.138c.116 0 .21.052.282.157.074.105.11.316.11.634-.001.325-.038.539-.113.64zm8.245-10.866v11.24h-1.558v-11.24h1.558zm-4.776 8.436h-1.122v-8.436h1.122v8.436zm-.347 2.804v-1.559l-.237.168-.263.126v-.236l.367-.235.222-.266h.161v2.001h-.25zm-4.116-2.794l-.744-.01v-8.396l.744.01v8.396zm13.642-12.541v19.457a1.947 1.947 0 01-1.947 1.946H14.512a1.946 1.946 0 01-1.947-1.946v-16.72a3.264 3.264 0 001.616-.54l.183-.121v16.362c0 .645.523 1.167 1.168 1.167h17.43c.645 0 1.168-.523 1.168-1.167V15.546c0-.645-.523-1.167-1.168-1.167h-7.28l2.711-1.797h5.588a1.945 1.945 0 011.947 1.945zM21.474 29.833v-1.559l-.237.17-.263.126v-.237l.366-.233.222-.267h.161v2.001h-.249zm5.958-.168c.13.15.3.224.505.224l.326-.086.225-.248.082-.35a.643.643 0 00-.174-.468.561.561 0 00-.422-.181l-.27.065-.22.2.071-.448.171-.228.222-.061a.32.32 0 01.248.111l.093.222.251-.027a.605.605 0 00-.183-.388.557.557 0 00-.393-.14.636.636 0 00-.513.227c-.145.175-.217.454-.217.837.002.343.067.589.198.739zm.177-.771a.422.422 0 01.3-.116.4.4 0 01.302.116c.072.077.11.183.11.318a.473.473 0 01-.112.333.375.375 0 01-.289.122l-.222-.06-.154-.172-.057-.237a.392.392 0 01.122-.304zm.797-1.836h-1.122v-8.396h1.122v8.396zm-8.281 2.775v-1.559l-.237.17-.263.126v-.237l.367-.233.223-.267h.161v2.001h-.251zm-1.6.029h-1.556v-11.24h1.556v11.24zm2.144-2.804h-1.123v-8.436h1.123v8.436zM30.803 8.022a1.59 1.59 0 01-.659 1.009l-9.1 6.034a1.27 1.27 0 01-.707.218 1.164 1.164 0 01-.145.008c-.776 0-1.404-.716-1.404-1.6v-.021l4.493-2.979a3.546 3.546 0 001.505-2.245c.329-1.504-.283-3.058-1.521-3.864l-4.472-2.921c.013-.808.549-1.471 1.24-1.56.321-.073.666-.02.972.182l9.134 5.966c.557.363.812 1.096.664 1.773zm-7.964 0a1.59 1.59 0 01-.659 1.009l-9.1 6.034a1.27 1.27 0 01-.707.218 1.164 1.164 0 01-.145.008c-.776 0-1.404-.716-1.404-1.6v-2.878H3.125A3.052 3.052 0 01.072 7.762v-.163a3.052 3.052 0 013.053-3.051h7.699V1.69c0-.822.545-1.499 1.245-1.589.321-.073.666-.02.972.182l9.134 5.966c.557.363.812 1.096.664 1.773z"/></svg>