<svg version="1.1" id="Layer_1" xmlns="http://www.w3.org/2000/svg" x="0" y="0" viewBox="0 0 36 36" xml:space="preserve"><style>.st0{fill:#fff}</style><path class="st0" d="M4.4 13.6L14 4c.4-.4 1-.4 1.4 0 .4.4.4 1 0 1.4L5.7 15c-.4.4-1 .4-1.4 0-.3-.4-.3-1 .1-1.4m-.2-5l4.3-4.3c.4-.4 1-.4 1.4 0 .4.4.4 1 0 1.4L5.6 10c-.4.4-1 .4-1.4 0-.3-.4-.3-1 0-1.4zM2.5.2h23.7c1.3 0 2.4 1.1 2.4 2.4v6.2c-.6-.2-1.3-.3-2-.3V3.1c0-.5-.4-1-.9-1H3.1c-.5 0-.9.4-.9 1v15c0 .5.4 1 .9 1h16v1.5h-2.3c-.5 0-1 .2-1.3.6H2.7c-1.3 0-2.4-1.1-2.4-2.4V2.6C.2 1.2 1.2.2 2.5.2zm3.8 28.4c-.3 0-.5-.2-.5-.5v-.7c0-.2.2-.4.5-.4h4v-4.3c0-.3.2-.5.5-.5h4.1v2.5c0 .9.7 1.7 1.6 1.9v2H6.3zm11.3-6.4h17.6c.3 0 .6.3.6.6v1.6c0 .3-.3.6-.6.6h-.5v8h.5c.3 0 .6.3.6.6v1.6c0 .3-.3.6-.6.6H17.6c-.3 0-.6-.3-.6-.6v-1.6c0-.3.3-.6.6-.6h.5v-8h-.5c-.3 0-.6-.3-.6-.6v-1.6c0-.3.2-.6.6-.6zm8.8-11.6c2.8 0 5.2 2.3 5.2 5.1v4.8h-2.1v-4.8c0-1.7-1.4-3-3-3-1.7 0-3 1.4-3 3v4.8h-2.1v-4.8c-.2-2.8 2.2-5.1 5-5.1z"/></svg>