<svg version="1.1" id="Layer_1" xmlns="http://www.w3.org/2000/svg" x="0" y="0" viewBox="0 0 36 36" xml:space="preserve"><style>.st0{fill:#d1c2de}.st1{fill:#fff}</style><path class="st0" d="M35.9 2.5c0-1.3-1.1-2.4-2.4-2.4h-31C1.2.1.1 1.2.1 2.5v31c0 1.3 1.1 2.4 2.4 2.4h31c1.3 0 2.4-1.1 2.4-2.4v-31z"/><path class="st1" d="M9.1 14.3H7.9v7.4h5v-1.1H9.1zM19.6 15.3c-.3-.4-.7-.6-1.1-.9-.4-.2-1-.3-1.5-.3s-1.1.1-1.5.3c-.4.2-.8.5-1.1.9-.3.4-.5.8-.7 1.2-.1.5-.2.9-.2 1.4s.1 1 .2 1.4c.1.5.4.9.7 1.2.3.4.7.6 1.1.9.4.2 1 .3 1.5.3s1.1-.1 1.5-.3c.4-.2.8-.5 1.1-.9.3-.4.5-.8.7-1.2.1-.5.2-.9.2-1.4s-.1-1-.2-1.4c-.2-.4-.4-.8-.7-1.2zm-.5 3.7c-.1.3-.2.6-.4.9-.2.3-.4.5-.7.6-.3.2-.7.2-1.1.2s-.8-.1-1.1-.2c-.3-.2-.5-.4-.7-.6-.2-.3-.3-.6-.4-.9-.1-.3-.1-.7-.1-1 0-.3 0-.7.1-1 .1-.3.2-.6.4-.9.2-.3.4-.5.7-.6.3-.2.6-.2 1.1-.2s.8.1 1.1.2c.3.2.5.4.7.6.2.3.3.6.4.9.1.3.1.7.1 1 .1.4 0 .7-.1 1zM24.7 18.7H27c0 .3 0 .5-.1.7-.1.3-.2.5-.4.7-.2.2-.4.4-.7.5-.3.1-.6.2-.9.2-.4 0-.7-.1-1-.2-.3-.1-.5-.3-.7-.6-.2-.2-.3-.5-.5-.9-.1-.3-.2-.7-.2-1 0-.4 0-.7.1-1.1.1-.3.2-.7.4-.9.2-.3.4-.5.7-.6.3-.2.6-.2 1.1-.2.3 0 .5 0 .7.1l.6.3c.2.1.3.3.4.4.1.2.2.4.2.7v.1H28v-.1c-.1-.4-.2-.8-.4-1.1-.2-.3-.4-.6-.7-.8-.3-.2-.6-.4-1-.4-.4-.1-.7-.1-1.1-.1-.6 0-1.1.1-1.5.3-.4.2-.8.5-1.1.9-.3.4-.5.8-.7 1.3-.1.5-.2 1-.2 1.5s.1.9.2 1.4c.2.4.4.8.7 1.2.3.3.7.6 1.1.8.4.2.9.3 1.5.3.4 0 .9-.1 1.3-.3.4-.1.7-.4.9-.7l.2.8h.8v-4h-3.4v.8z"/><path class="st1" d="M29 3.2H7c-2.1 0-3.7 1.7-3.7 3.7v22.2c0 2.1 1.7 3.7 3.7 3.7h22.1c2.1 0 3.7-1.7 3.7-3.7V6.9c-.1-2.1-1.7-3.7-3.8-3.7zM31.6 29c-.1 1.4-1.2 2.6-2.6 2.6H7c-1.4 0-2.6-1.2-2.6-2.6V6.9c0-1.4 1.2-2.6 2.6-2.6h22.1c1.4 0 2.6 1.2 2.6 2.6V29z"/></svg>