<svg version="1.1" id="Layer_1" xmlns="http://www.w3.org/2000/svg" x="0" y="0" viewBox="0 0 36 36" xml:space="preserve"><style>.st0{fill:#fff}</style><path class="st0" d="M29.7 28.2v2.5l-8.7.6v-2.7l8.7-.4M11.3 20v1.1l2.7-.7V19l-2.7 1zm7.2-2.6l-3.7 1.3v1.4l3.7-1v-1.7zm-9.3 3.3v1l1.6-.4v-1.1l-1.6.5zm-5 7.7l4.1.1v-2.8l-4.1.7v2zm10.2.3v-4l-5 .8v3l5 .2zM1.3 26.9v1.5l2.2.1v-1.9l-2.2.3zM.1 31.6v-6.1l8.2-2.2v-3.5l6.7-2.5v-5.5c0-.3.7-.6 1.5-.6s1.5.3 1.5.6v4.4l2.4-.9v6.2l-3.8-.4v14.8L.1 31.6zm28.4-13.2c0-.5 1.6-1.4 3.7-1.3 2 .1 3.7.7 3.6 1.3v13.9c-.5.3-1.1.5-2.3.6l-1.9-.1v-9.4l-3-.4-.1-4.6zm1.2 14.9L21 35.2v-3.1l8.7-1v2.2zM21 24.5v-.1l9.5 1-.8 1v1.3H21v-3.2zm.2-14.1c0-.4.7-.6 1.5-.6s1.5.3 1.5.6V16l-2.9-.7v-4.9zM21.8.1c.3 0 .5.2.5.5s-.2.5-.5.5-.5-.2-.5-.5c-.1-.2.2-.5.5-.5zm2.6 5.5c0 .5-.3.9-.8 1.2.2.2.3.4.3.7 0 .6-.6 1.1-1.3 1.1s-1.3-.5-1.3-1.1v-.3c-1.1-.2-2-.8-2-1.6s.9-1.5 2.1-1.6v-.2c0-.3.2-.5.5-.7-.3-.1-.5-.3-.5-.6 0-.4.3-.7.8-.7.4 0 .8.3.8.7l-.2.4h.2c.8 0 1.5.4 1.5.9 0 .3-.2.6-.6.7.3.3.5.7.5 1.1zM15.5 4c.2 0 .4.2.4.4s-.2.4-.4.4-.4-.2-.4-.4.2-.4.4-.4zm1.9 4c0 .3-.2.7-.6.9.2.1.3.3.3.5 0 .4-.4.8-1 .8-.5 0-1-.4-1-.8v-.2c-.7-.2-1.3-.6-1.3-1.2s.7-1.1 1.5-1.2v-.1c0-.2.1-.4.4-.5-.2-.1-.4-.2-.4-.5s.2-.5.6-.5c.3 0 .5.2.5.5l-.2.3h.1c.6 0 1.1.3 1.1.7 0 .2-.2.4-.4.5.3.2.4.5.4.8z"/></svg>