<svg version="1.1" id="Layer_1" xmlns="http://www.w3.org/2000/svg" x="0" y="0" viewBox="0 0 36 36" xml:space="preserve"><style>.st0{fill:#fff}</style><path class="st0" d="M9.8.1c1.5 0 2.8 1.7 2.8 3.9 0 2.1-1.3 3.9-2.8 3.9S7 6.2 7 4C7 1.9 8.2.1 9.8.1M5.3 14.6l3.7-.8.8 3-4.2 5.7-2-.3.3-1.6-3.6-4.5-.1-.8 3.9-4.9 2.3-1 .7 3.4-2.5.7L3 15.7l1.7 1.2.6-2.3zm2.4-5.4h4.4l1.5.5v.2c0 1.3 0 3 .8 4.6L11.3 16l-1.1-3.9-1.8.4-.7-3.3zM29 3.8c1.1 0 2 1.2 2 2.8 0 1.5-.9 2.8-2 2.8s-2-1.2-2-2.8c0-1.6.9-2.8 2-2.8zM24.9 11l1.7-.7.5 2.4-1.8.5-1 1.5-.3-.1c.2-.8.4-1.8.5-2.9l.4-.7zm.9 3.1l2.7-.6 1.3 5.3-.1.1-2.2-2.8-1.9-.8.2-1.2zm6.7.9v2.9l1.7-2.7-1.3-1.3-.4 1.1zm-5-4.8h3.2l2.2.7 3 3.6v.7L34.3 20l-1.7-.8v2h-1.1l-1.1-1.3.9-.6-2-7-1.3.3-.5-2.4zm-8.3-4.9c1.9 0 3.5 2.2 3.5 4.9s-1.6 4.9-3.5 4.9-3.5-2.2-3.5-4.9 1.5-4.9 3.5-4.9zm-5.7 18.1l4.6-1 2.3 9.3-3.6 2.1-5.6-.9.4-1.9-4.5-5.7-.1-1.1 4.9-6.1 2.9-1.2.8 4.2-3 .9-2 2.9 2.2 1.5.7-3zm11.8 1.5l.1 5.1 2.9-4.8-2.3-2.3-.7 2zm-8.7-8.2h5.6l3.8 1.2 5.2 6.4v1.2l-2.8 8.3-3-1.5v3.5h-6.6l.3-.8 4-2.6-3.4-12.2-2.3.5-.8-4z"/></svg>