<svg version="1.1" id="Layer_1" xmlns="http://www.w3.org/2000/svg" x="0" y="0" viewBox="0 0 36 36" xml:space="preserve"><style>.st0{fill:#fff}</style><path class="st0" d="M9.2 3.6c-.5.4-.8.9-.6 1.3.2.3.8.4 1.4 0 .5-.3.8-.9.6-1.2-.2-.4-.8-.4-1.4-.1M9 3.2c.8-.5 1.8-.5 2.3.3l.5.8.9 3.3-1.5-3.2c-.1.4-.6.7-.6.7l3.1 6.4.2.8c-.5.5-1.1.3-1.4.1l-4.3-7c-.4-.8 0-1.7.8-2.2zM13.7.7c-.6.2-1 .6-.9 1s.7.6 1.3.4c.6-.2 1-.6.9-1-.1-.4-.7-.6-1.3-.4zm-.1-.5c.9-.2 1.8.1 2.1 1l1.1 6.4-.4.9-1.1-6.4c-.2.3-.8.5-.8.5l1.5 7-.4.9c-.7 0-1.1-.3-1.3-.5l-2-7.9c-.3-.9.3-1.6 1.3-1.9zm12.9 6.9h.7v.1l-.4.9-.3-1zM25.1 7h.7l.6 1.9-.4.9-.9-2.8zm-1.4 0h.7l1.2 3.6-.4.9L23.7 7zm-1.4-.1h.7l1.6 4.9-.6.2-1.7-5.1zm-2.4-2.7l5.5.8 2 1.7-5.8-.3-1.7-2.2zm-.2.4l1.7 2.2h.2l1.8 5.4-.7.2-1.7-5-.4.8 1.5 4.4-.6.2L20.2 9l-.4 1 1.1 3.2-.6.2-.8-2.5-.5.8.6 1.9-.6.2-.4-1.3-.4.8.2.7-.4.2-1.9-2.3 3.6-7.3zm10.1 26.5l-1.4.6-4.8-4.8 1.3-.6 4.9 4.8zm.9-6.6v1.9l-2-2 1.3-.6.7.7zm0 3.8v1.9l-4.6-4.6 1.3-.6 3.3 3.3zM18 15.7l1-.3 11.1-3.8-2.4-.7.3-.4 2.8.7 4.5 1.6-.3.2-3.9-1.4 4.7 6.4-12.4 4.8-5.4-7.1zm0 .1v3.5l1.6 1.6 2 4-3.6-3.7V23l9.2 9.2-1.4.5L18 25v1.8l6.5 6.5-1.5.5-5-5v1.8l3.8 3.8-1.4.6-2.4-2.5v1.8l1.1 1.1-1.1.5-12.8-5.1v-7.7l8.8 3.7 4-11zm0-.1l-5.5 7.2L.1 18.1 5 11.6.9 13l-.3-.4L5.1 11l4.1-1 .4.3-3.5 1.2 11.1 3.8.8.4z"/></svg>