<?xml version="1.0" encoding="utf-8"?>
<!-- Generator: Adobe Illustrator 25.4.1, SVG Export Plug-In . SVG Version: 6.00 Build 0)  -->
<svg version="1.1" id="Layer_1" xmlns="http://www.w3.org/2000/svg" xmlns:xlink="http://www.w3.org/1999/xlink" x="0px" y="0px"
	 viewBox="0 0 36 36" style="enable-background:new 0 0 36 36;" xml:space="preserve">
<style type="text/css">
	.st0{fill:#FFFFFF;}
</style>
<path class="st0" d="M22.64,18.01H4.37c-0.49,0-0.89-0.4-0.89-0.89c0-0.49,0.4-0.89,0.89-0.89h19.86c0.47,0,0.84,0.36,0.88,0.82
	C24.38,17.28,23.48,17.63,22.64,18.01z M18.83,20.96l1.4,0.44h0.47l0.6-0.63l-0.41-1.15H4.37c-0.49,0-0.89,0.4-0.89,0.89
	s0.4,0.89,0.89,0.89h14.2C18.66,21.24,18.75,21.09,18.83,20.96z M18.58,26.87l0.02,1.05l-1.62,0.69H2.45
	c-1.31,0-2.38-1.06-2.38-2.38V14.77c0-1.31,1.06-2.38,2.38-2.38h0.68V2.66l14.69-2.43v12.15h1.8V0.07l5.86,2.59v9.73h0.75
	c1.31,0,2.38,1.07,2.38,2.38v2.19l-0.84,1.56h-1.03v-3.05c0-0.66-0.53-1.19-1.19-1.19H3.13c-0.66,0-1.19,0.53-1.19,1.19v10.04
	c0,0.66,0.53,1.19,1.19,1.19H18.1L18.58,26.87z M4.66,12.39H15.6V2.66L4.66,4.27V12.39z M3.48,23.93c0,0.49,0.4,0.89,0.89,0.89
	h12.72c0.2-0.57,0.45-1.19,0.7-1.78H4.37C3.88,23.04,3.48,23.43,3.48,23.93z M33.85,28.2l2.06,1.04c-0.23,1.06-0.65,2.04-1.23,2.92
	l-2.19-0.72l-1.12,1.12l0.71,2.17c-0.88,0.56-1.86,0.97-2.91,1.19l-1.04-2.05h-1.59l-1.03,2.04c-1.05-0.23-2.03-0.64-2.9-1.2
	l0.7-2.12l-1.12-1.12l-2.14,0.7c-0.59-0.89-1.01-1.88-1.24-2.95l2.02-1.02v-1.59l-2.03-1.03c0.22-1.07,0.63-2.07,1.2-2.95l2.16,0.71
	l1.12-1.12l-0.72-2.18c0.89-0.58,1.89-1.01,2.96-1.24l1.03,2.04h1.59l1.04-2.05c1.08,0.23,2.08,0.65,2.97,1.23l-0.74,2.24l1.12,1.12
	l2.22-0.73c0.56,0.88,0.97,1.86,1.19,2.91l-2.08,1.05V28.2z M32.79,27.41c0-3.02-2.45-5.46-5.46-5.46c-3.02,0-5.46,2.45-5.46,5.46
	c0,3.02,2.45,5.46,5.46,5.46C30.35,32.87,32.79,30.43,32.79,27.41z M31.91,27.41c0,2.53-2.05,4.58-4.58,4.58
	c-2.53,0-4.58-2.05-4.58-4.58c0-2.53,2.05-4.58,4.58-4.58C29.86,22.83,31.91,24.88,31.91,27.41z M30.78,27.41
	c0-1.9-1.54-3.45-3.45-3.45c-1.9,0-3.45,1.55-3.45,3.45c0,1.91,1.54,3.45,3.45,3.45C29.24,30.85,30.78,29.31,30.78,27.41z"/>
</svg>
