<svg version="1.1" id="Layer_1" xmlns="http://www.w3.org/2000/svg" x="0" y="0" viewBox="0 0 36 36" xml:space="preserve"><style>.st0{fill:#fff}</style><path class="st0" d="M26.6.2c.6 0 .8.3.8.8l.1 1.4L3.4 7l3.4 24.3L.3 4.7C0 2.9.4 2.6 1.5 2.4l8.6-1c1-.2 1.2.4 1.3 1.3L26.6.2M7.7 9.7l24-5.3-.1.8L9 10.5 7.2 29.2l.5-19.5zM5.1 8l24.4-4.9v.8L6.4 8.7 7 29.9 5.1 8zm8.1 2.6l21.5-4.9c1.2-.3 1.3.2 1 .9L30 22.2c-.3.8-.7 1.1-1.5 1.5l-.5.2-7.4-9.6c-1.6-1.6-4.7-1.7-6.4-.1-1.6 1.6-2.1 3.7-.8 6l3.7 7.8-10.2 3.8L11.6 12c.1-.6.7-1.3 1.6-1.4zm18.2 19.3l1.1 1.1c.2.2.2.5 0 .6l-1.1 1.1c-.2.2-.5.2-.6 0l-1.1-1.1c-.2-.2-.2-.5 0-.6l1.1-1.1c.1-.2.4-.2.6 0zM18.2 18.3c.6-.6.6-1.6 0-2.2-.6-.6-1.6-.6-2.2 0-.6.6-.6 1.6 0 2.2.7.6 1.6.6 2.2 0zM34 26.2c1.4 1.4 1.9 3.3 1.5 5l-.4.4-3.2-3.2c-.4-.4-1.1-.4-1.6 0l-2 2c-.4.4-.4 1.1 0 1.6l3.2 3.2-.4.4c-1.8.4-3.7-.1-5-1.5-1.7-1.7-2.1-4.3-1.1-6.3l-10.1-8.3c-1.2-1.2-1.2-3.2.1-4.5 1.3-1.3 3.3-1.3 4.5-.1l8.2 10.2c2-1 4.6-.6 6.3 1.1z"/></svg>