<svg version="1.1" id="Layer_1" xmlns="http://www.w3.org/2000/svg" x="0" y="0" viewBox="0 0 36 36" xml:space="preserve"><style>.st0{fill:#fff}</style><path class="st0" d="M5.5 28.9h16.9c.6 0 1.1.5 1.1 1.1 0 .6-.5 1.1-1.1 1.1H5.5c-.6 0-1.1-.5-1.1-1.1-.1-.6.4-1.1 1.1-1.1m0-4.3h25c.6 0 1.1.5 1.1 1.1s-.5 1.1-1.1 1.1h-25c-.6 0-1.1-.5-1.1-1.1s.4-1.1 1.1-1.1zm0-4.2h25c.6 0 1.1.5 1.1 1.1 0 .6-.5 1.1-1.1 1.1h-25c-.6 0-1.1-.5-1.1-1.1-.1-.6.4-1.1 1.1-1.1zm-1.6-2.5c-.8 0-1.5.7-1.5 1.5V32c0 .8.7 1.5 1.5 1.5h28.2c.8 0 1.5-.7 1.5-1.5V19.4c0-.8-.7-1.5-1.5-1.5H3.9zM19.6 3.3l-13.8 2v10.2h13.8V3.3zm-15.7 0L22.4.2v15.3h2.3V0L32 3.3v12.2h1c1.7 0 3 1.3 3 3V33c0 1.7-1.3 3-3 3H3c-1.7 0-3-1.3-3-3V18.5c0-1.7 1.3-3 3-3h.9V3.3z"/></svg>