<svg version="1.1" id="Layer_1" xmlns="http://www.w3.org/2000/svg" x="0" y="0" viewBox="0 0 36 36" xml:space="preserve"><style>.st0{fill:#fff}</style><path class="st0" d="M15.5 16.9c-.1-.2-.7-.6-1.1-.9h7.4c-1.5.5-2.6 1.2-2.6 1.2-1.4.5-3.6 0-3.7-.3m14.8-.9c.9 0 1.6-.7 1.6-1.6h.6c.3 0 .6-.2.6-.6 0-.3-.2-.6-.6-.6h-29c-.3 0-.6.2-.6.6 0 .3.2.6.6.6h.6c0 .9.7 1.6 1.6 1.6H12c-.4.4-.2.8-.2.8.3 0 .4-.2.7.1.7.4.4 1.1.3 1.2-.5 1-.4 1.4-.4 1.4l5.3 2.4.9-.7c1.4-.3 1.7-1.6 1.7-1.6.2-.4 2.2-2 2.7-2.2.5-.2 2.8-.2 2.8-.2.2-.6-.3-1.2-.3-1.2h4.8zM3 0h30c1.7 0 3 1.3 3 3v30c0 1.7-1.3 3-3 3H6.8l2.5-3.2c1.8-1.9 2.4-2.5 3-3.4.2-.3-3.2-5.5-3.2-5.5l5.1 4.6 3.8-4.3-6.5-5.1-3.9 3.7s.2.2.3.2l-5 4.1c-1.2 1-2.2 1.7-2.9 2.1V3c0-1.6 1.4-3 3-3z"/></svg>