<svg version="1.1" id="Layer_1" xmlns="http://www.w3.org/2000/svg" x="0" y="0" viewBox="0 0 36 36" xml:space="preserve"><style>.st0{fill:#fff}</style><path class="st0" d="M36 17.21v12.02c0 2.02-1.64 3.66-3.66 3.66h-3l-2.21 2.57c-.63.73-1.65.73-2.28 0l-2.21-2.57H10.01c-2.02 0-3.66-1.64-3.66-3.66v-7.18l1 1.15c.59.69 1.41 1.1 2.28 1.2v3.61c0 .81.66 1.47 1.47 1.47h20.15c.81 0 1.47-.66 1.47-1.47v-9.58c0-.73-.54-1.34-1.24-1.45.1-.42.16-.86.16-1.31v-2.12h.7c2.02.01 3.66 1.64 3.66 3.66zM6.65 19.33h-3A3.66 3.66 0 010 15.67V3.66C0 1.64 1.64 0 3.66 0h22.33c2.02 0 3.66 1.64 3.66 3.66v12.02c0 2.02-1.64 3.66-3.66 3.66H13.36l-2.21 2.57c-.63.73-1.65.73-2.28 0l-2.22-2.58zm-1.9-3.4H24.9c.81 0 1.47-.66 1.47-1.47V4.87c0-.81-.66-1.47-1.47-1.47H4.75c-.81 0-1.47.66-1.47 1.47v9.58c0 .82.65 1.48 1.47 1.48zm18.82-8.31c0-.64-.52-1.17-1.17-1.17H7.52c-.64 0-1.17.52-1.17 1.17 0 .64.52 1.17 1.17 1.17H22.4c.65 0 1.17-.52 1.17-1.17zM18 11.71c0-.64-.52-1.17-1.17-1.17H7.52c-.64 0-1.17.52-1.17 1.17 0 .64.52 1.17 1.17 1.17h9.31c.65-.01 1.17-.53 1.17-1.17zm-1.44 11.61h11.92c.64 0 1.17-.52 1.17-1.17 0-.64-.52-1.17-1.17-1.17H16.56c-.64 0-1.17.52-1.17 1.17 0 .65.52 1.17 1.17 1.17zm2.61 4.09h9.31c.64 0 1.17-.52 1.17-1.17 0-.64-.52-1.17-1.17-1.17h-9.31c-.64 0-1.17.52-1.17 1.17 0 .65.52 1.17 1.17 1.17z"/></svg>