<?xml version="1.0" encoding="utf-8"?>
<!-- Generator: Adobe Illustrator 26.3.1, SVG Export Plug-In . SVG Version: 6.00 Build 0)  -->
<svg version="1.1" id="Layer_3" xmlns="http://www.w3.org/2000/svg" xmlns:xlink="http://www.w3.org/1999/xlink" x="0px" y="0px"
	 viewBox="0 0 36 36" style="enable-background:new 0 0 36 36;" xml:space="preserve">
<style type="text/css">
	.st0{fill:#FFFFFF;}
</style>
<path class="st0" d="M22.54,14.1c0-0.29-0.05-0.57-0.13-0.84c0.7,0.43,1.29,1.01,1.75,1.69l-1.68-0.29
	C22.51,14.48,22.54,14.29,22.54,14.1z M25.02,17.05l-3.54-0.62c-0.56,0.5-1.29,0.82-2.09,0.82c-1.74,0-3.15-1.41-3.15-3.15
	c0-0.27,0.04-0.53,0.11-0.78c-1.58,1.02-2.63,2.79-2.63,4.8c0,0.55,0.08,1.07,0.23,1.57l10.1,1.77c0.68-0.94,1.09-2.1,1.09-3.35
	C25.14,17.76,25.09,17.4,25.02,17.05z M24,28.45c-1.4,0.62-2.94,0.97-4.57,0.97c-2.53,0-4.85-0.84-6.74-2.25l0.65,1.49l-3.51-0.88
	l-2.71,2.4l-0.25-3.61l-3.12-1.84l3.36-1.36l0.1-0.45l-2.4-0.21c-1.63-0.14-2.83-1.68-2.68-3.42l0.18-2.03l-0.31,0.08
	c-1.4,0.34-2.25,1.75-1.91,3.15l3.09,12.63c0.34,1.4,1.75,2.25,3.15,1.91l18.78-4.59c-0.03-0.3-0.03-0.6,0-0.9L24,28.45z
	 M28.95,24.85l-0.57,0.14c-0.04,0.05-0.07,0.1-0.11,0.15l0.62,0.62c0.17-0.02,0.33-0.03,0.5-0.03c1.15,0,2.23,0.45,3.05,1.26
	l0.73,0.73c0.37-0.58,0.52-1.3,0.34-2.02l-0.11-0.47L28.95,24.85z M35.2,35.2L35.2,35.2c-1.06,1.06-2.78,1.06-3.84,0l-3.91-3.91
	c-0.79-0.79-0.99-1.94-0.6-2.92l-2.42-2.42c-1.42,0.82-3.07,1.3-4.83,1.3c-5.36,0-9.7-4.34-9.7-9.7c0-5.36,4.34-9.7,9.7-9.7
	s9.7,4.34,9.7,9.7c0,2.81-1.2,5.33-3.11,7.1l2.19,2.19c0.98-0.39,2.13-0.19,2.92,0.6l3.91,3.91C36.27,32.43,36.27,34.14,35.2,35.2z
	 M26.92,17.57c0-4.04-3.27-7.31-7.31-7.31s-7.31,3.27-7.31,7.31s3.27,7.31,7.31,7.31S26.92,21.6,26.92,17.57z M19.39,15.69
	c0.93,0,1.69-0.76,1.69-1.69s-0.76-1.69-1.69-1.69c-0.93,0-1.69,0.76-1.69,1.69S18.46,15.69,19.39,15.69z M2.05,14.96L4.3,2.15
	c0.25-1.42,1.6-2.36,3.01-2.11l25.64,4.5c1.42,0.25,2.36,1.6,2.11,3.01l-2.25,12.81c-0.25,1.4-1.58,2.34-2.98,2.12
	c0.57-1.34,0.89-2.81,0.89-4.36c0-6.23-5.07-11.3-11.3-11.3c-2.13,0-4.12,0.61-5.83,1.64l-0.87-0.29L11.71,4.7L9.57,7.62L5.95,7.51
	l2.12,2.94l-1.22,3.41l2.49-0.8c-0.77,1.52-1.21,3.24-1.21,5.06c0,0.19,0.02,0.37,0.03,0.55l-3.99-0.7
	C2.75,17.73,1.8,16.38,2.05,14.96z M31.32,6.91c-0.12,0.67,0.33,1.31,1,1.43c0.67,0.12,1.31-0.33,1.43-1c0.12-0.67-0.33-1.31-1-1.43
	C32.08,5.79,31.43,6.24,31.32,6.91z"/>
</svg>
