<svg version="1.1" id="Layer_1" xmlns="http://www.w3.org/2000/svg" x="0" y="0" viewBox="0 0 18 18" xml:space="preserve"><style>.st0{fill:#d1c3e0}</style><path class="st0" d="M15.4 4.1l-1.2-1.2c-.1-.1-.3-.2-.5-.2l1.9 1.9c0-.2-.1-.4-.2-.5m-7.3-3c-.1 0-.3.1-.4.3h2.6c-.1-.2-.3-.3-.4-.3H8.1zM9 4.6c-.4 0-.7.3-.7.7v3.3c.2-.2.4-.3.7-.3.3 0 .5.1.7.2V5.3c0-.4-.3-.7-.7-.7zM8.5 9c-.2.3-.2.7.1 1l3.2 2.7c.3.2.7.2 1-.1.2-.3.2-.7-.1-1L9.5 8.9c-.3-.3-.8-.2-1 .1zM9 4c2.8 0 5.1 2.1 5.4 4.8h-.6c-.4 0-.7.3-.7.7 0 .4.3.7.7.7h.6c-.3 2.5-2.3 4.4-4.7 4.7v-.6c0-.4-.3-.7-.7-.7-.4 0-.7.3-.7.7v.6c-2.5-.3-4.4-2.3-4.7-4.7h.7c.4 0 .7-.3.7-.7 0-.4-.3-.7-.7-.7h-.7C3.9 6 6.2 4 9 4zm6.7 5.4c0-1.7-.7-3.2-1.7-4.4l.4-.4.2.2c.2.2.6.2.8 0l.1-.1-2-2-.1.1c-.2.2-.2.6 0 .8l.2.2-.4.4c-1-.9-2.3-1.4-3.7-1.5v-.5h.3c.3 0 .6-.2.6-.6v-.1H7.6v.1c0 .3.2.6.6.6h.3v.5C5 3 2.3 5.9 2.3 9.4c0 2.1 1 4 2.5 5.2.8.7 3.1 2.3 3.8 2.3h.7c.7 0 3-1.5 3.8-2.3 1.6-1.2 2.6-3.1 2.6-5.2zM1.5 0h15c.8 0 1.5.7 1.5 1.5v15c0 .8-.7 1.5-1.5 1.5h-15C.7 18 0 17.3 0 16.5v-15C0 .7.7 0 1.5 0z"/></svg>