<svg version="1.1" id="Layer_1" xmlns="http://www.w3.org/2000/svg" x="0" y="0" viewBox="0 0 18 18" xml:space="preserve"><style>.st0{fill:#d1c3e0}</style><path id="History_x5F__Icon_x5F_Button" class="st0" d="M13.2 5.9c.1 0 .1 0 .1.1l.1.1c0 .1 0 .1-.1.1l-.1.1s-.1 0-.1-.1l-.1-.1V6c.1-.1.1-.1.2-.1m0 .7c.1 0 .1 0 .1.1l.1.1c0 .1 0 .1-.1.1l-.1.1H13l-.1-.1c0-.1 0-.1.1-.1.1-.1.1-.2.2-.2zm0 .8c.1 0 .1 0 .1.1l.1.1c0 .1 0 .1-.1.1l-.1.1s-.1 0-.1-.1l-.1-.1c0-.1 0-.1.1-.1 0-.1 0-.1.1-.1zm0 .7c.1 0 .1 0 .1.1l.1.1c0 .1 0 .1-.1.1l-.1.1s-.1 0-.1-.1l-.1-.1c0-.1 0-.1.1-.1 0-.1 0-.1.1-.1zm0 .8c.1 0 .1 0 .1.1l.1.1c0 .1 0 .1-.1.1l-.1.1s-.1 0-.1-.1l-.1-.1v-.2h.2zm0 .7c.1 0 .1 0 .1.1l.1.1c0 .1 0 .1-.1.1l-.1.1s-.1 0-.1-.1l-.1-.1c0-.1 0-.1.1-.1 0-.1 0-.1.1-.1zm0 .7c.1 0 .1 0 .1.1l.1.1c0 .1 0 .1-.1.1l-.1.1s-.1 0-.1-.1l-.1-.1c0-.1 0-.1.1-.1 0 0 0-.1.1-.1zm0 .8c.1 0 .1 0 .1.1l.1.1c0 .1 0 .1-.1.1l-.1.1s-.1 0-.1-.1l-.1-.1c0-.1 0-.1.1-.1 0-.1 0-.1.1-.1zm0 .7c.1 0 .1 0 .1.1l.1.1c0 .1 0 .1-.1.1l-.1.1s-.1 0-.1-.1L13 12c0-.1 0-.1.1-.1 0-.1 0-.1.1-.1zM8.1 5.2c.1 0 .1 0 .1.1l.1.1c0 .1 0 .1-.1.1l-.1.1s-.1 0-.1-.1l-.1-.1c0-.1 0-.1.1-.1 0-.1.1-.1.1-.1zm0 .7c.1 0 .1 0 .1.1l.1.1c0 .1 0 .1-.1.1l-.1.1H8l-.1-.1c0-.1.1-.2.1-.2 0-.1.1-.1.1-.1zm0 .8c.1 0 .1 0 .1.1l.1.1c0 .1 0 .1-.1.1l-.1.1L8 7l-.1-.1c0-.1 0-.1.1-.1 0-.1.1-.1.1-.1zm0 .7c.1 0 .1 0 .1.1l.1.1c0 .1 0 .1-.1.1l-.1.1s-.1 0-.1-.1l-.1-.1c0-.1 0-.1.1-.1 0-.1.1-.1.1-.1zm0 .7c.1 0 .1 0 .1.1l.1.1c0 .1 0 .1-.1.1l-.1.1H8l-.1-.1c0-.1 0-.1.1-.1 0-.1.1-.2.1-.2zm0 .8c.1 0 .1 0 .1.1l.1.1c0 .1 0 .1-.1.1l-.1.1s-.1 0-.1-.1l-.1-.1c0-.1.1-.1.1-.2h.1zm0 .7c.1 0 .1 0 .1.1l.1.1c0 .1 0 .1-.1.1l-.1.1H8l-.1-.1c0-.1 0-.1.1-.1 0-.2.1-.2.1-.2zm0 .8c.1 0 .1 0 .1.1l.1.1c0 .1 0 .1-.1.1l-.1.1c-.1 0-.1 0-.1-.1l-.1-.1c0-.1 0-.1.1-.1 0-.1.1-.1.1-.1zm0 .7c.1 0 .1 0 .1.1l.1.1c0 .1 0 .1-.1.1l-.1.1c-.1 0-.1 0-.1-.1l-.1-.1c0-.1 0-.1.1-.1 0-.1.1-.1.1-.1zM6.2 4.2c.1 0 .2.1.2.2v4.4c0 .1-.1.2-.2.2S6 8.9 6 8.8V4.4c0-.1.1-.2.2-.2zm5.8 9.7h2.4c.1 0 .2.1.2.2s-.1.2-.2.2H12c-.1 0-.2-.1-.2-.2s.1-.2.2-.2zm0-1.1h2.4c.1 0 .2.1.2.2s-.1.2-.2.2H12c-.1 0-.2-.1-.2-.2s.1-.2.2-.2zm-.1-7.9h2.4c.1 0 .2.1.2.2s-.1.2-.2.2h-2.4c-.1 0-.2-.1-.2-.2s.1-.2.2-.2zm0-1.1h2.4c.1 0 .2.1.2.2s-.1.2-.2.2h-2.4c-.1 0-.2-.1-.2-.2s.1-.2.2-.2zM4.5 13.9l.1.1s0 .1-.1.1H3.3l-.1-.1s0-.1.1-.1h1.2zm0-.8l.1.1c0 .1 0 .1-.1.1H3.3l-.1-.1c0-.1 0-.1.1-.1h1.2zm.1-5.8l.1.1c0 .1 0 .1-.1.1H3.4l-.1-.1c0-.1 0-.1.1-.1h1.2zm0-.8l.1.1c0 .1 0 .1-.1.1H3.4l-.1-.1c0-.1 0-.1.1-.1h1.2zm3.1-1.9c-.2 0-.4.1-.4.4v9.7c0 .2.2.4.4.4h.9c.2-.1.4-.2.4-.5V5c0-.2-.2-.4-.4-.4h-.9zm-1.8-1c-.2 0-.4.2-.4.4v10.7c0 .2.2.4.4.4h.5c.2 0 .4-.2.4-.4V4c0-.2-.2-.4-.4-.4h-.5zm4-.7c-.2 0-.4.2-.4.4v11.3c0 .2.2.4.4.4h.4c.2 0 .4-.2.4-.4V3.3c0-.2-.2-.4-.4-.4h-.4zM3.4 5.5c-.3 0-.4.1-.4.4v8.8c0 .2.1.3.4.3h1.2c.2 0 .4-.1.4-.4V5.9c0-.2-.2-.4-.4-.4H3.4zM11.6 3c-.2 0-.4.2-.4.4v11.3c0 .2.2.4.4.4h3c.2 0 .4-.2.4-.4V3.4c0-.3-.1-.4-.4-.4h-3zM1.5 0h15c.8 0 1.5.7 1.5 1.5v15c0 .8-.7 1.5-1.5 1.5h-15C.7 18 0 17.3 0 16.5v-15C0 .7.7 0 1.5 0z"/></svg>