<svg version="1.1" id="Layer_1" xmlns="http://www.w3.org/2000/svg" x="0" y="0" viewBox="0 0 36 36" xml:space="preserve"><style>.st0{fill:#fff}</style><path class="st0" d="M17.254 36.007L0 28.786V17.772l5.195-4.343s1.109-1.261 2.919-1.261c1.515 0 2.703 2.028 2.703 2.028l6.437 8.332v13.479zM8.333 17.394c-.521.046-1.438-1.001-1.539-2.137-.094-1.045.288-1.774.92-1.937-.056-.002-.111-.012-.167-.007-.96.086-1.901.852-1.762 2.419.11 1.24 1.202 2.155 2.162 2.07.404-.036.754-.254 1.023-.578a1.846 1.846 0 01-.637.17zm18.95-7.016c.013-.196-.008-.607-.101-.865-.468-1.313-2.312-.518-2.312-.518l-13.213 3.256 1.406 1.79 14.22-3.663zm-13.658 4.379l.397.505 12.47-3.682s.471-.297.684-.738l-13.551 3.915zM7.759 13.75c-.421.114-.572.912-.336 1.783.235.871.768 1.484 1.189 1.37.421-.114.572-.912.336-1.783-.236-.87-.768-1.483-1.189-1.37zM36 16.476v9.967l-17.254 9.563V22.528L36 16.476zm-3.005 4.513a.375.375 0 00-.514-.365l-7.328 2.942a.373.373 0 00-.235.348v4.049a.376.376 0 00.534.34l7.161-3.359a.379.379 0 00.216-.322l.166-3.633zM28.494 8.196c.377.459.828 1.038 1.307 1.667l.375-1.478c-.54-.616-2.08-2.018-4.072-.75 0-.001 1.392-.655 2.39.561zm4.067 3.428l-.371 1.461a323.241 323.241 0 011.948 2.708l1.189-.381-2.766-3.788zm.462-6.33l-.036-2.311-1.075-.273-1.03 2.013.272.968-1.971 7.762c-.427-.025-.823.039-1.062.234l-.135.52c.145.202.249.432.249.696 0 .485-.295.893-.715 1.101l-.588 2.269 3.591-1.39.085-.327a1.188 1.188 0 01-.191-.613c0-.445.255-.817.619-1.039l.112-.431c-.124-.32-.468-.582-.886-.764l1.964-7.738.797-.677zm-14.822 15.9l.59-.148-1.874-5.256c-.648-.792-1.775-.437-2.03.686l3.314 4.718zM11.749 3.422l2.951 6.62-2.66.644-2.411-6.36s-.248-.353-.668-.353c-.421 0-.579.384-.776.675-.332.49-.793.572-1.052.692-.552.257-1.419.271-2.02-1.049-.522-1.146-.273-1.782-.014-2.074.265-.3 1.413-.457 1.413-.457s.966.03 1.455-.188c.201-.09.212-.333.436-.624S9.505.325 9.505.325s2.868-.935 5.612.333l-.665.508S12.997.721 12.145.928c0 0-.805.491-.122.218s2.284.239 2.284.239l-.68.466s-1.564-.344-1.814-.008c-.001-.001-.521.561-.064 1.579zM6.95 3.385c-.331-.797-.972-1.287-1.433-1.096-.461.191-.567.992-.236 1.789.331.797.973 1.287 1.434 1.096.46-.192.566-.993.235-1.789zm16.294 4.872l1.657-.361V3.26l-5.086-1.716v1.542l3.428 1.181v.73l-3.428-1.181v1.039l1.657.571v.73l-1.657-.571v1.022l3.428 1.181v.469zm-.462.101l-2.966-1.022v.991l1.203.414 1.763-.383zM18 15.566v.226l.908 2.214v-2.722l-.908.282zm.908-14.023L18 2.088v7.255l.908-.191V1.543zm.908 18.008v1.186l5.086-1.762v-5.564l-3.092.924 1.435.494v.73l-2.569-.885-.859.257v.414l1.657.571v.73l-1.657-.571v1.094l3.428 1.181v.73l-3.428-1.181v.922l1.657.571v.73l-1.658-.571z"/></svg>