<svg version="1.1" id="Layer_1" xmlns="http://www.w3.org/2000/svg" x="0" y="0" viewBox="0 0 36 36" xml:space="preserve"><style>.st0{fill:#fff}</style><path class="st0" d="M21.3 4c.2 0 .3 0 .4.1.1.1.3.2.4.5.1.3.2.8.3 1.5.1.7.1 1.3.1 1.6 0 .2-.1.4-.2.5-.1.1-.2.2-.4.2s-.3 0-.4-.1c-.1-.1-.3-.2-.4-.5-.1-.3-.2-.8-.3-1.5-.1-.7-.1-1.3-.1-1.6 0-.2.1-.4.2-.5.2-.1.3-.2.4-.2m5.5 14.2c.2.6.5 1.1 1 1.4.5.3 1 .4 1.6.3.8-.2 1.3-.6 1.6-1.3.2-.5.3-1.1.2-1.7-.1-.7-.4-1.2-.9-1.6-.5-.4-1-.5-1.5-.4-.3.1-.6.2-.8.4l-.2-1.3 2.5-.7-.3-1.4-3.8 1 .6 4.1.9-.1c.2-.4.5-.6.9-.7.3-.1.5 0 .8.1.2.2.4.4.4.8.1.4 0 .7-.1 1-.2.2-.4.4-.7.5-.3.1-.5 0-.7-.2-.2-.2-.4-.4-.5-.7l-1 .5zm-.3.7l-2.5.8.3-.7.6-.9.7-1.1c.2-.4.3-.7.3-1 .1-.3 0-.6 0-.9-.1-.6-.4-1-.8-1.3-.4-.3-1-.4-1.6-.2-.6.1-1.1.4-1.4.8-.3.4-.5 1-.4 1.8l1.3-.1c0-.4 0-.7.1-.9.1-.2.3-.3.6-.4.3-.1.5 0 .6.1.2.1.3.4.3.7 0 .3 0 .6-.1.9-.1.2-.4.7-.8 1.4-.6.9-.9 1.5-1.1 2-.2.5-.3 1.3-.2 1.8l4.4-1.5-.3-1.3zM24.1.1c.1 0 .2 0 .3.1l.2.5 1.9 7.4-3.1.6.1-.2c.3-.6.4-1.5.2-2.7-.2-1.2-.5-2.1-1-2.5-.4-.4-.9-.5-1.5-.4-.6.1-1 .4-1.3.9-.3.6-.4 1.5-.2 2.7.2 1.2.5 2.1.9 2.5l.4.3-2.1.4.3-.4c.2-.5.3-.9.2-1.5-.1-.6-.3-1.1-.8-1.4-.4-.3-.9-.5-1.4-.4-.3 0-.5.2-.8.4l-.2-1.2 2.4-.5-.2-1.3-3.6.6.3 3.7h1.1c.2-.3.5-.5.8-.6.3 0 .5 0 .7.2.2.1.3.4.4.7.1.4 0 .7-.2.9-.2.2-.4.3-.6.4-.2 0-.5 0-.7-.2-.2-.1-.4-.4-.4-.7l-1 .3c.2.6.4 1 .9 1.3l.2.1L7.7 12v-1s.4-6-1.5-8.3L24.1.1zM.3 3.6l.8-.2.8-.1c1.2.3 3.3 1.3 4.6 4.4.2.4-.3-2.7-3.5-4.5l.6-.1C5 4 7.7 6.4 7.3 11.4l-.1.7-2.8.6-.8.2c-.1 0-.2.1-.2.4l3 13.3-.6.2c-.2.1-.4.1-.5 0-.2-.1-.3-.3-.3-.5L.1 4c0-.2.1-.3.2-.4zM32 8.9c.1 0 .2 0 .3.1l.2.5 3.4 17v.3c0 .1-.1.2-.3.2L19 33.3c-1.3-.4-5.2-2.3-4.2-11.2 0 0 .8-7.2-1.8-9.1l19-4.1zM7.1 14.2l.8-.2.9-.2c1.2.3 3.6 1.2 4.9 4.7.2.4-.2-3-3.8-5l.6-.1c1.3.8 4.6 3.3 3.9 9 0 0-1.5 9.7 1.7 11.9L12 35.8c-.2 0-.3-.1-.4-.2l-.1-.5-4.6-20.5c0-.3.1-.4.2-.4z"/></svg>