<svg version="1.1" id="Layer_1" xmlns="http://www.w3.org/2000/svg" x="0" y="0" viewBox="0 0 36 36" xml:space="preserve"><style>.st0{fill:#fff}</style><path class="st0" d="M13.6 16.5c.5 0 .9.4.9 1s-.4 1-.9 1-.9-.4-.9-1 .3-1 .9-1m-2.7 0c.5 0 .9.4.9 1s-.4 1-.9 1-.9-.5-.9-1 .4-1 .9-1zm-2.6 0c.5 0 .9.4.9 1s-.4 1-.9 1-.9-.4-.9-1 .4-1 .9-1zm7.8-2.5c.5 0 .9.4.9 1 0 .5-.4 1-.9 1s-.9-.4-.9-1 .4-1 .9-1zm-2.5 0c.5 0 .9.4.9 1 0 .5-.4 1-.9 1s-.9-.4-.9-1c-.1-.6.3-1 .9-1zm-2.7 0c.5 0 .9.4.9 1 0 .5-.4 1-.9 1s-.9-.5-.9-1c0-.6.4-1 .9-1zm-2.6 0c.5 0 .9.4.9 1 0 .5-.4 1-.9 1s-.9-.4-.9-1 .4-1 .9-1zm-2.4-1.4v10.9h4.7l5-5.2c-.2-.2-.4-.5-.4-.8 0-.5.4-1 .9-1 .3 0 .6.2.8.4l1.2-1.2c-.2-.2-.3-.4-.3-.7 0-.5.4-1 .9-1 .3 0 .5.1.7.3l1.7-1.8H5.9zm27.4 0h-7.9L14.9 23.4h16.7l2.6-2.7v-7.2c0-.5-.4-.9-.9-.9zM2 12.5c-.4 0-.8.4-.8.8 0 .5.4.8.8.8h2.9v-1.7H2zM1.8 11h20.8L32.7.5c.6-.6 1.5-.6 2.1 0 .6.6.6 1.6 0 2.2L26.9 11h7.3c1 0 1.8.8 1.8 1.9v10.3c0 1-.8 1.9-1.8 1.9H13.4L3.3 35.5c-.6.6-1.5.6-2.1 0-.6-.6-.6-1.6 0-2.2L9.1 25H1.8c-1 0-1.8-.8-1.8-1.9V12.8c0-1 .8-1.8 1.8-1.8z"/></svg>