<svg version="1.1" id="Layer_1" xmlns="http://www.w3.org/2000/svg" x="0" y="0" viewBox="0 0 36 36" xml:space="preserve"><style>.st0{fill:#fff}</style><path class="st0" d="M22.1 13.1l1.5-.7 1 .8-1.5.7-1-.8m.6-3.6l1.5-.6 1 .8-1.5.6-1-.8zm-3.9-6.9l1.6-.5L26 6.5l-1.5.5-5.7-4.4zm-3.6 1.1l1.6-.5 5.7 4.4-1.5.6-5.8-4.5zM7.9 6l1.6-.5 3.6 2.8-1.6.5L7.9 6zM4.3 7.1l1.6-.5 3.7 2.9L8 10 4.3 7.1zM1 8.5c.4-.3.9-.5 1.3-.7l3.8 2.9c-.6.3-.9.6-1.1.9L1 8.5zm-.5 3.6c-.2-.6-.4-1.3-.3-2l5.5 4.3L6.9 17 .5 12.1zM2.9 18l-1.1-2.7 6.5 5L9.5 23l-6.6-5zm17.3-.3l1.8 1.4-.9.5-.9-1.9zm2.2 11.1l-.1.1m-5.6-.3l1.3-.8 3 2.4-1 1-3.3-2.6zM30.7 6l1.1 2.7-9.4-7.3L24 .9 30.7 6zM15.6 18c-.2.5-.5.9-.8 1.1L10.7 16c-.2-.7-.3-1.4-.3-2l5.2 4zm6.5-2.5c.2.5.6.6 1 .5l6.8 5.3-.9.9-1-.9-1.6-1.6c-.6-.6-1.4-.9-2.2-1l-5.6-4.3-1.2-2.7 4.5 3.5.2.3zM29 10c.3-.2.4-.6.2-1-.2-.3-.6-.5-1-.3l-1 .4-1-.8 1.5-.6 5.5 4.3 1.1 2.7-5.7-4.4.4-.3zm-9.8-.1c.2.7 1 .7 1.5.4l.1-.1 1.1.8-.9.4c-.2.1-.4.2-.5.4l-9.1-7 1.7-.5L19.2 9c-.1.3-.1.6 0 .9zm-4.5 19.8l.3-.2 3.5 2.7-1.2.8-3.8-3c.4.1.8 0 1.2-.3zm-2.6-.9l.2.3-6.8-5.3-1.1-2.7 6.7 5.2 1 2.5zm0 7c-1.8 0-2.4-2-2.4-2l-.4-1 3.7 2.8-.9.2zm3.3-1.3l-.7.4-6.8-5.3L6.8 27l9.2 7.1-.6.4zm9.4-19.3l1.4-.8 6 4.7-.9.6-.3.3-6.2-4.8zm11 3.8l-1.2-.3-6.8-5.2c.2-.2.2-.6.1-.9-.2-.3-.5-.5-1-.4l-.5.2-1-.8 1.5-.7 8.7 6.7c.1.6.2 1.1.2 1.4zM27.4.2c1.1.1 1.5 1.5 1.5 1.5l.5 1.2L26.2.4c.4-.2.9-.3 1.2-.2zM14.9 26.8c-.5-.6-1.4-.9-1.8-1l-.4-.3c-.1-.4-.2-1.1-.2-2l3.4 2.7-1 .6zm2.2-6.9c.4-.2 1.3.4 2.3 1.5-.2.3-.3.7-.4 1.1l-2.4-1.8c.1-.4.2-.7.5-.8zM13 21.1c1-.4 2.4 1.1 3 1.2l2.8 2.2-1.3.8-4.8-3.8c0-.2.1-.4.3-.4zm-1.3-9.2c.3-.1.7-.1 1 0l1.9 1.5c.3.4.5.9.7 1.4.2.4.3.8.3 1.2L11 12.4c.2-.3.4-.4.7-.5zm11 23.1c-.8-.8-.8-2 0-2.8l3.4-3.4-3.4-3.4c-.8-.8-.8-2 0-2.8.8-.8 2-.8 2.8 0L29 26l3.4-3.4c.8-.8 2-.8 2.8 0 .8.8.8 2 0 2.8l-3.4 3.4 3.4 3.4c.8.8.8 2 0 2.8-.8.8-2 .8-2.8 0L29 31.5 25.5 35c-.7.7-2 .7-2.8 0z"/></svg>