<svg version="1.1" id="Layer_1" xmlns="http://www.w3.org/2000/svg" x="0" y="0" viewBox="0 0 36 36" xml:space="preserve"><style>.st0{fill:#fff}</style><path class="st0" d="M11.5 1.4c-.9 0-1.6.7-1.6 1.6 0 .9.7 1.6 1.6 1.6.9 0 1.6-.7 1.6-1.6 0-.9-.7-1.6-1.6-1.6m0 4.6c-1.1 0-2.1-.7-2.6-1.6C8 5 6.4 5.7 3.7 6.3c0 0-2 .4-2 2.3h19.8c0-1.9-2-2.3-2-2.3-2.7-.6-4.3-1.3-5.2-1.9-.6 1-1.6 1.6-2.8 1.6zm0-5.8c1.4 0 2.5.9 2.8 2.2h5.9c1.4 0 2.6 1.2 2.6 2.6v8.8c-4.6 1.3-9.9 2.9-11.3 3.4 0 0-2.5.7-2.3 4.4l.3 9.8H2.7c-1.4 0-2.6-1.2-2.6-2.6V5c0-1.4 1.2-2.6 2.6-2.6h5.9C9 1.1 10.1.2 11.5.2zm15.8 21.6c-.3.2-.5.4-.3.8s.6.4 1 .3l2.7-1.4c.2-.1.3-.4.1-.7-.1-.2-.3-.3-.6-.2-.5 0-2.8 1.2-2.9 1.2zm-1-1.7c-.3.2-.5.4-.4.8.2.4.6.4 1 .3l4.5-2.1c.2-.1.2-.4.1-.7-.1-.2-.4-.3-.7-.2-.3.1-4.5 1.8-4.5 1.9zm-.8-1.9c-.3.2-.5.4-.4.8.2.4.6.4 1 .3.3-.2 4.4-1.7 4.6-1.9.2-.1.2-.4.1-.7-.1-.2-.4-.3-.7-.2l-4.6 1.7zM29 13c.6-.2 1-.3 1.4-.2.7.1.9 1 .9 1l4.2 10c.2.5.3 1 .3 1.3 0 .9-.8 1.3-.8 1.3L22.6 35c-.8.5-1.6.9-2.1.9-1.2 0-1.6-1.3-1.6-1.3l-5.6-13.5c-.3-.5-.7-1.6-.3-2.5.4-.9 2.2-1.3 2.2-1.3L29 13zm-8.1 16.3s-.5-2.7.2-3c.6-.3 1.7.9 2 .8s.3-.3.3-.6 0-.8.3-.9c.3-.2 1.1.4 2 1.5 0 0-.2.6-.1 1l-2.9 1.7c-.4.9-1.2 1.5-2.1 1.6.5 1.1 1.1.9 1.7.6l4.6-2.8c.6-.3.8-1 .4-1.7l-4-8.8c-.3-.7-.7-1-1.7-.7l-4.8 1.6c-.9.4-1.1.9-.7 1.8l3.9 8.9 1.5-.7c-.3-.3-.6-.3-.6-.3zm-.6-9c.8-.3 1.9.5 2.4 1.8s.3 2.7-.6 3c-.8.3-1.9-.5-2.4-1.8-.5-1.4-.2-2.7.6-3z"/></svg>