<svg version="1.1" id="Layer_1" xmlns="http://www.w3.org/2000/svg" x="0" y="0" viewBox="0 0 36 36" xml:space="preserve"><style>.st0{fill:#fff}</style><path class="st0" d="M22.6 14.2c-.4.2-.8.6-.6 1.3.2.7 1 .7 1.5.4l4.1-2.2c.3-.2.4-.7.2-1-.2-.3-.5-.5-1-.4-.4.1-4.1 1.8-4.2 1.9m-1.5-2.7c-.4.2-.8.6-.6 1.3.2.7 1 .7 1.5.4.5-.2 6.7-3 7-3.2.3-.2.4-.6.2-1-.2-.3-.6-.5-1-.3-.6.1-7.1 2.8-7.1 2.8zm-1.3-2.9c-.4.2-.8.6-.6 1.3.2.7 1 .7 1.5.4.5-.2 6.8-2.7 7.1-2.9.3-.2.3-.7.2-1-.2-.3-.6-.4-1-.3-.6.2-7.2 2.5-7.2 2.5zm-13.5 2c-1.4.5-1.7 1.3-1.1 2.8L12 28.8c.8 1.8 1.7 1.4 2.7.9l7.2-4.3c.9-.5 1.2-1.6.6-2.7L16.3 9.1c-.5-1.1-1-1.6-2.6-1.1l-7.4 2.6zM25.3.5c.9-.3 1.6-.4 2.1-.4 1.1.1 1.5 1.5 1.5 1.5L35.3 17c.2.7.5 1.5.5 2 0 1.4-1.2 2.1-1.2 2.1L15.4 34.5c-1.2.8-2.5 1.3-3.3 1.3-1.8 0-2.4-2-2.4-2L.9 13.1c-.4-.8-1.1-2.5-.5-3.8.7-1.4 3.5-2 3.5-2L25.3.5zM12.7 25.7s-.7-4.2.3-4.6c1-.5 2.6 1.3 3.1 1.2.5-.1.5-.5.5-1s0-1.2.5-1.5c.5-.2 1.7.7 3 2.3 0 0-.3.9-.2 1.6l-5.1 2.9c-.7-.7-2.1-.9-2.1-.9zm-1-13.8c1.3-.5 2.9.8 3.7 2.8.8 2 .4 4.1-.9 4.6s-2.9-.8-3.7-2.8c-.8-2.1-.4-4.1.9-4.6z"/></svg>