<svg version="1.1" id="Layer_1" xmlns="http://www.w3.org/2000/svg" x="0" y="0" viewBox="0 0 36 36" xml:space="preserve"><style>.st0{fill:#fff}</style><path class="st0" d="M8.5 12.2H11c.3 0 .5.2.5.4v1.5c0 .2-.2.4-.5.4H8.5c-.3 0-.5-.2-.5-.4v-1.5c-.1-.2.2-.4.5-.4m-4 6.8h2.6c.3 0 .6.2.6.4V21c0 .2-.3.4-.6.4H4.5c-.3 0-.6-.2-.6-.4v-1.5c0-.3.3-.5.6-.5zm.1-14h2.6c.3 0 .6.2.6.4V7c0 .2-.3.4-.6.4H4.6c-.3.1-.6-.1-.6-.4V5.5c0-.3.3-.5.6-.5zM4 4.2c-.5 0-.9.4-.9.9v2.3c0 .5.4.9.9.9h18.6c.5 0 .9-.4.9-.9V5.1c0-.5-.4-.9-.9-.9H4zM2.3.1h22c1.2 0 2.2 1 2.2 2.2v10.4l-3.1.9v-1.4c0-.5-.4-.9-.9-.9H4c-.5 0-.9.4-.9.9v2.3c0 .5.4.9.9.9h13.2l-5.7 1.7s-.8.2-1.5 1.1H4c-.5 0-.9.4-.9.9v2.3c0 .5.4.9.9.9h5.3l.1 4.2H2.3c-1.2 0-2.2-1-2.2-2.2v-22C.1 1.1 1.1.1 2.3.1zm25 21.7c-.3.2-.5.4-.3.8s.6.4 1 .3l2.7-1.4c.2-.1.3-.4.1-.7-.1-.2-.3-.3-.6-.3-.5.1-2.8 1.3-2.9 1.3zm-1-1.7c-.3.2-.5.4-.4.8.2.4.6.4 1 .3l4.5-2.1c.2-.1.2-.4.1-.7-.1-.2-.4-.3-.7-.2-.3.1-4.4 1.8-4.5 1.9zm-.8-1.9c-.3.2-.5.4-.4.8.2.4.6.4 1 .3.3-.2 4.4-1.7 4.6-1.9.2-.1.2-.4.1-.7-.1-.2-.4-.3-.7-.2l-4.6 1.7zm-8.7 1.3c-.9.4-1.1.9-.7 1.8l4.4 10c.5 1.1 1.1.9 1.7.6l4.6-2.8c.6-.3.8-1 .4-1.7l-4-8.8c-.3-.7-.7-1-1.7-.7l-4.7 1.6zM29 13c.6-.2 1-.3 1.4-.2.7.1.9 1 .9 1l4.2 10c.2.5.3 1 .3 1.3 0 .9-.8 1.4-.8 1.4L22.6 35c-.8.5-1.6.9-2.1.9-1.2 0-1.6-1.3-1.6-1.3l-5.6-13.5c-.3-.5-.7-1.6-.3-2.5.4-.9 2.3-1.3 2.3-1.3L29 13zm-8.1 16.3s-.5-2.7.2-3c.6-.3 1.7.9 2 .8.3 0 .3-.3.3-.6s0-.8.3-.9c.3-.2 1.1.4 2 1.5 0 0-.2.6-.1 1L22.3 30c-.5-.6-1.4-.7-1.4-.7zm-.6-9c.8-.3 1.9.5 2.4 1.8s.3 2.7-.6 3c-.8.3-1.9-.5-2.4-1.8s-.2-2.7.6-3z"/></svg>