<svg version="1.1" id="Layer_1" xmlns="http://www.w3.org/2000/svg" x="0" y="0" viewBox="0 0 36 36" xml:space="preserve"><style>.st0{fill:#fff}</style><path class="st0" d="M.2 26.8h35.6v2.1H.2v-2.1m35.6 6.1c0 1.6-1.3 3-3 3H3.2c-1.6 0-3-1.3-3-3v-2h35.6v2zM.2 23.1v-1.8l6.3 1.8H.2zm32.7-5c1.6 0 3 1.3 3 3v2h-4.6l1.4-5h.2zM22.3 18c-.5-.2-1.1.1-1.2.7l-.4 1.5c-.2.5.1 1.1.7 1.2l3.7 1.1c.5.2 1.1-.1 1.2-.7l.4-1.5c.2-.5-.1-1.1-.7-1.2L22.3 18zm2.6-6c-.5-.2-1.1.2-1.2.7-.2.5.2 1.1.7 1.2l2.9.9c.5.2 1.1-.2 1.2-.7.2-.5-.2-1.1-.7-1.2l-2.9-.9zm-6-1.7c-.5-.2-1.1.2-1.2.7-.2.5.2 1.1.7 1.2l2.9.9c.5.2 1.1-.2 1.2-.7.2-.5-.2-1.1-.7-1.2l-2.9-.9zm-6.2-1.8c-.5-.2-1.1.2-1.2.7-.2.5.2 1.1.7 1.2l2.9.9c.5.2 1.1-.2 1.2-.7.2-.5-.2-1.1-.7-1.2l-2.9-.9zM6.6 6.7c-.5-.1-1 .2-1.2.7-.2.5.2 1.1.7 1.3l2.9.8c.5.2 1.1-.2 1.2-.7.2-.5-.2-1.1-.7-1.2l-2.9-.9zM7.4.2L30.8 7c1.3.4 2 1.7 1.7 3l-4.1 14.2c-.4 1.3-1.7 2-3 1.7L1.9 19c-1.3-.4-2-1.7-1.7-3L4.4 1.9C4.7.6 6.1-.2 7.4.2z"/></svg>