<svg version="1.1" id="Layer_1" xmlns="http://www.w3.org/2000/svg" x="0" y="0" viewBox="0 0 36 36" xml:space="preserve"><style>.st0{fill:#fff}</style><path class="st0" d="M4 16.9h2.3c.3 0 .5.2.5.4v1.4c0 .2-.2.4-.5.4H4c-.3 0-.5-.2-.5-.4v-1.4c0-.2.3-.4.5-.4m5.5-6h2.3c.3 0 .5.2.5.4v1.4c0 .2-.2.4-.5.4H9.5c-.3-.1-.5-.3-.5-.5v-1.4c0-.2.2-.3.5-.3zM4.2 4.5h2.3c.3 0 .5.2.5.4v1.4c0 .2-.2.4-.5.4H4.2c-.3 0-.5-.2-.5-.4V4.9c0-.2.2-.4.5-.4zm-.6-.7c-.4 0-.8.3-.8.8v2c0 .4.3.8.8.8H20c.4 0 .8-.3.8-.8v-2c0-.4-.3-.8-.8-.8H3.6zM2.2.2h19.4c1.1 0 1.9.9 1.9 1.9v6.1h-.2s-7 .1-7.7 1.9h-12c-.4 0-.8.3-.8.8v2c0 .4.3.8.8.8H15v1.7s-3.1 0-5.2.8H3.6c-.4 0-.8.3-.8.8v2c0 .4.3.8.8.8l4 .1v1.5s0 1.4 1.3 1.6v.5H2.2c-1.1 0-1.9-.9-1.9-1.9V2.2c-.1-1.1.8-2 1.9-2zm19.3 15.9h-.3V15h.3v1.1zm-.5 0l-1.8-.2v-1.1l1.8.2v1.1zm.9 0h-.3V15h.3v1.1zm-2.9-.2h-.3v-1.1h.3v1.1zm-.5-.1c-.5-.1-1-.2-1.3-.4v-1.1c.3.1.8.3 1.3.4v1.1zm7.8-.1l-.3.1v-1.1l.3-.1v1.1zm1-.3l-.3.2v-1.1l.3-.1v1zm-.5.2l-.3.1v-1.1l.3-.1v1.1zm-1.9.4h-.3v-1.1h.3V16zm.9-.2l-.3.1v-1.1l.3-.1v1.1zm-.4.1l-.4.1v-1.1h.3v1zm-8.6-.9v-.9l.3.2v1.1c-.2-.2-.3-.3-.3-.4zm5.5 1.1h-.2V15h.2l2.1-.1V16l-2.1.1zm5.5-1.1c0 .1-.1.3-.3.4v-1.1l.3-.2v.9zm-5.5-.3c-3 0-5.5-.5-5.5-1.1 0-.1.1-.2.3-.4.6.6 3 1.1 5.8 1.1 2 0 3.8-.2 4.9-.6-.4.6-2.7 1-5.5 1zm.2 2.8h.3v.5l-.3-.3v-.2zm-.2 0h-.2.2zm1 1.1H23v-1.1h.3v1.1zm4.4-.3l-.3.1v-1.1l.3-.1v1.1zm.9-.3l-.3.1V17l.3-.1V18zm-.5.1l-.3.1v-1.1l.3-.1v1.1zm-1.9.4h-.3v-1.1h.3v1.1zm1-.2l-.3.1v-1.1l.3-.1v1.1zm-.5.1h-.3v-1.1h.3v1.1zm-3.1.2h-.2v-1.1h.2l2.1-.1v1.1l-2.1.1zm5.5-1.1c0 .1-.1.3-.3.4v-1.1l.3-.2v.9zm0-1.4c0 .6-2.5 1.1-5.5 1.1-1.2 0-2.3-.1-3.2-.2l-.4-.1c-.8-.1-1.3-.3-1.6-.5 1 .2 2.4.3 3.9.3 3.2 0 5.8-.6 5.9-1.3.6.2.9.4.9.7zm-6.7 5l-.1-.3.1-.1v.4zm.5 0h-.3v-.4c.3-.2.2-.5.2-.5V20v1.1zm4.4-.4l-.3.1v-1.1l.3-.1v1.1zm.9-.3l-.3.1v-1.1l.3-.1v1.1zm-.4.2l-.3.1v-1.1l.3-.1v1.1zm-2 .4h-.3v-1.1h.3V21zm1-.2l-.3.1v-1.1l.3-.1v1.1zm-.5.1H26v-1.1h.3v1.1zm-3.1.2H23V20h.2l2.1-.1V21l-2.1.1zm5.5-1.1c0 .1-.1.3-.3.4v-1.1l.3-.2v.9zm-5.5-.3h-.4v-.4h.8c2.2 0 4.1-.3 5.1-.7 0 .6-2.5 1.1-5.5 1.1zm-.5 2.7h1l-.5.3-.5-.2v-.1zm5.3-.7l.3-.2v.3H28v-.1zm-5.1.4h-.4v-.3h.8c2.2 0 4.1-.3 5.1-.7-.4.5-2.7 1-5.5 1zm0 8.7v-1.1h.8l.1.4s-.4.2-.4.5v.1l-.5.1zm.8-1.9v.4h-.8v-.4h.8zm-1.6-15.3h-.3v-1.1h.3v1.1zm-.5 0l-1.8-.2v-1.1l1.8.2v1.1zm.9 0h-.3v-1.1h.3v1.1zm-2.9-.2h-.3v-1.1h.3v1.1zm-.5 0c-.5-.1-1-.2-1.3-.4v-1.1c.3.1.8.3 1.3.4v1.1zm7.8-.1l-.3.1v-1.1l.3-.1v1.1zm1-.3l-.3.1V12l.3-.1V13zm-.5.2l-.3.1v-1.1l.3-.1v1.1zm-2 .3h-.3v-1.1h.3v1.1zm1-.1l-.3.1v-1.1l.3-.1v1.1zm-.5.1h-.3v-1.1h.3v1.1zm-8.6-1v-.9l.3.2v1.1c-.1-.1-.3-.3-.3-.4zm5.6 1.1h-.2v-1.1h.2l2.1-.1v1.1l-2.1.1zm5.5-1.1c0 .1-.1.3-.3.4v-1.1l.3-.2v.9zM22.9 10c3 0 5.5.5 5.5 1.1s-2.5 1.1-5.5 1.1-5.5-.5-5.5-1.1 2.4-1.1 5.5-1.1zm5.2 18.4h-.3v-1.1h.3v1.1zm-.5 0l-1.8-.2v-1.1l1.8.2v1.1zm1 0h-.3v-1.1h.3v1.1zm-2.9-.2h-.3v-1.1h.3v1.1zm-.5-.1c-.5-.1-1-.2-1.3-.4v-1.1c.3.1.8.3 1.3.4v1.1zm7.8 0l-.3.1V27h.3v1.1zm.9-.3l-.3.1v-1.1l.3-.1v1.1zm-.4.1l-.4.1v-1.1l.3-.1v1.1zm-2 .4h-.3v-1.1h.3v1.1zm1-.2l-.3.1v-1.1l.3-.1v1.1zm-.5.1h-.3v-1.1h.3v1.1zm-8.6-.9v-.9l.3.2v1.1c-.2-.2-.3-.3-.3-.4zm5.5 1.1h-.2v-1.1h.2l2.1-.1v1.1l-2.1.1zm5.5-1.1c0 .1-.1.3-.3.4v-1.1l.3-.2v.9zm-5.5-.3c-3 0-5.5-.5-5.5-1.1 0-.1.1-.2.3-.4.6.6 3 1.1 5.8 1.1 2 0 3.8-.2 4.9-.6-.3.6-2.6 1-5.5 1zm.6 3.9h-.3v-1.1h.3v1.1zm-.5 0l-1.8-.2v-1.1l1.8.2v1.1zm.9 0h-.3v-1.1h.3v1.1zm-2.9-.2h-.3v-1.1h.3v1.1zm-.4-.1c-.5-.1-1-.2-1.3-.4v-1.1c.3.1.8.3 1.3.4v1.1zm7.7 0H34v-1.1l.3-.1v1.2zm1-.3l-.3.1v-1.1l.3-.1v1.1zm-.5.1l-.3.1v-1.1l.3-.1v1.1zm-1.9.4h-.3v-1.1h.3v1.1zm1-.1l-.3.1v-1.1l.3-.1v1.1zm-.5 0h-.3v-1.1h.3v1.1zm-8.6-.9v-.9l.3.2v1.1c-.2-.2-.3-.3-.3-.4zm5.5 1.1h-.2v-1.1h.2l2.1-.1v1.1l-2.1.1zm5.5-1.1c0 .1-.1.3-.3.4v-1.1l.3-.2v.9zm0-1.4c0 .6-2.5 1.1-5.5 1.1-2.5 0-4.6-.3-5.3-.8 1 .2 2.4.3 3.9.3 3.2 0 5.8-.6 5.9-1.3.7.2 1 .4 1 .7zm-6.7 5h-.3v-1.1h.3v1.1zm-.5 0l-1.8-.2v-1.1l1.8.2v1.1zm.9 0h-.3v-1.1h.3v1.1zm-2.9-.2h-.3v-1.1h.3v1.1zm-.4-.1c-.5-.1-1-.2-1.3-.4v-1.1c.3.1.8.3 1.3.4v1.1zm7.7-.1l-.3.1V32l.3-.1V33zm1-.3l-.3.1v-1.1l.3-.1v1.1zm-.5.2l-.3.1v-1.1l.3-.1v1.1zm-1.9.4h-.3v-1.1h.3v1.1zm1-.2l-.3.1v-1.1l.3-.1v1.1zm-.5.1h-.3v-1.1h.3v1.1zm-8.6-.9v-.9l.3.2v1.1c-.2-.2-.3-.3-.3-.4zm5.5 1.1h-.2v-1.1h.2l2.1-.1v1.1l-2.1.1zm5.5-1.1c0 .1-.1.3-.3.4v-1.1l.3-.2v.9zm-5.5-.3c-3 0-5.5-.5-5.5-1.1 0-.1.1-.2.2-.3.7.6 3 1 5.7 1 2.2 0 4.1-.3 5.1-.7-.1.6-2.5 1.1-5.5 1.1zm-1.2 3.8h-.3v-1.1h.3v1.1zm-.5 0l-1.8-.2v-1.1l1.8.2v1.1zm1 0h-.3v-1.1h.3v1.1zm-2.9-.2H26v-1.1h.3v1.1zm-.5-.1c-.5-.1-1-.2-1.3-.4V34c.3.1.8.3 1.3.4v1.1zm7.8-.1l-.3.1v-1.1l.3-.1v1.1zm.9-.3l-.3.1v-1.1l.3-.1v1.1zm-.5.2l-.3.1v-1.1l.3-.1v1.1zm-1.9.4h-.3v-1.1h.3v1.1zm1-.2l-.3.1v-1.1l.3-.1v1.1zm-.5.1h-.3v-1.1h.3v1.1zm-8.6-.9v-.9l.3.2v1c-.2-.1-.3-.2-.3-.3zm5.5 1.1h-.2v-1.1h.2l2.1-.1v1.1l-2.1.1zm5.5-1.1c0 .1-.1.3-.3.4V34l.3-.2v.9zm-5.5-.3c-3 0-5.5-.5-5.5-1.1l.1-.2c.7.6 3 1 5.8 1 2.2 0 4.1-.3 5.1-.7-.3.5-2.6 1-5.5 1zm-.8-8.5h-.3v-1.1h.3v1.1zm-.5 0l-1.8-.2v-1.1l1.8.2v1.1zm1 .1h-.3v-1.1h.3V26zm-2.9-.3H26v-1.1h.3v1.1zm-.5 0c-.5-.1-1-.2-1.3-.4v-1.1c.3.1.8.3 1.3.4v1.1zm7.8-.1l-.3.1v-1.1l.3-.1v1.1zm.9-.3l-.3.1v-1.1l.3-.1v1.1zm-.5.2l-.3.1v-1.1l.3-.1v1.1zm-1.9.3h-.3v-1.1h.3v1.1zm1-.1l-.3.1v-1.1l.3-.1v1.1zm-.5.1h-.3v-1.1h.3v1.1zm-8.6-1v-.9l.3.2v1.1c-.2-.1-.3-.2-.3-.4zm5.5 1.2h-.2v-1.1h.2l2.1-.1v1.1l-2.1.1zm5.5-1.2c0 .1-.1.3-.3.4v-1.1l.3-.2v.9zm-5.5-2.5c3 0 5.5.5 5.5 1.1s-2.5 1.1-5.5 1.1S24 24 24 23.4s2.5-1.1 5.5-1.1zm-14.8.8h-.3V22h.3v1.1zm-.5 0l-1.8-.2v-1.1l1.8.2v1.1zm.9 0h-.3V22h.3v1.1zm-2.9-.2h-.3v-1.1h.3v1.1zm-.4-.1c-.5-.1-1-.2-1.3-.4v-1.1c.3.1.8.3 1.3.4v1.1zm7.7 0l-.3.1v-1.1l.3-.1v1.1zm1-.3l-.3.1v-1.1l.3-.1v1.1zm-.5.2l-.3.1v-1.1l.3-.1v1.1zm-1.9.3h-.3v-1h.3v1zm1-.1l-.3.1v-1.1l.3-.1v1.1zm-.5 0h-.3v-1.1h.3v1.1zM10 22v-.9l.3.2v1.1c-.2-.1-.3-.3-.3-.4zm5.5 1.1h-.2V22h.2l2.1-.1V23l-2.1.1zM21 22c0 .1-.1.3-.3.4v-1.1l.3-.2v.9zm-5.5-.3c-3 0-5.5-.5-5.5-1.1 0-.1.1-.2.3-.4.6.6 3 1.1 5.8 1.1 2 0 3.8-.2 4.9-.6-.3.6-2.7 1-5.5 1zm.5 3.9h-.3v-1.1h.3v1.1zm-.4 0l-1.8-.2v-1.1l1.8.2v1.1zm.9 0h-.3v-1.1h.3v1.1zm-2.9-.2h-.3v-1.1h.3v1.1zm-.5-.1c-.5-.1-1-.2-1.3-.4v-1.1c.3.1.8.3 1.3.4v1.1zm7.8 0l-.3.1v-1.1l.3-.1v1.1zm1-.3l-.3.1V24l.3-.1V25zm-.5.2l-.3.1v-1.1l.3-.1v1.1zm-2 .3h-.3v-1.1h.3v1.1zm1-.1l-.3.1v-1.1l.3-.1v1.1zm-.5 0h-.3v-1.1h.3v1.1zm-8.6-.9v-.9l.3.2v1.1c-.2-.1-.3-.3-.3-.4zm5.5 1.1h-.2v-1.1h.2l2.1-.1v1.1l-2.1.1zm5.6-1.1c0 .1-.1.3-.3.4v-1.1l.3-.2v.9zm0-1.4c0 .6-2.5 1.1-5.5 1.1-2.5 0-4.6-.3-5.3-.8 1 .2 2.4.3 3.9.3 3.2 0 5.8-.6 5.9-1.3.6.3 1 .5 1 .7zm-6.7 5h-.3V27h.3v1.1zm-.5 0l-1.8-.2v-1.1l1.8.2v1.1zm.9 0h-.3V27h.3v1.1zm-2.9-.2h-.3v-1.1h.3v1.1zm-.5-.1c-.5-.1-1-.2-1.3-.4v-1.1c.3.1.8.3 1.3.4v1.1zm7.8 0l-.3.1v-1.1l.3-.1v1.1zm1-.3l-.3.1v-1.1l.3-.1v1.1zm-.5.1l-.3.1v-1.1l.3-.1v1.1zm-1.9.4h-.3v-1.1h.3V28zm.9-.1l-.3.1v-1.1l.3-.1v1.1zm-.5 0h-.3v-1.1h.3v1.1zm-8.6-.9v-.9l.3.2v1.1c-.1-.2-.3-.3-.3-.4zm5.6 1.1h-.2V27h.2l2.1-.1V28l-2.1.1zM22 27c0 .1-.1.3-.3.4v-1.1l.3-.2v.9zm-5.5-.3c-3 0-5.5-.5-5.5-1.1 0-.1.1-.2.2-.3.7.6 3 1 5.7 1 2.2 0 4.1-.3 5.1-.7-.1.6-2.5 1.1-5.5 1.1zm-1.2 3.8H15v-1.1h.3v1.1zm-.5 0l-1.8-.2v-1.1l1.8.2v1.1zm.9 0h-.3v-1.1h.3v1.1zm-2.9-.2h-.3v-1.1h.3v1.1zm-.4-.1c-.5-.1-1-.2-1.3-.4v-1.1c.3.1.8.3 1.3.4v1.1zm7.7 0l-.3.1v-1.1l.3-.1v1.1zm1-.3l-.3.1v-1.1l.3-.1v1.1zm-.5.1l-.3.1V29l.3-.1V30zm-1.9.4h-.3v-1.1h.3v1.1zm1-.2l-.3.1v-1.1l.3-.1v1.1zm-.5.1h-.3v-1.1h.3v1.1zm-8.6-.9v-.9l.3.2v1.1c-.2-.2-.3-.3-.3-.4zm5.5 1.1h-.2v-1.1h.2l2.1-.1v1.1l-2.1.1zm5.5-1.1c0 .1-.1.3-.3.4v-1.1l.3-.2v.9zm-5.5-.3c-3 0-5.5-.5-5.5-1.1l.1-.2c.7.6 3 1 5.8 1 2.2 0 4.1-.3 5.1-.7-.3.6-2.7 1-5.5 1zm-.8 3.8H15v-1.1h.3v1.1zm-.5 0l-1.8-.2v-1.1l1.8.2v1.1zm.9 0h-.3v-1.1h.3v1.1zm-2.9-.2h-.3v-1.1h.3v1.1zm-.4-.1c-.5-.1-1-.2-1.3-.4v-1.1c.3.1.8.3 1.3.4v1.1zm7.7 0l-.3.1v-1.1l.3-.1v1.1zm1-.3l-.3.1v-1.1l.3-.1v1.1zm-.5.1l-.3.1v-1.1l.3-.1v1.1zm-1.9.4h-.3v-1.1h.3v1.1zm1-.1l-.3.1v-1.1l.3-.1v1.1zm-.5 0h-.3v-1.1h.3v1.1zm-8.6-.9v-.9l.3.2v1.1c-.2-.1-.3-.3-.3-.4zm5.5 1.1h-.2v-1.1h.2l2.1-.1v1.1l-2.1.1zm5.5-1.1c0 .1-.1.3-.3.4v-1.1l.3-.2v.9zm0-1.4c0 .6-2.5 1.1-5.5 1.1s-5.5-.5-5.5-1.1v-.1c.9.5 3 .8 5.5.8s4.6-.3 5.5-.7zm-6.3-9.7H15v-1.1h.3v1.1zm-.5-.1l-1.8-.1v-1.1l1.8.2v1zm.9.1h-.3v-1.1h.3v1.1zm-2.9-.2h-.3v-1.1h.3v1.1zm-.4-.1c-.5-.1-1-.2-1.3-.4v-1.1c.3.1.8.3 1.3.4v1.1zm7.7-.1l-.3.1v-1.1l.3-.1v1.1zm1-.3l-.3.1V19l.3-.1V20zm-.5.2l-.3.1v-1.1l.3-.1v1.1zm-1.9.3h-.3v-1.1h.3v1.1zm1-.1l-.3.1v-1.1l.3-.1v1.1zm-.5.1h-.3v-1.1h.3v1.1zm-8.6-1v-.9l.3.2v1.1c-.2-.1-.3-.2-.3-.4zm5.5 1.2h-.2v-1.1h.2l2.1-.1v1.1l-2.1.1zm5.5-1.1c0 .1-.1.3-.3.4v-1.1l.3-.2v.9zM16.1 17c3 0 5.5.5 5.5 1.1s-2.5 1.1-5.5 1.1-5.5-.5-5.5-1.1S13 17 16.1 17z"/></svg>