<svg version="1.1" id="Layer_1" xmlns="http://www.w3.org/2000/svg" x="0" y="0" viewBox="0 0 36 36" xml:space="preserve"><style>.st0{fill:#fff}</style><path class="st0" d="M10 21.8l2.7-2.7V21l-.9.9H10m1.2-2.8l-2.7 2.7H6.6l2.7-2.7h1.9zm-7.6 2.7h-.3L6.1 19h1.8l-2.7 2.7H3.6zm9.1 9.1c-.2-.2-.5-.3-.8-.3h-.7l1.9-1.9c.3.4.7.6 1.1.7l-1.5 1.5zm-3-2.1l1-1v1h.8l-1.8 1.8H7.9l1.8-1.8zM19.5 9h1.7l-2.6 2.6h-1.8L19.5 9zm-3 0H18l-2.6 2.6h-1.8l3-3V9zm-2.9 0h1L12 11.6h-1.8l3.4-3.4V9zM9.7 9v-.2l1-1V9h.7l-2.6 2.6H6.9L9.5 9h.2zM6.8 9v-.5l3-3h1.8L9.4 7.6H7.7V9H8l-2.6 2.6H3.6L6.2 9h.6zM21 35.9h-1.8l2.8-2.8c.2.4.5.8.8 1L21 35.9zM.1 10.2V9h.7V7.7l2.3-2.3.4.1H5L2.8 7.6h-1v.9L.1 10.2zM8.4.1h1.8l-2.9 3H5.5l2.9-3zM5.1.1h1.8L4 3.1h-.4c-.6 0-1.2.5-1.2 1.1l.1.3L.1 6.9V5.1l5-5zm12.6 35.8h-1.8l5.9-5.9v1.8l-4.1 4.1zm-3.4 0h-1.8l6.5-6.5h1.8l-6.5 6.5zm-3.3 0H9.2l2.9-2.9c.5-.1.9-.5 1-1l2.6-2.6h1.8L11 35.9zm-3.3 0H5.9L8.8 33h1.8l-2.9 2.9zM18.4.1h1.8l-7.6 7.6v-.1h-1.7L18.4.1zm-15 15L4.5 14h1.8l-2.7 2.7c-.7 0-1.2.5-1.2 1.2L.1 20.2v-1.8l3.3-3.3zM.1 16.9v-1.8l2.3-2.2c0 .5.3.9.7 1.1l-3 2.9zM15.1.1h1.8l-3.8 3.8c-.1-.4-.5-.8-.9-.9L15.1.1zM.1 13.6v-1.8L2.9 9h1V8l2.6-2.6h1.8L6.1 7.6H4.8v1.3L.1 13.6zM11.8.1h1.8L10.7 3H8.8l3-2.9zM1.5 35.4c-.4-.2-.7-.5-.9-.9l2-2c.2.3.6.5 1 .5h.3l-2.4 2.4zm9.8-9.7l-1.8 1.7H7.7v1.4H8l-1.8 1.8H4.5l1.8-1.8h.5v-.5l4.1-4.1h1.8v.1l-1.4 1.4zM26.1 9v.7h-.7l.7-.7zM24.6.6c.4.2.7.5.9.9l-7 7v-.9h-.9l7-7zM10 15.1l1.1-1.1H13l-2.7 2.7H8.5l1.5-1.6zM1.3 25.7L.1 26.9V25l2.3-2.3v.3c0 .4.2.8.5 1l-1.6 1.7zm24.8-20v1.8l-.1.1h-.7v.7l-1.5 1.5c-1 .1-1.8.9-2 1.8h-1.7L22.8 9h1.6V7.6h-.2l1.9-1.9zM.1 32.9v-1.2L3 28.8h.8V28l3.8-3.8h1.8L8 25.7l-1.7 1.7H4.8v1.4L.2 33.4l-.1-.5zm12.5-5.3v-.2H11l1.6-1.6v1.8zm-9.5 8.3h-.5L5.5 33h1.8l-2.9 2.9H3.1zm22.4-1.3l-.6.6c-.5.4-1.1.6-1.8.6h-.6l1.4-1.4h1.8l-.2.2zM.1 30.1v-1.3h.7v-1.2l2.8-2.8.6-.6h1.9l-3.2 3.2H1.8v1.1L.1 30.1zm11.6-13.4l.9-.9v.9h-.9zM26.1 3.1v1l-3.4 3.4h-.2v.2l-1 1V7.6h-.6L26 2.4l.1.7zm-19.4 12L7.8 14h1.8L7 16.7H5.1l1.6-1.6zM.1 23.5v-1.8L3 18.9c.2.1.4.2.7.2h1L.1 23.5zM23.1.1h.4L15.6 8v-.4h-1.3L21.8.1h1.3zm-20 0h.5L.1 3.6v-.5c0-1.6 1.4-3 3-3zm26 12.2l-.1.2.1.1h2l.1-.1v-.1l-.2-.1h-1.9zm.6 18.9c-.2 0-.4.2-.4.4v.7c0 .2.2.4.4.4h.7c.2 0 .4-.2.4-.4v-.7c0-.2-.2-.4-.4-.4h-.7zm-4-19.9h8.7c.8 0 1.4.6 1.4 1.4v18.8c0 .8-.6 1.4-1.4 1.4h-8.7c-.8 0-1.4-.6-1.4-1.4v-4.6h.7V31h10.3V13.3H24.9v1.1h-.7v-1.6c0-.8.7-1.5 1.5-1.5zM14.2 24.7v-8.6l5.6 4.2-5.5 4.7-.1-.3zm15.1.6H14.7c-.2 0-.3-.1-.4-.2l6.5-3.9 1 .8 1.2-.9 6.6 4c.1 0-.1.2-.3.2zm.5-9.1v8.7l-5.5-4.7 5.5-4.1v.1zm-15.1-.5h14.6c.2 0 .4.1.5.3l-7.9 4.1-7.7-4c.1-.3.3-.4.5-.4z"/></svg>