<svg version="1.1" id="Layer_1" xmlns="http://www.w3.org/2000/svg" x="0" y="0" viewBox="0 0 36 36" xml:space="preserve"><style>.st0{fill:#fff}</style><path class="st0" d="M19 21.5l2.4-2.4c.2-.2.6-.2.9 0 .2.2.2.6 0 .9l-2.4 2.4c-.2.2-.6.2-.9 0-.2-.3-.2-.7 0-.9m-1-2.2l1.2-1.2c.2-.2.6-.2.9 0 .2.2.2.6 0 .9l-1.2 1.2c-.2.2-.6.2-.9 0-.3-.3-.3-.7 0-.9zm-8.4-5.5H12c-.3.5-.5 1.1-.5 1.8v.8H9.6c-.3.1-.6-.1-.6-.4v-1.7c0-.2.3-.5.6-.5zm-4.5 7.7h3c.4 0 .6.2.6.5v1.7c0 .3-.3.5-.6.5h-3c-.4 0-.6-.2-.6-.5V22c-.1-.2.2-.5.6-.5zm.1-15.8h3c.4 0 .6.2.6.5v1.7c0 .3-.3.5-.6.5h-3c-.4 0-.6-.2-.6-.5V6.2c0-.3.2-.5.6-.5zm-.7-.9c-.5 0-1 .4-1 1v2.6c0 .5.4 1 1 1h21c.5 0 1-.4 1-1V5.8c0-.5-.4-1-1-1h-21zM2.6.1h24.9C28.9.1 30 1.2 30 2.6V12H15.1c-.8 0-1.6.3-2.2.8H4.5c-.5 0-1 .4-1 1v2.6c0 .5.4 1 1 1h7v3.2h-7c-.5 0-1 .4-1 1v2.6c0 .5.4 1 1 1h7v3.7c0 .4.1.7.2 1.1h-9C1.3 30 .2 28.9.2 27.5V2.6C.1 1.3 1.3.1 2.6.1zm14.7 16.7c-.4 0-.7.3-.7.7v9.9c0 .4.3.7.7.7h15.6c.4 0 .7-.3.7-.7v-9.9c0-.4-.3-.7-.7-.7H17.3zm-1.2-2.2H34c1 0 1.8.8 1.8 1.8v12.1c0 1-.8 1.8-1.8 1.8H16.2c-1 0-1.8-.8-1.8-1.8V16.4c-.1-1 .8-1.8 1.7-1.8zM19 35.9c-.2 0-.4-.2-.4-.4V35c0-.2.2-.4.4-.4h3v-3.2c0-.2.2-.4.4-.4H28c.2 0 .4.2.4.4v3.2h3c.2 0 .4.2.4.4v.5c0 .2-.2.4-.4.4H19z"/></svg>