<svg version="1.1" id="Layer_1" xmlns="http://www.w3.org/2000/svg" x="0" y="0" viewBox="0 0 36 36" xml:space="preserve"><style>.st0{fill:#fff}</style><path class="st0" d="M16.6 15.4h.6l-.5.4-.1-.4m-12.9 0h4.1l-.7 3.9H12v-2.4H8v-1.5h8.5v.6l-1.1.9H13v2.4l-1.3 1.6H2.2c-.2 0-.4.2-.4.4v.8c0 .2.2.4.4.4h8.3c-.5.9-1.1 1.8-1.5 2.8l.8 1H.9c-.5 0-.8-.4-.8-.8v-5.4c0-.5.4-.8.8-.8h.3l1.5-3.9h.9L2 19.3h4.2l.4-2.4h-3v-1.5zM6.7 2c-.2 0-.4.2-.4.4v2.2c0 .2.2.4.4.4h6.9c.2 0 .4-.2.4-.4V2.4c0-.2-.2-.4-.4-.4H6.7zM5.6 9.4l-1.3 3.4h16.3l-1.3-3.4H5.6zM4.1 8h4.7V6.8H4.9c-.4 0-.7-.3-.7-.8V.8c0-.4.3-.8.8-.8h10.5c.4 0 .8.3.8.8V6c0 .4-.3.8-.8.8h-3.9V8h9.2l1.7 4.3c-1.2.6-2.5 1.3-3.8 2.2h-17L4.1 8zm30.5 10.8l-.9.9-1.8.3 1.1-.9 1.6-.3zM33 20.5l-.8.9-2 .2.8-.9 2-.2zm-2.5 3.2l-.6.9-2.2.3.6-.9 2.2-.3zm-2.6 4.7l-.4.8-2.5.3.4-.8 2.5-.3zm.8-1.6l-.4.8-2.4.4.5-.9 2.3-.3zm-1.5 3.1l-.3.8-2.5.3.4-.8 2.4-.3zm-.5 1.5l-.3.8-2.6.3.3-.8 2.6-.3zm-.5 1.5l-.2.8-1.4.2-.6-.7 2.2-.3zm5.4-10.8l-.6.9-2.1.3.7-.9 2-.3zM27 26.4h-.3l.5-.9 2.2-.3-.4.9-2 .3zm-1.4 8.8l-.6-.7.7-.1-.1.8zm10.3-17.5l-.5.4-1.4.1c.9-.6 1.4-.8 1.4-.8l.5.3zM28.4 15c-.5-.3-1.1-.3-1.3 0-.2.3 0 .9.5 1.2.5.3 1.1.3 1.3 0 .3-.3.1-.9-.5-1.2zM18.3 25.1c-.3-.2-.6-.4-.7-.2-.1.1.1.4.4.7l.1.1c.3.2.6.4.7.2.1-.2-.1-.5-.5-.8zm2.2-2.8c-.3-.2-.6-.4-.7-.2-.1.1.1.4.4.7l.1.1c.3.2.6.4.7.2.1-.2-.1-.5-.5-.8zm-.2 1.6v-.1h.2c.1-.1-.1-.4-.4-.7L20 23c-.3-.2-.6-.4-.7-.2v.1c-.6 0-1 .5-.9 1.1v.1h-.1c-.1.1.1.4.4.7l.1.1c.3.2.6.4.7.2v-.2c.4 0 .8-.5.8-1zm9.2-10.7l-.2.1L32 15l.2-.2-2.7-1.6zM15.2 26.7l2.8 3.1s.1-.3.3-.4l-2.9-3.1-.2.4zm12.7-5.2s3-3.4 5.4-4.7c0 0-.7-.3-.9-.8l-.1.2s.2.4.4.5c0 0-3.1 2-4.3 3.4 0-.7-.6-1.8-.6-1.8l-.3.4s.6 1.3.4 2.8zM21.3 15c1.7-.3 3.3.6 3.3.6v-.3c-.6-.5-2-.7-2-.7.9-.9 3.8-2.1 3.8-2.1.1.3.5.7.5.7h.3c-.6-.5-.6-1-.6-1-3.1 1.2-5.3 2.8-5.3 2.8zm.4 15.9s2.4-5.6 4.9-8c0 0-1.7.6-3 0l-.5.3s1.2.6 2.1.6c0 0-2.7 3.8-3.5 6-.4-.4-1.3-.6-1.3-.6l-.6.2c-.1-.1 1.6.5 1.9 1.5zm-8-7.7c.8.1 1.4.7 1.4.7v-.4c-.3-.4-.7-.7-.7-.7 1.5-3.1 4.6-5.6 4.6-5.6-.1.7.4 1.8.4 1.8h.4c-.7-1.9.2-3 .2-3-3.9 2.3-6.4 7.2-6.3 7.2zm19.5-7.9l.8.6.1-.1.2.1-.5.4-.2-.2.1-.1-.5-.4-.1.1-.1-.1v-.2l.2-.1zm-5.5-3.2l.8.6.1-.1.2.1-.5.4-.2-.2.1-.1-.5-.4-.1.1-.1-.1v-.2l.2-.1zm-8.4 18.4l1.2 1.3.2-.2.3.3-.7.9-.3-.4.2-.2-.8-.9-.2.2-.2-.3.1-.4.2-.3zm-6-6.3l1 1 .2-.2.2.2-.5.8-.2-.2.1-.2-.7-.7-.2.2-.2-.2v-.4l.3-.3zm20.7-9c-.5-.3-1.1-.3-1.3 0-.2.3.1.9.6 1.2.5.3 1.1.3 1.3 0 .2-.4-.1-.9-.6-1.2zM28.4 12c-.5-.3-1.1-.3-1.3 0-.2.3.1.8.6 1.1.5.3 1.1.3 1.3 0 .2-.3-.1-.8-.6-1.1zm-7.5 18.7c-.7-.8-1.7-1.1-2.2-.6-.6.5-.5 1.5.2 2.3.7.8 1.7 1.1 2.2.6.6-.4.5-1.5-.2-2.3zm-6.2-6.4c-.6-.6-1.5-.8-2-.3s-.4 1.3.1 2 1.5.8 2 .3c.6-.5.5-1.4-.1-2zM25.4 17c-1.7-1.4-3.8-1.7-4.8-.5-1 1.1-.4 3.3 1.2 4.7 1.7 1.4 3.8 1.7 4.8.5s.5-3.3-1.2-4.7zm10.5-1C25 21.9 20.8 36 20.8 36l-9.5-10.7C16.2 14 27.8 11.5 27.8 11.5l8.1 4.5zm-13 5.4c0-.1-.1-1.3 1.6-1 0 0 .6.1.7 0 .4-.3-.2-1.1.1-1.6.2-.4 1-.3 1.2.2.3.5.4 2.2-.6 2.7s-2 .4-3-.3zm.7-4.3c.7.7.9 1.6.4 2.2-.5.5-1.5.4-2.2-.2-.7-.7-.9-1.6-.4-2.2.5-.6 1.5-.4 2.2.2zm-4.4 6.1c.4 0 .7.3.8.7 0 .4-.3.7-.7.7-.4 0-.7-.3-.8-.7 0-.4.3-.7.7-.7zm9.1-8.1c.3.2.4.5.3.7-.1.2-.5.2-.8 0-.3-.2-.4-.5-.3-.7.1-.2.5-.2.8 0z"/></svg>