<svg version="1.1" id="Layer_1" xmlns="http://www.w3.org/2000/svg" x="0" y="0" viewBox="0 0 36 36" xml:space="preserve"><style>.st0{fill:#fff}</style><path class="st0" d="M16 6.8h2.8c.2 0 .4.1.4.3v.8c-1.4.2-2.8.5-3.5 1.1V7.1c-.1-.2.1-.3.3-.3m-4.4 0h2.8c.2 0 .4.1.4.3v2.1c0 .2-.2.3-.4.3h-2.8c-.2 0-.4-.1-.4-.3V7.1c0-.2.2-.3.4-.3zm0 3.3h2.8c.2 0 .4.1.4.3v2.1c0 .2-.2.3-.4.3h-2.8c-.2 0-.4-.1-.4-.3v-2.1c0-.2.2-.3.4-.3zm-4.4 0H10c.2 0 .4.1.4.3v2.1c0 .2-.2.3-.4.3H7.2c-.2 0-.4-.1-.4-.3v-2.1c0-.2.2-.3.4-.3zm-4.4 0h2.8c.2 0 .4.1.4.3v2.1c0 .2-.2.3-.4.3H2.8c-.2 0-.4-.1-.4-.3v-2.1c0-.2.2-.3.4-.3zm8.8 3.3h3V15s-1.6 0-3.4.3v-1.6c0-.2.2-.3.4-.3zm-4.4 0H10c.2 0 .4.1.4.3v1.8c-.6.1-1.1.3-1.6.6H7.2c-.2 0-.4-.1-.4-.3v-2.1c0-.2.2-.3.4-.3zm-4.4 0h2.8c.2 0 .4.1.4.3v2.1c0 .2-.2.3-.4.3H2.8c-.2 0-.4-.1-.4-.3v-2.1c0-.2.2-.3.4-.3zm4.4 3.2H8c-.3.3-.5.6-.5 1l.1 1.5-.4.2c-.2 0-.4-.1-.4-.3v-2.1c0-.2.2-.3.4-.3zm-4.4 0h2.8c.2 0 .4.1.4.3V19c0 .2-.2.3-.4.3H2.8c-.2 0-.4-.1-.4-.3v-2.1c0-.2.2-.3.4-.3zm-.9 4.9c-1 0-1.8-.8-1.8-1.8V3.9c0-1 .8-1.8 1.8-1.8h1.9v.8c0 .9.8 1.7 1.7 1.7s1.7-.8 1.7-1.7v-.8h7v.8c0 .9.8 1.7 1.7 1.7.9 0 1.7-.8 1.7-1.7v-.8h2c1 0 1.8.8 1.8 1.8v3.8l-1.4.1v-.9c0-.5-.4-.9-.9-.9H2.4c-.5 0-.8.2-.9.6v12.7c0 .5.4.9.9.9H7v1.3H1.9zM16 .1c.5 0 .9.4.9.9v1.8c0 .4-.3.7-.6.9V1.4c0-.1-.1-.3-.3-.3-.1 0-.3.1-.3.3v2.3c-.4-.1-.6-.5-.6-.9V1c0-.5.4-.9.9-.9zM5.5.1c.5 0 .9.4.9.9v1.8c0 .4-.3.7-.6.9V1.4c0-.1-.1-.3-.3-.3s-.2.2-.2.3v2.3c-.4-.1-.7-.5-.7-.9V1c0-.5.4-.9.9-.9zm15.9 15.8h-.3v-1.1h.3v1.1zm-.5 0l-1.9-.2v-1.1l1.8.2v1.1zm.9 0h-.3v-1.1h.3v1.1zm-2.9-.2h-.3v-1.1h.3v1.1zm-.5-.1c-.5-.1-1-.2-1.3-.4v-1.1c.3.1.8.3 1.3.4v1.1zm7.9 0H26v-1.1l.3-.1v1.2zm1-.3l-.3.1v-1.1l.3-.1v1.1zm-.5.1l-.3.1v-1.1l.3-.1v1.1zm-2 .4h-.3v-1.1h.3v1.1zm1-.1l-.3.1v-1.1l.3-.1v1.1zm-.5 0H25v-1.1h.3v1.1zm-8.7-.9v-.9l.3.2v1.1c-.2-.2-.3-.3-.3-.4zm5.6 1.1H22v-1.1h.2l2.1-.1v1.1l-2.1.1zm5.6-1.1c0 .1-.1.3-.3.4v-1.1l.3-.2v.9zm-5.6-.3c-3.1 0-5.6-.5-5.6-1.1 0-.1.1-.2.3-.4.6.6 3 1.1 5.9 1.1 2.1 0 3.9-.2 5-.6-.4.6-2.8 1-5.6 1zm.2 2.9h.3v.5l-.3-.3v-.2zm-.2-.1H22h.2zm1 1.2h-.3v-1.1h.3v1.1zm4.4-.4l-.3.1v-1.1l.3-.1v1.1zm1-.3l-.3.1v-1.1l.3-.1v1.1zm-.5.2l-.3.1V17l.3-.1V18zm-1.9.3h-.3v-1.1h.3v1.1zm1-.1l-.3.1v-1.1l.3-.1v1.1zm-.5.1h-.3v-1.1h.3v1.1zm-3.2.2h-.2v-1.1h.2l2.1-.1v1.1l-2.1.1zm5.6-1.2c0 .1-.1.3-.3.4v-1.1l.3-.2v.9zm0-1.4c0 .6-2.5 1.1-5.6 1.1-1.2 0-2.4-.1-3.3-.2l-.4-.1c-.8-.1-1.3-.3-1.7-.5 1.1.2 2.4.3 4 .3 3.2 0 5.8-.6 6-1.3.7.2 1 .5 1 .7zM22.3 21l-.1-.3.1-.1v.4zm.5 0h-.3v-.4c.3-.2.3-.5.3-.5V20v1zm4.4-.4l-.2.1v-1.1l.3-.1v1.1zm1-.3l-.3.1v-1.1l.3-.1v1.1zm-.5.2l-.3.1v-1.1l.3-.1v1.1zm-1.9.4h-.3v-1.1h.3v1.1zm1-.2l-.3.1v-1.1l.3-.1v1.1zm-.5.1H26v-1.1h.3v1.1zm-3.1.2H23v-1.1h.2l2.1-.1v1.1l-2.1.1zm5.5-1.2c0 .1-.1.3-.3.4v-1.1l.3-.2v.9zm-5.5-.2h-.4v-.4h.8c2.2 0 4.2-.3 5.2-.7-.1.6-2.6 1.1-5.6 1.1zm-.6 2.7h1.1l-.6.3-.5-.2v-.1zm5.4-.7l.3-.2v.3H28v-.1zm-5.2.4h-.4v-.3h.8c2.2 0 4.1-.3 5.2-.7-.4.5-2.8 1-5.6 1zm0 8.8v-1.1h.8l.1.4s-.4.2-.4.5v.1l-.5.1zm.8-1.9v.4h-.8v-.4h.8zM22 13.4h-.3v-1.1h.3v1.1zm-.5 0l-1.8-.2v-1.1l1.8.2v1.1zm.9 0h-.3v-1.1h.3v1.1zm-2.9-.2h-.3v-1.1h.3v1.1zm-.5-.1c-.6-.1-1-.2-1.3-.4v-1.1c.3.1.8.3 1.3.4v1.1zm7.9 0l-.3.1V12l.3-.1v1.2zm1-.3l-.3.1v-1.1l.3-.1v1.1zm-.5.1l-.4.1v-1.1l.3-.1v1.1zm-2 .4h-.3v-1.1h.3v1.1zm1-.1l-.3.1v-1.1l.3-.1v1.1zm-.5 0h-.3v-1.1h.3v1.1zm-8.7-.9v-.9l.3.2v1.1c-.2-.2-.3-.3-.3-.4zm5.6 1.1h-.2v-1.1h.2l2.1-.1v1.1l-2.1.1zm5.6-1.1c0 .1-.1.3-.3.4v-1.1l.3-.2v.9zm-5.6-2.6c3.1 0 5.6.5 5.6 1.1 0 .6-2.5 1.1-5.6 1.1-3.1 0-5.6-.5-5.6-1.1 0-.6 2.5-1.1 5.6-1.1zm5.3 18.7h-.3v-1.1h.3v1.1zm-.5 0l-1.8-.2v-1.1l1.8.2v1.1zm1 0h-.3v-1.1h.3v1.1zm-3-.2h-.3v-1.1h.3v1.1zm-.4-.1c-.6-.1-1-.2-1.3-.4v-1.1c.3.1.8.3 1.3.4v1.1zM33 28l-.3.1V27h.3v1zm1-.3l-.3.1v-1.1l.3-.1v1.1zm-.5.2l-.3.1v-1.1l.3-.1v1.1zm-1.9.4h-.3v-1.1h.3v1.1zm1-.2l-.3.1v-1.1l.3-.1v1.1zm-.5.1h-.3v-1.1h.3v1.1zm-8.8-.9v-.9l.3.2v1.1c-.1-.2-.3-.3-.3-.4zm5.6 1.1h-.2v-1.1h.2l2.1-.1v1.1l-2.1.1zm5.6-1.1c0 .1-.1.3-.3.4v-1.1l.3-.2v.9zm-5.6-.3c-3.1 0-5.6-.5-5.6-1.1 0-.1.1-.2.3-.4.6.6 3 1.1 5.9 1.1 2.1 0 3.9-.2 5-.6-.3.5-2.7 1-5.6 1zm.6 3.9h-.3v-1.1h.3v1.1zm-.5 0l-1.8-.2v-1.1l1.8.2v1.1zm1 .1h-.3v-1.1h.3V31zm-3-.3h-.3v-1.1h.3v1.1zm-.5 0c-.6-.1-1-.2-1.3-.4v-1.1c.3.1.8.3 1.3.4v1.1zm7.9-.1l-.3.1v-1.1l.3-.1v1.1zm1-.3l-.3.1v-1.1l.3-.1v1.1zm-.5.2l-.3.1v-1.1l.3-.1v1.1zm-2 .3h-.3v-1.1h.3v1.1zm1-.1l-.3.1v-1.1l.3-.1v1.1zm-.5.1h-.3v-1.1h.3v1.1zm-8.7-1v-.9l.3.2v1.1c-.2-.1-.3-.3-.3-.4zm5.6 1.2h-.2v-1.1h.2l2.1-.1v1.1l-2.1.1zm5.6-1.2c0 .1-.1.3-.3.4v-1.1l.3-.2v.9zm0-1.4c0 .6-2.5 1.1-5.6 1.1-2.5 0-4.6-.3-5.3-.8 1.1.2 2.4.3 4 .3 3.2 0 5.8-.6 6-1.3.5.2.9.4.9.7zm-6.8 5.1h-.3v-1.1h.3v1.1zm-.5-.1l-1.8-.2v-1.1l1.8.2v1.1zm1 .1h-.3v-1.1h.3v1.1zm-3-.2h-.3v-1.1h.3v1.1zm-.5-.1c-.5-.1-1-.2-1.3-.4v-1.1c.3.1.8.3 1.3.4v1.1zm7.9-.1l-.3.1v-1.1l.3-.1v1.1zm1-.3l-.3.1v-1.1l.3-.1v1.1zm-.5.2l-.3.1V32l.3-.1V33zm-2 .3h-.3v-1.1h.3v1.1zm1-.1l-.3.1v-1.1l.3-.1v1.1zm-.5.1h-.3v-1.1h.3v1.1zm-8.7-1v-.9l.3.2v1.1c-.2-.1-.3-.2-.3-.4zm5.6 1.2h-.2v-1.1h.2l2.1-.1v1.1l-2.1.1zm5.6-1.2c0 .1-.1.3-.3.4v-1.1l.3-.2v.9zm-5.6-.3c-3.1 0-5.6-.5-5.6-1.1 0-.1.1-.2.2-.3.7.6 3 1 5.8 1 2.2 0 4.1-.3 5.2-.7-.1.6-2.5 1.1-5.6 1.1zm-1.2 3.9h-.3v-1.1h.3v1.1zm-.5 0l-1.8-.2v-1.1l1.8.2v1.1zm1 0h-.3v-1.1h.3v1.1zm-3-.2h-.3v-1.1h.3v1.1zm-.4-.1c-.5-.1-1-.2-1.3-.4v-1.1c.3.1.8.3 1.3.4v1.1zm7.8-.1l-.3.1v-1.1l.3-.1v1.1zm1-.3l-.3.1v-1.1l.3-.1v1.1zm-.5.2l-.3.1v-1.1l.3-.1v1.1zm-1.9.4h-.3v-1.1h.3v1.1zm1-.2l-.3.1v-1.1l.3-.1v1.1zm-.5.1h-.3v-1.1h.3v1.1zm-8.8-1v-.9l.3.2v1.1c-.1-.1-.3-.2-.3-.4zm5.6 1.2h-.2v-1.1h.2l2.1-.1v1.1l-2.1.1zm5.6-1.1c0 .1-.1.3-.3.4v-1.1l.3-.2v.9zm-5.6-.3c-3.1 0-5.6-.5-5.6-1.1l.1-.2c.7.6 3 1 5.8 1 2.2 0 4.1-.3 5.2-.7-.2.5-2.6 1-5.5 1zm-.8-8.6h-.3v-1.1h.3v1.1zm-.5 0l-1.8-.2v-1.1l1.8.2v1.1zm1 0h-.3v-1.1h.3v1.1zm-3-.2h-.3v-1.1h.3v1.1zm-.4-.1c-.5-.1-1-.2-1.3-.4v-1.1c.3.1.8.3 1.3.4v1.1zm7.8 0l-.3.1v-1.1l.3-.1v1.1zm1-.3l-.3.1v-1.1l.3-.1v1.1zm-.5.1l-.3.1v-1.1l.3-.1v1.1zm-1.9.4h-.3v-1.1h.3v1.1zm1-.2l-.3.1v-1.1l.3-.1v1.1zm-.5.1h-.3v-1.1h.3v1.1zm-8.8-.9v-.9l.3.2v1.1c-.1-.2-.3-.3-.3-.4zm5.6 1.1h-.2v-1.1h.2l2.1-.1v1.1l-2.1.1zm5.6-1.1c0 .1-.1.3-.3.4v-1.1l.3-.2v.9zm-5.6-2.6c3.1 0 5.6.5 5.6 1.1s-2.5 1.1-5.6 1.1c-3.1 0-5.6-.5-5.6-1.1s2.5-1.1 5.6-1.1zm-15 .8h-.3v-1.1h.3V23zm-.5 0l-1.8-.2v-1.1l1.8.2V23zm1 .1h-.3V22h.3v1.1zm-3-.3h-.3v-1.1h.3v1.1zm-.5 0c-.5-.1-1-.2-1.3-.4v-1.1c.3.1.8.3 1.3.4v1.1zm7.9-.1l-.3.1v-1.1l.3-.1v1.1zm1-.3l-.3.1v-1.1l.3-.1v1.1zm-.5.2l-.3.1v-1.1l.3-.1v1.1zm-2 .3h-.3v-1.1h.3v1.1zm1-.1l-.3.1v-1.1l.3-.1v1.1zm-.5.1h-.3v-1.1h.3v1.1zm-8.7-1V21l.3.2v1.1c-.2-.1-.3-.3-.3-.4zm5.6 1.2h-.2V22h.2l2.1-.1V23l-2.1.1zm5.6-1.2c0 .1-.1.3-.3.4v-1.1l.3-.2v.9zm-5.6-.3c-3.1 0-5.6-.5-5.6-1.1 0-.1.1-.2.3-.4.6.6 3 1.1 5.9 1.1 2.1 0 3.9-.2 5-.6-.4.6-2.7 1-5.6 1zm.6 4h-.3v-1.1h.3v1.1zm-.5 0l-1.8-.2v-1.1l1.8.2v1.1zm.9 0H16v-1.1h.3v1.1zm-2.9-.2h-.3v-1.1h.3v1.1zm-.5-.1c-.6-.1-1-.2-1.3-.4v-1.1c.3.1.8.3 1.3.4v1.1zm7.9-.1l-.3.1v-1.1l.3-.1v1.1zm1-.3l-.3.1v-1l.3-.1v1zm-.5.2l-.3.1v-1.1l.3-.1v1.1zm-2 .4H19v-1.1h.3v1.1zm1-.2l-.3.1v-1.1l.3-.1v1.1zm-.5.1h-.3v-1.1h.3v1.1zm-8.7-1v-.9l.3.2v1.1c-.2-.1-.3-.2-.3-.4zm5.6 1.2h-.2v-1.1h.2l2.1-.1v1.1l-2.1.1zm5.6-1.1c0 .1-.1.3-.3.4v-1.1l.3-.2v.9zm0-1.5c0 .6-2.5 1.1-5.6 1.1-2.5 0-4.6-.3-5.3-.8 1.1.2 2.4.3 4 .3 3.2 0 5.8-.6 6-1.3.5.3.9.5.9.7zm-6.8 5.1h-.3V27h.3v1.1zm-.5 0l-1.8-.2v-1.1l1.8.2v1.1zm.9 0h-.3V27h.3v1.1zm-2.9-.2h-.3v-1.1h.3v1.1zm-.5-.1c-.6-.1-1-.2-1.3-.4v-1.1c.3.1.8.3 1.3.4v1.1zm7.9 0l-.3.1v-1.1l.3-.1v1.1zm1-.4l-.3.1v-1.1l.3-.1v1.1zm-.5.2l-.3.1v-1.1l.3-.1v1.1zm-2 .4h-.3v-1.1h.3V28zm1-.2l-.3.1v-1.1l.3-.1v1.1zm-.5.1h-.3v-1.1h.3v1.1zm-8.7-.9v-.9l.3.2v1.1c-.2-.2-.3-.3-.3-.4zm5.6 1.1h-.2V27h.2l2.1-.1V28l-2.1.1zm5.6-1.1c0 .1-.1.3-.3.4v-1.1l.3-.2v.9zm-5.6-.3c-3.1 0-5.6-.5-5.6-1.1 0-.1.1-.2.2-.3.7.6 3 1 5.8 1 2.2 0 4.2-.3 5.2-.7-.1.6-2.6 1.1-5.6 1.1zm-1.2 3.8h-.3v-1.1h.3v1.1zm-.5 0l-1.8-.2v-1.1l1.8.2v1.1zm1 0h-.3v-1.1h.3v1.1zm-3-.2h-.3v-1.1h.3v1.1zm-.5-.1c-.6-.1-1-.2-1.3-.4v-1.1c.3.1.8.3 1.3.4v1.1zm7.9 0l-.3.1v-1.1l.3-.1v1.1zm1-.3l-.3.1v-1.1l.3-.1v1.1zm-.5.1l-.3.1V29l.3-.1V30zm-2 .4h-.3v-1.1h.3v1.1zm1-.1l-.3.1v-1.1l.3-.1v1.1zm-.5 0h-.3v-1.1h.3v1.1zm-8.7-.9v-.9l.3.2v1.1c-.2-.1-.3-.3-.3-.4zm5.6 1.1h-.2v-1.1h.2l2.1-.1v1.1l-2.1.1zm5.6-1.1c0 .1-.1.3-.3.4v-1.1l.3-.2v.9zm-5.6-.3c-3.1 0-5.6-.5-5.6-1.1l.1-.2c.7.6 3 1 5.8 1 2.2 0 4.1-.3 5.2-.7-.3.6-2.6 1-5.5 1zm-.8 3.9h-.3v-1.1h.3V33zm-.5 0l-1.8-.2v-1.1l1.8.2V33zm1 0h-.3v-1.1h.3V33zm-3-.2h-.3v-1.1h.3v1.1zm-.5-.1c-.6-.1-1-.2-1.3-.4v-1.1c.3.1.8.3 1.3.4v1.1zm7.9-.1l-.3.1v-1.1l.3-.1v1.1zm1-.3l-.3.1v-1.1l.3-.1v1.1zm-.5.2l-.3.1v-1.1l.3-.1v1.1zm-2 .4h-.3v-1.1h.3v1.1zm1-.2l-.3.1v-1.1l.3-.1v1.1zm-.5.1h-.3v-1.1h.3v1.1zm-8.7-1v-.9l.3.2v1.1c-.2-.1-.3-.2-.3-.4zm5.6 1.2h-.2v-1.1h.2l2.1-.1v1.1l-2.1.1zm5.6-1.1c0 .1-.1.3-.3.4v-1.1l.3-.2v.9zm0-1.5c0 .6-2.5 1.1-5.6 1.1-3.1 0-5.6-.5-5.6-1.1v-.1c.9.5 3.1.9 5.6.9 2.5 0 4.7-.4 5.6-.8zm-6.4-9.8h-.3v-1.1h.3v1.1zm-.5-.1l-1.8-.2v-1.1l1.8.2v1.1zm1 .1h-.3v-1.1h.3v1.1zm-3-.3h-.3v-1.1h.3v1.1zm-.5 0c-.6-.1-1-.2-1.3-.4v-1.1c.3.1.8.3 1.3.4v1.1zm7.9-.1l-.3.1v-1.1l.3-.1v1.1zm1-.3l-.3.1v-1.1l.3-.1v1.1zm-.5.2l-.3.1v-1.1l.3-.1v1.1zm-2 .3h-.3v-1.1h.3v1.1zm1-.1l-.3.1v-1.1l.3-.1v1.1zm-.5.1h-.3v-1.1h.3v1.1zm-8.7-1v-.9l.3.2v1.1c-.2-.1-.3-.3-.3-.4zm5.6 1.2h-.2v-1.1h.2l2.1-.1v1.1l-2.1.1zm5.6-1.2c0 .1-.1.3-.3.4v-1.1l.3-.2v.9zm-5.6-2.6c3.1 0 5.6.5 5.6 1.1S19 19 15.9 19c-3.1 0-5.6-.5-5.6-1.1s2.5-1.1 5.6-1.1z"/></svg>