<svg xmlns="http://www.w3.org/2000/svg" viewBox="0 0 36 36"><style>.st0{fill:#fff}</style><path class="st0" d="M18.6 31.3c-.7 0-1.3.6-1.3 1.3 0 .7.6 1.3 1.3 1.3h14c.7 0 1.3-.6 1.3-1.3 0-.7-.6-1.3-1.3-1.3h-14M3.5 26.2c-.7 0-1.3.6-1.3 1.3 0 .7.6 1.3 1.3 1.3h18c.7 0 1.3-.6 1.3-1.3 0-.7-.6-1.3-1.3-1.3h-18zM30 19.5c-.7 0-1.3.6-1.3 1.3 0 .7.6 1.3 1.3 1.3h2.6c.7 0 1.3-.6 1.3-1.3 0-.7-.6-1.3-1.3-1.3H30zM25.2 26c-.3 0-.6.3-.6.6v1.7c0 .3.3.6.6.6h8.2c.3 0 .6-.3.6-.6v-1.7c0-.3-.3-.6-.6-.6h-8.2zM1.8 18.1h2.3l-1.7 3.8c-.3.6-.1 2 .4 2.4.4.5 2 .8 2.6.6l11.3-3.4.9-.4c.3-.1.7-.3 5.4-3.1h11.1c1 0 1.8.8 1.8 1.8v14.3c0 1-.8 1.8-1.8 1.8H1.8c-1 0-1.8-.8-1.8-1.8V19.9c0-1 .8-1.8 1.8-1.8zM26.7 6.2l-1.3 1.3L20 2.1 21.3.8c.9-.9 2.1-1 2.7-.3l3 3c.7.6.5 1.8-.3 2.7zM5.3 23.5c-.4.2-.8.1-1.1-.2-.3-.3-.4-.7-.2-1.1L7.4 15l.2-.2c.1-.3.3-.5.5-.8L18.8 3.3l5.4 5.4-10.7 10.7c-.2.2-.5.4-.8.5l-.2.2-7.2 3.4z" id="Layer_1"/></svg>