<svg version="1.1" id="Layer_1" xmlns="http://www.w3.org/2000/svg" x="0" y="0" viewBox="0 0 36 36" xml:space="preserve"><style>.st0{fill:#fff}</style><path class="st0" d="M13.7 10.5c0 .5 0 .9-.1 1.2l-.9.8c-.5-.1-.8-.7-.8-2 0-.5.1-1 .2-1.4.2-.4.4-.6.7-.6.3 0 .5.2.7.6.1.4.2.9.2 1.4m-4-3.2H6.4l-.7 3.1h.8c1 .1 1.6.4 1.6 1.1 0 .7-.5 1.1-1.4 1.1-.4 0-.7-.1-1-.2v1.4c.5.1.9.2 1.2.2.7 0 1.3-.2 1.8-.6.5-.5.8-1.1.8-1.9 0-.6-.2-1.1-.6-1.5-.3-.4-.9-.6-1.5-.6l.3-.8h1.7l.3-1.3zm.7-3.2C8.6 4.1 7 4.9 5.9 6l1.4-.4c.9-.6 2-.9 3.2-.9 1.2 0 2.2.3 3.2.9l1.2.4c-1.2-1.1-2.8-1.9-4.5-1.9zm0-1.2c3.7 0 6.8 2.7 7.5 6.2-1 .4-1.9.9-2.8 1.3 0-.9-.2-1.7-.6-2.3-.4-.7-1-1-1.7-1s-1.3.3-1.7 1c-.4.6-.6 1.4-.6 2.3 0 1 .2 1.8.6 2.5.2.3.4.5.6.7-.7.9-1.3 1.8-1.8 2.8-1-.1-1.8-.4-2.6-.9l-1.4-.4c1 1 2.3 1.6 3.7 1.8L9.1 18c-3.6-.6-6.4-3.7-6.4-7.5 0-4.1 3.5-7.6 7.7-7.6zm0-2.7c5 0 9.1 3.5 10.1 8.3l-1.3.3c-.8-4.1-4.5-7.2-8.8-7.2-4.9 0-9 4-9 9 0 4.4 3.2 8.1 7.3 8.8l-.3 1.3C3.6 19.8 0 15.6 0 10.6.1 4.8 4.7.2 10.4.2zM7.6 27.3l.5 2.7-2.3-1.3L3.4 30l.4-2.7L2 25.4l2.6-.4 1.2-2.5L6.9 25l1.5.2.2 1.1-1 1zM34.3 3.8l-2.4 2.5.6 3.5-3-1.7-1.6.9-1.3-.4.4-2.3-2.4-2.5 3.4-.5L29.5.1 31 3.3l3.3.5zM29.5 23c0 1.7-.4 2.5-1.1 2.5-.8 0-1.1-.8-1.1-2.5 0-.7.1-1.2.3-1.7.2-.5.5-.7.8-.7.4 0 .6.2.8.7.2.5.3 1.1.3 1.7zm1.8 0c0-1.2-.2-2.1-.7-2.9-.5-.8-1.3-1.2-2.1-1.2-.9 0-1.6.4-2.1 1.2-.5.8-.7 1.7-.7 2.9 0 1.3.2 2.3.7 3.1.5.8 1.2 1.2 2.1 1.2.9 0 1.6-.4 2.1-1.2.4-.8.7-1.8.7-3.1zm-8.2 0c0 1.7-.4 2.5-1.1 2.5-.8 0-1.1-.8-1.1-2.5 0-.7.1-1.2.3-1.7.2-.5.5-.7.8-.7.4 0 .6.2.8.7.2.5.3 1.1.3 1.7zm1.7 0c0-1.2-.2-2.1-.7-2.9-.5-.8-1.3-1.2-2.1-1.2-.9 0-1.6.4-2.1 1.2-.6.8-.9 1.7-.9 2.9 0 1.3.2 2.3.7 3.1.5.8 1.2 1.2 2.1 1.2.9 0 1.6-.4 2.1-1.2.7-.8.9-1.8.9-3.1zm-6.7 4.1V19h-1.4c-.3.8-.9 1.4-1.8 1.9v1.8l.7-.3.7-.4v5.1h1.8zm5 4.1c2.2 0 4.2-.9 5.6-2.3l-1.7.4c-1.1.7-2.5 1.1-3.9 1.1s-2.8-.4-3.9-1.1l-1.7-.5c1.4 1.5 3.4 2.4 5.6 2.4zm0-16.1c-2.2 0-4.2.9-5.6 2.3l1.7-.5c1.1-.7 2.5-1.1 3.9-1.1s2.8.4 3.9 1.1l1.7.5c-1.4-1.4-3.4-2.3-5.6-2.3zm0-1.4c5.2 0 9.5 4.3 9.5 9.5s-4.2 9.5-9.5 9.5c-5.2 0-9.5-4.3-9.5-9.5 0-5.3 4.2-9.5 9.5-9.5zm0-1.7C16.9 12 12 17 12 23.2s5 11.1 11.1 11.1 11.1-5 11.1-11.1S29.2 12 23.1 12zm0-1.7c7.1 0 12.8 5.7 12.8 12.8 0 7.1-5.7 12.8-12.8 12.8s-12.8-5.7-12.8-12.8c0-7.1 5.7-12.8 12.8-12.8z"/></svg>