<svg version="1.1" id="Layer_1" xmlns="http://www.w3.org/2000/svg" x="0" y="0" viewBox="0 0 36 36" xml:space="preserve"><style>.st0{fill:#fff}</style><path class="st0" d="M5.9 29.7c-1 0-1.8.8-1.8 1.8s.8 1.8 1.8 1.8H30c1 0 1.8-.8 1.8-1.8s-.8-1.8-1.8-1.8H5.9M3.2 14.5h1v9.7c0 1.6 1.3 3 3 3H29c1.6 0 3-1.3 3-3v-9.7h1c1.6 0 3 1.3 3 3v15.4c0 1.6-1.3 3-3 3H3.2c-1.6 0-3-1.3-3-3V17.5c0-1.6 1.3-3 3-3zM10.6.2h14.7c1 0 1.8.8 1.8 1.8v19.6c0 1-.8 1.8-1.8 1.8H10.6c-1 0-1.8-.8-1.8-1.8V1.9C8.9.9 9.6.2 10.6.2z"/></svg>