<svg width="20" height="20" viewBox="0 0 20 20" fill="none" xmlns="http://www.w3.org/2000/svg">
<g clip-path="url(#clip0_2299_2056)">
<path d="M9.22222 14.3333V11.5556H6V14.3333H9.22222ZM10.7778 11.5556V14.3333H13.7778V11.5556H10.7778ZM10.7778 10H13.7778V7.22222H10.7778V10ZM6 10H9.22222V7.22222H6V10ZM4.44444 10V7.22222H1.44444V10H4.44444ZM4.44444 14.3333V11.5556H1.44444V14.3333H4.44444ZM9.22222 15.8889H6V18.7778H9.22222V15.8889ZM13.7778 15.8889H10.7778V18.7778H13.7778V15.8889ZM15.3333 11.5556V14.3333H18.5556V11.5556H15.3333ZM15.3333 7.22222V10H18.5556V7.22222H15.3333ZM17.8889 18.7778C18.2222 18.7778 18.5556 18.4444 18.5556 18.1111V15.8889H15.3333V18.7778H17.8889ZM1.44444 18.1111C1.44444 18.4444 1.77778 18.7778 2.11111 18.7778H4.44444V15.8889H1.44444V18.1111ZM20 18.6667C20 19.4444 19.4444 20 18.6667 20H1.33333C0.555556 20 0 19.4444 0 18.6667V5.55556H20V18.6667ZM1.33333 0H18.6667C19.4444 0 20 0.555556 20 1.33333V4.33333H0V1.33333C0 0.555556 0.555556 0 1.33333 0Z" fill="#47454A"/>
</g>
<defs>
<clipPath id="clip0_2299_2056">
<rect width="20" height="20" fill="white"/>
</clipPath>
</defs>
</svg>
