<svg width="20" height="20" viewBox="0 0 20 20" fill="none" xmlns="http://www.w3.org/2000/svg">
<g clip-path="url(#clip0_2443_1540)">
<path d="M16.2779 3.72223C18.1668 5.61112 18.1668 8.72223 16.2779 10.6667C14.389 12.5556 11.2779 12.5556 9.33344 10.6667C7.44455 8.77779 7.44455 5.66668 9.33344 3.72223C11.2779 1.83334 14.3334 1.83334 16.2779 3.72223ZM5.33344 11.3889L0.555664 16.1667C-0.111003 16.8333 -0.111003 17.9445 0.555664 18.6111L1.389 19.4445C2.05566 20.1111 3.16678 20.1111 3.83344 19.4445L8.61122 14.6667C9.00011 14.2778 9.16677 13.8333 9.11122 13.3333C11.889 15 15.5001 14.6667 17.889 12.2778C20.6668 9.50001 20.6668 4.94445 17.889 2.16668C15.1112 -0.611101 10.5557 -0.611101 7.77789 2.16668C5.389 4.50001 5.00011 8.16668 6.66678 10.8889C6.22233 10.8333 5.72233 11 5.33344 11.3889Z" fill="#616063"/>
</g>
<defs>
<clipPath id="clip0_2443_1540">
<rect width="20" height="20" fill="white"/>
</clipPath>
</defs>
</svg>
