<svg version="1.1" id="Layer_1" xmlns="http://www.w3.org/2000/svg" x="0" y="0" viewBox="0 0 36 36" xml:space="preserve"><style>.st0{fill:#fff}</style><path class="st0" d="M26.6.1c.6 0 .8.3.8.8l.1 1.4L3.3 6.9l3.4 24.3L.3 4.7C0 2.8.3 2.6 1.5 2.4l8.6-1c1-.2 1.2.4 1.3 1.3L26.6.1M7.7 9.7l24-5.3-.1.8-22.7 5.2-1.7 18.8.5-19.5zM5 7.9L29.5 3v.9L6.3 8.7 7 29.8 5 7.9zm8.1 2.7l21.5-4.9c1.2-.3 1.3.2 1 .9l-5.4 14.7h-.7v-4.5c0-3-2.1-2.7-2.1-2.7.4-3-1.9-2.9-1.9-2.9h-2.6c-2.6 0-2.1 3-2.1 3-1.9 0-1.8 2.1-1.8 2.1V19c-.6-.8-2.5-.6-2.5-.6-3.9 0-3.5 4-3.5 4-1.2 2.2-2.5 5.1-3.2 8.1l-3.2 1.2L11.5 12c.2-.7.7-1.3 1.6-1.4zm3.4 9.6h.6c.8 0 1.5.4 1.5.9v.9H15v-.8c0-.6.7-1 1.5-1zm19.4 14.7c0 .5-.4 1-1 1h-5.1c-.5 0-1-.4-1-1v-.7H31.1c.5 0 1-.4 1-1v-4c0-.5-.4-1-1-1H28.8V27h7v7.9zm-6.1-10.8h5.1c.5 0 1 .4 1 1v1h-7v-1c-.1-.5.4-1 .9-1zm-7-7c-.3 0-.6.3-.6.6V34c0 .3.3.6.6.6s.6-.3.6-.6V17.7c0-.3-.3-.6-.6-.6zm.2-4.2h2.6c.3 0 .5.2.5.5v1.5c0 .3-.2.5-.5.5H23c-.3 0-.5-.2-.5-.5v-1.5c0-.3.3-.5.5-.5zm-1.3 3H27c.5 0 1 .4 1 1v18c0 .5-.4 1-1 1h-5.3c-.5 0-1-.4-1-1v-2.3c-.6 2.2-2.2 3.2-4 3.2-1.5 0-2.8-.7-3.6-2.2.3.4.8.7 1.3.7 1.5.2 3-1.5 3.3-3.9.3-2.3-.6-4.4-2.1-4.6-1.1-.2-2.2.7-2.8 2.1.4-1.9 1.3-3.9 2.1-5.2h3.5c.9 1.4 1.8 3.6 2.2 5.5V16.8c.1-.5.6-.9 1.1-.9z"/></svg>