<svg version="1.1" id="Layer_1" xmlns="http://www.w3.org/2000/svg" x="0" y="0" viewBox="0 0 36 36" xml:space="preserve"><style>.st0{fill:#fff}</style><path class="st0" d="M5.8 11.5h1C8 11.5 9 12.2 9 13v1.3H3.5V13c0-.8 1-1.5 2.3-1.5m30.1 22.8c0 .8-.7 1.5-1.5 1.5h-7.9c-.8 0-1.5-.7-1.5-1.5v-1.1H28.7c.8 0 1.5-.7 1.5-1.5v-6.2c0-.8-.7-1.5-1.5-1.5H25v-1.9h10.9v12.2zm-9.5-16.7h7.9c.8 0 1.5.7 1.5 1.5v1.6H24.9v-1.6c0-.8.7-1.5 1.5-1.5zM15.5 6.8c-.5 0-1 .4-1 1V33c0 .5.4 1 1 1 .5 0 .9-.4.9-1V7.7c.1-.5-.4-.9-.9-.9zm.4-6.7H20c.4 0 .8.3.8.8v2.4c0 .4-.3.7-.8.7h-4.1c-.4 0-.8-.3-.8-.8V.9c.1-.4.4-.8.8-.8zm-2 4.7h8.3c.8 0 1.5.7 1.5 1.5v28c0 .8-.7 1.5-1.5 1.5h-8.3c-.8 0-1.5-.7-1.5-1.5v-3.5c-.9 3.4-3.3 5-6.2 5-2.3 0-4.4-1.1-5.5-3.4.5.6 1.2 1.1 2 1.2 2.3.3 4.7-2.3 5.2-6 .5-3.6-1-6.9-3.3-7.2-1.7-.2-3.4 1.1-4.4 3.2.7-2.9 2-6 3.3-8.1H9c1.4 2.2 2.8 5.5 3.4 8.6V6.3c-.1-.8.6-1.5 1.5-1.5z"/></svg>