<svg version="1.1" id="Layer_1" xmlns="http://www.w3.org/2000/svg" x="0" y="0" viewBox="0 0 36 36" xml:space="preserve"><style>.st0{fill:#0095ff}.st1{fill:#fff}</style><path class="st0" d="M3.1.1h29.8c1.6 0 3 1.3 3 3v29.8c0 1.6-1.3 3-3 3H3.1c-1.6 0-3-1.3-3-3V3.1c0-1.6 1.4-3 3-3"/><path class="st1" d="M29.8 29.8c-1 1-2.7 1-3.7 0L16.2 20c-.5-.5-.8-1.3-.8-2s.2-1.4.8-2L26 6.2c1-1 2.7-1 3.7 0s1 2.7 0 3.7l-5.5 5.5h8.9v5.2h-8.9l5.5 5.5c1.1 1 1.1 2.7.1 3.7m-12.6 0c-1 1-2.7 1-3.7 0L3.6 20c-.5-.5-.8-1.3-.8-2s.2-1.4.8-2l9.9-9.9c1-1 2.7-1 3.7 0s1 2.7 0 3.7L9 18l8.1 8.1c1.1 1 1.1 2.7.1 3.7z"/></svg>