<svg version="1.1" id="Layer_1" xmlns="http://www.w3.org/2000/svg" x="0" y="0" viewBox="0 0 36 36" xml:space="preserve"><style>.st0{fill:#fff}</style><path class="st0" d="M27.6 6.3l-.3.8-5.7-4.4.4-.8 5.6 4.4m-1.5 11.3l-.4-1.3 4.7 3.6v1l-4.3-3.3zm9 3.6l-.3.8-2.5-2 .4-.7 2.4 1.9zm-.6 1.8l-.3.8-2.9-2.2.4-.7 2.8 2.1zM21.3 4.7l.1-.9L26.8 8l-.6.6-4.9-3.9zm3.3 4.5l-.6-.1-1.9-1.5c-.3-.5-.5-1-.7-1.6l3.8 3-.6.2zm3.2-4.5v.6l-5.3-4.1.6-.5 4.7 3.6v.4zM24.6.2c1.3 0 2.4 1.1 3 2.6L24.3.2h.3zM31 16.5l-.1.2-7.7-6h1.3l11.2 8.7-.3.8-2.8-2.2-1.6-1.5zm-.6 6.6l.4-.6 3.1 2.4-.3.8-6.7-5.2-.4-1.3 3.9 3v.9zM25.1 14l-.5.1-2.1-1.6-.3-1.2 8.3 6.5-.2.6v.2l-5.1-4-.1-.6zm5.8-2.2l.9 1.1-1.8-1.4.9.3zm-3.5-1.1l7.4 5.8 1.1 1.3v.6L26 10.7h1.4zM11.4.2c1.8 0 3.3 2 3.3 4.5s-1.5 4.5-3.3 4.5c-1.8 0-3.3-2-3.3-4.5C8.2 2.2 9.6.2 11.4.2zm19.9 25.3l-2.6-2.4 4.5 3.5-1.7-.8-.2-.3zm-13.3-1h-3L12 14l-2.1.4-.9-3.7h5.2l3.6 1.1 4.7 5.6c-.3-.1-.7-.2-1-.2-.5-.1-1.6.2-2.3.6l-1.4-1.3-.6 1.8.1 4.7.7 1.5zm-13.5-.6L.2 18.6l-.1-1L4.8 12l2.7-1.1.8 3.9-3 .8-1.8 2.7 2 1.4.7-2.7 4.3-.9 2.2 8.5H4.4l.1-.7zm1 3.1c.7 0 1.2.5 1.2 1.2s-.6 1.2-1.2 1.2c-.7 0-1.2-.5-1.2-1.2-.1-.7.5-1.2 1.2-1.2zm-4.1 0c.7 0 1.2.5 1.2 1.2s-.5 1.2-1.2 1.2-1.2-.5-1.2-1.2c0-.6.5-1.2 1.2-1.2zm8.1 0c.7 0 1.2.5 1.2 1.2s-.5 1.2-1.2 1.2-1.2-.5-1.2-1.2c-.1-.7.5-1.2 1.2-1.2zm11.3-6c.4-.4 1.2-.4 1.6 0l6.5 6.5c.2.2.3.5.3.8 0 .3-.1.6-.3.8l-6.5 6.5c-.4.4-1.2.4-1.6 0-.4-.4-.4-1.2 0-1.6l4.4-4.4H13.9c-.7 0-1.2-.6-1.2-1.2 0-.7.6-1.2 1.2-1.2h11.4l-4.4-4.4c-.5-.7-.5-1.4-.1-1.8z"/></svg>