<svg version="1.1" id="Layer_1" xmlns="http://www.w3.org/2000/svg" x="0" y="0" viewBox="0 0 36 36" xml:space="preserve"><style>.st0{fill:#878077}</style><path class="st0" d="M18 .2c2.3 0 4.1 2.5 4.1 5.7 0 3.1-1.8 5.7-4.1 5.7s-4.1-2.5-4.1-5.7S15.7.2 18 .2m-6.6 21.1l5.4-1.2L19.6 31l-4.2 2.4-6.6-1.1.5-2.3L4 23.4l-.1-1.2L9.7 15l3.4-1.4 1 4.9-3.7 1L8.1 23l2.5 1.7.8-3.4zm13.8 1.8l.1 5.9 3.4-5.6-2.7-2.7-.8 2.4zM15 13.4h6.5l4.5 1.4 6.1 7.5v1.4l-3.2 9.8-3.5-1.7.1 4h-7.8l.3-.8 4.7-3-4-14.3-2.7.4-1-4.7z"/></svg>