<svg version="1.1" id="Layer_1" xmlns="http://www.w3.org/2000/svg" x="0" y="0" viewBox="0 0 36 36" xml:space="preserve"><style>.st0{fill:#9e9786}</style><g id="List_View"><path class="st0" d="M4.1.2C6.3.2 8 2 8 4.1 8.1 6.2 6.3 8 4.1 8 2 8 .2 6.2.2 4.1.2 1.9 2 .2 4.1.2M13.1 2.1h20.8c1.1 0 1.9.9 1.9 1.9s-.8 2-1.9 2H13.1c-1.1 0-1.9-.9-1.9-1.9s.9-2 1.9-2M4.1 28C6.3 28 8 29.8 8 31.9c0 2.2-1.8 3.9-3.9 3.9-2.2 0-3.9-1.8-3.9-3.9C.2 29.8 2 28 4.1 28M13.1 30h20.8c1.1 0 1.9.9 1.9 1.9 0 1.1-.9 1.9-1.9 1.9H13.1c-1.1 0-1.9-.9-1.9-1.9 0-1.1.9-1.9 1.9-1.9M4.1 9.5c2.2 0 3.9 1.8 3.9 3.9 0 2.2-1.8 3.9-3.9 3.9-2.2 0-3.9-1.8-3.9-3.9 0-2.2 1.8-3.9 3.9-3.9M13.1 11.4h20.8c1.1 0 1.9.9 1.9 1.9 0 1.1-.9 1.9-1.9 1.9H13.1c-1.1 0-1.9-.9-1.9-1.9 0-1 .9-1.9 1.9-1.9M4.1 18.9c2.2 0 3.9 1.8 3.9 3.9 0 2.2-1.8 3.9-3.9 3.9-2.2 0-3.9-1.8-3.9-3.9 0-2.2 1.7-3.9 3.9-3.9M13.1 20.8h20.8c1.1 0 1.9.9 1.9 1.9s-.9 1.9-1.9 1.9H13.1c-1.1 0-1.9-.9-1.9-1.9s.8-1.9 1.9-1.9"/></g></svg>