<svg version="1.1" id="Layer_1" xmlns="http://www.w3.org/2000/svg" x="0" y="0" viewBox="0 0 36 36" xml:space="preserve"><style>.st0{fill:#fff}</style><path class="st0" d="M12.8 3.2v2h-.7c-.5 0-1 .4-1 .9v7.2h-.8c-.3 0-.6.3-.6.6v10.4c0 .3.3.6.6.6h.8v10.4H6.9c-.4 0-.8-.4-.8-.8V8.6c0-.4.4-.8.8-.8h1.7V6.7h-.4c-.2.1-.4-.1-.4-.3V3.2c0-.2.2-.4.4-.4h4.1c.3 0 .5.2.5.4M5.9 6.7V7H4.8c-.5 0-.9.4-.9.8v7.6h-.5c-.3 0-.6.3-.6.6v8.3c0 .3.3.6.6.6h.5v8.9H.8c-.4 0-.7-.3-.7-.7V11.2c0-.4.3-.7.7-.7h1.5v-.9H2c-.2 0-.3-.2-.3-.3V6.7c0-.2.2-.3.3-.3h3.5c.2-.1.4.1.4.3zm17.3-3.5c0-.2.2-.4.4-.4h4.1c.2 0 .4.2.4.4v3.2c0 .2-.2.4-.4.4h-.4v1.1H29c.4 0 .8.4.8.8v4.7h-2.6c-.3 0-.6.3-.6.6v10.4c0 .3.3.6.6.6H30v9.6c0 .4-.4.8-.8.8h-4.3V6.1c0-.5-.4-.9-1-.9h-.7v-2zm6.9 3.5c0-.2.2-.3.3-.3H34c.2 0 .3.2.3.3v2.7c0 .2-.2.3-.3.3h-.3v.9h1.5c.4 0 .7.3.7.7v4.1h-1.4c-.3 0-.6.3-.6.6v8.3c0 .3.3.6.6.6h1.4v8.2c0 .4-.3.7-.7.7h-3.1v-26c0-.5-.4-.8-.9-.8h-1.1v-.3zm-15.9-1l1.9-.1V4.5h-.4c-.2 0-.4-.2-.4-.4V.6c0-.2.2-.4.4-.4h4.6c.2 0 .4.2.4.4v3.5c0 .2-.2.4-.4.4h-.4v1.2h1.9c.5 0 .9.4.9.9v4.8h-3.8c-.5 0-.9.4-.9.9V24c0 .5.4.9.9.9h3.8V35c0 .5-.4.9-.9.9h-7.6c-.5 0-.9-.4-.9-.9V6.6c0-.5.4-.9.9-.9z"/></svg>