<svg version="1.1" id="Layer_1" xmlns="http://www.w3.org/2000/svg" x="0" y="0" viewBox="-593 379 36 36" xml:space="preserve"><style>.st0{fill:#fff}</style><path class="st0" d="M-575 410.8c-.6 0-1.1.5-1.1 1.1 0 .6.5 1.1 1.1 1.1.6 0 1.1-.5 1.1-1.1 0-.6-.5-1.1-1.1-1.1m-9.1-28.7c-.3 0-.6.3-.6.6v3.4c0 .3.3.6.6.6h11c.3 0 .6-.3.6-.6v-3.4c0-.3-.3-.6-.6-.6h-11zm-1.8 11.7l-2.1 5.5h25.9l-2.1-5.5H-585.9zm-2.2-2.2h7.5v-1.9h-6.2c-.7 0-1.2-.5-1.2-1.2v-8.3c0-.7.5-1.2 1.2-1.2h16.6c.7 0 1.2.5 1.2 1.2v8.3c0 .7-.5 1.2-1.2 1.2h-6.2v1.9h14.6l4 10.3H-592l3.9-10.3zm-1.8 14.6c-.3 0-.6.3-.6.7v1.3c0 .4.3.7.6.7h29.7c.3 0 .6-.3.6-.7v-1.3c0-.4-.3-.7-.6-.7h-29.7zm-1.8-2.5h33.5c.7 0 1.2.6 1.2 1.3v8.6c0 .7-.5 1.3-1.2 1.3h-33.5c-.7 0-1.2-.6-1.2-1.3V405c0-.7.5-1.3 1.2-1.3z"/></svg>