<svg version="1.1" id="Layer_1" xmlns="http://www.w3.org/2000/svg" x="0" y="0" viewBox="0 0 36 36" xml:space="preserve"><style>.st0{fill:#fff}</style><path class="st0" d="M7.7 2.8c-.3 0-.5.2-.5.5v2.9c0 .3.2.5.5.5H17c.3 0 .5-.2.5-.5V3.3c0-.3-.2-.5-.5-.5H7.7m-3.5 8.1h6.4V9.3H5.3c-.6 0-1-.5-1-1V1.2c0-.6.5-1 1-1h14.2c.6 0 1 .5 1 1v7.1l-1.1 1h-5.2v1.6h3.3l-2.2 1.9H6.2l-1.8 4.7h11.4l2.6 2.2H.8l3.4-8.8zm-3 10.3h19.1l2.5 2.1h-20c-.3 0-.5.3-.5.6V25c0 .3.2.6.5.6h22.6l1.3 1.1v-1.1H28c.2 0 .3-.1.4-.2.9.6 1.2 1.6 1.2 2.9 0 1-.1 1.8-.4 2.6h-28c-.6 0-1-.5-1-1.1v-7.3c-.1-.8.4-1.3 1-1.3zM17 14.8L24.5 8v2.7c6.8.8 11.3 5.1 11.3 12.9 0 5.3-4.3 10-10.5 12.2l-.2-.3c4.3-2 7.1-5.4 7.1-9.3 0-4.1-1.3-7.6-7.7-7.9v3.2L17 14.8z"/></svg>