<svg version="1.1" id="Layer_1" xmlns="http://www.w3.org/2000/svg" x="0" y="0" viewBox="0 0 36 36" xml:space="preserve"><style>.st0{fill:#fff}</style><path class="st0" d="M31.7 22.3c-.5 0-.9.4-.9.9v9.6h-1.3v-6.1c0-.5-.4-.9-.9-.9h-1.1c-.5 0-.9.4-.9.9v6.1h-1.3v-2.4c0-.5-.4-.9-.9-.9h-1.1c-.5 0-.9.4-.9.9v2.4h-.8c-.3 0-.6.3-.6.6s.3.6.6.6h13c.3 0 .6-.3.6-.6s-.3-.6-.6-.6h-.8v-9.6c0-.5-.4-.9-.9-.9h-1.2m-10.3-1.9h13.2c.7 0 1.2.5 1.2 1.2v13.1c0 .7-.5 1.2-1.2 1.2H21.4c-.7 0-1.2-.5-1.2-1.2V21.6c0-.7.6-1.2 1.2-1.2zm-4.8 2.7c0-.3-.1-.5-.2-.7-.1-.2-.3-.2-.5-.2s-.4.1-.6.3c-.2.2-.2.4-.2.7 0 .2.1.5.2.6.1.2.3.2.6.2.2 0 .4-.1.6-.2.1-.2.1-.4.1-.7zm-2 1.7l.5-.1c0 .2.1.4.2.5.1.1.2.2.4.2l.4-.1.3-.3.2-.4.1-.6v-.1c-.1.2-.2.3-.4.4-.2.1-.3.1-.5.1-.3 0-.6-.1-.8-.4-.2-.2-.3-.6-.3-1s.1-.7.3-1c.2-.2.5-.4.9-.4.3 0 .5.1.7.2.2.1.4.3.5.6.1.3.2.6.2 1.1 0 .5-.1.9-.2 1.2-.1.3-.3.5-.5.7-.2.2-.5.2-.8.2-.3 0-.6-.1-.8-.3-.2.1-.3-.2-.4-.5zm-3.2-1.1c0 .7.1 1.1.2 1.3.2.2.3.3.6.3s.4-.1.6-.3c.2-.2.2-.6.2-1.3 0-.6-.1-1.1-.2-1.3-.1-.2-.3-.3-.6-.3-.2 0-.4.1-.5.3-.2.3-.3.7-.3 1.3zm-.5 0c0-.5 0-.9.1-1.1.1-.3.2-.5.4-.7.2-.1.4-.2.7-.2.2 0 .4 0 .6.1.2.1.3.2.4.4l.2.6.1.9c0 .5 0 .8-.1 1.1-.1.3-.2.5-.4.7-.2.1-.4.2-.7.2-.4 0-.7-.1-.9-.4-.2-.3-.4-.8-.4-1.6zm-1.2 2h-.5v-3.1l-.5.3-.5.3v-.5c.3-.1.5-.3.7-.5.2-.2.4-.4.4-.5h.3v4zm-2.7 0h-.5v-3.1l-.5.3-.5.3v-.5c.3-.1.5-.3.7-.5.2-.2.4-.4.4-.5H7v4zM13.6.2h2.2v19.9h-2.2V.2zm3.9-.1h2.2v18c-.9.2-1.6 1-1.7 2h-.5V.1zm3.3.1H23v17.9h-2.2V.2zm5.4-.1h3.1v18h-3.1V.1zM9.3.2h1.5v19.9H9.3V.2zm-4-.1h2.2v20H5.3V.1zM.1.1h3.1v25.6H.1V.1z"/></svg>