<svg version="1.1" id="Layer_1" xmlns="http://www.w3.org/2000/svg" x="0" y="0" viewBox="0 0 36 36" xml:space="preserve"><style>.st0{fill:#fff}</style><path class="st0" d="M18.8.2c1.9 0 3.4 2.1 3.4 4.8 0 2.6-1.5 4.8-3.4 4.8S15.4 7.7 15.4 5c0-2.7 1.5-4.8 3.4-4.8M13.3 18l4.6-1 .5 2.1c-.3.4-.4.9-.4 1.4v7l-1.3.8-5.5-.9.4-1.9L7 19.8l-.1-1 4.9-6 2.9-1.2.8 4.2-3.1.9-1.9 2.9 2.1 1.5.7-3.1zm3-6.6h5.5l3.8 1.2 4.6 5.5h-4l-.6-.5-.2.5h-5.1l-.9-3.2-2.2.5-.9-4zM9 2.8c1.4 0 2.6 1.6 2.6 3.5S10.5 9.9 9 9.9c-1.4 0-2.6-1.6-2.6-3.5S7.6 2.8 9 2.8zm-5.8 20l.3-1.4-3.4-4.1-.1-.8 3.7-4.4 2.3-.9.6 3.1-2.4.6L2.8 17l1.6 1.1c-.3.5-.4 1-.4 1.3.1.9 1 2.3 2.2 3.9l-3-.5zM4.9 16l1.2-.3c-.7.8-1.3 1.6-1.7 2.3l.5-2zm2.2-4.9h3.4c-.4.3-.7.6-1.1.9l-1.8 1.8-.5-2.7zm24.6 11.2c-.5 0-.9.4-.9.9v9.6h-1.3v-6.1c0-.5-.4-.9-.9-.9h-1.1c-.5 0-.9.4-.9.9v6.1h-1.3v-2.4c0-.5-.4-.9-.9-.9h-1.1c-.5 0-.9.4-.9.9v2.4h-.8c-.3 0-.6.3-.6.6s.3.6.6.6h13c.3 0 .6-.3.6-.6s-.3-.6-.6-.6h-.8v-9.6c0-.5-.4-.9-.9-.9h-1.2zm-10.3-1.9h13.2c.7 0 1.2.5 1.2 1.2v13.1c0 .7-.5 1.2-1.2 1.2H21.4c-.7 0-1.2-.5-1.2-1.2V21.6c0-.7.6-1.2 1.2-1.2z"/></svg>