<svg version="1.1" id="Layer_1" xmlns="http://www.w3.org/2000/svg" x="0" y="0" viewBox="0 0 36 36" xml:space="preserve"><style>.st0{fill:#fff}</style><path class="st0" d="M31.7 22.3c-.5 0-.9.4-.9.9v9.6h-1.3v-6.1c0-.5-.4-.9-.9-.9h-1.1c-.5 0-.9.4-.9.9v6.1h-1.3v-2.4c0-.5-.4-.9-.9-.9h-1.1c-.5 0-.9.4-.9.9v2.4h-.8c-.3 0-.6.3-.6.6s.3.6.6.6h13c.3 0 .6-.3.6-.6s-.3-.6-.6-.6h-.8v-9.6c0-.5-.4-.9-.9-.9h-1.2m-10.3-1.9h13.2c.7 0 1.2.5 1.2 1.2v13.1c0 .7-.5 1.2-1.2 1.2H21.4c-.7 0-1.2-.5-1.2-1.2V21.6c0-.7.6-1.2 1.2-1.2zM13 7h-.4V5.8h.4V7zm-.6 0l-2-.2V5.6l2 .2V7zm1.1 0h-.3V5.8h.3V7zm-3.3-.2l-.3-.1V5.5l.3.1v1.2zm-.5-.1c-.6-.1-1.1-.3-1.4-.4V5.1c.4.2.9.3 1.4.4v1.2zm8.7-.1l-.3.1V5.5l.3-.1v1.2zm1.1-.3l-.4.1V5.2l.4-.1v1.2zm-.5.2l-.4.1V5.3h.4v1.2zm-2.2.4h-.3V5.7h.3v1.2zm1.1-.2l-.4.1V5.5l.4-.1v1.3zm-.6.1h-.4V5.6h.4v1.2zM7.7 5.7v-1l.4.3v1.2c-.2-.2-.4-.3-.4-.5zM13.9 7h-.2V5.8h.2l2.4-.1v1.2l-2.4.1zm6.2-1.3c0 .1-.1.3-.4.4V5l.4-.3v1zm-6.2-.3c-3.4 0-6.2-.6-6.2-1.3 0-.1.1-.2.3-.3.7.6 3.4 1.2 6.6 1.2 2.3 0 4.3-.3 5.5-.7-.4.6-3 1.1-6.2 1.1zm.3 3.2h.4v.5l-.4-.3v-.2zm-.2 0h-.2.2zm1 1.2h-.3V8.6h.3v1.2zm4.9-.4l-.3.1V8.3l.3-.1v1.2zm1.1-.3l-.4.1V8l.4-.1v1.2zm-.5.2l-.4.1V8.1l.4-.1v1.3zm-2.2.4H18V8.5h.3v1.2zm1.1-.2l-.4.1V8.4l.4-.1v1.2zm-.5.1h-.4V8.4h.4v1.2zm-3.5.2h-.2V8.6h.2l2.4-.1v1.2l-2.4.1zm6.2-1.3c0 .1-.1.3-.4.4V7.8l.4-.3v1zm0-1.5c0 .7-2.8 1.3-6.2 1.3-1.4 0-2.6-.1-3.6-.2l-.4-.1c-.8-.2-1.5-.3-1.8-.6 1.2.2 2.7.4 4.4.4 3.6 0 6.5-.6 6.6-1.5.6.2 1 .4 1 .7zm-7.5 5.6l-.2-.3.2-.1v.4zm.5 0h-.3v-.5c.3-.2.3-.6.3-.6v-.2 1.3zm4.9-.4l-.3.1V11l.3-.1v1.3zm1.1-.4l-.4.2v-1.2l.4-.1v1.1zm-.6.2l-.4.1v-1.2l.4-.1V12zm-2.1.4h-.3v-1.2h.3v1.2zm1.1-.1l-.4.1v-1.2l.4-.1v1.2zm-.6.1H18v-1.2h.4v1.2zm-3.4.2h-.2v-1.2h.2l2.4-.1v1.2l-2.4.1zm6.1-1.3c0 .1-.1.3-.4.4v-1.2l.4-.3v1.1zM15 11h-.4v-.5h.9c2.4 0 4.6-.3 5.7-.8-.1.7-2.9 1.3-6.2 1.3zm-.6 3.1h1.1l-.6.4-.5-.2v-.2zm6-.9l.4-.3v.4h-.4v-.1zm-5.8.5h-.5v-.4h.9c2.4 0 4.5-.3 5.7-.7-.4.6-3 1.1-6.1 1.1zm0 9.7v-1.2h.9l.1.5s-.4.3-.5.6v.1h-.5zm.9-2v.4h-.9v-.4h.9zM13.7 4.2h-.4V3h.4v1.2zm-.6 0l-2-.2V2.8l2 .2v1.2zm1.1 0h-.3V3h.3v1.2zM10.9 4h-.3V2.7l.3.1V4zm-.5-.1c-.6-.1-1.1-.2-1.5-.4V2.3c.4.2.9.3 1.4.4v1.2zm8.7-.1l-.3.1V2.7l.3-.1v1.2zm1.1-.3l-.4.1V2.4l.4-.1v1.2zm-.6.2l-.4.1V2.6l.4-.1v1.2zm-2.1.4h-.3V2.9h.3v1.2zm1.1-.2l-.4.1V2.8l.4-.1v1.2zM18 4h-.4V2.9h.4V4zM8.4 3V2l.4.3v1.2c-.3-.2-.4-.4-.4-.5zm6.2 1.2h-.2V3h.2l2.4-.1v1.2l-2.4.1zM20.7 3c0 .1-.1.3-.4.4V2.2l.4-.2v1zM14.6.1c3.4 0 6.2.6 6.2 1.3S18 2.7 14.6 2.7c-3.4 0-6.2-.6-6.2-1.3S11.1.1 14.6.1zm3.3 20.5v-1.2h.3c-.1.3-.2.7-.3 1.2zm-.2-.1l-.3-.1v-1.2l.3.1v1.2zm-.5-.1c-.6-.1-1.1-.3-1.4-.4v-1.2c.4.2.9.3 1.4.4v1.2zm-2-.9v-1l.4.3V20c-.3-.2-.4-.3-.4-.5zm0-1.6c0-.1.1-.3.3-.4.4.5 1.7.8 3.4 1l-.5.5c-1.9-.2-3.2-.6-3.2-1.1zm2 4.9v-1.2l.7.2V23l-.7-.2zm-.5-.5v-1l.4.3v1.2c-.3-.2-.4-.3-.4-.5zm.3-1.2l1 .2v.2c-.5-.1-.8-.2-1-.4zm-.2 4.5v-1.2l1.1.3V26c-.4-.1-.8-.3-1.1-.4zm-.5-.5v-1l.4.3v1.2c-.3-.2-.4-.4-.4-.5zm0-1.6c0-.1.1-.2.2-.3.3.2.8.4 1.5.6v.6c-1.1-.2-1.7-.6-1.7-.9zm1.5 5.2c-.6-.1-1.1-.3-1.4-.4v-1.2c.4.2.9.3 1.4.4v1.2zm-2-.9v-1l.4.3v1.2c-.2-.2-.4-.4-.4-.5zm0-1.6c0-.1 0-.2.1-.3.3.3 1 .6 2 .8v.5c-1.2-.3-2.1-.6-2.1-1zm5.3-8.2h-.4v-1.2h.4V18zm-.5 0l-2-.2v-1.2l2 .2V18zm1 0h-.3v-1.2h.3V18zm-3.2-.2l-.4-.1v-1.2l.3.1v1.2zm-.6-.1c-.6-.1-1.1-.3-1.4-.4v-1.2c.4.2.9.3 1.4.4v1.2zm8.7-.1l-.3.1v-1.2l.3-.1v1.2zm1.1-.3l-.4.1v-1.2l.4-.1v1.2zm-.5.2l-.4.1v-1.2l.4-.1v1.2zm-2.2.4h-.3v-1.2h.3v1.2zm1.1-.2l-.4.1v-1.2l.4-.1v1.2zm-.5.1h-.4v-1.2h.4v1.2zm-9.7-1v-1l.4.3v1.2c-.2-.3-.4-.4-.4-.5zM22 18h-.2v-1.2h.2l2.4-.1v1.2L22 18zm6.2-1.2c0 .1-.1.3-.4.4V16l.4-.3v1.1zM22 13.9c3.4 0 6.2.6 6.2 1.3 0 .7-2.8 1.3-6.2 1.3s-6.2-.6-6.2-1.3c0-.7 2.8-1.3 6.2-1.3zm-16.6 1H5v-1.2h.4v1.2zm-.5-.1l-2-.2v-1.2l2 .2v1.2zm1 .1h-.3v-1.2h.3v1.2zm-3.2-.3l-.3-.1v-1.2l.3.1v1.2zm-.6-.1c-.6-.1-1.1-.3-1.4-.4v-1.2c.4.2.9.3 1.4.4v1.2zm8.7 0l-.3.1v-1.2l.3-.1v1.2zm1.1-.4l-.4.1V13l.4-.1v1.2zm-.5.2l-.4.1v-1.2l.4-.1v1.2zm-2.2.4h-.3v-1.2h.3v1.2zm1.1-.1H10v-1.2l.4-.1v1.3zm-.5.1h-.4v-1.2h.4v1.2zM.1 13.6v-1l.4.3V14c-.2-.1-.4-.3-.4-.4zm6.2 1.3h-.2v-1.2h.2l2.4-.1v1.2l-2.4.1zm6.2-1.3c0 .1-.1.3-.4.4v-1.2l.4-.3v1.1zm-6.2-.3C2.9 13.3.1 12.7.1 12c0-.1.1-.3.3-.4.7.7 3.3 1.2 6.5 1.2 2.3 0 4.3-.3 5.5-.7-.3.7-2.9 1.2-6.1 1.2zm.6 4.4h-.4v-1.2h.4v1.2zm-.5-.1l-2-.2v-1.2l2 .2v1.2zm1 .1h-.3v-1.2h.3v1.2zm-3.2-.3l-.3-.1v-1.2l.3.1v1.2zm-.5-.1c-.6-.1-1.1-.3-1.4-.4v-1.2c.4.2.9.3 1.4.4v1.2zm8.6 0H12v-1.2l.3-.1v1.3zm1.1-.4l-.4.1v-1.2l.4-.1v1.2zm-.5.2l-.4.1V16l.4-.1v1.2zm-2.2.4h-.3v-1.2h.3v1.2zm1.1-.1l-.4.1v-1.2l.4-.1v1.2zm-.5.1h-.4v-1.2h.4v1.2zm-9.6-1.1v-1l.3.2v1.2c-.2-.1-.3-.3-.3-.4zm6.1 1.3h-.2v-1.2h.2l2.4-.1v1.2l-2.4.1zm6.2-1.3c0 .1-.1.3-.4.4v-1.2l.4-.3v1.1zm0-1.6c0 .7-2.8 1.3-6.2 1.3-2.8 0-5.1-.4-5.9-.9 1.2.2 2.7.4 4.4.4 3.6 0 6.5-.6 6.6-1.5.7.2 1.1.5 1.1.7zm-7.5 5.6h-.4v-1.2h.4v1.2zm-.6 0l-2-.2V19l2 .2v1.2zm1.1 0h-.3v-1.2H7v1.2zm-3.3-.2l-.3-.1v-1.2l.3.1v1.2zm-.5-.1c-.6-.1-1.1-.3-1.4-.4v-1.2c.4.2.9.3 1.4.4v1.2zm8.7-.1l-.3.1v-1.2l.3-.1V20zm1.1-.3l-.4.1v-1.2l.4-.1v1.2zm-.5.2l-.4.1v-1.2l.4-.1v1.2zm-2.2.4H10v-1.2h.3v1.2zm1.1-.2l-.4.1V19l.4-.1v1.2zm-.6.1h-.4V19h.4v1.2zm-9.6-1v-1l.4.3v1.2c-.2-.2-.4-.4-.4-.5zm6.2 1.2h-.2v-1.2h.2l2.4-.1v1.2l-2.4.1zm6.2-1.2c0 .1-.1.3-.4.4v-1.2l.4-.3v1.1zm-6.2-.3c-3.4 0-6.2-.6-6.2-1.3 0-.1.1-.2.2-.3.8.6 3.4 1.1 6.4 1.1 2.4 0 4.6-.3 5.7-.8 0 .7-2.7 1.3-6.1 1.3zm-1.3 4.2h-.4v-1.2h.4v1.2zm-.6 0l-2-.2v-1.2l2 .2v1.2zm1.1 0h-.3v-1.2h.3v1.2zm-3.3-.2l-.3-.1v-1.2l.3.1v1.2zm-.5-.1c-.6-.1-1.1-.3-1.4-.4v-1.2c.4.2.9.3 1.4.4v1.2zm8.7-.1l-.3.1v-1.2l.3-.1v1.2zm1.1-.3l-.4.1v-1.2l.4-.1v1.2zm-.6.2l-.4.1v-1.2l.4-.1v1.2zm-2.1.4h-.3v-1.2h.3V23zm1.1-.2l-.4.1v-1.2l.4-.1v1.2zm-.6.1H10v-1.2h.4v1.2zM.8 21.8v-1l.4.3v1.2c-.3-.2-.4-.3-.4-.5zM7 23.1h-.2v-1.2H7l2.4-.1V23l-2.4.1zm6.1-1.2c0 .1-.1.3-.4.4v-1.2l.4-.3v1.1zM7 21.5c-3.4 0-6.2-.6-6.2-1.3 0-.1 0-.2.1-.3.7.7 3.3 1.2 6.5 1.2 2.4 0 4.5-.3 5.7-.7-.3.6-3 1.1-6.1 1.1zm-.9 4.3h-.4v-1.2h.4v1.2zm-.6 0l-2-.2v-1.2l2 .2v1.2zm1.1 0h-.3v-1.2h.3v1.2zm-3.3-.2l-.3-.1v-1.2l.3.1v1.2zm-.5-.1c-.6-.1-1.1-.3-1.4-.4v-1.2c.4.2.9.3 1.4.4v1.2zm8.7-.1l-.3.1v-1.2l.3-.1v1.2zm1.1-.3l-.4.1V24l.4-.1v1.2zm-.6.2l-.4.1v-1.2l.4-.1v1.2zm-2.1.4h-.3v-1.2h.3v1.2zm1.1-.2l-.4.1v-1.2l.4-.1v1.2zm-.6.1H10v-1.2h.4v1.2zm-9.6-1v-1l.4.3V25c-.3-.1-.4-.3-.4-.4zM7 25.8h-.2v-1.2H7l2.4-.1v1.2l-2.4.1zm6.1-1.2c0 .1-.1.3-.4.4v-1.2l.4-.3v1.1zm0-1.6c0 .7-2.8 1.3-6.2 1.3-3.4 0-6.2-.6-6.2-1.3v-.1c1 .6 3.4.9 6.2.9s5.2-.4 6.2-.8zm-7-10.9h-.4v-1.2h.4v1.2zm-.6 0l-2-.2v-1.2l2 .2v1.2zm1.1 0h-.3v-1.2h.3v1.2zm-3.3-.2l-.3-.1v-1.2l.3.1v1.2zm-.5-.1c-.6-.1-1.1-.3-1.4-.4v-1.2c.4.2.9.3 1.4.4v1.2zm8.7-.1l-.3.1v-1.2l.3-.1v1.2zm1.1-.3l-.4.1v-1.2l.4-.1v1.2zm-.6.2l-.4.1v-1.2l.4-.1v1.2zm-2.1.4h-.3v-1.2h.3V12zm1.1-.2l-.4.1v-1.2l.4-.1v1.2zm-.6.1H10v-1.2h.4v1.2zM.8 10.8v-1l.4.3v1.2c-.3-.2-.4-.3-.4-.5zM7 12.1h-.2v-1.2H7l2.4-.1V12l-2.4.1zm6.1-1.2c0 .1-.1.3-.4.4v-1.2l.4-.3v1.1zM7 8c3.4 0 6.2.6 6.2 1.3s-2.8 1.3-6.2 1.3C3.6 10.6.8 10 .8 9.3S3.6 8 7 8z"/></svg>