<svg version="1.1" id="Layer_1" xmlns="http://www.w3.org/2000/svg" x="0" y="0" viewBox="0 0 36 36" xml:space="preserve"><style>.st0{fill:#fff}</style><path class="st0" d="M1.9 15.4l.3-.1-.2 1.8c-.1 1.5.9 2.9 2.4 3l2.1.2-.1.4-3 1.2 2.7 1.6.2 3.2 2.4-2.1 3.1.8-1.3-2.9 1-1.7 2.1.2c.1.4.6.7 1 .6l1.5-.4 1.8.2v.8l-2.9.7c-.5.1-.7.6-.6 1 .1.5.6.7 1 .6l2.5-.6V28L5.7 31c-1.2.3-2.5-.5-2.8-1.7L.2 18.2c-.3-1.2.5-2.5 1.7-2.8m13.8-3.1c-.5-.1-.9.2-1 .7-.1.5.2.9.7 1l10.7 1.9c.5.1.9-.2 1-.7.1-.5-.2-.9-.7-1l-10.7-1.9zm.5-3c-.5-.1-.9.2-1 .7-.1.5.2.9.7 1l5 .9c.5.1.9-.2 1-.7.1-.5-.2-.9-.7-1l-5-.9zm-1.8-.9l-3-1-.9-3.1-1.9 2.6-3.2-.1 1.9 2.6-1.1 3 3-1 2.5 1.9v-3.2l2.7-1.7zm14.6-3c-.6-.1-1.2.3-1.3.9-.1.6.3 1.2.9 1.3.6.1 1.2-.3 1.3-.9.1-.7-.3-1.2-.9-1.3zM6.6.2l22.6 4c1.2.2 2.1 1.4 1.9 2.7l-2 11.3h-8.7c-.6 0-1.1.2-1.5.5L3.8 16c-1.2-.2-2.1-1.4-1.9-2.7L3.9 2C4.2.8 5.3 0 6.6.2zm25.1 22.1c-.5 0-.9.4-.9.9v9.6h-1.3v-6.1c0-.5-.4-.9-.9-.9h-1.1c-.5 0-.9.4-.9.9v6.1h-1.3v-2.4c0-.5-.4-.9-.9-.9h-1.1c-.5 0-.9.4-.9.9v2.4h-.8c-.3 0-.6.3-.6.6s.3.6.6.6h12.9c.3 0 .6-.3.6-.6s-.3-.6-.6-.6h-.8v-9.6c0-.5-.4-.9-.9-.9h-1.1zm-10.3-1.9h13.2c.7 0 1.2.5 1.2 1.2v13.1c0 .7-.5 1.2-1.2 1.2H21.4c-.7 0-1.2-.5-1.2-1.2V21.6c.1-.7.6-1.2 1.2-1.2z"/></svg>