<svg version="1.1" id="Layer_1" xmlns="http://www.w3.org/2000/svg" x="0" y="0" viewBox="0 0 36 36" xml:space="preserve"><style>.st0{fill:#fff}</style><path class="st0" d="M.1 13c.2-.7 1.9-1 4.3-1l-.3.7c-1.5-.1-2.5.1-2.6.4 0 .3.7.7 1.9 1l-.4.8C1.2 14.3.1 13.6.1 13M20.6 1.6c-.2-.1-.3 0-.4.2-.1.2 0 .3.2.4.2.1.3 0 .4-.2 0-.1-.1-.3-.2-.4zm.1-.3c.4.2.5.6.4.9-.2.4-.6.5-.9.4-.4-.2-.5-.6-.4-.9.2-.4.6-.6.9-.4zM19 3.8l1 .4-.2.6-1-.4.2-.6zM20.2.7c-.1-.1-.3 0-.3.1l-1.5 3.5c-.1.1 0 .3.1.3l1.3.6c.1.1.3 0 .3-.1l1.5-3.5c.1-.1 0-.3-.1-.3L20.2.7zm-.1-.5l1.8.8c.2.1.4.4.3.6l-1.7 4c-.1.2-.4.4-.6.3l-1.8-.8c-.2-.1-.4-.4-.3-.6l1.7-4c.1-.3.4-.4.6-.3zm-8.9 23.4c-.4-.2-.9 0-1 .4-.2.4 0 .9.4 1 .4.2.9 0 1-.4.2-.4 0-.9-.4-1zm3.5 1.5c-.4-.2-.9 0-1 .4-.2.4 0 .9.4 1 .4.2.9 0 1-.4.2-.4 0-.9-.4-1zm-1.7-.8c-.4-.2-.9 0-1 .4-.2.4 0 .9.4 1 .4.2.9 0 1-.4.1-.4 0-.8-.4-1zM7.7 22c-.4-.2-.9 0-1 .4-.2.4 0 .9.4 1 .4.2.9 0 1-.4.2-.3 0-.8-.4-1zm1.7.8c-.4-.2-.9 0-1 .4-.2.4 0 .9.4 1 .4.2.9 0 1-.4.2-.4 0-.8-.4-1zm4-21.4l4.4 1.9-.3.8c-.3-.1-.6.1-.7.3-.1.3 0 .7.3.8l3.4 1.5c.3.1.7 0 .8-.3.1-.3 0-.6-.3-.8l.3-.8 4.4 1.9c1.4.6 2 2.2 1.4 3.6l-3.3 7.8h-3.1l3.3-7.8c.2-.6 0-1.2-.6-1.4L13.3 4.6c-.6-.2-1.2 0-1.4.6L6.3 18.3c-.2.6 0 1.2.6 1.4L17 24.1c.3.1.7.1 1-.1v5.5c-.6.2-1.3.2-2-.1L3.7 24.2c-1.4-.6-2-2.2-1.4-3.6L9.8 2.9c.6-1.4 2.2-2.1 3.6-1.5zm.1 15.7s.4 1.8 1.7 1c0 0 3.5-2.6 2.5 3.1-.6-.1-1.4.4-1.9 1.2l-6.1-2.6c.2-1.5-.2-2.8-1.2-3.4 1.8-1.6 4.2-3.1 5 .7zm4.4-8.6c1.4.6 2 2.6 1.1 4.5-.8 1.9-2.6 2.9-4 2.3-1.4-.6-2-2.6-1.1-4.5.8-1.9 2.6-2.9 4-2.3zm13.8 13.8c-.5 0-.9.4-.9.9v9.6h-1.3v-6.1c0-.5-.4-.9-.9-.9h-1.1c-.5 0-.9.4-.9.9v6.1h-1.3v-2.4c0-.5-.4-.9-.9-.9h-1.1c-.5 0-.9.4-.9.9v2.4h-.8c-.3 0-.6.3-.6.6s.3.6.6.6h13c.3 0 .6-.3.6-.6s-.3-.6-.6-.6h-.8v-9.6c0-.5-.4-.9-.9-.9h-1.2zm-10.3-1.9h13.2c.7 0 1.2.5 1.2 1.2v13.1c0 .7-.5 1.2-1.2 1.2H21.4c-.7 0-1.2-.5-1.2-1.2V21.6c0-.6.6-1.2 1.2-1.2z"/></svg>