<svg version="1.1" id="Layer_1" xmlns="http://www.w3.org/2000/svg" x="0" y="0" viewBox="0 0 36 36" xml:space="preserve"><style>.st0{fill:#fff}</style><path class="st0" d="M27.3 17.3c.5-.1 1 0 1.5.4l.4.4H28l-.7-.8m.2-8.7l-.2 1L19 1.2l.7-.5 7.8 7.9zm-1.4 3.8l-.5.6-6.3-6.4-.1-1.3 6.9 7.1zm-1.2 1.3l-.7.5-5-5.1.1-1.1 5.6 5.7zm-1.7.9l-1 .2-3.6-3.6.3-.9 4.3 4.3zm0-14.3c1.6.5 3 1.9 3.7 3.8L23.2.3zM27.5 6l.1 1.3-6.9-7 1-.2L27.5 6zm-1.2 11.7l.4.4h-.8l.4-.4zM18.1 2.1l.2-.2 8.7 8.8-.3.8-8-8.1-.6-1.3zm0 10.7l.3-.6 2.4 2.4c-1.1-.3-2-.9-2.7-1.8zm-8.5 6.5s2.1 3 3.9.4c0 0 2.7-4.8 5.2-1-.5.4-.7 1-.7 1.7v6.7H5c-.7-2.9-2.6-5-4.8-5.3C1.9 17.5 5 13 9.6 19.3zM10.9.1c3.1 0 5.6 3.3 5.6 7.3s-2.5 7.3-5.6 7.3c-3.1 0-5.6-3.3-5.6-7.3-.1-4 2.5-7.3 5.6-7.3zm20.8 22.2c-.5 0-.9.4-.9.9v9.6h-1.3v-6.1c0-.5-.4-.9-.9-.9h-1.1c-.5 0-.9.4-.9.9v6.1h-1.3v-2.4c0-.5-.4-.9-.9-.9h-1.1c-.5 0-.9.4-.9.9v2.4h-.8c-.3 0-.6.3-.6.6s.3.6.6.6h13c.3 0 .6-.3.6-.6s-.3-.6-.6-.6h-.8v-9.6c0-.5-.4-.9-.9-.9h-1.2zm-10.3-1.9h13.2c.7 0 1.2.5 1.2 1.2v13.1c0 .7-.5 1.2-1.2 1.2H21.4c-.7 0-1.2-.5-1.2-1.2V21.6c0-.7.6-1.2 1.2-1.2z"/></svg>