<svg version="1.1" id="Layer_1" xmlns="http://www.w3.org/2000/svg" x="0" y="0" viewBox="0 0 36 36" xml:space="preserve"><style>.st0{fill:#fff}</style><path class="st0" d="M31.7 22.3c-.5 0-.9.4-.9.9v9.6h-1.3v-6.1c0-.5-.4-.9-.9-.9h-1.1c-.5 0-.9.4-.9.9v6.1h-1.3v-2.4c0-.5-.4-.9-.9-.9h-1.1c-.5 0-.9.4-.9.9v2.4h-.8c-.3 0-.6.3-.6.6s.3.6.6.6h13c.3 0 .6-.3.6-.6s-.3-.6-.6-.6h-.8v-9.6c0-.5-.4-.9-.9-.9h-1.2m-10.3-1.9h13.2c.7 0 1.2.5 1.2 1.2v13.1c0 .7-.5 1.2-1.2 1.2H21.4c-.7 0-1.2-.5-1.2-1.2V21.6c0-.7.6-1.2 1.2-1.2zm1.6-2.8l.4.4H23v-.4zm1.6-.5v.9L23 16.6v-.9l1.6 1.4zm.3-6.7v-.9l2 1.8v.9l-2-1.8zm0-1.9v-.9l2 1.8v.9l-2-1.8zM23 13.8l1.6 1.3v.9L23 14.6v-.8zm1.6.1v.2l-.8-.7.3-.2.3-.2 1.1 1h-.9zm1.6-7l.3.1.4.3.1.3v.6l-1.6-1.4h.8zm-1.3 5.3v-.7l2 1.8c0 .2-.2.4-.4.5l-1.6-1.4v-.2zM22.5.1c.5 0 .9.1 1.2.3l.5.4c.2.3.4.7.4 1.1v.2L22.8.5l-.3-.4zm1.6 3.2h-.4l-.7-.6v-.9l1.6 1.4v.2c-.2 0-.3-.1-.5-.1zM3.8.2H19c1.1 0 2 .8 2 1.9v2.6h1.7c.4 0 .8.3.8.8V11c0 .4-.4.8-.8.8H21V18h-.6c-1.3 0-2.4 1.1-2.4 2.4v7.7H3.8c-.9 0-1.7-.6-1.9-1.5h.9c1.1 0 2-.8 2-1.9 0-1-.9-1.9-2-1.9h-1v-1.5h1c1.1 0 2-.8 2-1.9 0-1-.9-1.9-2-1.9h-1V16h1c1.1 0 2-.8 2-1.9 0-1-.9-1.9-2-1.9h-1v-1.5h1c1.1 0 2-.8 2-1.9 0-1-.9-1.9-2-1.9h-1V5.4h1c1.1 0 2-.8 2-1.9 0-1-.9-1.9-2-1.9h-.9C2.1.8 2.9.2 3.8.2zM1 8.2h1.8c.4 0 .8.3.8.8 0 .4-.4.8-.8.8H1C.5 9.7.1 9.4.1 9c0-.5.4-.8.9-.8zm0 10.5h1.8c.4 0 .8.3.8.8 0 .4-.4.8-.8.8H1c-.4 0-.8-.3-.8-.8-.1-.4.3-.8.8-.8zM1 2.8h1.8c.4 0 .8.3.8.8 0 .4-.4.8-.8.8H1C.5 4.3.1 4 .1 3.5c0-.4.4-.7.9-.7zM1 24h1.8c.4 0 .8.3.8.8 0 .4-.4.8-.8.8H1c-.4 0-.8-.3-.8-.8-.1-.4.3-.8.8-.8zm0-10.5h1.8c.4 0 .8.3.8.8 0 .4-.4.8-.8.8H1c-.4 0-.8-.3-.8-.8-.1-.5.3-.8.8-.8zm27.4.9v-3.8h.8c.4 0 .8.3.8.8v5.5c0 .4-.4.8-.8.8H28v.3h-1.6v-2l1.1-.7c.6-.2.9-.4.9-.9zm-.8-8.8h-1.1V1.3c0-.4-.2-.9-.4-1.2h.1c1.1 0 2 .8 2 1.9v3.7c-.3-.1-.5-.1-.6-.1z"/></svg>