<svg version="1.1" id="Layer_1" xmlns="http://www.w3.org/2000/svg" x="0" y="0" viewBox="0 0 36 36" xml:space="preserve"><style>.st0{fill:#fff}</style><path class="st0" d="M21.4 15.1l-3 3 .1.8c-.4.4-.6 1-.6 1.6v1.3l-2.5-1.4-3.7 2 .7-4.3-3-3 4.1-.6 1.8-3.9 1.8 3.9 4.3.6m9.3-3.3l-6.1 6.3h-2.9l4.6-4.7-7.5-1.2L15.4 5 12 12.2l-7.5 1.2L9.9 19l-1.3 7.9 6.7-3.7 2.5 1.4V27l-2.5-1.4L6 30.7l1.8-11.1-7.6-7.8 10.6-1.6L15.5.1l4.7 10.1 10.5 1.6zm1 10.5c-.5 0-.9.4-.9.9v9.6h-1.3v-6.1c0-.5-.4-.9-.9-.9h-1.1c-.5 0-.9.4-.9.9v6.1h-1.3v-2.4c0-.5-.4-.9-.9-.9h-1.1c-.5 0-.9.4-.9.9v2.4h-.8c-.3 0-.6.3-.6.6s.3.6.6.6h13c.3 0 .6-.3.6-.6s-.3-.6-.6-.6h-.8v-9.6c0-.5-.4-.9-.9-.9h-1.2zm-10.3-1.9h13.2c.7 0 1.2.5 1.2 1.2v13.1c0 .7-.5 1.2-1.2 1.2H21.4c-.7 0-1.2-.5-1.2-1.2V21.6c0-.7.6-1.2 1.2-1.2z"/></svg>