<svg version="1.1" id="Layer_1" xmlns="http://www.w3.org/2000/svg" x="0" y="0" viewBox="0 0 36 36" xml:space="preserve"><style>.st0{fill:#fff}</style><path class="st0" d="M26.4.1c.6 0 .7.3.8.8l.1 1.4L3.3 7l3.3 24.3L.3 4.7C0 2.8.3 2.6 1.5 2.4l8.5-1c1-.2 1.1.4 1.3 1.3L26.4.1M7.6 9.7l23.8-5.3-.1.8-22.4 5.2-1.8 18.8.5-19.5zM5 7.9L29.2 3v.9l-23 4.8.6 21.2L5 7.9zm8 2.7l21.3-4.9c1.2-.3 1.2.2 1 .9L33.4 12l-6.6 2.2c-1.1 0-1.1 1.2-1.1 1.2v9.1l-.7.3V11.9c0-1.5-1.6-1.6-1.6-1.6-1.4 0-1.6 1.5-1.6 1.5l-.1 5.5-2 .1-.1-1.9c-.1-1.7-2.1-1.7-2.1-1.7l-5 .6c-2.1.2-1.8 2.3-1.8 2.3L11 19c-.9.5-.8 1.1-.7 1.4.3 1 1.2.7 1.2.7 0 .7.9.9.9.9-.7 1.8.6 2.3.6 2.3l2.3.8c-.2.9.7 1 .7 1v2.1l-9.3 3.6L11.4 12c.1-.7.7-1.3 1.6-1.4zm10.5.6c.4 0 .8.3.8.8v23.1c0 .4-.3.8-.8.8-.4 0-.8-.3-.8-.8V23.8l.3-.1c.6-.5 1-1.9.4-2.2l-.2-.1c.4-1.3 1-3 .7-3.3-.1-.1-.9-.3-1.3-.3V12c.1-.4.5-.8.9-.8zM13.4 16c-.2.1-.4.4.1.5l4.2-.9s.1-.2-.1-.3c-.6.1-4 .7-4.2.7zm-.4 5c-.3 0-.6-.2-.6-.2l-.1-.5c1.6-.1 3.3 0 4.2.1L13 21zm.7 2.4c-.1 0-.1 0-.2-.2v-.8c.1-.2.2-.2.3-.3l3.2-.7c-.2.8-.7 1.9-1 2.6l-2.3-.6zm5.4-3.7c.1.2 0 .8-.2 1.6.8 0 2.2.1 3.2.2.4-1.2.7-2.6.3-2.7 0 0-1.8-.1-3.7 0l-.1.7c.2 0 .5 0 .5.2zm2 10.9c0 .6-1.3 1.1-2.9 1.1-1.6 0-2.9-.5-2.9-1.1l.1-.2c-.3.2-.5.4-.5.6 0 .6 1.5 1.2 3.3 1.2 1.8 0 3.3-.5 3.3-1.2 0-.2-.2-.4-.5-.6l.1.2zm-1.9-1c.9.1 1.5.4 1.8.7.7.3 1.1.6 1.1 1 0 .8-1.7 1.5-3.9 1.5s-3.9-.7-3.9-1.5c0-.4.4-.8 1.1-1 .3-.3.9-.6 1.8-.7v-4.8l-.7.3s-.2-.2-.1-.3c.1-.1 2.1-4.6 1.2-4.7 0 0-3.6-.3-6.2.2-.4.1-.1-.2 0-.2l.8-.1c-.3-1.4-.3-3.1-.3-3.1.3-1 1-1.3 1-1.3l4.6-.6c.6-.2 1 .4 1 .4.5.4.3 2.1.1 3.3 1.9-.2 4.5-.4 4.8 0 .3.3-.3 1.9-.7 3.1l.2.1c.5.5.1 1.1-.1 1.5L19 24.9v4.7zm-1 .3c0 .2.1.3.3.3.2 0 .3-.1.3-.3v-5h-.1l-.5-.1v5.1zm9.3-13.2v13.1l6.8 2.5V18.7l-6.8-2zm-.8-1.3l8.5 2.4.6-.4v16.2l-.6.3-8.5-3.2V15.4zm5.8 8.2l.8-.2c.2 0 .3 0 .4.1.1.1.1.2.1.3 0 .1 0 .2-.2.3l-.6.2c-.2 0-.3.1-.3.3v1.5c0 .2 0 .2.2.2l.4-.1c.1 0 .3-.1.4 0 .1 0 .2.2.2.3 0 .1-.1.3-.2.4-.1.1-.4.2-.6.2l-.6.1c-.3 0-.5-.3-.5-.6v-2.4c0-.3.2-.6.5-.6zm-4.9-8.7l7.1-1.7v3.7l-7.1-2zm2.2 3.2l.8.2-2.2 1.8v-.9l1.4-1.1zm1.5.4l.9.2-3.8 3.1v-1l2.9-2.3z"/></svg>