<svg version="1.1" id="Layer_1" xmlns="http://www.w3.org/2000/svg" x="0" y="0" viewBox="0 0 36 36" xml:space="preserve"><style>.st0{fill:#fff}</style><path class="st0" d="M8 18.1V13H2.6v5.1H8M2.6 32.6c0 .7.5 1.2 1.2 1.2H8v-5.2H2.6v4zm33.3-22.4v11.7c-.6-1.9-1.5-3.6-2.6-5V13h-5c-1.6-.7-3.5-1.2-5.6-1.5v-1.3h13.2zM2.5 35.9c-1.3 0-2.4-1.1-2.4-2.4V10.2h17.1L14 13h-3.2v2.8l-2.7 2.3 1.7 1.5-2 1.3H2.6v4.9H8v-4.2l2.8 2.4v1.8h2.1l3.2 2.8h-5.3v5.2h5.8V29l2.8 2.4v2.4h5.4v-4.7c1 .2 2 .6 2.8 1.2v3c-.2.9-.6 1.8-1 2.5H2.5zM2.5.1h31c1.3 0 2.4 1.1 2.4 2.4v5.4H22.8V5.3l-2.9 2.6H.1V2.5C.1 1.2 1.2.1 2.5.1zm9.1 18.1l9.2-8.3v3.3c8.3 1 13.5 5.9 13.7 12.4.1 3.5-1.3 6.4-4.7 10.3H29c.5-1.2 1-3.4 1-4.7.4-4.7-1.3-8.3-9.2-8.6v3.9l-9.2-8.3z"/></svg>