<svg xmlns="http://www.w3.org/2000/svg" viewBox="0 0 36 36"><path d="M34.061 6.895l-1.069.74V3.727l1.069.649v2.519zm-5.225 3.618l1.055-.731V1.846l-1.055-.64v9.307zM19.534 3.4c-.457.21-.804.463-1.069.721v.776l1.069 1.069V3.4zm12.452-.283l-1.09-.661v6.63l1.09-.755V3.117zm-6.228-.215h-1.07V8.37h1.07V2.902zm9.308 3.297L36 5.551l-.934-.567v1.215zm-7.235 5.01V.596L26.848 0v2.902h-.086V8.37h.086v3.52l.983-.681zm-4.148-8.307h-1.07V8.37h1.07V2.902zm-2.074.025c-.39.024-.752.067-1.069.137v3.908l1.069 1.069V2.927zm.3 20.973c-.574.585-.65 1.441-.17 1.912s1.334.381 1.908-.203.649-1.441.17-1.912-1.334-.381-1.908.203zm4.34-4.419c-.574.584-.649 1.44-.17 1.912s1.335.38 1.909-.204.649-1.441.169-1.912-1.334-.38-1.908.204zM6.042 8.32c-.574.584-.649 1.44-.17 1.912s1.336.38 1.909-.204.649-1.44.169-1.912-1.334-.38-1.908.204zm4.341-4.42c-.574.584-.65 1.44-.17 1.912s1.334.38 1.908-.204.649-1.44.17-1.912-1.334-.38-1.908.204zm4.409 8.486c-.948.964-1.384 2.208-1.269 3.309l-.663-.652a.467.467 0 00-.655.667l3.888 3.817a.466.466 0 10.654-.667l-.663-.65c1.102.095 2.338-.363 3.285-1.329 1.517-1.544 1.722-3.803.457-5.044s-3.517-.996-5.034.549zm15.176 7.331a.49.49 0 01.007.689l-7.072 7.202a.487.487 0 01-.689.006L4.062 9.789a.487.487 0 01-.006-.689l7.071-7.201a.49.49 0 01.689-.007l18.152 17.825zM10.724.291L2.441 8.726a.974.974 0 00.013 1.378l19.474 19.124a.975.975 0 001.379-.013l8.282-8.434a.975.975 0 00-.013-1.379L12.102.279a.975.975 0 00-1.378.012zM1.939 31.625l1.069.649v-3.909l-1.069.74v2.52zm5.225-6.138l-1.055.731v7.935l1.055.64v-9.306zm9.302 7.113c.457-.21.804-.463 1.069-.721v-.776l-1.069-1.069V32.6zm-12.452.283l1.09.661v-6.63l-1.09.755v5.214zm6.228.215h1.07V27.63h-1.07v5.468zM.934 29.801L0 30.449l.934.567v-1.215zm7.235-5.01v10.612l.983.597v-2.902h.086V27.63h-.086v-3.52l-.983.681zm4.148 8.307h1.07V27.63h-1.07v5.468zm2.074-.025c.39-.024.752-.067 1.069-.137v-3.908l-1.069-1.069v5.114zm13.88-5.188c.481.471 1.335.38 1.909-.204s.649-1.441.169-1.912-1.334-.38-1.908.204-.649 1.44-.17 1.912zm2.394-5.037l-.941.97 2.436 2.392a.487.487 0 01.007.689l-7.072 7.202a.487.487 0 01-.689.006L6.254 16.282a.487.487 0 01-.006-.689l.137-.139-1.015-.985-.737.75a.974.974 0 00.013 1.378L24.12 35.721a.975.975 0 001.379-.013l8.282-8.434a.975.975 0 00-.013-1.379l-3.103-3.047zm-6.564 7.545c-.574.585-.65 1.441-.17 1.912s1.334.381 1.908-.203.649-1.441.17-1.912-1.334-.382-1.908.203z" fill="#fff"/></svg>