<svg version="1.1" id="Layer_1" xmlns="http://www.w3.org/2000/svg" x="0" y="0" viewBox="0 0 36 36" xml:space="preserve"><style>.st0{fill:#fff}</style><path class="st0" d="M8.5 18c.6-.6 1.3-.8 2.1-.8-2.6-4.3-2.1-10 1.6-13.8C16.6-1 23.7-1 28.1 3.4c2.7 2.7 3.7 6.3 3.1 9.7-.9-.5-1.9-.8-2.9-.8h-.5c.3-2.3-.4-4.7-2.2-6.4-3-3-7.9-3-10.9 0s-3 7.9 0 10.9c1.9 1.9 4.7 2.6 7.2 2.1-.1.5-.1 1-.1 1.5 0 .7.1 1.4.2 2.1-2.6.4-5.3-.1-7.6-1.5.1.8-.2 1.5-.8 2.1l-7.5 7.5c-1.1 1.1-2.8 1.1-3.8 0L1 29.3c-1.1-1.1-1.1-2.8 0-3.8L8.5 18m18.8 11.7s1.7 2.4 3 .3c0 0 3.3-5.9 5.5 2.9-1 .2-1.8 1.4-1.9 2.9H23.7c-.6-2.3-2-3.9-3.8-4.2 1.4-3.3 3.9-6.8 7.4-1.9zm1-15c2.4 0 4.4 2.6 4.4 5.7 0 3.2-2 5.7-4.4 5.7-2.4 0-4.4-2.6-4.4-5.7s2-5.7 4.4-5.7z"/></svg>