<svg version="1.1" id="Layer_1" xmlns="http://www.w3.org/2000/svg" x="0" y="0" viewBox="-593 379 36 36" xml:space="preserve"><style>.st0{fill:#fff}</style><path class="st0" d="M-585.4 391.8h4.1v-3.6h-4.1v3.6m-1.9 0v-3.6h-3.8v3.6h3.8zm0 5.4v-3.5h-3.8v3.5h3.8zm-3.9 4.8c0 .5.4.8.8.8h3v-3.7h-3.8v2.9zm0 2.3c-.9 0-1.7-.8-1.7-1.7v-16.5h15.6l-.4.6c-.2.4-.3.9-.3 1.4h-1.3v3.6h1.6l-1.4.9-2.1 3.9v-2.8h-4.1v3.5h3.7l-1.1 2h-2.6v3.7h2.8l.9 1.5h-9.6zm0-25.2h17.9c-.9.9-1.7 2.1-1.7 2.1-.2 1-.8 2.3-1.4 3.3h-16.5v-3.8c0-.9.7-1.6 1.7-1.6zm20.6 24.2c-.5 0-1 .4-1 1 0 .5.4 1 1 1 .5 0 1-.4 1-1 0-.5-.5-1-1-1zm0-3.8c-.5 0-1 .4-1 1 0 .5.4 1 1 1 .5 0 1-.4 1-1s-.5-1-1-1zm-7.3 1.4l2.2 2.6.7-4.1-.8-1.7-2.1 3.2zm5.2-8.3l2.1 4.9 2.1-4.9 4.6 1 .7 1.8 1-2.4 5.1 1.5-3 5.4c.7.5.3 2.1.3 2.1s-.9 2.1-2.2 1.2l-.5.8-2.8-1.9.4-.7-.8.5.9 6.7.7 4.1-5.6 2.4-.9-6.8-.9 6.8-5.6-2.4.7-4.1-4.8-6.9v-.9l3.9-7.1 4.6-1.1zm2.1-.1c-1.1 0-1.6-1-2.7-2.2-.6-.1-1.7-.4-2.2-.8 0 0-1-.2-.5-1.4 0 0 1.3-2.4 1.8-4.4 0 0 1.3-2.8 2.6-2.1.2 0 0-.3 1-.7 0 0 3.3-.5 4.1 3.3.4 1.9.8 2.9 1.2 3.6 0 0 .7 1.6-.8 1.9l-1.8.4c-1.1 1.4-1.6 2.4-2.7 2.4z"/></svg>