<svg version="1.1" id="Layer_1" xmlns="http://www.w3.org/2000/svg" x="0" y="0" viewBox="0 0 36 36" xml:space="preserve"><style>.st0{fill:#fff}</style><path class="st0" d="M32.2 30.5c-1 0-1.7.8-1.7 1.7 0 1 .8 1.7 1.7 1.7 1 0 1.7-.8 1.7-1.7.1-.9-.7-1.7-1.7-1.7m-19.3 0c-1 0-1.7.8-1.7 1.7 0 1 .8 1.7 1.7 1.7s1.7-.8 1.7-1.7c0-.9-.8-1.7-1.7-1.7zm0-19.4c-1 0-1.7.8-1.7 1.7 0 1 .8 1.7 1.7 1.7s1.7-.8 1.7-1.7c0-.9-.8-1.7-1.7-1.7zm7.8-11h14c.7 0 1.2.5 1.2 1.2v33.3c0 .7-.5 1.2-1.2 1.2h-14c-.7 0-1.2-.5-1.2-1.2V1.3c0-.6.5-1.2 1.2-1.2zM1.3 19.5h14c.7 0 1.2.5 1.2 1.2v14c0 .7-.5 1.2-1.2 1.2h-14c-.7 0-1.2-.5-1.2-1.2v-14c0-.7.6-1.2 1.2-1.2zM1.3.1h14c.7 0 1.2.5 1.2 1.2v14c0 .7-.5 1.2-1.2 1.2h-14c-.7 0-1.2-.5-1.2-1.2v-14C.1.7.7.1 1.3.1z"/></svg>