<svg version="1.1" id="Layer_2" xmlns="http://www.w3.org/2000/svg" x="0" y="0" viewBox="0 0 36 36" xml:space="preserve"><style>.st0{fill:#c13430}.st1{fill:#fff}</style><path class="st0" d="M35.9 28.5c0 4.1-3.3 7.3-7.3 7.3h-21c-4.1 0-7.3-3.3-7.3-7.3v-21C.3 3.4 3.6.2 7.6.2h21c4.1 0 7.3 3.3 7.3 7.3v21z"/><path class="st1" d="M15.9 5.6h-1.4l-.9 3.6-1-3.6h-1.4c.3.8.6 1.7.9 2.5.4 1.3.7 2.2.8 2.9v3.7h1.4V11l1.6-5.4zm3.6 6.9v-2.4c0-.7-.1-1.3-.4-1.6-.3-.5-.8-.7-1.4-.7-.6 0-1.1.2-1.4.7-.3.3-.4.9-.4 1.6v2.4c0 .7.1 1.3.4 1.6.3.5.8.7 1.4.7.6 0 1.1-.2 1.4-.7.3-.4.4-.9.4-1.6zm-1.2.2c0 .6-.2.9-.6.9-.4 0-.6-.3-.6-.9V9.9c0-.6.2-.9.6-.9.4 0 .6.3.6.9v2.8zm5.8 2V7.9h-1.2v5.2c-.3.4-.5.6-.8.6-.2 0-.3-.1-.3-.3V7.9h-1.2v5.4c0 .5 0 .8.1 1 .1.3.4.5.8.5s.9-.3 1.4-.8v.7h1.2zM24.7 21.6c-.4 0-.6.3-.6.9v.6h1.2v-.6c0-.6-.2-.9-.6-.9zM20.2 21.6c-.2 0-.4.1-.6.3V26c.2.2.4.3.6.3.4 0 .5-.3.5-.9v-2.9c.1-.6-.1-.9-.5-.9z"/><path class="st1" d="M27.7 18.2c-.2-1.1-1.1-1.9-2.2-2-2.5-.3-5-.3-7.5-.3s-5 0-7.5.3c-1.1.1-1.9.9-2.2 2-.4 1.5-.4 3.2-.4 4.8 0 1.6 0 3.2.4 4.8.2 1.1 1.1 1.9 2.2 2 2.5.3 5 .3 7.5.3s5 0 7.5-.3c1.1-.1 1.9-.9 2.2-2 .4-1.5.4-3.2.4-4.8 0-1.7 0-3.3-.4-4.8zm-14 1.3h-1.5v7.7h-1.4v-7.7H9.4v-1.3h4.2v1.3zm3.7 7.8h-1.2v-.7c-.5.6-.9.8-1.4.8-.4 0-.7-.2-.8-.5-.1-.2-.1-.5-.1-1v-5.3h1.2V26c0 .2.1.3.3.3.2 0 .5-.2.8-.6v-5.1h1.2v6.7zm4.6-2c0 .6 0 1.1-.1 1.4-.2.5-.5.8-1 .8-.4 0-.8-.2-1.3-.7v.6h-1.2v-9h1.2v2.9c.4-.5.8-.7 1.3-.7s.8.3 1 .8c.1.3.1.7.1 1.3v2.6zm4.6-1.2h-2.4v1.2c0 .6.2.9.6.9.3 0 .5-.2.5-.5v-.8h1.2v1c0 .3-.1.5-.3.7-.3.5-.8.7-1.5.7-.6 0-1.1-.2-1.5-.7-.3-.3-.4-.9-.4-1.6v-2.4c0-.7.1-1.2.4-1.6.4-.5.8-.7 1.5-.7.6 0 1.1.2 1.4.7.3.3.4.9.4 1.6v1.5z"/></svg>