<svg version="1.1" id="Layer_2" xmlns="http://www.w3.org/2000/svg" x="0" y="0" viewBox="0 0 36 36" xml:space="preserve"><style>.st0{fill:url(#SVGID_1_)}.st1{fill:#fff}</style><linearGradient id="SVGID_1_" gradientUnits="userSpaceOnUse" x1="7.146" y1="36.8" x2="28.854" y2="-.8"><stop offset=".018" stop-color="#fcb641"/><stop offset=".08" stop-color="#f9a941"/><stop offset=".194" stop-color="#f38840"/><stop offset=".345" stop-color="#e8533f"/><stop offset=".449" stop-color="#e02a3e"/><stop offset=".679" stop-color="#bc4598"/><stop offset="1" stop-color="#5968af"/></linearGradient><path class="st0" d="M35.9 28.5c0 4.1-3.3 7.3-7.3 7.3h-21c-4.1 0-7.3-3.3-7.3-7.3v-21C.3 3.4 3.6.2 7.6.2h21c4.1 0 7.3 3.3 7.3 7.3v21z"/><path class="st1" d="M22.6 6.1h-9.1c-4.1 0-7.3 3.3-7.3 7.3v9.1c0 4.1 3.3 7.3 7.3 7.3h9.1c4.1 0 7.3-3.3 7.3-7.3v-9.1c0-4-3.3-7.3-7.3-7.3zm5 15.6c0 3.3-2.7 5.9-5.9 5.9h-7.4c-3.3 0-5.9-2.7-5.9-5.9v-7.4c0-3.3 2.7-5.9 5.9-5.9h7.4c3.3 0 5.9 2.7 5.9 5.9v7.4z"/><path class="st1" d="M18 12.1c-3.3 0-6 2.7-6 6s2.7 6 6 6 6-2.7 6-6-2.7-6-6-6zm0 9.6c-2 0-3.6-1.6-3.6-3.6s1.6-3.6 3.6-3.6 3.6 1.6 3.6 3.6c0 1.9-1.6 3.6-3.6 3.6zM25.8 11.7c0 .9-.7 1.6-1.6 1.6-.9 0-1.6-.7-1.6-1.6 0-.9.7-1.6 1.6-1.6.8 0 1.6.7 1.6 1.6z"/></svg>