<svg version="1.1" id="Layer_1" xmlns="http://www.w3.org/2000/svg" x="0" y="0" viewBox="0 0 36 36" xml:space="preserve"><style>.st0{fill:#fff}</style><path class="st0" d="M28.5 26.1c-.1-.1-.3-.1-.4-.1l-4 .4c-.2 0-.4.1-.5.2-.3.2-.4.6-.2.8l.9 1c-1.9 1-4 1.6-6.3 1.6-3.7 0-6.6-1.3-8.8-3.9-.5-.6-1.3-.8-1.8-.4-.5.3-.6 1 0 1.7 2.7 3.2 6.2 4.9 10.7 4.9 2.8 0 5.5-.8 7.7-2.2l.9 1c.2.2.6.1.8-.1.2-.1.3-.3.3-.5l.8-3.9c0-.2 0-.4-.1-.5M7.5 9.9c.1.1.3.1.4.1l4-.4c.2 0 .4-.1.5-.2.3-.2.4-.6.2-.8l-.9-1c1.9-1 4-1.6 6.3-1.6 3.7 0 6.6 1.3 8.8 3.9.5.6 1.3.8 1.8.4.5-.3.6-1 0-1.7C26 5.4 22.5 3.8 18 3.8c-2.8 0-5.5.8-7.7 2.2l-.9-1c-.2-.2-.6-.2-.8.1-.2.1-.3.3-.3.5l-.9 3.9c0 .1 0 .3.1.4zm-1.6 1.8c-1 0-1.9.8-1.9 1.9v8.9c0 1 .8 1.9 1.9 1.9h6.6c1.5 1.3 3.4 2.1 5.5 2.1s4-.8 5.5-2.1h6.6c1 0 1.9-.8 1.9-1.9v-8.9c0-1-.8-1.9-1.9-1.9h-6.6C22 10.4 20.1 9.6 18 9.6s-4.1.8-5.5 2.1H5.9zm3.6 1.8h19.7c.5 0 .9.4.9.9v6.3l-1.7 1.7-.1.1H9.5c-.5 0-.9-.4-.9-.9v-7.2c-.1-.5.3-.9.9-.9zm1.4 4.6c-.4 0-.8.4-.8.8s.4.8.8.8h6.7c.5 0 .8-.4.8-.8s-.4-.8-.8-.8h-6.7zm0-2.9c-.4 0-.8.4-.8.8s.4.8.8.8h12c.4 0 .8-.4.8-.8s-.4-.8-.8-.8h-12zM2.4 0h31.1C34.9 0 36 1.1 36 2.4v31.1c0 1.3-1.1 2.4-2.4 2.4H2.4c-1.3 0-2.4-1.1-2.4-2.4V2.4C.1 1.1 1.1 0 2.4 0z"/></svg>