<svg version="1.1" id="Layer_1" xmlns="http://www.w3.org/2000/svg" x="0" y="0" viewBox="0 0 36 36" xml:space="preserve"><style>.st0{fill:#fff}</style><path class="st0" d="M14 8.2h3.3c.2 0 .5.2.5.4v.8c-.3.6-.5 1.3-.7 2H14c-.2 0-.5-.2-.5-.4V8.6c0-.2.2-.4.5-.4m0 3.9h2.9c-.2.8-.2 1.7-.2 2.6v.7H14c-.2 0-.5-.2-.5-.4v-2.5c0-.2.2-.4.5-.4zm-5.3 0H12c.2 0 .5.2.5.4V15c0 .2-.2.4-.5.4H8.7c-.2 0-.5-.2-.5-.4v-2.5c0-.2.2-.4.5-.4zm-5.3 0h3.3c.2 0 .5.2.5.4V15c0 .2-.2.4-.5.4H3.4c-.2 0-.5-.2-.5-.4v-2.5c0-.2.2-.4.5-.4zm10.6 4h2.8c.1 1.1.4 2.2.7 3.2H14c-.2 0-.5-.2-.5-.4v-2.5c0-.1.2-.3.5-.3zm-5.3 0H12c.2 0 .5.2.5.4V19c0 .2-.2.4-.5.4H8.7c-.2 0-.5-.2-.5-.4v-2.5c0-.2.2-.4.5-.4zm-5.3 0h3.3c.2 0 .5.2.5.4V19c0 .2-.2.4-.5.4H3.4c-.2 0-.5-.2-.5-.4v-2.5c0-.2.2-.4.5-.4zM14 20h3.3c.2 0 .5.2.5.4v.5c-1.3.3-2.5 1.1-3.6 2.3H14c-.2 0-.5-.2-.5-.4v-2.5c0-.1.2-.3.5-.3zm-5.3 0H12c.2 0 .5.2.5.4v2.5c0 .2-.2.4-.5.4H8.7c-.2 0-.5-.2-.5-.4v-2.5c0-.2.2-.4.5-.4zm-5.3 0h3.3c.2 0 .5.2.5.4v2.5c0 .2-.2.4-.5.4H3.4c-.2 0-.5-.2-.5-.4v-2.5c0-.2.2-.4.5-.4zm-1.1 5.9c-1.2 0-2.1-1-2.1-2.1V4.7c0-1.2 1-2.1 2.1-2.1h2.3v.9c0 1.1.9 2.1 2.1 2.1 1.1 0 2.1-.9 2.1-2.1v-1h8.5v.9c0 1.1.9 2.1 2.1 2.1 1.1 0 2.1-.9 2.1-2.1v-.9h2.4c.8 0 1.6.5 1.8 1.2-2.6 0-4.9 1.3-6.5 3.5H2.8c-.5 0-.9.3-1 .8v15.2c0 .6.5 1.1 1.1 1.1h10.4l-1.1 1.6H2.3zM19.3.1c.6 0 1.1.5 1.1 1.1v2.2c0 .5-.3.9-.8 1V1.7c0-.2-.1-.3-.3-.3-.2 0-.3.1-.3.3v2.8c-.4-.1-.8-.5-.8-1V1.2c0-.6.5-1.1 1.1-1.1zM6.7.1c.6 0 1.1.5 1.1 1.1v2.2c0 .5-.3.9-.8 1V1.7c0-.2-.1-.3-.3-.3-.2 0-.3.1-.3.3v2.8c-.4-.1-.8-.5-.8-1V1.2C5.6.6 6.1.1 6.7.1zm17.5 27.4s2.3 3.2 4.2.5c0 0 4.6-8 7.5 4-1.3.3-2.4 1.9-2.6 3.9h-14c-.8-3.1-2.7-5.4-5.1-5.7 1.8-4.7 5.1-9.4 10-2.7zM25.6 7c3.3 0 6 3.5 6 7.8s-2.7 7.8-6 7.8-6-3.5-6-7.8 2.7-7.8 6-7.8z"/></svg>