<svg version="1.1" id="Layer_1" xmlns="http://www.w3.org/2000/svg" x="0" y="0" viewBox="0 0 36 36" xml:space="preserve"><style>.st0{fill:#fff}</style><path class="st0" d="M17.1 29.1c0-.8.4-1.5.8-1.5.5 0 .8.7.8 1.5s-.4 1.5-.8 1.5-.8-.7-.8-1.5m11.8-11.8c.8 0 1.5.4 1.5.8 0 .5-.7.8-1.5.8s-1.5-.4-1.5-.8c-.1-.5.6-.8 1.5-.8zm-21.8 0c.8 0 1.5.4 1.5.8 0 .5-.7.8-1.5.8s-1.5-.4-1.5-.8c-.1-.5.6-.8 1.5-.8zm19.4 9.8c-.4.4-1 .2-1.4-.2l-6.8-6.2c1-.2 1.8-1 2-1.9l6.1 6.9c.6.5.5 1 .1 1.4zM18 6c.6 0 .8.5.8 1.1l.5 11.3c0 .8-.7 1.4-1.5 1.4s-1.5-.6-1.5-1.4L17 7.1c0-.8.4-1.1 1-1.1zm0-2.3c-8 0-14.4 6.5-14.4 14.4S10 32.5 18 32.5 32.3 26 32.3 18.1 25.9 3.7 18 3.7zm0-3.6c9.9 0 17.9 8 17.9 17.9 0 9.9-8 17.9-17.9 17.9S.1 27.9.1 18C.1 8.1 8.1.1 18 .1z"/></svg>