<svg version="1.1" id="Layer_1" xmlns="http://www.w3.org/2000/svg" x="0" y="0" viewBox="0 0 36 36" xml:space="preserve"><style>.st0{fill:#fff}</style><path class="st0" d="M12.8 21.6c0-.6.3-1.1.6-1.1s.6.5.6 1.1c0 .6-.3 1.1-.6 1.1-.4 0-.6-.5-.6-1.1m-7.5-8.8c.6 0 1.1.3 1.1.6s-.5.6-1.1.6c-.6 0-1.1-.3-1.1-.6-.1-.3.5-.6 1.1-.6zm8.4 2.6c.7-.1 1.3-.7 1.5-1.4l1.6 1.7c.1 1 .3 2 .6 2.9l-3.7-3.2zm-.3-10.9c.4 0 .6.4.6.8l.4 8.4c0 .6-.5 1-1.1 1-.6 0-1.1-.5-1.1-1l.5-8.4c0-.6.2-.8.7-.8zm0-4.4c3.7 0 7.1 1.6 9.5 4.1-.9.3-1.7.8-2.4 1.4-1.9-1.7-4.4-2.8-7.2-2.8-5.8 0-10.6 4.8-10.6 10.7 0 5.9 4.8 10.7 10.7 10.7-.6.7-1.1 1.6-1.6 2.4C5.2 25.8.1 20.2.1 13.4.1 6.1 6.1.1 13.4.1zm10.8 27.4s2.3 3.2 4.2.5c0 0 4.6-8 7.5 4-1.3.3-2.4 1.9-2.6 3.9h-14c-.8-3.1-2.8-5.4-5.1-5.7 1.8-4.7 5.1-9.4 10-2.7zM25.6 7c3.3 0 6 3.5 6 7.8s-2.7 7.8-6 7.8-6-3.5-6-7.8 2.6-7.8 6-7.8z"/></svg>