<svg version="1.1" id="Layer_1" xmlns="http://www.w3.org/2000/svg" x="0" y="0" viewBox="0 0 36 36" xml:space="preserve"><style>.st0{fill:#fff}</style><path class="st0" d="M23 33.3c.6.6 1.7.6 2.3 0l2.8-2.8 2.8 2.8c.6.6 1.7.6 2.3 0 .6-.6.6-1.7 0-2.3l-2.8-2.8 2.8-2.8c.6-.6.6-1.7 0-2.3-.6-.6-1.7-.6-2.3 0l-2.8 2.8-2.8-2.9c-.6-.6-1.7-.6-2.3 0-.6.6-.6 1.7 0 2.3l2.8 2.8L23 31c-.6.6-.6 1.7 0 2.3m-1.6-12.9h13.2c.7 0 1.2.5 1.2 1.2v13.1c0 .7-.5 1.2-1.2 1.2H21.4c-.7 0-1.2-.5-1.2-1.2V21.6c0-.7.6-1.2 1.2-1.2zm-8 2.4c0-.7.3-1.2.7-1.2.4 0 .7.5.7 1.2s-.3 1.2-.7 1.2c-.4 0-.7-.6-.7-1.2zm9.2-9.3c.7 0 1.2.3 1.2.7s-.5.7-1.2.7-1.2-.3-1.2-.7.5-.7 1.2-.7zm-17 0c.7 0 1.2.3 1.2.7s-.5.7-1.2.7-1.2-.3-1.2-.7.5-.7 1.2-.7zm8.8 2.7c.8-.1 1.4-.7 1.5-1.5l3.3 3.7c-.5.3-.9.7-1.1 1.2l-3.7-3.4zm-.3-11.5c.5 0 .7.4.7.9l.4 8.9c0 .6-.6 1.1-1.2 1.1s-1.2-.5-1.2-1.1l.5-8.9c0-.6.3-.9.8-.9zm0-4.6c7.7 0 14 6.3 14 14 0 1.4-.2 2.7-.6 4h-2.9c.5-1.2.7-2.5.7-3.9C25.3 8 20.3 3 14.1 3 7.9 3 2.8 8 2.8 14.2c0 6.2 5 11.2 11.2 11.2 1.4 0 2.7-.2 3.9-.7v2.8c-1.2.3-2.5.5-3.8.5-7.7 0-14-6.3-14-14C.1 6.4 6.4.1 14.1.1z"/></svg>