<svg version="1.1" id="Layer_1" xmlns="http://www.w3.org/2000/svg" x="0" y="0" viewBox="0 0 36 36" xml:space="preserve"><style>.st0{fill:#fff}</style><path class="st0" d="M31.2 35.9h-1.8l1.1-1.1c.5.2 1.1.2 1.7.1l-1 1m4.7-6.5v1.8l-1.2 1.2c.2-.6.2-1.2-.1-1.7l1.3-1.3zm-8.6 6.5h-1.8l2.9-2.9.3.3.6.6-2 2zm8.6-10.4v1.8l-2.1 2.1-.9-.9 3-3zm-15.7 1.6v-1.9l1-1c-.1.6 0 1.1.3 1.6l-1.3 1.3zm4.8-6.7h1.9l-1.1 1.1c-.5-.3-1-.3-1.6-.3l.8-.8zM20.2 31v-1.8l2.2-2.2.9.9-3.1 3.1zm8.9-10.6h1.8l-3.1 3.1-.5-.5-.4-.4 2.2-2.2zm6.8 14.3c0 .7-.5 1.2-1.2 1.2h-1.3l2.5-2.5v1.3zm-12.6 1.2h-1.8l1.5-1.4c.4.3.9.4 1.3.5l-1 .9zm12.6-14.3v1.7l-1.1 1.1c0-.4-.2-.9-.4-1.3l1.5-1.5zM20.3 34.9v-1.8l1.1-1.1c.1.4.3.9.5 1.2l-1.6 1.7zm14.4-14.5h.1L33.3 22c-.4-.3-.8-.5-1.2-.6l1-1h1.6zm-13.3 0h1.4L20.2 23v-1.4c0-.7.6-1.2 1.2-1.2zm-8 2.4c0-.7.3-1.2.7-1.2.4 0 .7.5.7 1.2s-.3 1.2-.7 1.2c-.4 0-.7-.6-.7-1.2zm9.2-9.3c.7 0 1.2.3 1.2.7 0 .4-.5.7-1.2.7s-1.2-.3-1.2-.7c0-.4.5-.7 1.2-.7zm-17 0c.7 0 1.2.3 1.2.7 0 .4-.5.7-1.2.7s-1.2-.3-1.2-.7c0-.4.5-.7 1.2-.7zm8.8 2.7c.8-.1 1.4-.7 1.5-1.5l3.3 3.7c-.5.3-.9.7-1.1 1.2l-3.7-3.4zm-.3-11.5c.5 0 .7.4.7.9l.4 8.9c0 .6-.6 1.1-1.2 1.1s-1.2-.5-1.2-1.1l.5-8.9c0-.6.3-.9.8-.9zm0-4.6c7.7 0 14 6.3 14 14 0 1.4-.2 2.7-.6 4H24.5c.5-1.2.7-2.5.7-3.9C25.3 8 20.3 3 14.1 3 7.9 3 2.8 8 2.8 14.2c0 6.2 5 11.2 11.2 11.2 1.4 0 2.7-.2 3.9-.7v2.8c-1.2.3-2.5.5-3.8.5-7.7 0-14-6.3-14-14C.1 6.4 6.4.1 14.1.1zm9.7 32.2c-.5-.5-.5-1.4 0-1.9l2.3-2.3-2.3-2.3c-.5-.5-.5-1.4 0-1.9s1.4-.5 1.9 0l2.3 2.3 2.3-2.3c.5-.5 1.4-.5 1.9 0s.5 1.4 0 1.9l-2.3 2.3 2.3 2.3c.5.5.5 1.4 0 1.9s-1.4.5-1.9 0L28 30l-2.3 2.3c-.5.5-1.4.5-1.9 0z"/></svg>