<svg version="1.1" id="Layer_1" xmlns="http://www.w3.org/2000/svg" x="0" y="0" viewBox="0 0 36 36" xml:space="preserve"><style>.st0{fill:#fff}</style><path class="st0" d="M26.6 9.4c.4.4.4 1 0 1.4L10.8 26.6c-.4.4-1 .4-1.4 0-.4-.4-.4-1 0-1.4L25.2 9.4c.4-.4 1-.4 1.4 0m-3.1 9.9c-1.5 0-2.2 1.4-2.2 4.1 0 2.6.7 3.9 2.2 3.9 1.4 0 2.1-1.3 2.1-3.9 0-2.7-.7-4.1-2.1-4.1zm-.2 9.4c-1.3 0-2.3-.4-3-1.3-.7-.9-1.1-2.2-1.1-3.8 0-1.8.4-3.2 1.1-4.2.7-.9 1.8-1.4 3.2-1.4 2.7 0 4.1 1.8 4.1 5.3 0 1.8-.4 3.1-1.1 4-.8.9-1.8 1.4-3.2 1.4zM12.6 8.6c-1.5 0-2.2 1.4-2.2 4.1 0 2.6.7 3.9 2.2 3.9 1.4 0 2.1-1.3 2.1-3.9 0-2.7-.7-4.1-2.1-4.1zm-.2 9.4c-1.3 0-2.3-.4-3-1.3-.7-.9-1.1-2.2-1.1-3.8 0-1.8.4-3.2 1.1-4.2.7-.9 1.8-1.4 3.2-1.4 2.7 0 4.1 1.8 4.1 5.3 0 1.8-.4 3.1-1.1 4-.7.9-1.8 1.4-3.2 1.4z"/></svg>