<?xml version="1.0" encoding="utf-8"?>
<!-- Generator: Adobe Illustrator 27.2.0, SVG Export Plug-In . SVG Version: 6.00 Build 0)  -->
<svg version="1.1" id="Layer_1" xmlns="http://www.w3.org/2000/svg" xmlns:xlink="http://www.w3.org/1999/xlink" x="0px" y="0px"
	 viewBox="0 0 36 36" style="enable-background:new 0 0 36 36;" xml:space="preserve">
<style type="text/css">
	.st0{fill:#FFFFFF;}
</style>
<path class="st0" d="M26.59,1.22c1.3-1.29,3.16-1.53,4.16-0.52l4.55,4.55c1,1,0.77,2.87-0.52,4.16l-1.95,1.96l-8.19-8.19L26.59,1.22
	 M0.21,33.86l5.23-11.03l0.24-0.36c0.19-0.41,0.47-0.81,0.82-1.16L22.81,5L31,13.19L14.69,29.5c-0.35,0.35-0.75,0.63-1.16,0.82
	l-0.36,0.25L2.13,35.79c-0.57,0.27-1.22,0.12-1.61-0.32C0.08,35.09-0.06,34.43,0.21,33.86z"/>
</svg>
