<svg version="1.1" id="Layer_1" xmlns="http://www.w3.org/2000/svg" x="0" y="0" viewBox="0 0 36 36" xml:space="preserve"><style>.st0{fill:#fff}</style><path class="st0" d="M3.8 16.5c-.8 0-1.5.7-1.5 1.5s.7 1.5 1.5 1.5 1.5-.7 1.5-1.5c0-.9-.7-1.5-1.5-1.5m0-9.3c-.8 0-1.5.7-1.5 1.5s.7 1.5 1.5 1.5 1.5-.7 1.5-1.5-.7-1.5-1.5-1.5zm0 4.7c-.8 0-1.5.7-1.5 1.5s.7 1.5 1.5 1.5 1.5-.7 1.5-1.5c0-.9-.7-1.5-1.5-1.5zm0 9c-.8 0-1.5.7-1.5 1.5s.7 1.5 1.5 1.5 1.5-.7 1.5-1.5-.6-1.5-1.5-1.5zm0-18.3c-.8 0-1.4.7-1.4 1.5s.7 1.5 1.5 1.5 1.5-.7 1.5-1.5c-.1-.8-.7-1.5-1.6-1.5zm4.1 0c-.8 0-1.5.7-1.5 1.5s.7 1.5 1.5 1.5h12.5c.8 0 1.5-.7 1.5-1.5s-.7-1.5-1.5-1.5H7.9zM3.1.1h18.3c1.6 0 3 1.3 3 3V7l-1.7-.1c-1.2 0-2.3.1-3.5.4H7.9c-.8 0-1.5.7-1.5 1.5s.7 1.5 1.5 1.5H13c-.6.5-1.2 1.1-1.8 1.6H7.9c-.8 0-1.5.7-1.5 1.5s.7 1.5 1.5 1.5h1.2l-.8 1.6h-.4c-.8 0-1.5.7-1.5 1.5 0 .6.4 1.2 1 1.4l-.3 1.9c-.4.3-.7.7-.7 1.2s.3 1 .7 1.2c.1 1.9.6 3.7 1.4 5.4H3.1c-1.6 0-3-1.3-3-3v-23c0-1.6 1.4-3 3-3zm19.7 21.5c-.4 0-.8.3-.8.8 0 .4.3.8.8.8.4 0 .8-.3.8-.8-.1-.4-.4-.8-.8-.8zm-9.8.1v1.2h-1.2c.1 5.7 4.6 10.4 10.3 10.7v-1.2h1.2v1.2c5.7-.3 10.2-4.9 10.3-10.7h-1.2v-1.2h1.2c-.5-5.4-4.8-9.6-10.2-9.9V13h-1.2v-1.2c-5.4.3-9.8 4.5-10.3 9.9H13zm9.7-12.2c7.3 0 13.2 5.9 13.2 13.2S30 35.9 22.7 35.9 9.5 30 9.5 22.7 15.4 9.5 22.7 9.5zm-.4 5.4h1l.3 5.7c.7.3 1.2 1 1.2 1.8 0 .3-.1.6-.2.9l4.5 4.9-.7.7-5.1-4.6-.5.1c-1.1 0-2-.9-2-2 0-.8.5-1.5 1.3-1.8l.2-5.7z"/></svg>