<?xml version="1.0" encoding="utf-8"?>
<!-- Generator: Adobe Illustrator 27.2.0, SVG Export Plug-In . SVG Version: 6.00 Build 0)  -->
<svg version="1.1" id="Layer_1" xmlns="http://www.w3.org/2000/svg" xmlns:xlink="http://www.w3.org/1999/xlink" x="0px" y="0px"
	 viewBox="0 0 36 36" style="enable-background:new 0 0 36 36;" xml:space="preserve">
<style type="text/css">
	.st0{fill:#FFFFFF;}
</style>
<path class="st0" d="M24.92,11.95c-0.95,0-1.71,0.85-1.71,1.89v17.43c0,1.04,0.77,1.89,1.71,1.89c0.95,0,1.71-0.85,1.71-1.89V13.83
	C26.63,12.79,25.87,11.95,24.92,11.95 M11.08,11.95c-0.95,0-1.71,0.85-1.71,1.89v17.43c0,1.04,0.77,1.89,1.71,1.89
	c0.95,0,1.71-0.85,1.71-1.89V13.83C12.79,12.79,12.02,11.95,11.08,11.95z M18,11.95c-0.95,0-1.71,0.85-1.71,1.89v17.43
	c0,1.04,0.77,1.89,1.71,1.89c0.95,0,1.71-0.85,1.71-1.89V13.83C19.71,12.79,18.95,11.95,18,11.95z M30.01,32.6
	c0,1.84-1.31,3.33-2.93,3.33H8.92c-1.62,0-2.93-1.49-2.93-3.33V9.35h24.03V32.6z M14.98,0.07h6.04c0.15,0,0.28,0.12,0.28,0.28v2.06
	c0,0.15-0.12,0.28-0.28,0.28h-6.04c-0.15,0-0.28-0.12-0.28-0.28V0.35C14.7,0.2,14.82,0.07,14.98,0.07z M5.03,4.29h25.93
	c0.15,0,0.28,0.12,0.28,0.28v2.78c0,0.15-0.12,0.28-0.28,0.28H5.03c-0.15,0-0.28-0.12-0.28-0.28V4.57C4.76,4.41,4.88,4.29,5.03,4.29
	z"/>
</svg>
