<svg version="1.1" id="Layer_1" xmlns="http://www.w3.org/2000/svg" x="0" y="0" viewBox="0 0 36 36" xml:space="preserve"><style>.st0{fill:#fff}</style><path class="st0" d="M3.9 33.6H32c.8 0 1.5-.7 1.5-1.5V9.7h-31v22.4c0 .9.6 1.5 1.4 1.5m-.8 2.3c-1.6 0-3-1.3-3-3V6.4c0-1.6 1.3-3 3-3h3.2v1.3c0 1.6 1.3 2.9 2.9 2.9 1.6 0 2.9-1.3 2.9-2.9V3.5h11.8v1.3c0 1.6 1.3 2.9 2.9 2.9 1.6 0 2.9-1.3 2.9-2.9V3.5H33c1.6 0 3 1.3 3 3v26.4c0 1.6-1.3 3-3 3H3.1zM26.7.1c.8 0 1.5.7 1.5 1.5v3.1c0 .7-.4 1.2-1.1 1.4V2.3c0-.2-.2-.4-.4-.4s-.4.2-.4.4v3.8c-.6-.2-1.1-.8-1.1-1.4V1.6c0-.8.7-1.5 1.5-1.5zM9.2.1c.8 0 1.5.7 1.5 1.5v3.1c0 .7-.4 1.2-1.1 1.4V2.3c0-.2-.2-.4-.4-.4s-.4.2-.4.4v3.8c-.6-.2-1.1-.7-1.1-1.4V1.6C7.7.8 8.4.1 9.2.1zm14.5 15.3l-7.5 14.2h-2.3l6.8-12.8h-5c-.4 0-.7.1-1 .2-.2.1-.5.3-.6.7-.2.4-.3.9-.4 1.4H13v-4.5h10.8v.8z"/></svg>