<svg version="1.1" id="Layer_1" xmlns="http://www.w3.org/2000/svg" x="0" y="0" viewBox="0 0 36 36" xml:space="preserve"><style>.st0{fill:#fff}</style><path d="M18 .1c9.9 0 17.9 8 17.9 17.9 0 9.9-8 17.9-17.9 17.9S.1 27.9.1 18C.1 8.1 8.1.1 18 .1"/><path class="st0" d="M8.5 10.2h19.1c.6 0 1.1.5 1.1 1.1v1.4c-.2-.3-.5-.4-.9-.4H15.2c-.1-.2-.3-.3-.6-.3h-4.4c-.3 0-.5.1-.6.3H8.2c-.3 0-.6.2-.8.4v-1.4c0-.7.5-1.1 1.1-1.1m0-2.8h19.1c.6 0 1.1.5 1.1 1.1v.6c-.2-.3-.5-.5-.9-.5H8.2c-.3 0-.6.1-.8.4v-.5c0-.6.5-1.1 1.1-1.1zM17.1 20c-.2 0-.4.2-.4.4s.2.4.4.4h7.4c.2 0 .4-.2.4-.4s-.2-.4-.4-.4h-7.4zm0-1.6c-.2 0-.4.2-.4.4s.2.4.4.4h9.4c.2 0 .4-.2.4-.4s-.2-.4-.4-.4h-9.4zm0-1.6c-.2 0-.4.2-.4.4s.2.4.4.4h4.7c.2 0 .4-.2.4-.4s-.2-.4-.4-.4h-4.7zm-4.7-.2c.7 0 1.2.7 1.2 1.5s-.5 1.5-1.2 1.5-1.2-.7-1.2-1.5c0-.9.6-1.5 1.2-1.5zm-2.2-.8c-.4 0-.7.3-.7.7v4.9c0 .4.3.7.7.7h.9c-.2-.6-.6-1-1-1.1.4-.9 1.1-1.8 2.1-.5 0 0 .5.6.8.1 0 0 .9-1.5 1.5.8-.3.1-.5.4-.5.8h.6c.4 0 .7-.3.7-.7v-4.9c0-.4-.3-.7-.7-.7h-4.4zM8.5 14h19.1c.6 0 1.1.5 1.1 1.1v12.4c0 .6-.5 1.1-1.1 1.1h-1.9v-1.3h.5c.4 0 .8-.4.8-.8s-.4-.8-.8-.8h-2.8c-.4 0-.8.4-.8.8s.4.8.8.8h.5v1.3h-5.1v-1.3h.5c.4 0 .8-.4.8-.8s-.4-.8-.8-.8h-2.8c-.4 0-.8.4-.8.8s.4.8.8.8h.5v1.3h-5v-1.3h.5c.4 0 .8-.4.8-.8s-.4-.8-.8-.8H9.8c-.4 0-.8.4-.8.8s.4.8.8.8h.5v1.3H8.5c-.6 0-1.1-.5-1.1-1.1V15.1c0-.6.5-1.1 1.1-1.1z"/></svg>