<svg version="1.1" id="Layer_1" xmlns="http://www.w3.org/2000/svg" x="0" y="0" viewBox="0 0 36 36" xml:space="preserve"><style>.st0{fill:#fff}</style><path class="st0" d="M13.6 13.5c.5 0 1.3-.1 2.3 0 .3.1.5.3.8.4h-3.4l.3-.4m-6.4-2.8H10c-.6.6-1.4 1.6-1.9 3.2h-.9c-.9 0-1.6-.7-1.6-1.6 0-.9.7-1.6 1.6-1.6zm-5.5 0c.9 0 1.6.7 1.6 1.6 0 .9-.7 1.6-1.6 1.6-.9 0-1.6-.7-1.6-1.6 0-.9.8-1.6 1.6-1.6zM7.2.3h12.9c.9 0 1.6.7 1.6 1.6s-.7 1.6-1.6 1.6H7.2c-.9 0-1.6-.7-1.6-1.6S6.3.3 7.2.3zM1.7.3c.9 0 1.6.7 1.6 1.6s-.7 1.6-1.6 1.6C.8 3.5.1 2.8.1 1.9S.9.3 1.7.3zm5.5 5.4h12.9c.9 0 1.6.7 1.6 1.6 0 .7-.5 1.3-1.1 1.5-2.6-1-5.3-.9-7.6.1H7.2c-.9 0-1.6-.7-1.6-1.6s.7-1.6 1.6-1.6zm-5.5 0c.9 0 1.6.7 1.6 1.6s-.7 1.6-1.6 1.6C.8 8.9.1 8.2.1 7.3s.8-1.6 1.6-1.6zm5.5 20.6h2.6c1.4 1.5 3.1 2.5 4.9 3.2H7.2c-.9 0-1.6-.7-1.6-1.6 0-.9.7-1.6 1.6-1.6zm-5.5 0c.9 0 1.6.7 1.6 1.6 0 .9-.7 1.6-1.6 1.6-.9 0-1.6-.7-1.6-1.6 0-.9.8-1.6 1.6-1.6zm18.4-7.2h-6.3c-.5-.8-1-2-1-3.2h6.6c.7.7 1.4 1.6 1.8 2.7-.3.3-.7.5-1.1.5zM7.2 15.9h.4c-.2.9-.3 2-.3 3.2h-.1c-.9 0-1.6-.7-1.6-1.6 0-.9.7-1.6 1.6-1.6zm-5.5 0c.9 0 1.6.7 1.6 1.6 0 .9-.7 1.6-1.6 1.6-.9 0-1.6-.7-1.6-1.6 0-.9.8-1.6 1.6-1.6zm18.4 5.4c.7 0 1.3.4 1.5 1.1-1.2.4-3.3.7-5.8-1.1h4.3zm-12.9 0h.3c.2 1.2.5 2.3 1 3.2H7.2c-.9 0-1.6-.7-1.6-1.6 0-.8.7-1.6 1.6-1.6zm-5.5 0c.9 0 1.6.7 1.6 1.6 0 .9-.7 1.6-1.6 1.6-.9 0-1.6-.7-1.6-1.6 0-.8.8-1.6 1.6-1.6zm11.5.8c1.7 1.7 4 2.5 6 2.3-1.9-.1-3.9-1.2-5.6-2.8-1.8-1.8-2.7-3.9-2.6-5.9-.4 2 .4 4.5 2.2 6.4zm.1-9.8c-2.1 2.1-1.7 6.1 1.1 8.8 2.7 2.7 6.7 3.2 8.8 1.1 2.1-2.1 1.7-6.1-1.1-8.8-2.7-2.7-6.7-3.2-8.8-1.1zm-1.5-.3c2.9-2.8 7.8-2.5 11 .7s3.5 8.2.7 11c-2.9 2.8-7.8 2.5-11-.7s-3.5-8.2-.7-11zm9.7 2c1.8 1.8 2.5 4.1 2.1 6.3 0-2-1-4.2-2.7-5.8-1.8-1.8-4-2.7-6.2-2.5 2.3-.6 4.9.1 6.8 2zm5.3 11.8c-.3.3-.3.7-.1.9l6.9 6.9c.2.2.6.2.9-.1.3-.3.3-.7.1-.9l-6.9-6.9c-.3-.2-.7-.2-.9.1zm1.3-.9l7.3 7.2c.8.8.7 2.2-.2 3.1-.9.9-2.3 1-3.1.2l-7.3-7.2c-.6-.6-.7-1.5-.3-2.3l-1.1-1.1.6-.5.7-.8 1.1 1.1c.7-.4 1.7-.3 2.3.3z"/></svg>