<svg version="1.1" id="Layer_1" xmlns="http://www.w3.org/2000/svg" x="0" y="0" viewBox="0 0 36 36" xml:space="preserve"><style>.st0{fill:#fff}</style><path class="st0" d="M21 25.5s2.9 4 5.3.6c0 0 5.8-9.9 9.5 4.9-1.7.3-3.1 2.3-3.3 4.9H14.7c-1-3.8-3.5-6.7-6.5-7l.3-.7h.3c2.5 0 4.6-1.7 4.6-3.9v-2.5c2.1-1 4.6-.3 7.6 3.7M22.8.1c4.2 0 7.7 4.3 7.7 9.7 0 5.4-3.4 9.7-7.7 9.7-1 0-2-.3-2.9-.7.5-.8.7-1.7.7-2.7 0-2.5-1.7-4.6-3.9-4.6h-1.5c-.1-.6-.1-1.1-.1-1.7 0-5.3 3.4-9.7 7.7-9.7zM.1 16.2c0-1.1.9-1.9 1.9-1.9h4.8V9.5c0-1.1.9-1.9 1.9-1.9 1.1 0 1.9.9 1.9 1.9v4.8h4.8c1.1 0 1.9.9 1.9 1.9 0 1.1-.9 1.9-1.9 1.9h-4.8v4.8c0 1.1-.9 1.9-1.9 1.9-1.1 0-1.9-.9-1.9-1.9v-4.8H2.1c-1.1 0-2-.9-2-1.9z"/></svg>