<svg version="1.1" id="Layer_1" xmlns="http://www.w3.org/2000/svg" x="0" y="0" viewBox="0 0 36 36" xml:space="preserve"><style>.st0{fill:#fff}</style><path class="st0" d="M1.8.8h.4l.4 5.1-.9 15.5 2-.5.1 1.7-1.3.3-.7 7.9-1.5.4.8-8-1 .2L1.8.8m1.9 0L20.4.1l.6 7.3h-5.7c-.6 0-1.1.4-1.2.9L13.7 7l-1.2 6.9-.9-2.3-1.2 3.9 3.8-.3v1.6h-.4v-.4c0-.2-.2-.4-.4-.4s-.4.2-.4.4v.4l-1.4.1v-.4c0-.2-.2-.4-.4-.4s-.4.2-.4.4v.4l-2 .1-.2-2h.3c.2 0 .4-.2.4-.4s-.2-.4-.4-.4h-.3l-.1-1.5h.3c.2 0 .4-.2.4-.4-.1-.2-.2-.3-.5-.3h-.3l-.1-1.5h.3c.2-.1.4-.3.4-.5s-.2-.4-.4-.4h-.3l-.2-1.3h.3c.2 0 .4-.2.4-.4s-.2-.4-.4-.4h-.3v-.4c0-.2-.2-.4-.5-.4-.2 0-.4.2-.4.5l.7 10.5c0 .2.1.3.3.4h.2l5.7-.4V22c0 .7.5 1.2 1.2 1.2h7.1l.1.9-1.4.2.6 8.2-1.2.3-.7-8.3-4.9.6-.4 3-1.3.3.3-3-5.1.7.7 9.4-1.3.4-.7-9.6-1.7.2L3.7.8zm12.3 20v-11l7.1 5.3-7 5.9-.1-.2zm19.2.6H16.7c-.2 0-.4-.1-.5-.3l8.3-5 1.3 1 1.6-1.2 8.4 5c-.1.4-.3.5-.6.5zm.7-11.5v11l-7-6 7-5.3v.3zm-19.2-.7h18.5c.3 0 .5.2.6.4l-10 5.3L16 9.7c.1-.3.3-.5.7-.5z"/></svg>