<svg version="1.1" id="Layer_1" xmlns="http://www.w3.org/2000/svg" x="0" y="0" viewBox="0 0 36 36" xml:space="preserve"><style>.st0{fill:#fff}</style><path class="st0" d="M31.4 35.8h-1.1l-10.6-8.4.2-.8 11.5 9.2m-2.5 0h-1.1l-8.4-6.7.2-.8 9.3 7.5zm-2.5 0h-1.1l-6.3-5 .2-.8 7.2 5.8zm-2.5 0h-1.1l-4.1-3.3.2-.8 5 4.1zm-2.5 0h-1.1l-2-1.6.2-.8 2.9 2.4zm14.4-12.3l-.1.8-1.1-.8h1.2zm-.3 1.7l-.1.8-3.2-2.6h1.1l2.2 1.8zm-.3 1.7l-.1.8-5.4-4.3h1.1l4.4 3.5zm-.3 1.8l-.1.8-7.6-6.1h1.1l6.6 5.3zm-.3 1.7l-.1.8-9.8-7.8h1.1l8.8 7zm-.3 1.8l-.1.8-4.9-3.9c-.2-.6-.6-1.1-1.2-1.3l-.5-.1-5.5-4.4h1.2l11 8.9zm-.3 1.7l-.1.8-4.8-3.8.2-.5v-.2l4.7 3.7zM20.6 23.4h.1l5.9 4.7-.5.5-5.7-4.5.2-.7zM18 35.8l.1-.7.8.7H18zm2.1-10l.2-.8 5.5 4.3c-.1.3-.1.5-.1.8l-5.6-4.3zm13.6 10h-.9l-5-3.9c.2-.1.5-.2.7-.4l5.2 4.1v.2zm.6-14.1l1.5 1.1H19.9l-2.8 13-1-1 2.8-13.1h15.4zM.2 30c0-1.1 3.4-6.9 6-7 0 0 3-.6 4.5 3.1 0 0 1.7 4.4 4.9 2.2l-.5 1.8-1.5 5.8H6.3c0-.1-.9-4.9-6.1-5.9zm5.6-18.8c.5 0 .9.8.9 1.7 0 .9-.4 1.7-.9 1.7s-.9-.8-.9-1.7c0-.9.4-1.7.9-1.7zm-.2-.2c-.7 0-1.3.9-1.3 2s.6 2 1.3 2 1.3-.9 1.3-2c0-1.2-.6-2-1.3-2zM6 9.2c1.4 0 2.5 1.7 2.5 3.8 0 2.1-1.1 3.8-2.5 3.8S3.5 15.1 3.5 13c0-2.1 1.2-3.8 2.5-3.8zm10.6-7c4.2 0 7.5 4.4 7.5 9.9 0 1.2-.2 2.3-.4 3.3l-1.5.7-.5.2c-.3-.9-1.2-1.6-2.2-1.6-1.3 0-2.3 1-2.3 2.3 0 1.2.9 2.1 2 2.3.9.2 1.5.7 1.4 1.2-1.2 1-2.6 1.5-4 1.5-3 0-5.6-2.3-6.8-5.6.6-.8 1-2 1-3.2 0-1.6-.6-3-1.4-3.8.8-4.2 3.7-7.2 7.2-7.2zm8.2 9.8c0-.9-.1-1.9-.3-2.9-1.3-5-3.8-8-8.4-8-4.9 0-7.1 3.5-8.5 7.5-.2.7-.4.7-.4.2.2-1.6.7-2.6-.1-2.6-.8 0-1.7 2.2-1.8 2.8-.2.2-.1-.7.2-1.5C6.9 4.2 9.6.2 15.3.2c5.7 0 8.8 3.7 9.7 9.2 1 .5 1.7 1.7 1.8 3.1-.4 1-1.3 1.9-2.4 2.6.2-1 .4-2.1.4-3.1zm-5.2 6.8c-.6-.2-.9-1-.7-1.7.2-.7 1-1.1 1.6-.9.4.1.7.4.8.9 0 .2-.1.5-.1.5s.3-.2.5-.6c2.1-.8 4.6-1.9 5.7-2.9.3-.2.3-.6-.3-1.4-.1-.2.6.1 1.1.3l.5.3s.2.1.1.3l-.5.5c-1.3 1.2-2.6 2.2-5.9 3.8-1.2.6-1.9.8-2.3.9h-.5z"/></svg>