<svg version="1.1" id="Layer_1" xmlns="http://www.w3.org/2000/svg" x="0" y="0" viewBox="0 0 36 36" xml:space="preserve"><style>.st0{fill:#e0d7f2}</style><path class="st0" d="M7.1 23.6h9.4c.8 0 1.5.7 1.5 1.5s-.7 1.5-1.5 1.5H7.1c-.8 0-1.5-.7-1.5-1.5s.7-1.5 1.5-1.5m0-5.6h21.8c.8 0 1.5.7 1.5 1.5s-.7 1.5-1.5 1.5H7.1c-.8 0-1.5-.7-1.5-1.5S6.3 18 7.1 18zm0-5.8h21.8c.8 0 1.5.7 1.5 1.5s-.7 1.5-1.5 1.5H7.1c-.8 0-1.5-.7-1.5-1.5 0-.9.7-1.5 1.5-1.5zm0-5.9h21.8c.8 0 1.5.7 1.5 1.5s-.7 1.5-1.5 1.5H7.1c-.8 0-1.5-.7-1.5-1.5 0-.9.7-1.5 1.5-1.5zM4 2.5c-.8 0-1.5.7-1.5 1.5v28c0 .8.7 1.5 1.5 1.5h28c.8 0 1.5-.7 1.5-1.5V4c0-.8-.7-1.5-1.5-1.5H4zM3.1.1H33c1.6 0 3 1.3 3 3V33c0 1.7-1.3 3-3 3H3.1c-1.7 0-3-1.3-3-3V3.1c0-1.7 1.3-3 3-3z"/></svg>