<svg version="1.1" id="Layer_1" xmlns="http://www.w3.org/2000/svg" x="0" y="0" viewBox="0 0 36 36" xml:space="preserve"><style>.st0{fill:#fff}</style><path class="st0" d="M14.2 4.4c1.4 0 2.5 1.4 2.5 3.1 0 1.7-1.1 3.1-2.5 3.1s-2.5-1.4-2.5-3.1c.1-1.7 1.2-3.1 2.5-3.1m1 17.1l-1.1.6h-2.9l3.3-3.3.7 2.7zm-5-5.4h.1l1.5-1.5-2.2.6L8.2 17l.8.5 1.2-1.2v-.2zm8.4 1v3.3l2.1-3.1-1.7-1.5-.4 1.3zm4.2-.4v.8l-1.7 4.6H19l-.3-.1v.1H17l.1-.1-1.4-4.5 4.1-4.1 3 3.3zM14.2 2.6C7.7 2.6 2.5 7.9 2.5 14.4c0 2.7.9 5.2 2.4 7.2l2.4-2.5-1.6-1.8-.1-.7 3.5-3.9 2.1-.8.6 2.7 1-1-.4-1.8h2.3L21.4 5c-2-1.5-4.5-2.4-7.2-2.4zM6.9 22.1c-1.3 0-2.4.8-2.8 2-2.4-2.5-3.9-6-3.9-9.8C.2 6.5 6.5.1 14.3.1s14.1 6.3 14.1 14.2c0 2.9-.8 5.5-2.3 7.8h-2.9C25 20 26 17.3 26 14.4c0-2.7-.9-5.3-2.5-7.3l-14.9 15H6.9zm12.8 7.1c.4 0 .8.3.8.8s-.3.8-.8.8c-.4 0-.8-.3-.8-.8s.3-.8.8-.8zm-2.1 0c.4 0 .8.3.8.8s-.3.8-.8.8c-.4 0-.8-.3-.8-.8s.4-.8.8-.8zm-2.2 0c.4 0 .8.3.8.8s-.3.8-.8.8c-.4 0-.8-.3-.8-.8s.4-.8.8-.8zm-2.1 0c.4 0 .8.3.8.8s-.3.8-.8.8c-.4 0-.8-.3-.8-.8s.4-.8.8-.8zm10.6-2c.4 0 .8.3.8.8 0 .4-.3.8-.8.8-.4 0-.8-.3-.8-.8s.4-.8.8-.8zm-2.1 0c.4 0 .8.3.8.8 0 .4-.3.8-.8.8s-.8-.4-.8-.8c0-.5.3-.8.8-.8zm-2.1 0c.4 0 .8.3.8.8 0 .4-.3.8-.8.8-.4 0-.8-.3-.8-.8s.3-.8.8-.8zm-2.1 0c.4 0 .8.3.8.8 0 .4-.3.8-.8.8-.4 0-.8-.3-.8-.8s.4-.8.8-.8zm-2.2 0c.4 0 .8.3.8.8 0 .4-.3.8-.8.8-.4 0-.8-.3-.8-.8.1-.5.4-.8.8-.8zm-2.1 0c.4 0 .8.3.8.8 0 .4-.3.8-.8.8-.4 0-.8-.3-.8-.8s.4-.8.8-.8zm20.3-1.1H11.3v8.5h21l2.1-2.1v-5.7c0-.4-.3-.7-.8-.7zM8.2 26c-.4 0-.7.3-.7.7 0 .4.3.7.7.7h2.3V26H8.2zM8 24.8h26.4c.8 0 1.5.7 1.5 1.5v8.1c0 .8-.7 1.5-1.5 1.5H8c-.8 0-1.5-.7-1.5-1.5v-8.1c0-.8.7-1.5 1.5-1.5z"/></svg>