<svg version="1.1" id="Layer_1" xmlns="http://www.w3.org/2000/svg" x="0" y="0" viewBox="0 0 36 36" xml:space="preserve"><style>.st0{fill:#d1c3e0}</style><path class="st0" d="M8.8 18.1c-.6-.6-.6-1.5 0-2L16.9 8c.3-.3.6-.4 1-.4s.7.1 1 .4l8.1 8.1c.6.6.6 1.5 0 2-.6.6-1.5.6-2 0l-5.6-5.6v14.3c0 .9-.7 1.5-1.5 1.5s-1.5-.7-1.5-1.5V12.5l-5.6 5.6c-.6.6-1.5.6-2 0m24.4-.1c0-8.4-6.8-15.3-15.3-15.3S2.6 9.5 2.6 18c0 8.4 6.8 15.3 15.3 15.3S33.2 26.4 33.2 18zm2.7 0c0 9.9-8 17.9-17.9 17.9S.1 27.9.1 18 8.1.1 18 .1s17.9 8 17.9 17.9z"/></svg>