<svg version="1.1" id="Layer_1" xmlns="http://www.w3.org/2000/svg" x="0" y="0" viewBox="0 0 36 36" xml:space="preserve"><style>.st0{fill:#fff}</style><path class="st0" d="M18.1 26.9c-.5.5-1.4.5-1.9 0l-7.8-7.8c-.3-.3-.4-.6-.4-1s.1-.7.4-1l7.8-7.8c.5-.5 1.4-.5 1.9 0s.5 1.4 0 1.9l-5.4 5.4h13.8c.8 0 1.5.7 1.5 1.5s-.7 1.5-1.5 1.5H12.7l5.4 5.4c.5.5.5 1.4 0 1.9M18 2.8C9.5 2.8 2.7 9.6 2.7 18.1S9.5 33.4 18 33.4s15.3-6.9 15.3-15.3S26.4 2.8 18 2.8zm0-2.7c9.9 0 17.9 8 17.9 17.9s-8 17.9-17.9 17.9S.1 27.9.1 18 8.1.1 18 .1z"/></svg>