<svg version="1.1" id="Layer_1" xmlns="http://www.w3.org/2000/svg" x="0" y="0" viewBox="0 0 36 36" xml:space="preserve"><style>.st0{fill:#fff}</style><path class="st0" d="M31.1 18c0-.8-.1-1.6-.2-2.4l2.1-.4-5.2-5.5-3.1 7 2.5-.4c.1.6.2 1.2.2 1.8 0 5.1-4.2 9.3-9.3 9.3-.8 0-1.7-.1-2.4-.3L12.8 30c1.6.7 3.5 1.1 5.4 1.1 7 0 12.9-5.9 12.9-13.1M18 4.9C10.8 4.9 4.9 10.8 4.9 18c0 .8.1 1.6.2 2.4l-2.1.4 5.2 5.5 3.1-7-2.6.4c-.1-.5-.2-1.1-.2-1.7 0-5.1 4.2-9.3 9.3-9.3.8 0 1.7.1 2.4.3l3-3c-1.4-.6-3.3-1.1-5.2-1.1zM18 0c9.9 0 18 8 18 18s-8 18-18 18S0 28 0 18 8.1 0 18 0z"/></svg>