<svg version="1.1" id="Layer_1_copy" xmlns="http://www.w3.org/2000/svg" x="0" y="0" viewBox="0 0 36 36" xml:space="preserve"><style>.st0{fill:#654db5}</style><path class="st0" d="M18.1 27.2c-.6.6-1.5.6-2 0L8 19.1c-.3-.3-.4-.6-.4-1s.1-.7.4-1L16.1 9c.6-.6 1.5-.6 2 0 .6.6.6 1.5 0 2l-5.6 5.6h14.3c.9 0 1.5.7 1.5 1.5s-.7 1.5-1.5 1.5H12.5l5.6 5.6c.6.6.6 1.5 0 2M18 2.8C9.5 2.8 2.7 9.7 2.7 18.1S9.5 33.4 18 33.4c8.4 0 15.3-6.8 15.3-15.3S26.4 2.8 18 2.8zm0-2.7c9.9 0 17.9 8 17.9 17.9s-8 17.9-17.9 17.9S.1 27.9.1 18 8.1.1 18 .1z"/></svg>