<svg version="1.1" id="Layer_1" xmlns="http://www.w3.org/2000/svg" x="0" y="0" viewBox="0 0 36 36" xml:space="preserve"><style>.st0{fill:#fff}</style><path class="st0" d="M18 .1c2.9 0 5.2 2.6 5.2 5.7 0 3.2-2.3 5.7-5.2 5.7-2.9 0-5.2-2.6-5.2-5.7 0-3.2 2.3-5.7 5.2-5.7M9.6 21.4l6.9-1.2 3.5 11-5.4 2.5-8.4-1.1.7-2.3-6.8-6.7-.1-1.3 7.4-7.2 4.4-1.4 1.3 5-4.8 1-3 3.3 3.2 1.8 1.1-3.4zm17.6 1.8l.1 6 4.4-5.7-3.5-2.6-1 2.3zm-13.1-9.8h8.3l5.7 1.4 7.8 7.5v1.4l-4.1 9.8-4.4-1.5.1 4.1h-9.9l.5-.9 6-3.1-5.2-14.4-3.4.5-1.4-4.8z"/></svg>