<svg version="1.1" id="Layer_1" xmlns="http://www.w3.org/2000/svg" x="0" y="0" viewBox="0 0 36 36" xml:space="preserve"><style>.st0{fill:#fff}</style><path class="st0" d="M33 .1c1.7 0 3 1.3 3 3v8.4l-1.1-1.2-2.7 2.1c-.4-.2-.8-.3-1.2-.3h-7.3c-1.3 0-2.4 1.1-2.4 2.4v7.3c0 1.3 1.1 2.4 2.4 2.4H31c1.3 0 2.4-1.1 2.4-2.4v-2.7l2.7-3.4V33c0 1.7-1.3 3-3 3H19V.1h14m-8.5 15l2.6 3.3 7.5-6.4 1 1.2-8.4 8.8-5.4-4.7 2.7-2.2zm-9.3 13.3c0-.5.4-.9.8-1v1.9c-.4 0-.8-.4-.8-.9zm-1.6-1c.5 0 .9.4.9 1 0 .5-.4 1-.9 1s-.9-.4-.9-1 .4-1 .9-1zm-2.7 0c.5 0 .9.4.9 1 0 .5-.4 1-.9 1s-.9-.4-.9-1 .4-1 .9-1zm-2.6 0c.5 0 .9.4.9 1 0 .5-.4 1-.9 1s-.9-.4-.9-1 .4-1 .9-1zm6.9-1.6c0-.5.4-.9.8-1v1.9c-.4.1-.8-.4-.8-.9zm-1.6-.9c.5 0 .9.4.9 1s-.4 1-.9 1-.9-.4-.9-1 .4-1 .9-1zm-2.7 0c.5 0 .9.4.9 1s-.4 1-.9 1-.9-.4-.9-1 .4-1 .9-1zm-2.6 0c.5 0 .9.4.9 1s-.4 1-.9 1-.9-.4-.9-1 .4-1 .9-1zM2 23.4c-.4 0-.8.4-.8.8 0 .5.4.8.8.8h2.9v-1.7H2zm-.2-1.6H16v1.6H5.9v10.9H16V36H1.8c-1 0-1.8-.8-1.8-1.9V23.7c.1-1.1.8-1.9 1.8-1.9zM15.2 6.6c0-.5.4-.9.8-1v1.9c-.4 0-.8-.4-.8-.9zm-1.6-1c.5 0 .9.4.9 1 0 .5-.4 1-.9 1s-.9-.4-.9-1c0-.5.4-1 .9-1zm-2.7 0c.5 0 .9.4.9 1 0 .5-.4 1-.9 1s-.9-.4-.9-1c0-.5.4-1 .9-1zm-2.6 0c.5 0 .9.4.9 1 0 .5-.4 1-.9 1s-.9-.4-.9-1c0-.5.4-1 .9-1zm6.9-1.5c0-.5.4-.9.8-1V5c-.4 0-.8-.4-.8-.9zm-1.6-1c.5 0 .9.4.9 1 0 .5-.4 1-.9 1s-.9-.4-.9-1 .4-1 .9-1zm-2.7 0c.5 0 .9.4.9 1 0 .5-.4 1-.9 1s-.9-.4-.9-1 .4-1 .9-1zm-2.6 0c.5 0 .9.4.9 1 0 .5-.4 1-.9 1s-.9-.4-.9-1 .4-1 .9-1zM2 1.6c-.4 0-.8.4-.8.9s.4.8.8.8h2.9V1.6H2zM1.8.1H16v1.6H5.9v10.9H16v1.6H1.8c-1 0-1.8-.8-1.8-1.9V1.9C.1.9.8.1 1.8.1zM1.1 17H16v2.2H1.1c-.6 0-1.1-.5-1.1-1.1.1-.6.5-1.1 1.1-1.1z"/></svg>