<svg version="1.1" id="Layer_1" xmlns="http://www.w3.org/2000/svg" x="0" y="0" viewBox="0 0 36 36" xml:space="preserve"><style>.st0{fill:#fff}</style><path class="st0" d="M18.6 24.4c.9-.1 1.7-.4 2.2-1.1.6-.6.8-1.4.8-2.2 0-.7-.2-1.4-.6-1.8-.4-.4-1.3-.8-2.5-1.3v6.3M17.4 9.8c-.8.1-1.5.4-1.9.9-.4.5-.7 1.1-.7 1.8 0 .6.2 1.3.5 1.7.3.4 1.1.8 2.1 1.2V9.8zm0 19.3v-2.3c-1.2-.1-2.1-.4-2.7-.7-.7-.3-1.4-.9-1.8-1.8-.5-.8-.8-1.8-.9-2.9l2.3-.2c.2 1.1.5 1.8.9 2.3.6.6 1.4 1.1 2.2 1.2V18c-.9-.3-1.9-.6-2.8-1.2-.7-.4-1.3-.9-1.6-1.6-.4-.6-.5-1.5-.5-2.3 0-1.6.5-2.7 1.7-3.8.6-.7 1.8-1.1 3.2-1.2V6.8h1.3v1.1C20 8 21 8.4 21.8 9c1.1.8 1.6 2 1.8 3.5l-2.3.1c-.1-.7-.4-1.4-.8-1.8s-1.1-.7-1.8-.8v5.6c1.2.3 1.9.5 2.3.7.7.3 1.3.6 1.8 1.2.4.4.8.9 1.1 1.6.2.6.3 1.3.3 2 0 1.6-.5 2.8-1.6 3.9s-2.3 1.6-4 1.7v2.6h-1.2v-.2z"/></svg>