<svg version="1.1" id="Layer_1" xmlns="http://www.w3.org/2000/svg" x="0" y="0" viewBox="0 0 36 36" xml:space="preserve"><style>.st0{fill:#fff}</style><path class="st0" d="M4.7 19.9h2.8c.3 0 .6.2.6.5V22c0 .3-.3.5-.6.5H4.7c-.3 0-.6-.2-.6-.5v-1.6c0-.3.3-.5.6-.5m5.1-7.2h2.8c.3 0 .6.2.6.5v1.6c0 .3-.3.5-.6.5H9.8c-.3 0-.6-.2-.6-.5v-1.6c0-.2.3-.5.6-.5zm-5-7.4h2.8c.3 0 .6.2.6.5v1.6c0 .3-.3.5-.6.5H4.8c-.3 0-.6-.2-.6-.5V5.7c0-.2.3-.4.6-.4zm-.6-.9c-.5 0-.9.4-.9.9v2.4c0 .5.4.9.9.9h19.4c.5 0 .9-.4.9-.9V5.3c0-.5-.4-.9-.9-.9H4.2zM2.4.1h23c1.3 0 2.3 1 2.3 2.3v8.2h-11c-.9 0-1.7.5-2.1 1.2H4.2c-.5 0-.9.4-.9.9v2.4c0 .5.4.9.9.9h10.2v1.8l-.5 1.1H4.2c-.5 0-.9.4-.9.9v2.4c0 .5.4.9.9.9h7.7l-1.8 4-.6.4h-7c-1.3 0-2.3-1-2.3-2.3v-23c0-1 1-2.1 2.2-2.1zm27.7 25.2h-.8l1.5-1.5h.8l-1.5 1.5zm-2.7 0l1.5-1.5h.1l-1.6 1.5zm-.9 0h-.8l1.5-1.5h.8l-1.5 1.5zm-7.3 0h-.8l1.5-1.5h.8l-1.5 1.5zm5.4 0h-.8l1.5-1.5h.8l-1.5 1.5zm-1.8 0H22l1.5-1.5h.8l-1.5 1.5zm-1.8 0h-.9l1.5-1.5h.9L21 25.3zm-3.6 0h-.8l1.5-1.5h.8l-1.5 1.5zm16.5-1l.2.6-.5.5h-.8l1.1-1.1zm-.5-1.3l.2.6-1.7 1.7h-.8l2.3-2.3zm-.5-1.3l.2.6-1.3 1.3-.3-.6 1.4-1.3zm-.6-1.3l.2.6-1.3 1.3-.2-.5 1.3-1.4zm-6.4-.8h.9l-1.2 1.2h-.9l1.2-1.2zm3.6 0h.8l-1.2 1.2h-.8l1.2-1.2zm-1.8 0h.8l-1.2 1.2h-.8l1.2-1.2zm-3.6 0h.8l-1.2 1.2h-.8l1.2-1.2zm3.6-3.6v.8l-1.8 1.8h-.8l2.6-2.6zm-2.1-3.4h.8l-1.7 1.7h-.8l1.7-1.7zm-1.8 0h.8l-1.7 1.7h-.8l1.7-1.7zm-1.8 0h.8l-1.7 1.7h-.8l1.7-1.7zm-5.5 2.8v-.8l1.9-1.9h.8l-2.7 2.7zm4 3.2h-.8l1.7-1.7h.8l-1.7 1.7zm-1.8 0h-.8l1.7-1.7h.8l-1.7 1.7zm-1.9 1h.8l-2.1 2.1.6-1.4.7-.7zm7.4 13.9c-.4 0-.7.3-.7.7 0 .4.3.7.7.7.4 0 .7-.3.7-.7.1-.4-.3-.7-.7-.7zM14.6 31c-.2 0-.4.2-.4.4v.7c0 .2.2.4.4.4h19.2c.2 0 .4-.2.4-.4v-.7c0-.2-.2-.4-.4-.4H14.6zm1.4-4.8h3.8l-.6 3.4h4.6v-2.1H20v-1.3h8v1.3h-3.3v2.1h4.2l-.6-3.4h4v1.3h-3.1l.4 2.1h4.2l-1.4-3.4h.8l1.4 3.4h.4c.4 0 .8.3.8.7v4.8c0 .4-.3.7-.8.7H13.4c-.4 0-.8-.3-.8-.7v-4.8c0-.4.3-.7.8-.7h.3l1.4-3.4h.8l-1.4 3.4h3.9l.4-2.1H16v-1.3zm9.7-11.5l-.1-.2 1.7-1.7c.2.1.3.3.4.5l-2 2v-.6zm-7.2 1.9c0 .1.1.2.1.3l-1.7 1.7c-.2-.1-.4-.2-.4-.4l2-2v.4zm.3-2.3c-.2 0-.4.1-.4.3v.5l-2 2v-.8l3.7-3.7h.9l-1.7 1.7h-.5zm-2.3 9.6h.5l-1.5 1.5h-.8l2-2-.2.5zm1.3-3.1l-.3.8-3.2 3.2.6-1.4 3.8-3.8h.8l-1.2 1.2h-.5zM32 19.6l.1.1-1.3 1.3-.1-.2h-.5l1.2-1.2h.6zm-8.7-1v.8l-1.5 1.5H21l3.9-3.9h.4c.2 0 .4-.1.4-.3v-.4l2-2v.7l-3.6 3.6h-.8zm4.4-.7c0 .4-.3.7-.7.7h-.1l.8-.8v.1zm-11.2-4.6c0-.4.3-.7.7-.7h.2l-.9.9v-.2zm4.4 6.3v-.4l2.3-2.3h.8l-3.9 3.9h-.8l1.2-1.2h.4z"/></svg>