<svg version="1.1" id="Layer_1" xmlns="http://www.w3.org/2000/svg" x="0" y="0" viewBox="0 0 36 36" xml:space="preserve"><style>.st0{fill:#fff}</style><path class="st0" d="M25.7 19.7h-1.2l2.2-2.2H28l-2.3 2.2m-2.6 0h-1.2l2.2-2.2h1.2l-2.2 2.2zm-10.7 0h-1.2l2.2-2.2h1.2l-2.2 2.2zm8 0h-1.2l2.2-2.2h1.2l-2.2 2.2zm-2.7 0h-1.2l2.2-2.2H20l-2.3 2.2zm-2.6 0h-1.3l2.2-2.2h1.3l-2.2 2.2zm-5.3 0H8.5l2.2-2.2H12l-2.2 2.2zm-2.7 0H5.9l2.2-2.2h1.2l-2.2 2.2zm25.4-2.6l.4.9-1.8 1.8h-1.2l2.6-2.7zm-1.6-3.8l.4.9-2 2-.4-.9 2-2zm-.8-1.9l.4.9-2 2-.4-.9 2-2zm-7.5-.5h1.3L22 12.8h-1.3l1.9-1.9zm5.4 0h1.2l-1.9 1.9h-1.2l1.9-1.9zm-2.7 0h1.2l-1.9 1.9h-1.2l1.9-1.9zm-5.3 0h1.2l-1.9 1.9h-1.2l1.9-1.9zm-2.7 0h1.2l-1.9 1.9h-1.2l1.9-1.9zm6.1-6.1V6l-3.2 3.2H19l4.4-4.4zM20.1.2h1.2l-2.6 2.6h-1.2L20.1.2zm-2.7 0h1.2L16 2.8h-1.2L17.4.2zm-2.6 0H16l-2.6 2.6h-1.2L14.8.2zM6.1 4.7V3.5L9.4.2h1.3L6.1 4.7zm6.1 4.6H11l2.6-2.6h1.2l-2.6 2.6zm-2.7 0H8.3l2.6-2.6h1.2L9.5 9.3zm-2.8 1.6h1.2l-3.2 3.2.9-2.1 1.1-1.1zM18 32.2c-.6 0-1.1.5-1.1 1 0 .6.5 1 1.1 1s1.1-.5 1.1-1-.5-1-1.1-1zM3.2 28.4c-.3 0-.6.3-.6.6v1.1c0 .3.3.6.6.6h29.6c.3 0 .6-.3.6-.6V29c0-.3-.3-.6-.6-.6H3.2zM5.4 21H11.2l-.9 5.3h7.1v-3.2h-5.8V21h12.1v2.1h-5.1v3.2H25l-.9-5.3h6.3v2.1h-4.7l.6 3.2h6.5L30.6 21h1.3l2.1 5.3h.6c.7 0 1.2.5 1.2 1.1v7.3c0 .6-.5 1.1-1.2 1.1H1.3c-.7 0-1.2-.5-1.2-1.1v-7.3c0-.6.5-1.1 1.2-1.1h.4L3.9 21h1.3L3 26.3h6l.7-3.3H5.4v-2zM20.3 3.3c0-.2-.1-.3-.3-.4L22.6.3c.3.1.5.3.6.6l-3 3v-.6zM9.2 6.2c0 .2.1.4.3.4L6.9 9.2c-.3 0-.6-.2-.7-.5l3-3v.5zm.5-3.4c-.3 0-.5.2-.5.5v1L6.1 7.4V6.2l6-6h1.2l-2.6 2.6h-1zm20 14.6l-.1-.2 2-2 .4.8-3.6 3.6h-1.2l2.2-2.2h.3zm-23.5 0h.5l-2.2 2.2H3.2l3.5-3.5-.5 1.3zm1.9-4.6l-.4 1-4.9 4.9.9-2.1 5.7-5.7h1.2l-1.9 1.9h-.6zm25.5 6.9h-1l.7-.7.3.7zm-17-10.4v.9L14 12.8h-1.2l6-6h.9c.3 0 .5-.2.5-.5v-1l3.1-3.1v1.2l-5.9 5.9h-.8zm6.8-1c0 .6-.5 1-1.1 1h-.7l1.8-1.8v.8zM6.1 1.2c0-.6.5-1 1.1-1H8L6.1 2v-.8zm6.7 9.7v-.8l3.3-3.3h1.2l-6 6h-1.2l1.9-1.9h.8z"/></svg>