<svg version="1.1" id="Layer_1" xmlns="http://www.w3.org/2000/svg" x="0" y="0" viewBox="0 0 36 36" xml:space="preserve"><style>.st0{fill:#fff}</style><path class="st0" d="M23.4 6.9c-.1 0-.2 0-.3.1-.1.1-.1.2-.1.4 0 .1 0 .2.1.3.1.1.2.1.3.1.1 0 .2 0 .3-.1.1-.1.1-.2.1-.3 0-.1 0-.2-.1-.3-.1-.1-.2-.2-.3-.2m0 1.7c-.1 0-.2 0-.3.1-.1.1-.1.2-.1.4 0 .1 0 .2.1.3.1.1.2.1.3.1.1 0 .2 0 .3-.1.1-.1.1-.2.1-.3 0-.1 0-.2-.1-.3-.1-.1-.2-.2-.3-.2zM12 5.3c-.1 0-.2 0-.3.1-.1.1-.1.2-.1.3 0 .1 0 .2.1.3.1.1.2.1.3.1.1 0 .2 0 .3-.1.1-.1.1-.2.1-.3 0-.1 0-.2-.1-.3-.1-.1-.2-.1-.3-.1zM12 7c-.1 0-.2 0-.3.1-.1.1-.1.2-.1.3 0 .1 0 .2.1.3.1.1.2.1.3.1.1 0 .2 0 .3-.1.1-.1.1-.2.1-.3 0-.1 0-.2-.1-.3-.1-.1-.2-.1-.3-.1zm0 1.7c-.1 0-.2 0-.3.1-.1.1-.1.2-.1.3 0 .1 0 .2.1.3.1.1.2.1.3.1.1 0 .2 0 .3-.1.1-.1.1-.2.1-.3 0-.1 0-.2-.1-.3-.1-.1-.2-.1-.3-.1zm0 1.6c-.1 0-.2 0-.3.1-.1.1-.1.2-.1.3 0 .1 0 .2.1.3.1.1.2.1.3.1.1 0 .2 0 .3-.1.1-.1.1-.2.1-.3 0-.1 0-.2-.1-.3-.1 0-.2-.1-.3-.1zm0 1.7c-.1 0-.2 0-.3.1-.1.1-.1.2-.1.3 0 .1 0 .2.1.3.1.1.2.1.3.1.1 0 .2 0 .3-.1.1-.1.1-.2.1-.3 0-.1 0-.2-.1-.3-.1 0-.2-.1-.3-.1zm0 1.7c-.1 0-.2 0-.3.1-.1.1-.1.2-.1.3 0 .1 0 .2.1.3.1.1.2.1.3.1.1 0 .2 0 .3-.1.1-.1.1-.2.1-.3 0-.1 0-.2-.1-.3-.1 0-.2-.1-.3-.1zm0 1.7c-.1 0-.2 0-.3.1-.1.1-.1.2-.1.3 0 .1 0 .2.1.3.1.1.2.1.3.1.1 0 .2 0 .3-.1.1-.1.1-.2.1-.3 0-.1 0-.2-.1-.3-.1-.1-.2-.1-.3-.1zm0 1.7c-.1 0-.2 0-.3.1-.1.1-.1.2-.1.3 0 .1 0 .2.1.3 0 .2.1.2.3.2.1 0 .2 0 .3-.1.1-.1.1-.2.1-.3 0-.1 0-.2-.1-.3-.1-.2-.2-.2-.3-.2zm0 1.7c-.1 0-.2 0-.3.1-.1.1-.1.2-.1.3 0 .1 0 .2.1.3.1.1.2.1.3.1.1 0 .2 0 .3-.1.1-.1.1-.2.1-.3 0-.1 0-.2-.1-.3-.1-.1-.2-.1-.3-.1zM7.5 3c-.2 0-.4.2-.4.5v10.1c0 .2.2.4.4.4s.4-.2.4-.4V3.5c0-.3-.2-.5-.4-.5zm13 1.6c-.2 0-.3.2-.3.4s.2.4.3.4H26c.2 0 .3-.2.3-.4s-.2-.4-.3-.4h-5.5zm0-2.5c-.2 0-.3.2-.3.4s.2.4.3.4H26c.2 0 .3-.2.3-.4s-.2-.4-.3-.4h-5.5zm-16.7 23H1c-.1 0-.2.1-.2.3 0 .2.1.3.2.3h2.7c.1 0 .2-.1.2-.3 0-.1 0-.3-.1-.3zm0-1.8H1c-.1 0-.2.1-.2.3 0 .2.1.3.2.3h2.7c.1 0 .2-.1.2-.3 0-.2 0-.3-.1-.3zm0-13.3H1.1c-.1 0-.2.1-.2.3 0 .2.1.3.2.3h2.7c.1 0 .2-.1.2-.3 0-.2-.1-.3-.2-.3zm0-1.8H1.1c-.1 0-.2.1-.2.3s.1.3.2.3h2.7c.1 0 .2-.2.2-.3s-.1-.3-.2-.3zM11 3.8h2c.5 0 .9.4.9.9v15l-1 2.8-1.6 5.2h-.5c-.4-.1-.6-.5-.6-.9v-22c-.1-.5.3-1 .8-1zM6.9 1.7H8c.6 0 1 .4 1 .9v24.3c0 .5-.4.9-.9.9H6.9c-.5 0-.9-.4-.9-.9V2.6c0-.5.4-.9.9-.9zM16 .2h1c.5 0 .9.4.9.9v9.5h-2.3l-.4.1V1.1c-.1-.5.3-.9.8-.9zM1.1 5.9h2.8c.5 0 .9.4.9.9v20c0 .5-.4.9-.9.9H1.1c-.5 0-.9-.4-.9-.9v-20c0-.5.4-.9.9-.9zM19.9.2h6.9c.5 0 .9.4.9.9v9.5h-3.8l-.1-.2c-.1-.1-.2-.1-.3-.1-.1 0-.2 0-.3.1l-.2.2h-4V1.1c-.1-.5.3-.9.9-.9zm9.4 25.1h-.8l1.5-1.5h.8l-1.5 1.5zm-1.7 0h-.8l1.5-1.5h.7l-1.4 1.5zm-7 0h-.8l1.5-1.5h.8l-1.5 1.5zm5.2 0H25l1.5-1.5h.8l-1.5 1.5zm-1.7 0h-.8l1.5-1.5h.8l-1.5 1.5zm-1.7 0h-.8l1.5-1.5h.8l-1.5 1.5zm-3.5 0h-.8l1.5-1.5h.8l-1.5 1.5zm-1.7 0h-.8l1.5-1.5h.8l-1.5 1.5zm16.5-1.6l.2.6-1.1 1.1H32l1.7-1.7zm-1.1-2.5l.2.6-1.3 1.3-.2-.6 1.3-1.3zm-.5-1.2l.2.6-1.3 1.3-.2-.6 1.3-1.3zm-4.8-.4h.8l-1.2 1.2H26l1.3-1.2zm3.4 0h.8l-1.2 1.2h-.8l1.2-1.2zm-1.7 0h.8l-1.2 1.2h-.8l1.2-1.2zm-3.4 0h.8l-1.2 1.2h-.8l1.2-1.2zm-1.8 0h.8l-1.2 1.2h-.8l1.2-1.2zm4-3.9v.8l-2.1 2.1h-.8l2.9-2.9zm-2.2-3h.8l-1.7 1.7h-.8l1.7-1.7zm-1.7 0h.8L23 14.4h-.8l1.7-1.7zm-1.7 0h.8l-1.7 1.7h-.8l1.7-1.7zm-5.7 2.9v-.8l2.1-2.1h.8l-2.9 2.9zm4 3h-.8l1.7-1.7h.8l-1.7 1.7zm-1.8 0H18l1.7-1.7h.8l-1.8 1.7zm-1.8 1h.8l-2.1 2.1.6-1.3.7-.8zm7.4 13.9c-.4 0-.7.3-.7.7 0 .4.3.7.7.7.4 0 .7-.3.7-.7 0-.4-.3-.7-.7-.7zM14.6 31c-.2 0-.4.2-.4.4v.7c0 .2.2.4.4.4h19.2c.2 0 .4-.2.4-.4v-.7c0-.2-.2-.4-.4-.4H14.6zm1.5-4.8h3.8l-.6 3.4h4.6v-2.1h-3.8v-1.3H28v1.3h-3.3v2.1h4.1l-.6-3.4h4.1v1.3h-3.1l.4 2.1h4.2l-1.4-3.4h.8l1.4 3.4h.4c.4 0 .8.3.8.7v4.8c0 .4-.3.7-.8.7H13.4c-.4 0-.8-.3-.8-.7v-4.8c0-.4.3-.7.8-.7h.3l1.4-3.4h.8l-1.4 3.4h3.9l.4-2.1H16v-1.3zm9.6-11.5c0-.1-.1-.2-.2-.3l1.7-1.7c.2.1.3.2.4.4l-2 2v-.4zm-7.2 1.9c0 .1.1.2.2.3L17 18.6c-.2-.1-.4-.2-.4-.3l1.9-1.9v.2zm.4-2.2c-.2 0-.4.1-.4.3v.6l-2 2v-.8l3.9-3.9h.8l-1.7 1.7h-.6zm13 9.5l-.1-.1 1.3-1.3.2.6-2.3 2.2h-.8l1.5-1.5h.2zm-15.3 0h.3l-1.5 1.5h-.8l2.2-2.2-.2.7zm1.2-3l-.3.6-3.2 3.2.6-1.3 3.7-3.7h.8l-1.2 1.2h-.4zm16.6 4.4h-.7l.5-.5.2.5zm-11-6.7v.6l-1.7 1.7h-.8l3.9-3.9h.6c.2 0 .4-.1.4-.3V16l2-2v.8L24 18.6h-.6zm4.4-.7c0 .4-.3.7-.7.7h-.4l1.2-1.2v.5zm-11.3-4.6c0-.4.3-.7.7-.7h.5l-1.2 1.2v-.5zm4.4 6.3v-.5l2.2-2.2h.8L20 20.8h-.8l1.2-1.2h.5z"/></svg>