<svg xmlns="http://www.w3.org/2000/svg" viewBox="0 0 200 200"><path d="M77.19 144.74c0 1.54-.05 2.58-.16 3.13-.11.54-.33.98-.63 1.32-.24.32-.55.58-.95.78-.42.24-.91.35-1.47.35-.56 0-1.04-.12-1.44-.35-.41-.2-.74-.46-.99-.78-.31-.34-.51-.78-.61-1.32-.11-.54-.17-1.59-.17-3.13s.06-2.59.17-3.15c.1-.53.3-.96.61-1.3.25-.32.58-.59.99-.81.4-.21.88-.32 1.44-.33.57.01 1.06.12 1.47.33.39.21.71.48.95.81.31.34.52.77.63 1.3.1.57.16 1.61.16 3.15zm12.64-5.14c-.49-.31-1.05-.46-1.7-.44H84.7v5.06h3.51c.88-.01 1.54-.29 1.99-.82.42-.52.63-1.09.63-1.72 0-.52-.09-.96-.26-1.32-.16-.32-.42-.57-.74-.76zm-25.71 1.69c-.01-.82-.28-1.41-.78-1.77-.4-.32-.98-.48-1.74-.48h-3.72v4.75h3.59c.89-.01 1.55-.27 2-.77.43-.48.65-1.05.65-1.73zm-14.47-.81c-.66-.91-1.59-1.35-2.79-1.32h-2.84v11.17h2.84c1.33 0 2.3-.46 2.9-1.36.26-.34.43-.76.5-1.28.06-.51.1-1.46.1-2.86 0-1.36-.03-2.33-.1-2.92-.09-.59-.29-1.07-.61-1.43zm78.38-.36l-2.27 6.84h4.58l-2.27-6.84h-.04zM199 1v198H1V1h198zM94.61 33.89l4.94-.45 1.35-5.9 55.22 13.15-12.8 53.3-24.92-5.9 1.57 17.01 24.02 5.67 17.51-73.26-64.2-15.2-2.69 11.58zm28.06 14.29l-5.84 24.95 1.12 11.11 3.82.91c1.12.23 2.24-.45 2.47-1.59l8.31-34.93c.22-1.13-.45-2.27-1.57-2.49l-10.78-2.49c-1.12-.23-2.24.45-2.47 1.59l-2.47 10.66.9 9.3 4.27-17.46c.22-.68.9-1.13 1.57-.91s1.12.89.67 1.35zm.68-4.99l5.39 1.36c.45.23.9-.23 1.12-.68l.67-3.18c.22-.45-.22-.91-.67-1.13l-5.39-1.36c-.67-.23-1.12.23-1.35.68l-.67 3.18c0 .67.22 1.13.9 1.13zm12.34 31.29l-2.02 8.16c-.22 1.13-1.35 1.81-2.47 1.59l-4.27-1.13-.45-.23-.45 1.36c-.22 1.13.45 2.27 1.57 2.49l10.33 2.49c1.12.23 2.24-.45 2.47-1.59l3.82-15.88-14.37-3.4-.67 2.49h.45l4.49.91c1.12.25 1.8 1.38 1.57 2.74zm8.98-4.76l.45-2.04c.22-1.13-.45-2.27-1.57-2.49l-10.33-2.49c-1.12-.23-2.24.45-2.47 1.59l-.45 2.04 14.37 3.39zM38.71 48.86l11.9 74.39 65.1-10.43-12.12-74.39-64.88 10.43zm-11.67 77.56h16.61l-1.12-6.8H27.04v6.8zm25.69 18.32c0-1.58-.04-2.7-.12-3.34-.1-.64-.34-1.26-.72-1.85-1.06-1.75-2.65-2.63-4.77-2.64h-5.48v15.66h5.32c1.17 0 2.17-.26 2.98-.77.82-.48 1.45-1.09 1.91-1.83.17-.28.32-.55.44-.81.11-.26.2-.57.26-.9.12-.66.18-1.83.18-3.52zm14.23 7.84l-3.63-6.95c1.99-.77 3-2.21 3.03-4.34-.04-1.45-.56-2.56-1.56-3.34-.82-.69-1.89-1.03-3.19-1.03H55.5v15.66h2.37v-6.69h3.03l3.23 6.69h2.83zm7.02.12c1.25-.03 2.28-.33 3.12-.9.82-.55 1.42-1.19 1.78-1.91.26-.38.45-.88.55-1.51.09-.63.14-1.84.14-3.63 0-1.82-.05-3.04-.14-3.65-.1-.62-.28-1.11-.55-1.49-.37-.72-.96-1.37-1.78-1.93-.83-.57-1.87-.87-3.12-.88-1.23.01-2.26.31-3.08.88-.84.57-1.45 1.21-1.83 1.93-.24.38-.41.88-.53 1.49-.11.62-.16 1.83-.16 3.65 0 1.79.05 3 .16 3.63.06.34.13.62.21.84.09.21.2.44.31.68.38.72.99 1.36 1.83 1.91.83.57 1.86.87 3.09.89zm12.55 6.21h-2.37v6.71h-6.2v-6.71h-2.37v15.66h2.37v-6.84h6.2v6.84h2.37v-15.66zm1.79-12.45c1.61-.03 2.84-.54 3.67-1.55.82-.95 1.22-2.01 1.22-3.17 0-.86-.16-1.6-.48-2.23-.31-.65-.71-1.15-1.2-1.5-.59-.47-1.17-.77-1.74-.92-.57-.11-1.17-.17-1.78-.17h-5.67v15.66h2.37v-6.11h3.61zm11.52 12.45h-10v15.66h10v-2.25h-7.63v-4.6h6.51v-2.11h-6.51v-4.47h7.63v-2.23zm13.7 15.67l-3.63-6.95c1.99-.77 3-2.21 3.03-4.34-.04-1.45-.56-2.56-1.56-3.34-.82-.69-1.89-1.03-3.19-1.03h-6.11v15.66h2.37v-6.69h3.03l3.23 6.69h2.83zm-10.52-22v-15.66h-2.37v15.66h2.37zm10.97-2.25l3.28-7.52h.05v9.76h2.37v-15.66h-2.25l-4.4 10.21-4.49-10.21h-2.23v15.66h2.37v-9.76h.04l3.28 7.52h1.98zm11.5 8.58h-10v15.66h10v-2.25h-7.63v-4.6h6.51v-2.11h-6.51v-4.47h7.63v-2.23zm9.24-6.33l-5.69-15.66h-1.99l-5.69 15.66h2.51l1.2-3.5h5.94l1.21 3.5h2.51zm11.93-8.63h-5.56v2.25h3.19v.82c-.01.98-.32 1.77-.92 2.37-.6.63-1.36.95-2.29.95-.56 0-1.04-.12-1.44-.35-.41-.2-.74-.46-.99-.78-.31-.34-.51-.78-.61-1.32-.11-.54-.17-1.59-.17-3.13s.06-2.59.17-3.15c.1-.53.3-.96.61-1.3.25-.32.58-.59.99-.81.4-.21.88-.32 1.44-.33.76.01 1.4.23 1.93.66.51.44.86.98 1.05 1.61h2.51c-.25-1.31-.85-2.41-1.8-3.3-.95-.88-2.18-1.33-3.7-1.34-1.23.01-2.26.31-3.08.88-.84.57-1.45 1.21-1.83 1.93-.24.38-.41.88-.53 1.49-.11.62-.16 1.83-.16 3.65 0 1.79.05 3 .16 3.63.06.34.13.62.21.84.09.21.2.44.31.68.38.72.99 1.36 1.83 1.91.82.57 1.85.87 3.08.9 1.6-.03 2.92-.57 3.97-1.62 1.05-1.06 1.58-2.37 1.61-3.94v-3.2zm12.77-7.04h-10v15.66h10v-2.25h-7.63v-4.6h6.51v-2.11h-6.51v-4.47h7.63v-2.23zm13.53-17.29h-57.02l-43.33 6.8h100.35v-6.8zm-62.27 43.67c-.01-.82-.28-1.41-.78-1.77-.4-.32-.98-.48-1.74-.48h-3.72v4.75h3.59c.89-.01 1.55-.27 2-.77.43-.48.65-1.05.65-1.73zM99.78 43.41l-56.12 9.07 8.76 54.21 56.12-9.07-8.76-54.21zm-14.6 20.41c1.12 7.03-2.47 13.38-7.86 14.06-5.39.91-10.78-4.08-11.9-11.11-1.12-7.03 2.24-13.38 7.86-14.06 5.39-.91 10.78 4.08 11.9 11.11zm-2.02 21.55s5.39-14.06 13.24 4.31c-2.02.91-3.37 3.63-3.14 7.03l-22.9 3.63c-2.02-4.76-5.84-7.94-9.88-7.71 1.8-7.71 6.06-16.33 15.71-6.8.01-.01 4.5 4.53 6.97-.46z"/></svg>