<svg version="1.1" id="Layer_1" xmlns="http://www.w3.org/2000/svg" x="0" y="0" viewBox="0 0 36 36" xml:space="preserve"><style>.st0{fill:#fff}</style><path class="st0" d="M26.7.1c.6 0 .8.3.8.8l.1 1.4L3.3 6.9l3.4 24.4L.2 4.6c-.3-1.9 0-2.1 1.2-2.3l8.6-1c1-.2 1.2.4 1.3 1.3L26.7.1m-19 9.5l24.1-5.3-.1.8-22.8 5.3-1.8 18.9.6-19.7zM5 7.9L29.6 3l-.1.8L6.2 8.6 7 29.9l-2-22zm8.1 2.6l21.7-4.9c1.2-.3 1.3.2 1 .9l-2.5 6.8c-1.3-2-3.4-3.3-5.7-3.3-4 0-7.2 4-7.2 8.9 0 1.8.5 3.5 1.2 5-2 .2-3.7 2.2-5 4.4L6.8 32l4.7-20c.1-.7.7-1.3 1.6-1.5zm13.4 18.7s1.8 2.6 3.4.4c0 0 3.7-6.5 6 3.2-1.1.2-1.9 1.5-2.1 3.2H22.5c-.6-2.5-2.2-4.3-4.1-4.6 1.4-3.8 4.1-7.6 8.1-2.2zm1.1-16.5c2.7 0 4.9 2.8 4.9 6.3s-2.2 6.3-4.9 6.3-4.9-2.8-4.9-6.3 2.2-6.3 4.9-6.3z"/></svg>