<svg version="1.0" id="Layer_2" xmlns="http://www.w3.org/2000/svg" x="0" y="0" viewBox="0 0 36 36" xml:space="preserve"><style>.st0{fill:#fff}</style><path class="st0" d="M26.31 8.94c3.11 0 5.63 3.28 5.63 7.33 0 4.04-2.52 7.33-5.63 7.33s-5.63-3.28-5.63-7.33c0-4.05 2.52-7.33 5.63-7.33zm2.6 19.58c-1.78 2.6-3.89-.43-3.89-.43-4.56-6.27-7.7-1.8-9.43 2.53 2.22.27 4.08 2.4 4.79 5.31H33.5c.18-1.92 1.18-3.43 2.43-3.69-2.75-11.22-7.02-3.72-7.02-3.72zM4.76 26.78h9.61c-.8 1.21-1.49 2.55-2.04 3.84H2.46a2.39 2.39 0 01-2.39-2.39V2.46A2.39 2.39 0 012.46.07h19.66a2.39 2.39 0 012.39 2.39v3.55c-1.37.32-2.62 1.09-3.65 2.19H4.77a1.23 1.23 0 100 2.46h14.41c-.42.87-.75 1.82-.96 2.83H4.77a1.23 1.23 0 100 2.46h13.18v.19c0 .97.1 1.91.3 2.8H4.76a1.23 1.23 0 100 2.46h14.31l.6 1.12c-1.17.18-2.27.84-3.27 1.78H4.76c-.68 0-1.23.55-1.23 1.23 0 .7.55 1.25 1.23 1.25zM3.54 4.21c0 .68.55 1.23 1.23 1.23h14.88a1.23 1.23 0 100-2.46H4.77c-.68-.01-1.23.55-1.23 1.23zm1.34.75c.41 0 .75-.34.75-.75s-.34-.75-.75-.75-.75.33-.75.75.33.75.75.75zm-.75 4.48c0 .41.34.75.75.75s.75-.34.75-.75-.34-.75-.75-.75-.75.34-.75.75zm0 5.34c0 .41.34.75.75.75s.75-.34.75-.75-.34-.75-.75-.75-.75.34-.75.75zm0 5.45c0 .41.34.75.75.75s.75-.34.75-.75-.34-.75-.75-.75-.75.33-.75.75zm0 5.31c0 .41.34.75.75.75s.75-.34.75-.75-.34-.75-.75-.75-.75.34-.75.75zM7.05 4.96h6.78c.41 0 .75-.34.75-.75s-.34-.75-.75-.75H7.05c-.41 0-.75.34-.75.75s.34.75.75.75zm0 3.73c-.41 0-.75.34-.75.75s.34.75.75.75h9.31c.41 0 .75-.34.75-.75s-.34-.75-.75-.75H7.05zm0 5.34c-.41 0-.75.34-.75.75s.34.75.75.75h4.87c.41 0 .75-.34.75-.75s-.34-.75-.75-.75H7.05zm0 5.45c-.41 0-.75.34-.75.75s.34.75.75.75h7.58c.41 0 .75-.34.75-.75s-.34-.75-.75-.75H7.05zm0 5.31c-.41 0-.75.34-.75.75s.34.75.75.75h3.24c.41 0 .75-.34.75-.75s-.34-.75-.75-.75H7.05z"/></svg>