<svg version="1.1" id="Layer_1" xmlns="http://www.w3.org/2000/svg" x="0" y="0" viewBox="0 0 36 36" xml:space="preserve"><style>.st0{fill:#5e8e99}</style><path class="st0" d="M24.9 4.8L31.3 6c1.6.3 2.4 1.5 2.1 3.1l-3.6 22.6c-.1.8-.6 1.5-1.2 1.9l3.7-24.3c.2-1.3 0-2.5-1.9-2.8l-7-1.5c.4-.2 1-.3 1.5-.2m-4.7-2.9c-.2 0-.4.1-.4.3 0 .2.1.4.3.4.2 0 .4-.1.4-.3 0-.2-.1-.4-.3-.4zm.1-.5c.5.1.8.6.7 1.1-.1.5-.6.8-1.1.7-.5-.1-.8-.6-.7-1.1.1-.5.6-.8 1.1-.7zM20.2 6l-.3 1.2-1.8-.4.3-1.2 1.8.4zm-1.1 23.8c-.5-.1-1 .2-1.1.7-.1.5.2 1 .7 1.1.5.1 1-.2 1.1-.7.1-.5-.2-1-.7-1.1zm-2.6-.6c-.5-.1-1 .2-1.1.7-.1.5.2 1 .7 1.1.5.1 1-.2 1.1-.7.1-.5-.2-1-.7-1.1zm-2.5-.6c-.5-.1-1 .2-1.1.7-.1.5.2 1 .7 1.1.5.1 1-.2 1.1-.7.1-.4-.2-.9-.7-1.1zm-2.5-.5c-.5-.1-1 .2-1.1.7-.1.5.2 1 .7 1.1.5.1 1-.2 1.1-.7.1-.5-.2-1-.7-1.1zM9 27.5c-.5-.1-1 .2-1.1.7-.1.5.2 1 .7 1.1.5.1 1-.2 1.1-.7.2-.4-.1-1-.7-1.1zM12 10c-.7-.2-1.4.3-1.5 1L7.6 23.8c-.2.7.3 1.4 1 1.5l11.2 2.6c.7.2 1.4-.3 1.5-1l2.9-12.8c.2-.7-.3-1.4-1-1.5L12 10zm-1.2-6.2l6.1 1.4-.3 1.2c-.4 0-.7.2-.8.6-.1.4.2.8.6.9l4.6 1c.4.1.8-.2.9-.6.1-.3-.1-.7-.5-.8l.3-1.2 6.1 1.4c1.3.3 2.1 1.6 1.8 2.9l-5.3 23.5c-.3 1.3-1.6 2.1-2.9 1.8L4.4 32c-1.3-.3-2.1-1.6-1.8-2.9L7.9 5.6c.3-1.3 1.6-2.1 2.9-1.8zm4 18.4s.7 1.8 1.9.7c0 0 3-3.3 3.1 2.7-.7 0-1.3.6-1.6 1.6l-6.6-1.5c0-1.5-.7-2.8-1.8-3.2 1.3-2.1 3.4-4 5-.3zm2.8-9.5c1.6.4 2.5 2.3 2 4.3s-2.1 3.4-3.7 3c-1.6-.4-2.5-2.3-2-4.3s2.1-3.4 3.7-3zM19.3.6c-.2 0-.3.1-.4.2l-1.3 5.7c0 .2.1.3.2.4l2.2.5c.2 0 .3-.1.4-.2l1.3-5.7c0-.2-.1-.3-.2-.4L19.3.6zm-.1-.5l2.7.6c.3.1.5.4.5.7L21 7.5c-.2.3-.5.5-.8.5l-2.7-.6c-.3-.1-.5-.4-.5-.8L18.4.5c.1-.3.4-.5.8-.4z"/></svg>