<svg version="1.1" id="Layer_1" xmlns="http://www.w3.org/2000/svg" x="0" y="0" viewBox="0 0 36 36" xml:space="preserve"><style>.st0{fill:#fff}</style><path class="st0" d="M14.1 10H6.7v1.3h7.4c.3 0 .6-.3.6-.7-.1-.3-.3-.6-.6-.6m-10.2.7c0 .4.2.7.6.7h1V10h-1c-.4 0-.6.3-.6.7zm10.2 5.1H6.7v1.3h7.4c.3 0 .6-.3.6-.7s-.3-.6-.6-.6zm-10.2.7c0 .4.2.7.6.7h1v-1.3h-1c-.4-.1-.6.2-.6.6zm6.6 2.1H6.7V20h3.8c.3 0 .6-.3.6-.7s-.3-.7-.6-.7zm-6.7.7c0 .4.2.7.6.7h1v-1.3h-1c-.3-.1-.6.2-.6.6zm10.3-6.4H6.7v1.3h7.4c.3 0 .6-.3.6-.7-.1-.3-.3-.6-.6-.6zm-10.2.6c0 .4.2.7.6.7h1v-1.3h-1c-.4 0-.6.3-.6.6zM9.2 1.2c-.7 0-1.2.5-1.2 1.2s.6 1.3 1.3 1.3c.7 0 1.3-.6 1.3-1.3-.1-.7-.7-1.2-1.4-1.2zm0 3.6c-.9 0-1.7-.5-2.1-1.3-.7.6-2 1.1-4.1 1.6 0 0-1.6.4-1.6 1.8h15.8c0-1.5-1.6-1.8-1.6-1.8-2.2-.4-3.4-1-4.2-1.5-.5.7-1.2 1.2-2.2 1.2zm0-4.6c1.1 0 2 .8 2.3 1.8h4.7c1.1 0 2.1.9 2.1 2.1v4.6c-1 1.8-1.6 3.9-1.6 6.2 0 2.3.6 4.4 1.5 6.1-2.1.2-3.9 1.9-5.4 4.1H2.2C1.1 25.1.1 24.2.1 23V4c0-1.1.9-2.1 2.1-2.1H7C7.2.9 8.1.2 9.2.2zm15.1 27.3s2.2 3.2 4.1.5c0 0 4.5-8 7.5 4-1.3.3-2.4 1.9-2.6 3.9h-14c-.8-3.1-2.7-5.4-5.1-5.6 1.9-4.7 5.2-9.5 10.1-2.8zm1.3-20.3c3.3 0 6 3.5 6 7.8s-2.7 7.8-6 7.8-6-3.5-6-7.8c.1-4.3 2.7-7.8 6-7.8z"/></svg>