<svg version="1.1" id="Layer_1" xmlns="http://www.w3.org/2000/svg" x="0" y="0" viewBox="0 0 36 36" xml:space="preserve"><style>.st0{fill:#fff}</style><path class="st0" d="M1.5 14.2l1.6.2c0-1.8 1.3-2.9 1.3-2.9l-1-.8c-1.8 1.2-1.9 3.5-1.9 3.5m10.6-9.5l1.5 1c.9-1.8 2.8-2.4 2.8-2.4L15.8 2c-2.4.5-3.7 2.7-3.7 2.7zm21.7 8.6c1.2 1.2 2 2.8 2 4.5l-2-4.5zm-8 14.4c.5.2.8.8.7 1.5l-.8-.2-3.3 6.9h-2c1.1-2 3.1-5.8 4.2-7.3l-.6-.3c.4-.7 1.3-.8 1.8-.6zm1.1-.2l.3-.5.2.4-.5.1zm4.5-15.7c.4.1.8.3 1.2.5l.1.2c.5.6 1.1 1.8 1.4 3.1l1.6 3.7-.3.9-1.3-3-.2.6-.2.4 1.3 2.9-.4.6-1.2-2.8-.4 1 1.2 2.6-.4.5-1.1-2.5-.5.8 1 2.3-.5.5-1-2.2-.5.7.9 2-.5.4-.8-1.8-.5.6.7 1.7-.5.4-.7-1.5-.5.6.6 1.4-.5.3-.5-1.2-.6.5.4 1-.6.2-.4-.8-1 .6c-.2.3-.5.4-.7.4l-.2-.1-.2-.1c-.3-.3-.3-1-.2-2-.2.2-.3.4-.4.7-.1.3-.1.6-.1.8-1.2-1.2-2.2-4-2.4-6.7 1.5-1.6 3-3.8 4-5.9 1.4-.3 2.5-.1 2.5-.1l.1-1.3c-.6-.2-1.2-.2-1.7-.2l.3-.9c1.2-.3 2.5-.2 3.7.2zM11.2 25.1c.6-.2 1.2.2 1.6.8l-.6.2c1 1.9 3.6 8.2 4.2 9.7h-2.1c-.4-1-2.2-7.1-3.2-9.5l-.6.4c-.2-.7.1-1.4.7-1.6zm.7-1.9l-.3-.6 1.2.4-.4.5-.5-.2v-.1zm1.9-2.4l-.1.4-2.9-1 .2.8 2.5.9-.3.6-2.2-.8.1.8.4.1.1.7-.5-.2-.1.5.2.4.3.1c0 .2-.1.4-.2.6l-.2.1-.2.1c-.4-.1-1-.7-1.5-1.6 0 .3 0 .5.1.8.1.3.3.6.5.8-3.1-.2-8.2-4.6-9.4-8-1.1-3.2.1-6.7 2.9-8.5l.1.1L7.8 10l.1.7-4-1.4.1.1c.8.3 1.9.8 2.7 1.6l1.4.5.2.7-.9-.3.2.1.4.8.7.2.3.8-.6-.2.4.9.6.2.4.8-.7-.2.4.9.9.3.5.8-1.1-.3.3.9 1.6.5.7.9-2-.7.2.9 2.8 1 .4.3zM7.7 7.2v.5l-1.2-.5h1.2zm-2.6.3l2.5.9v.7L4.2 7.9l.9-.4zM21.6 1c1.7.8 3.1 2.2 3.9 3.9L21.6 1zM19 .2l1 .2 6.1 6.1.2 1.1L19 .2zm-.6 22.7c0 2.4.5 12.9.5 12.9h-2s.5-11.7.5-12.9h-.8c.1-.9.7-1.5 1.4-1.5.1 0 .3 0 .8.2.4.3.5.8.6 1.3h-1zm1-3.3v-.3c-.3.4-.5.7-.7.9l.1.1c-.1.2-.2.4-.4.5l-.4-.2v.4h-.2c-.5-.2-.8-1.1-1-2.3-.1.3-.2.6-.2.9 0 .4.1.8.2 1.1-3.3-1.4-7.1-8.1-7.1-12.2C9.7 3.9 13.4.2 18 .2v.1l.6.6c1.1.5 2.7 1.9 3.5 3.6l4.2 4.2-.1.8-3.6-3.7.1.6v.5l3.4 3.5-.2.7-3.3-3.3-.1 1 3.1 3.1-.2.6-2.9-3-.1.9 2.7 2.8-.3.6-2.6-2.6-.2.9 2.4 2.4-.3.6-2.3-2.3-.2.8 2.1 2.1-.3.5-1.9-2-.2.8 1.8 1.8-.4.5-1.7-1.5-.3.8 1.4 1.5-.4.5-1.3-1.3-.3.7 1.1 1.1-.4.4-1-1-.4.7.8.8-.5.4-.4-.4.1-.4z"/></svg>