<svg version="1.1" id="Layer_1" xmlns="http://www.w3.org/2000/svg" x="0" y="0" viewBox="0 0 36 36" xml:space="preserve"><style>.st0{fill:#fff}</style><path class="st0" d="M22.9 12.6s2.6-4.6 4.4 2.1h-6.7l-.7-.2c.3-.6.6-1.2.9-1.9.5.6 1.3 1.2 2.1 0M21.3.3c2 0 3.6 2.1 3.6 4.6 0 2.5-1.6 4.6-3.5 4.6 0-2.9-1.2-5.5-3-7.1.5-1.3 1.6-2.1 2.9-2.1zm-15.2 12s.9 1.4 1.9.8l.5 1.2c-1.5.2-2.9 1.4-4 3H3.2c-.5-1.8-1.6-3.2-3-3.4 1-2.8 3-5.6 5.9-1.6zM6.9.2c1.4 0 2.6 1 3.2 2.5-1.6 1.6-2.7 4-2.7 6.7h-.5c-2 0-3.6-2.1-3.6-4.6C3.4 2.3 5 .2 6.9.2zm6.3 19.2s.9 1.2 1.9 1.2v5.3H9.4c-.6-2.4-2.1-4.2-4-4.4 1.5-3.6 4.1-7.3 7.8-2.1zm1.1-15.9c2.6 0 4.7 2.7 4.7 6.1 0 3.4-2.1 6.1-4.7 6.1S9.6 13 9.6 9.6c0-3.4 2.1-6.1 4.7-6.1zm9.1 23.2l.4-.4h-.6l.2.4zm-3.1 5l-.1-.3h-1l-.8.8h2.1l-.2-.5zm11 .4v3.7H27v-3.7h4.3zm4.5 1.6c0 1.2-1 2.1-2.1 2.1h-1.6v-3.7h3.8v1.6zm-2.1-16.2c1.2 0 2.1 1 2.1 2.1v1.6H34v.8h1.9v4.3h-2.4l-.1.8h2.5v4.3h-3.8V30l-.8-.7v2.1H27v-1.7l-.8.8v.9h-.9l-.8.8h1.7v3.7H22v-2.7c-.3 0-.5-.1-.8-.3v3h-1.6c-1.2 0-2.1-1-2.1-2.1V32l2.8-2.8.7 2c.2.6.7.9 1.2 1 .5.1 1.1 0 1.5-.4l5.6-5.6 3.1 2.8 1.1-9.6-9.4 2L27 24l-3.9 3.9-.7-2.1c-.3-.7-1-1.1-1.7-1-.3 0-.6.2-.9.4l-2.3 2.3v-1.1l.1-.1h-.1V22h3.7v2c.3.1.5.2.8.3V22h1.4l-.9-.8H22v-3.8h4.3V20l.8-.2v-2.3h4.3v1.4l.8-.2v-1.3h1.5zm-14.1 0h1.6v3.8h-3.7v-1.6c0-1.3 1-2.2 2.1-2.2z"/></svg>