<svg version="1.1" id="Layer_1" xmlns="http://www.w3.org/2000/svg" x="0" y="0" viewBox="0 0 36 36" xml:space="preserve"><style>.st0{fill:#fff}</style><path class="st0" d="M10.2 20.5s2.2 3.2 4.1.5c0 0 .3-.6.8-1.1v9H5.2c-.8-3.1-2.7-5.4-5.1-5.6 1.9-4.7 5.2-9.5 10.1-2.8M11.5.2c3.3 0 6 3.5 6 7.8s-2.7 7.8-6 7.8-6-3.5-6-7.8c.1-4.3 2.7-7.8 6-7.8zm11.9 26.5l.4-.4h-.6l.2.4zm-3.1 5l-.1-.3h-1l-.8.8h2.1l-.2-.5zm11 .4v3.7H27v-3.7h4.3zm4.5 1.6c0 1.2-1 2.1-2.1 2.1h-1.6v-3.7h3.8v1.6zm-2.1-16.2c1.2 0 2.1 1 2.1 2.1v1.6H34v.8h1.9v4.3h-2.4l-.1.8h2.5v4.3h-3.8V30l-.8-.7v2.1H27v-1.7l-.8.8v.9h-.9l-.8.8h1.7v3.7H22v-2.7c-.3 0-.5-.1-.8-.3v3h-1.6c-1.2 0-2.1-1-2.1-2.1V32l2.8-2.8.7 2c.2.6.7.9 1.3 1 .5.1 1.1 0 1.5-.4l5.6-5.6 3.1 2.8 1.1-9.6-9.4 2L27 24l-3.9 3.9-.7-2.1c-.2-.7-1-1.1-1.7-1-.3 0-.6.2-.9.4l-2.3 2.3v-1.1l.1-.1h-.1V22h3.7v2c.3.1.5.2.8.3V22h1.4l-.9-.8H22v-3.8h4.3V20l.8-.2v-2.3h4.3v1.4l.8-.2v-1.3h1.5zm-14.1 0h1.6v3.8h-3.7v-1.6c0-1.3 1-2.2 2.1-2.2z"/></svg>