<svg version="1.1" id="Layer_1" xmlns="http://www.w3.org/2000/svg" x="0" y="0" viewBox="0 0 36 36" xml:space="preserve"><style>.st0{fill:#fff}</style><path class="st0" d="M15.4 34v-3.9h3.9V34h-3.9m0-7v-1.2c0-1.6.2-2.9.7-4.1.3-.9.9-1.7 1.6-2.6.6-.6 1.6-1.6 3-2.8 1.4-1.2 2.4-2.2 2.8-2.9.4-.7.6-1.4.6-2.3 0-1.5-.6-2.8-1.7-3.9-1.2-1.1-2.6-1.7-4.3-1.7-1.6 0-3 .5-4.1 1.5-1.1 1-1.8 2.5-2.2 4.7l-3.9-.4c.4-3 1.4-5.2 3.2-6.8C12.8 2.8 15.2 2 18 2c3.1 0 5.5.9 7.3 2.6 1.8 1.7 2.7 3.8 2.7 6.2 0 1.4-.3 2.7-1 3.9-.7 1.2-2 2.6-3.9 4.4-1.3 1.2-2.2 2-2.6 2.6-.4.6-.7 1.2-.9 1.9-.2.7-.3 1.9-.3 3.5h-3.9z"/></svg>