<svg version="1.1" id="Layer_1" xmlns="http://www.w3.org/2000/svg" x="0" y="0" viewBox="0 0 36 36" xml:space="preserve"><style>.st0{fill:#fff}</style><path class="st0" d="M11.3 17.7v-3.3H7.4v3.3h3.9m-3.9-5.3h3.9V8.9H7.4v3.5zm-1.9 0V8.9H1.8v3.5h3.7zm0 5.3v-3.3H1.8v3.3h3.7zm5.8 1.9H7.4v3.6h3.9v-3.6zm-9.5 2.7c0 .4.4.8.8.8h2.9v-3.6H1.8v2.8zm0 2.3C.9 24.6.2 23.9.2 23V7h11.5v.6c0 .1 0 .1.1.2l2 6.5h-.6v3.3h1.6l.6 1.9h-2.2v3.6h3.2l.4 1.4h-15zM1.8.1h17.4c-.8.3-2.3.7-2.3 1v.8c-2.8 1.2-4 2.2-4.8 3.5H.1V1.8C.1.9.9.1 1.8.1zm19.3 3l-.2-.1c-.1.3-.7.6-1.4.8-.6.2-1.2.2-1.5 0V4c.1.3.8.4 1.7.1.8-.2 1.5-.6 1.4-1zm-.4 8.2l.1.7 1 9.2v.2l.5-.3-.8-9.5-.8-.3zm4 1.1l.2 8.1 1.1-.1 1.4-7.8c-.9-.1-1.8-.1-2.7-.2zm10.1-1c-1.2.6-3.4 1.1-6 1.2l-1.5 7.8h.4c2.9 0 5.3.5 6 1.2V21.3l1.1-9.9zm-14-1.4c0 .3.2.5.7.7l-.4-1.3c-.2.3-.3.4-.3.6zm13.9 0c0-.8-2.2-1.5-5.2-1.6l-.6 3.3c3.3-.1 5.8-.8 5.8-1.7zm-7-1.7c-2.8 0-5.3.4-6.3 1l.5 1.6c1.2.5 3.4.8 5.8.8l.6-3.4h-.6zm-3.8 4l-.6-.1 1 20.8c-.8.2-1.3.6-1.3.9 0 .2.2.4.6.6v-.1c0-.4.3-.7.8-1l.1 1.4s.2.1.4.1l-.1-1.8c.9-.4 2.3-.6 3.8-.6l1.5.1c-.7-.1-1.5-.2-2.3-.2-1.2 0-2.2.1-3.1.3l-.8-20.4zM34.8 2.2c-.2.1-.3.4-.2.6.1.3.4.4.6.4.2-.1.3-.4.2-.6-.1-.4-.4-.5-.6-.4zm-5.7 1.5c0-.3.2-.6.6-.7l5.1-1c.4-.1.7.2.8.6.1.4-.2.7-.5.8l-4.5.8c-.4-.2-.7-.5-.8-.4s.2.5.4.8l-.5 2.8c3.5.2 6.1 1 6.1 2v.1L33.3 34c0 .3-.4.8-.7 1-.6.5-2.5.9-4.8.9s-4.2-.4-4.8-.9c-.4-.2-.7-.7-.7-1L19.6 9.5v-.1c0-.4.4-.7 1.2-1l-.3-1.2c-3.5.9-6.5.8-6.8-.4-.3-1.1 1.6-2.6 4.4-3.6l-.1-.5c-.1-.2.4-.5 1.1-.7.7-.2 1.2-.2 1.3 0l.2.5c3-.7 5.3-.4 5.6.7.3 1.2-2.1 2.9-5.5 4l.3 1.1c1.5-.5 3.9-.9 6.7-.9h.7l.7-3.7zM27 21.8c-.1.2-.3.3-.6.3-.4 0-.6-.2-.6-.5l.1-.6-1 .1.1 2.2c.8.1 1.7.2 2.7.2 2.9 0 5.3-.6 5.3-1.3 0-.7-2.4-1.3-5.3-1.3h-.6l-.1.9z"/></svg>