<svg version="1.1" id="Layer_1" xmlns="http://www.w3.org/2000/svg" x="0" y="0" viewBox="0 0 36 36" xml:space="preserve"><style>.st0{fill:#fff}</style><path class="st0" d="M9.3.9c-.2 0-.3.1-.3.3v19.1h.9V1.2c0-.2-.1-.3-.3-.3h-.3M3.2 8.1c-.2 0-.3.1-.3.3v11.9h.9v-12c0-.2-.1-.3-.3-.3h-.3zm23.4-3.9c.3 0 .6.3.6.6 0 .4-.3.6-.6.6h-6.9v-.5c0-.3-.1-.5-.3-.7h7.2zm0 5c.3 0 .6.3.6.6 0 .4-.3.6-.6.6h-.8V9.2h.8zm-6.4 1.3h-.5V9.2h.5V7c0-.5.4-1 1-1h2.7c.5 0 1 .4 1 1v3.8H22V7c0-.2-.1-.3-.3-.3h-.3c-.2 0-.3.1-.3.3v3.8h-.8v-.3zm-6 0h-.4V9.2h.4V5.4h-.4V4.2h.8c.2-.1.4-.2.6-.2h2.7c.5 0 1 .4 1 1v5.9H16V5.1c0-.2-.1-.3-.3-.3h-.3c-.2 0-.4.2-.4.3v5.6h-.8v-.2zM.7 20.3h1.4v-5H.8c-.4 0-.6-.3-.6-.6s.2-.7.6-.7h1.3v-3.6H.8c-.4 0-.6-.3-.6-.6s.3-.6.6-.6h1.3v-.9c0-.5.4-1 1-1h2.7c.5 0 1 .4 1 1v12h1.4v-5h-.5V14h.4v-3.6h-.4V9.2h.4V5.4H.8c-.4 0-.6-.3-.6-.6 0-.4.3-.6.6-.6h7.4v-3c0-.5.4-1 1-1h2.7c.5 0 1 .4 1 1v10c-1.3.6-2.3 2-2.3 3.5v7.6H.7c-.3 0-.6-.3-.6-.6V21c0-.4.3-.7.6-.7zm14.9-5.9c-.6 0-1.2.5-1.2 1.2v17.3c0 .6.5 1.2 1.2 1.2h17.3c.6 0 1.2-.5 1.2-1.2V15.5c0-.6-.5-1.2-1.2-1.2H15.6zm-1.1-1.8h19.4c1.1 0 1.9.9 1.9 1.9v19.4c0 1.1-.9 1.9-1.9 1.9H14.5c-1.1 0-1.9-.9-1.9-1.9V14.5c0-1 .9-1.9 1.9-1.9zm13 16.5l.1.2.2.2.2.1c.1 0 .2 0 .3-.1.1-.1.1-.2.1-.3 0-.1 0-.2-.1-.3-.1-.1-.2-.1-.3-.1-.1 0-.2 0-.3.1-.2 0-.2.1-.2.2zm1-.8h-.2l-.1-.2c-.1 0-.2-.1-.3-.1l-.2.1-.2.2-.1.4.2-.2.3-.1c.2 0 .3.1.4.2.1.1.2.3.2.5l-.1.3-.2.2-.3.1c-.2 0-.4-.1-.5-.2-.1-.1-.2-.4-.2-.7 0-.4.1-.7.2-.8.1-.2.3-.2.5-.2s.3 0 .4.1c.1.1.2.3.2.4zm-1.9 1.5h-.2v-1.6l-.2.2-.3.1v-.2l.4-.2.2-.3h.2v2zm-1.4-1.3c0-.1 0-.2-.1-.3-.1-.1-.2-.2-.3-.2-.1 0-.2 0-.3.1-.1.1-.1.2-.1.3 0 .1 0 .2.1.3.1.1.2.1.3.1.1 0 .2 0 .3-.1 0 0 .1-.1.1-.2zm-1 .8h.2l.1.3.2.1h.2l.1-.1.1-.2v-.3H25l-.3.1c-.2 0-.3-.1-.4-.2-.1-.1-.2-.3-.2-.5s.1-.4.2-.5c.1-.1.3-.2.4-.2l.3.1.2.3.1.6-.1.6c-.1.1-.1.3-.2.3-.1.1-.2.1-.4.1s-.3 0-.4-.1c.1-.1 0-.2 0-.4zm-1.6-.5c0 .3 0 .5.1.6.1.1.2.2.3.2.1 0 .2 0 .3-.2.1-.1.1-.3.1-.6s0-.5-.1-.6c-.1-.1-.2-.2-.3-.2-.1 0-.2 0-.3.1-.1.2-.1.4-.1.7zm-.2 0l.1-.6c0-.1.1-.3.2-.3.1-.1.2-.1.4-.1l.3.1.2.2.1.3v.5l-.1.6c0 .1-.1.3-.2.3-.1.1-.2.1-.4.1s-.3-.1-.4-.2c-.2-.3-.2-.5-.2-.9zm-.7 1h-.2v-1.6l-.2.2-.3.1v-.2l.4-.2.2-.3h.2v2zm-1.3 0h-.2v-1.6l-.2.2-.3.1v-.2l.3-.3.2-.3h.2v2.1zm3.3-11.1h1.1V27h-1.1v-8.3zm1.9-.1h1.1V27h-1.1v-8.4zm1.7.1h1.1V27h-1.1v-8.3zm2.6-.1h1.5v11.2h-1.5V18.6zm-8.4.1h.7V27h-.7v-8.3zm-1.9-.1h1.1V27h-1.1v-8.4zm-2.6 0h1.6v11.2H17V18.6z"/></svg>