<svg version="1.1" id="Layer_1" xmlns="http://www.w3.org/2000/svg" x="0" y="0" viewBox="0 0 36 36" xml:space="preserve"><style>.st0{fill:#fff}</style><path class="st0" d="M26.061 19.728l3.076 3.112-2.041-.844-1.529-1.547.494-.721zm1.132-6.922L19.87 5.397l.153 1.377 6.634 6.711.536-.679zm-7.767-1.259l3.727 3.771c.349-.025.69-.09 1.02-.191l-4.479-4.532-.268.952zm7.318 7.403l4.846 4.903 1.287.532.008-.003-.151-.591-5.326-5.389-.664.548zm5.325 2.699c-.419-1.132-.856-1.955-1.298-2.535l-.763-.771c-.546-.398-1.085-.486-1.589-.387l3.65 3.693zM20.029 8.247l-.105 1.114 5.264 5.327.722-.492-5.881-5.949zm7.711 3.645l.361-.812-9.123-9.23-.164.192.57 1.395 8.356 8.455zM24.149.19l3.914 3.961C27.28 2.175 25.856.7 24.149.19zM11.225 15.335c3.255 0 5.894-3.432 5.894-7.667C17.119 3.433 14.48 0 11.225 0 7.97 0 5.331 3.433 5.331 7.668s2.639 7.667 5.894 7.667zm10.001 8.817c-2.873-11.386-7.279-3.659-7.279-3.659-1.866 2.722-4.073-.454-4.073-.454C5.105 13.473 1.817 18.153 0 22.691c2.327.28 4.266 2.515 5.018 5.559h13.723c.188-1.959 1.185-3.504 2.451-3.83.01-.089.017-.179.034-.268zm7.378-17.986L22.515.005a4.694 4.694 0 00-1.023.186L28.715 7.5l-.111-1.334zm-7.071 8.98l-2.507-2.536-.276.594c.761.947 1.718 1.632 2.783 1.942zm7.108-6.255L20.474.628l-.749.51 8.722 8.825.194-1.072zm6.725 19.15L25.11 23.802c-.844-.349-1.689.496-1.34 1.34l4.226 10.224a1.026 1.026 0 001.827.138l1.9-3.154a1.03 1.03 0 01.337-.342l3.455-2.148c.71-.441.623-1.5-.149-1.819z"/></svg>