<svg version="1.1" id="Layer_1" xmlns="http://www.w3.org/2000/svg" x="0" y="0" viewBox="0 0 36 36" xml:space="preserve"><style>.st0{fill:#fff}</style><path class="st0" d="M14.3 6.1h2.5c.2 0 .3.1.3.3l-2.2 2.1h-.6c-.2 0-.3-.1-.3-.3V6.4c-.1-.2.1-.3.3-.3m-4 0h2.5c.2 0 .3.1.3.3v1.8c0 .2-.1.3-.3.3h-2.5c-.2 0-.3-.1-.3-.3V6.4c0-.2.2-.3.3-.3zm4 2.9l-.3.4v-.1c-.1-.2.1-.3.3-.3zm-4 0h2.5c.2 0 .3.1.3.3v.9l-1.3 1.2h-1.5c-.2 0-.3-.1-.3-.3V9.3c0-.2.2-.3.3-.3zM6.5 9H9c.2 0 .3.1.3.3v1.9c0 .1-.1.3-.3.3H6.5c-.2 0-.3-.1-.3-.3V9.3c-.1-.2.1-.3.3-.3zm-4 0H5c.2 0 .3.1.3.3v1.9c0 .1-.1.3-.3.3H2.5c-.2 0-.3-.1-.3-.3V9.3c0-.2.1-.3.3-.3zm7.8 2.9h1L10 13.2v-1c0-.2.2-.3.3-.3zm-3.8 0H9c.2 0 .3.1.3.3v1.7l-.4.4H6.5c-.2 0-.3-.1-.3-.3v-1.9c-.1-.1.1-.2.3-.2zm-4 0H5c.2 0 .3.1.3.3V14c0 .2-.1.3-.3.3H2.5c-.2 0-.3-.1-.3-.3v-1.9c0-.1.1-.2.3-.2zm4 2.9h1.9l-2.2 2.1v-1.8c-.1-.2.1-.3.3-.3zm-4 0H5c.2 0 .3.1.3.3v1.8c0 .2-.1.3-.3.3H2.5c-.2 0-.3-.1-.3-.3v-1.8c0-.2.1-.3.3-.3zm-.8 4.4c-.9 0-1.6-.7-1.6-1.6V3.5c0-.9.7-1.6 1.6-1.6h1.7v.7c0 .8.7 1.5 1.5 1.5s1.5-.7 1.5-1.5v-.7h6.3v.7c0 .8.7 1.5 1.5 1.5s1.5-.7 1.5-1.5v-.7h1.8c.9 0 1.6.7 1.6 1.6v.9l-1.4 1.3c-.1-.2-.4-.4-.7-.4H2c-.4 0-.7.3-.8.6v11.3c0 .4.4.8.8.8h3l-1.2 1.2H1.7zM14.3.1c.4 0 .8.4.8.8v1.6c0 .4-.2.7-.6.8v-2c0-.1-.1-.2-.2-.2s-.2.1-.2.2v2c-.3-.1-.6-.4-.6-.8V.9c0-.4.4-.8.8-.8zM5 .1c.4 0 .8.4.8.8v1.6c0 .4-.2.7-.6.8v-2c0-.1-.1-.2-.2-.2s-.2.1-.2.2v2c-.4-.1-.6-.4-.6-.7V.9c0-.4.3-.8.8-.8zm15.4 25.6c.6-.6 1-.9 1.4-1 .2-.1.5 0 .6.2.2.2.3.4.2.6-.1.3-.4.8-1 1.4-.6.6-1 .9-1.4 1-.2.1-.5 0-.6-.2-.2-.2-.2-.4-.2-.6.1-.3.4-.8 1-1.4zm-1.3-1.3c-.8.8-1.3 1.6-1.3 2.3 0 .7.3 1.4.9 2 .6.6 1.3.9 2 .8.8 0 1.5-.5 2.4-1.3.8-.8 1.2-1.6 1.3-2.3 0-.7-.3-1.4-.9-2-.6-.6-1.3-.9-2-.8-.8.1-1.6.5-2.4 1.3zm-5-.1l14.3-5-1.3-1.3-14.3 5 1.3 1.3zm5.2-9.1c.6-.6 1-.9 1.4-1 .2 0 .5 0 .6.2.2.2.2.4.2.6-.1.3-.4.8-1 1.3-.6.6-1 .9-1.4 1-.2 0-.5 0-.6-.2-.2-.2-.2-.4-.2-.6.1-.3.4-.7 1-1.3zm-1.4-1.3c-.8.8-1.3 1.6-1.3 2.3 0 .7.3 1.4.9 2 .6.6 1.3.9 2 .8.8 0 1.5-.5 2.4-1.3.8-.8 1.3-1.6 1.3-2.3 0-.7-.3-1.4-.9-2-.6-.6-1.3-.9-2-.8-.8 0-1.6.5-2.4 1.3zm13-3.1c-.7-.6-1.7-.6-2.4 0-.7.7-.7 1.7 0 2.4.7.6 1.7.6 2.4 0 .7-.7.7-1.8 0-2.4zM19.8 35.9l-14.4-14 10-9.9 6-5.9L32 7.8c.4.1.9.3 1.3.6.4.4.6.8.7 1.2L35.8 20l-16 15.9z"/></svg>