<svg version="1.1" id="Layer_1" xmlns="http://www.w3.org/2000/svg" x="0" y="0" viewBox="0 0 36 36" xml:space="preserve"><style>.st0{fill:#fff}</style><path class="st0" d="M3.7 15.7h28.7c.2 0 .3.1.3.3v4.2c0 .2-.1.3-.3.3H3.7c-.2 0-.3-.1-.3-.3V16c0-.2.1-.3.3-.3m21.8 7.8h-6v-1.4h6v1.4zm-8.9 0h-6.2v-1.4h6.2v1.4zm-6.2-10.8h6.2v1.4h-6.2v-1.4zm9 0h6v1.4h-6v-1.4zm16.5 9.7c0 .6-.5 1.1-1.2 1.1h-6.4v-1.4h5.4c.3 0 .6-.2.6-.6v-2.1h1.6v3zm-1.2-9.7c.7 0 1.2.5 1.2 1.1v2.9h-1.6v-2.1c0-.3-.3-.6-.6-.6h-5.4v-1.4h6.4zM1.6 21.5c0 .3.3.6.6.6h5.3v1.4H1.2C.5 23.5 0 23 0 22.4v-2.9h1.6v2zm-.4-8.8h6.2v1.4H2.2c-.3 0-.6.2-.6.6v2.1H.1v-2.9c0-.7.5-1.2 1.1-1.2zm24.3-1.9h-6V9.4h6v1.4zm-8.9 0h-6.2V9.4h6.2v1.4zM10.4.1h6.2v1.4h-6.2V.1zm9.1 0h6v1.4h-6V.1zM36 9.7c0 .6-.5 1.1-1.2 1.1h-6.4V9.4h5.4c.3 0 .6-.2.6-.6v-2H36v2.9zM34.8.1c.7 0 1.2.5 1.2 1.1v2.9h-1.6V2c0-.3-.3-.6-.6-.6h-5.4V.1h6.4zM1.6 8.9c0 .3.3.6.6.6h5.3v1.4H1.3c-.7 0-1.2-.5-1.2-1.1v-3h1.6v2.1zM1.3.1h6.2v1.4H2.2c-.3-.1-.6.2-.6.5v2.1H.1V1.2C.1.5.6.1 1.3.1zM25.5 36h-6v-1.4h6V36zm-8.9 0h-6.2v-1.4h6.2V36zm-6.2-10.8h6.2v1.4h-6.2v-1.4zm9.1 0h6v1.4h-6v-1.4zM36 34.8c0 .6-.5 1.1-1.2 1.1h-6.4v-1.4h5.4c.3 0 .6-.2.6-.6v-2.1H36v3zm-1.2-9.6c.7 0 1.2.5 1.2 1.1v2.9h-1.6v-2.1c0-.3-.3-.6-.6-.6h-5.4v-1.4h6.4zM1.6 34c0 .3.3.6.6.6h5.3V36H1.3c-.7 0-1.2-.5-1.2-1.1V32h1.6v2zm-.3-8.8h6.2v1.4H2.2c-.3 0-.6.2-.6.6v2.1H.1v-2.9c0-.7.5-1.2 1.2-1.2z"/></svg>