<svg version="1.1" id="Layer_1" xmlns="http://www.w3.org/2000/svg" x="0" y="0" viewBox="0 0 36 36" xml:space="preserve"><style>.st0{fill:#fff}</style><path class="st0" d="M26.7.1c.6 0 .8.3.8.8l.1 1.4L3.3 6.9l3.4 24.3L.3 4.7C0 2.8.3 2.6 1.5 2.4l8.6-1c1-.2 1.2.4 1.3 1.3L26.7.1m-19 9.6l24-5.3-.1.8-22.7 5.2-1.7 18.8.5-19.5zM5 7.9L29.6 3v.9L6.3 8.7 7 29.8 5 7.9zm8.2 2.7l21.6-4.9c1.2-.3 1.3.2 1 .9l-3.4 9.2h-12c-2.6 0-4.8 2.1-4.8 4.8v7.9l-8.8 3.3L11.5 12c.2-.7.7-1.3 1.7-1.4zm22.6 21.6c0 2-1.6 3.6-3.6 3.6h-11c-2 0-3.6-1.6-3.6-3.6v-4.4H19v4c0 1.4 1.1 2.5 2.5 2.5h10.2c1.4 0 2.5-1.1 2.5-2.5v-.1h1.5v.5zM21.2 17.7h11c2 0 3.6 1.6 3.6 3.6V30h-6.3l2.1 2.1c.4.4.4.9 0 1.3s-.9.4-1.3 0l-3.8-3.8c-.2-.2-.3-.4-.3-.7 0-.2.1-.5.3-.7l3.9-3.9c.4-.4.9-.4 1.3 0s.4.9 0 1.3L29.5 28h4.8v-6.3c0-1.4-1.1-2.5-2.5-2.5H21.5c-1.4 0-2.5 1.1-2.5 2.5V24h4.8l-2.2-2.2c-.4-.4-.4-.9 0-1.3s1-.4 1.3 0l3.9 3.9c.2.2.3.4.3.7 0 .2-.1.5-.3.7L23 29.4c-.4.4-1 .4-1.3 0-.4-.4-.4-.9 0-1.3l2.1-2.1h-6.3v-4.8c0-1.9 1.7-3.5 3.7-3.5z"/></svg>