<svg version="1.1" id="Layer_1" xmlns="http://www.w3.org/2000/svg" x="0" y="0" viewBox="0 0 36 36" xml:space="preserve"><style>.st0{fill:#fff}</style><path class="st0" d="M22.7.2c.5 0 .6.3.7.6l.1 1.2L2.9 6l2.9 20.6L.3 4.1c-.3-1.6 0-1.8 1-2l7.3-.9c.9-.2 1 .3 1.1 1.1l13-2.1M6.6 8.3L27 3.8l-.1.7L7.7 8.9 6.2 24.8l.4-16.5zM4.4 6.8l20.8-4.2v.7L5.5 7.4 6 25.3 4.4 6.8zM11.2 9l18.3-4.1c1-.2 1.1.2.9.8L27.7 13c-.5.5-.9 1-1.2 1.7-.6-.3-1.3-.4-2-.4-.8 0-1.6.2-2.3.6-.8-1.8-2.3-3-4.1-3-2.6 0-4.6 2.5-4.6 5.6 0 1.2.3 2.2.8 3.1-1.9.2-3.4 2.9-4.2 5L5.9 27l4-16.8c.1-.5.6-1.1 1.3-1.2zm20.7 15.3s2.3-4.1 3.9 2c-.7.1-1.2 1-1.3 2H32c-.9-1.7-1.8-2.3-2.7-2.4.3-.5.6-1 .7-1.6.5.5 1.3 1 1.9 0zm-1.4-10.7c1.7 0 3.1 1.8 3.1 4s-1.4 4-3.1 4c0-2.5-1.1-4.8-2.7-6.1.7-1.2 1.6-1.9 2.7-1.9zM17.3 24s.8 1.2 1.7.7l.5 1c-1.3.1-2.5 1.2-3.5 2.6h-1.2c-.4-1.6-1.4-2.8-2.6-2.9.9-2.4 2.6-4.8 5.1-1.4zm.7-10.5c1.2 0 2.2.9 2.8 2.2-1.4 1.3-2.3 3.4-2.4 5.8H18c-1.7 0-3.1-1.8-3.1-4s1.4-4 3.1-4zm5.5 16.7s1.5 2.2 2.8.3c0 0 3.1-5.4 5.1 2.7-.9.2-1.6 1.3-1.8 2.7h-9.5c-.5-2.1-1.9-3.6-3.5-3.8 1.4-3.2 3.6-6.5 6.9-1.9zm1-13.8c2.2 0 4.1 2.4 4.1 5.3S26.8 27 24.5 27s-4.1-2.4-4.1-5.3c0-3 1.8-5.3 4.1-5.3z"/></svg>