<svg version="1.1" id="Layer_2" xmlns="http://www.w3.org/2000/svg" x="0" y="0" viewBox="0 0 240 64" xml:space="preserve"><style>.st0{fill:#fff}</style><path class="st0" d="M220.3 22.1c-4.6-4.5-10.1-6.8-16.4-6.8-5.9 0-11 1.9-15.3 5.7.2-.4.2-.9.2-1.4 0-.6-.1-1.1-.4-1.7-.2-.5-.5-1-.9-1.4-.4-.4-.8-.7-1.4-.9-.5-.2-1.1-.3-1.7-.3-1.7 0-3 .7-3.8 2.2L167.1 47l-13.6-29.6c-.4-.7-.9-1.2-1.6-1.6-.7-.4-1.4-.6-2.2-.6-.6 0-1.2.1-1.7.3-.5.2-1 .5-1.4.9-.4.4-.7.9-.9 1.4-.2.5-.3 1.1-.3 1.7 0 .3 0 .6.1.8-4.2-3.4-9.1-5.1-14.6-5.1-6.4 0-11.9 2.3-16.4 6.8-2 2-3.5 4.1-4.6 6.4-1.1-2.3-2.6-4.4-4.6-6.4-4.6-4.5-10.1-6.8-16.4-6.8-6.4 0-11.9 2.3-16.4 6.8-1.6 1.6-2.9 3.3-3.9 5.1V6.6c0-.5-.1-1.1-.3-1.5-.2-.5-.5-.9-.9-1.3-.4-.3-.9-.6-1.4-.8-.5-.2-1.1-.3-1.7-.3-1.6 0-2.7.9-3.9 2.1L35.5 31.9 10.6 4.8C9.4 3.6 8.4 2.7 6.7 2.7c-.6 0-1.2.1-1.7.3-.6.2-1 .5-1.4.8-.4.4-.7.8-1 1.3-.2.5-.3 1-.3 1.5v51.2c0 1.1.4 2 1.3 2.8.9.8 1.9 1.1 3.1 1.1 1.2 0 2.3-.4 3.1-1.1.9-.8 1.3-1.7 1.3-2.8V18.3l20.4 23c1.4 1.4 2.2 1.9 4 1.9 1.7 0 2.6-.3 3.8-1.5l20.6-23.4v39.6c0 1.1.4 2 1.3 2.8.9.8 1.9 1.1 3.1 1.1 1.2 0 2.3-.4 3.1-1.1.9-.8 1.3-1.7 1.3-2.8v-8c1 1.8 2.3 3.5 3.9 5.1 4.5 4.5 10 6.8 16.4 6.8 5.8 0 10.9-1.9 15.2-5.6.8-.9 1.2-1.9 1.2-3.1 0-1.2-.4-2.3-1.2-3.1-.8-.8-1.8-1.2-3.1-1.2-1.1 0-2 .4-2.9 1.1-1.3 1.1-2.7 1.9-4.2 2.5-1.5.6-3.2.8-5 .8-1.6 0-3.1-.3-4.6-.7-1.5-.5-2.8-1.2-4.1-2.1-1.2-.9-2.3-2-3.2-3.2-.9-1.3-1.6-2.6-2.1-4.2H108.2c.8 4.6 2.9 8.6 6.4 12.1 4.5 4.5 10 6.8 16.4 6.8 5.8 0 10.9-1.9 15.2-5.6.8-.9 1.2-1.9 1.2-3.1 0-1.2-.4-2.3-1.2-3.1-.8-.8-1.8-1.2-3.1-1.2-1.1 0-2 .4-2.9 1.1-1.3 1.1-2.7 1.9-4.2 2.5-1.5.6-3.2.8-5 .8-1.6 0-3.1-.3-4.6-.7-1.5-.5-2.8-1.2-4.1-2.1-1.2-.9-2.3-2-3.2-3.2-.9-1.3-1.6-2.6-2.1-4.2h32.9c1.2 0 2.2-.4 3.1-1.2.6-.6 1-1.3 1.2-2.2l9.2 20c.7 1.5 2 2.3 3.8 2.3 1.8 0 3-.8 3.8-2.3l9.4-20.1c0 6.4 2.5 11 7 15.6 4.5 4.5 10 6.8 16.4 6.8 6.4 0 11.8-2.3 16.4-6.8 4.5-4.5 6.8-10 6.8-16.4 0-3.2-.6-6.2-1.7-8.9-1-3-2.7-5.5-5-7.8zM75 34.3c.4-1.5 1.1-2.9 2-4.2.9-1.3 2-2.3 3.2-3.2 1.2-.9 2.6-1.6 4.1-2.1 1.5-.5 3-.7 4.6-.7 1.6 0 3.1.2 4.6.7 1.5.5 2.8 1.2 4.1 2.1 1.2.9 2.3 2 3.2 3.2.9 1.3 1.6 2.6 2.1 4.2H75zm42 0c.4-1.5 1.1-2.9 2-4.2.9-1.3 2-2.3 3.2-3.2 1.2-.9 2.6-1.6 4.1-2.1 1.5-.5 3-.7 4.6-.7 1.6 0 3.1.2 4.6.7 1.5.5 2.8 1.2 4.1 2.1 1.2.9 2.3 2 3.2 3.2.9 1.3 1.6 2.6 2.1 4.2H117zm100.3 9.9c-.8 1.8-1.8 3.3-3.1 4.6-1.3 1.3-2.9 2.4-4.6 3.2-1.8.8-3.7 1.2-5.7 1.2s-4-.4-5.7-1.2c-1.8-.8-3.3-1.8-4.6-3.1-1.3-1.3-2.3-2.9-3.1-4.6-.8-1.8-1.1-3.7-1.1-5.6 0-2 .4-3.9 1.1-5.6.8-1.8 1.8-3.3 3.1-4.6 1.3-1.3 2.8-2.4 4.6-3.1 1.8-.8 3.7-1.2 5.7-1.2s3.9.4 5.7 1.2c1.8.8 3.3 1.8 4.6 3.2 1.3 1.3 2.4 2.9 3.1 4.6.8 1.8 1.1 3.6 1.1 5.6.1 1.8-.3 3.6-1.1 5.4zM232.4 15.5c-3.2 0-5.7 2.6-5.7 5.7 0 3.2 2.6 5.7 5.7 5.7s5.7-2.6 5.7-5.7-2.5-5.7-5.7-5.7zm0 10.5c-2.6 0-4.7-2.1-4.7-4.7s2.1-4.7 4.7-4.7 4.7 2.1 4.7 4.7-2.1 4.7-4.7 4.7z"/><path class="st0" d="M234.9 19.3l-.3-.3-.3-.3c-.1-.1-.3-.1-.4-.2-.1 0-.3-.1-.5-.1H230.6c-.1 0-.1.1-.1.1s-.1.1-.1.2v5.2c0 .1 0 .2.1.3.2.2.5.2.7 0 .1-.1.1-.2.1-.3v-2h.2l2.4 2.3c.1.1.2.1.3.1.1 0 .2 0 .3-.1.1-.1.1-.2.1-.3 0-.1 0-.2-.1-.3l-1.7-1.7h.6c.5 0 .9-.2 1.2-.5.2-.2.4-.5.4-.7.1-.3 0-.9 0-1 0-.1-.1-.3-.1-.4zm-.8 1.2c0 .1-.1.2-.2.3-.1.1-.2.1-.3.2-.1 0-.2.1-.3.1h-2.1v-1.6h2.1c.1 0 .2 0 .3.1.1 0 .2.1.3.2.1.1.1.2.2.3 0 .1.1.2.1.3 0-.1 0 0-.1.1z"/></svg>