<svg version="1.1" id="Layer_1" xmlns="http://www.w3.org/2000/svg" x="0" y="0" viewBox="0 0 36 36" xml:space="preserve"><style>.st0{fill:#fff}</style><path class="st0" d="M22.2 14.4c.6 0 1.1.5 1.1 1.2v10.7c0 .6-.5 1.2-1.1 1.2-.6 0-1.1-.5-1.1-1.2V15.5c.1-.6.5-1.1 1.1-1.1m-8.5 0c.6 0 1.1.5 1.1 1.2v10.7c0 .6-.5 1.2-1.1 1.2-.6 0-1.1-.5-1.1-1.2V15.5c0-.6.5-1.1 1.1-1.1zm4.3 0c.6 0 1.1.5 1.1 1.2v10.7c0 .6-.5 1.2-1.1 1.2-.6 0-1.1-.5-1.1-1.2V15.5c0-.6.5-1.1 1.1-1.1zm7.3 12.7V12.8H10.6v14.3c0 1.1.8 2 1.8 2h11.2c.9 0 1.7-.9 1.7-2zm-9.2-20c-.1 0-.2.1-.2.2v1.3c0 .1.1.2.2.2h3.7c.1 0 .2-.1.2-.2V7.2c0-.1-.1-.2-.2-.2h-3.7zM10 9.7c-.1 0-.2.1-.2.2v1.7c0 .1.1.2.2.2h15.9c.1 0 .2-.1.2-.2V9.8c0-.1-.1-.2-.2-.2H10zm8-9.5c9.8 0 17.8 8 17.8 17.8s-8 17.8-17.8 17.8S.2 27.8.2 18 8.2.2 18 .2z"/></svg>