<svg version="1.1" id="Layer_1" xmlns="http://www.w3.org/2000/svg" x="0" y="0" viewBox="0 0 36 36" xml:space="preserve"><style>.st0{fill:#fff}</style><path class="st0" d="M22.1 22.6c0-.7-.5-1.2-1.2-1.2H15c-.7 0-1.2.5-1.2 1.2v8.8h8.3v-8.8m4.6 13.3H2.3c-1.2 0-2.2-1-2.2-2.2 0-1.2 1-2.2 2.2-2.2h3.3V19.1L18 10.4 30.3 19v12.5h3.4c1.2 0 2.2 1 2.2 2.2 0 1.2-1 2.2-2.2 2.2h-7zM21 1.6l13.6 9.5c1.3.9 1.6 2.8.7 4.1-.9 1.3-2.8 1.6-4.1.7L18 6.6 4.7 15.9c-1.3.9-3.1.6-4.1-.7-.9-1.3-.6-3.1.7-4.1l4.3-3V4.3c0-1 .8-1.8 1.8-1.8h2.4c.9 0 1.6.7 1.8 1.5L15 1.6c1.1-.8 2-1.5 3-1.5s2 .8 3 1.5z"/></svg>