<svg version="1.1" id="Layer_1" xmlns="http://www.w3.org/2000/svg" x="0" y="0" viewBox="0 0 36 36" xml:space="preserve"><style>.st0{fill:#fff}</style><g id="Carriage_2_"><circle class="st0" cx="5.4" cy="34.4" r="1.5"/><circle class="st0" cx="25.9" cy="34.4" r="1.5"/></g><g id="White_Half"><path class="st0" d="M23.9 3L18.6.3c-.3-.2-.7 0-.9.3L15 5.9c-.1.2-.1.5 0 .7l.5-.2c.6-.2 1.3.1 1.5.6l.3.8 3.2 1.6c.3.2.7 0 .9-.3l2.7-5.3c.2-.3.1-.7-.2-.8zM10.5 11.1h7.1l-1.3-3.3c-.1-.3-.5-.5-.8-.3l-5 2c-.3.1-.5.5-.3.8l.3.8z"/><path class="st0" d="M25.3 8.9L23 8.7l-.7 1.4c-.3.5-.9.8-1.6.5l-1.5-.8-.2 1.3h6.6l.1-1.6c.1-.3-.1-.6-.4-.6z"/></g><path class="st0" d="M33.8 9.6c-.2-.2-.4-.3-.7-.3h-2.6c-.1 0-.3 0-.4.1H30c-.3.1-.4.3-.5.6l-.7 2.2H4.5c-.2 0-.5.1-.6.3-.2.2-.3.4-.3.7 0 0 .3 8.4.3 9.1 0 .9.4 2.1 1.9 2.2l18.8 2.4-1 3.3H4.9c-.3 0-.5.1-.7.3-.2.3-.3.5-.3.8 0 .3.1.6.3.8.2.2.4.3.7.3h19.6c.2 0 .4-.1.6-.2.2-.1.3-.3.4-.5l5.9-20.2h1.7c.3 0 .5-.1.7-.3.2-.2.3-.5.3-.8-.1-.3-.2-.6-.3-.8zm-8.6 15.1L6.9 22.6c-.4-.1-.8-.6-.9-1.2l-.3-7h22.4l-2.9 10.3z"/><path class="st0" d="M23.9 18.1c-.3-.3-.7-.5-1.2-.5-.4 0-.8.1-1.1.4v-.1-.1s0-.1-.1-.1l-.1-.1h-.1c-.1 0-.2.1-.3.2l-1 2.1-1-2.1-.1-.1h-.2-.1s-.1 0-.1.1c0 0 0 .1-.1.1v.2c-.3-.2-.6-.4-1-.4-.5 0-.8.2-1.2.5-.1.1-.2.3-.3.5-.1-.2-.2-.3-.3-.5-.3-.3-.7-.5-1.2-.5s-.8.2-1.2.5c-.1.1-.2.2-.3.4v-1.5-.1s0-.1-.1-.1c0 0-.1 0-.1-.1h-.1c-.1 0-.2.1-.3.1l-1.8 1.9-1.5-2c-.1-.1-.2-.1-.3-.1h-.1s-.1 0-.1.1l-.1.1v3.7c0 .1 0 .1.1.2s.1.1.2.1.2 0 .2-.1c.1-.1.1-.1.1-.2v-2.8l1.4 1.6c.1.1.2.1.3.1.1 0 .2 0 .3-.1l1.5-1.7v2.8c0 .1 0 .1.1.2s.1.1.2.1.2 0 .2-.1c.1-.1.1-.1.1-.2V20c.1.1.2.2.3.4.3.3.7.5 1.2.5.4 0 .8-.1 1.1-.4.1-.1.1-.1.1-.2s0-.2-.1-.2c-.1-.1-.1-.1-.2-.1s-.1 0-.2.1-.2.1-.3.2c-.1 0-.2.1-.4.1-.1 0-.2 0-.3-.1-.1 0-.2-.1-.3-.1-.1-.1-.2-.1-.2-.2-.1-.1-.1-.2-.1-.3H16c.1.3.2.6.5.9.3.3.7.5 1.2.5.4 0 .8-.1 1.1-.4.1-.1.1-.1.1-.2s0-.2-.1-.2c-.1-.1-.1-.1-.2-.1s-.1 0-.2.1-.2.1-.3.2c-.1 0-.2.1-.4.1-.1 0-.2 0-.3-.1-.1 0-.2-.1-.3-.1-.1-.1-.2-.1-.2-.2-.1-.1-.1-.2-.1-.3h2.3c.1 0 .2 0 .2-.1 0 0 .1-.1.1-.2l.7 1.4c.1.1.1.2.3.2.1 0 .2-.1.3-.2l.7-1.4c0 .5.2.8.5 1.1.3.3.7.5 1.2.5s.8-.2 1.2-.5c.3-.3.5-.7.5-1.2 0-.2 0-.4-.1-.6-.5-.5-.6-.7-.8-.8zm-10.3.8c0-.1.1-.2.1-.3.1-.1.1-.2.2-.2.1-.1.2-.1.3-.1.1 0 .2-.1.3-.1.1 0 .2 0 .3.1.1 0 .2.1.3.1.1.1.2.1.2.2.1.1.1.2.1.3h-1.8zm3 0c0-.1.1-.2.1-.3.1-.1.1-.2.2-.2.1-.1.2-.1.3-.1.1 0 .2-.1.3-.1.1 0 .2 0 .3.1.1 0 .2.1.3.1.1.1.2.1.2.2.1.1.1.2.1.3h-1.8zm7.1.7c-.1.1-.1.2-.2.3-.1.1-.2.2-.3.2-.1.1-.3.1-.4.1-.1 0-.3 0-.4-.1-.2 0-.3-.1-.4-.1-.1-.1-.2-.2-.2-.3-.1-.1-.1-.3-.1-.4 0-.1 0-.3.1-.4.1-.1.1-.2.2-.3.1-.1.2-.2.3-.2.1-.1.3-.1.4-.1.1 0 .3 0 .4.1.1.1.2.1.3.2.1.1.2.2.2.3.1.1.1.3.1.4.1.1.1.2 0 .3z"/></svg>