<svg version="1.1" id="Layer_1" xmlns="http://www.w3.org/2000/svg" x="0" y="0" viewBox="0 0 36 36" xml:space="preserve"><style>.st0{fill:#fff}</style><path class="st0" d="M15.6 7.6v2.3l-.5.6-1.3-2.8h1.8M36 10v23.5c0 1.4-1.1 2.5-2.5 2.5H8.7c-1.4 0-2.5-1.1-2.5-2.5V19.6h11.2-.6c1.3 0 1.6-1.7 1.2-2.6l-.9-2h.3c1.6 0 2.9-1.3 2.9-2.9 0-.9-.4-1.8-1.1-2.3V7.6h3.6V10c-.6.5-.9 1.3-.9 2.1 0 1.6 1.3 2.9 2.9 2.9 1.6 0 2.9-1.3 2.9-2.9 0-1-.5-1.9-1.2-2.4V7.6h3.8V10c-.6.5-1 1.3-1 2.2 0 1.6 1.3 2.9 2.9 2.9 1.6 0 2.9-1.3 2.9-2.9 0-1-.5-1.8-1.2-2.4V7.6c1.2.2 2.1 1.2 2.1 2.4zm-3.8-3.8c.3 0 .6.3.6.6V12c0 .3-.3.6-.6.6s-.6-.3-.6-.6V6.8c-.1-.3.2-.6.6-.6zm-7.5 0c.3 0 .6.3.6.6V12c0 .3-.3.6-.6.6s-.6-.3-.6-.6V6.8c-.1-.3.2-.6.6-.6zm-7.2 0c.3 0 .6.3.6.6V12c0 .3-.3.6-.6.6s-.6-.3-.6-.6V6.8c-.1-.3.2-.6.6-.6zM4.1 0h5.8c.5 0 1 .4 1 .9s-.4.9-1 .9h-.3v5.3c.2.1.3.3.4.4l3.9 7.8c.2.5.1 1.1-.3 1.4H.4c-.4-.3-.6-.9-.3-1.4L4 7.5c.1-.2.2-.3.4-.4V1.9h-.3c-.5 0-1-.4-1-.9 0-.6.5-1 1-1z"/></svg>