<svg version="1.1" id="Layer_1" xmlns="http://www.w3.org/2000/svg" x="0" y="0" viewBox="0 0 36 36" xml:space="preserve"><style>.st0{fill:#fff}</style><path class="st0" d="M24.9 12c-.9 0-1.7.8-1.7 1.9v17.4c0 1 .8 1.9 1.7 1.9.9 0 1.7-.8 1.7-1.9V13.9c0-1.1-.8-1.9-1.7-1.9m-13.8 0c-.9 0-1.7.8-1.7 1.9v17.4c0 1 .8 1.9 1.7 1.9.9 0 1.7-.8 1.7-1.9V13.9c0-1.1-.7-1.9-1.7-1.9zm6.9 0c-.9 0-1.7.8-1.7 1.9v17.4c0 1 .8 1.9 1.7 1.9.9 0 1.7-.8 1.7-1.9V13.9c0-1.1-.8-1.9-1.7-1.9zm12 20.5c0 1.8-1.3 3.3-2.9 3.3H9c-1.6 0-2.9-1.5-2.9-3.3V9.4H30v23.1zM15 .2h6c.2 0 .3.1.3.3v2.1c0 .2-.1.3-.3.3h-6c-.2 0-.3-.1-.3-.3V.4c0-.1.1-.2.3-.2zM5.1 4.3h25.8c.2 0 .3.1.3.3v2.8c0 .2-.1.3-.3.3H5.1c-.2 0-.3-.1-.3-.3V4.6c0-.1.1-.3.3-.3z"/></svg>