<svg version="1.1" id="Layer_1" xmlns="http://www.w3.org/2000/svg" x="0" y="0" viewBox="0 0 18 18" xml:space="preserve"><style>.st0{fill:#d1c3e0}</style><path class="st0" d="M8.3 12.9v-2.5H5.4v2.5h2.9m1.4-2.5v2.5h2.7v-2.5H9.7zm0-1.4h2.7V6.5H9.7V9zM5.4 9h2.9V6.5H5.4V9zM4 9V6.5H1.3V9H4zm0 3.9v-2.5H1.3v2.5H4zm4.3 1.4H5.4v2.6h2.9v-2.6zm4.1 0H9.7v2.6h2.7v-2.6zm1.4-3.9v2.5h2.9v-2.5h-2.9zm0-3.9V9h2.9V6.5h-2.9zm2.3 10.4c.3 0 .6-.3.6-.6v-2h-2.9v2.6h2.3zm-14.8-.6c0 .3.3.6.6.6H4v-2.6H1.3v2zm16.7.5c0 .7-.5 1.2-1.2 1.2H1.2C.5 18 0 17.5 0 16.8V5h18v11.8zM1.2 0h15.6c.7 0 1.2.5 1.2 1.2v2.7H0V1.2C0 .5.5 0 1.2 0z"/></svg>