<svg version="1.1" id="Layer_1" xmlns="http://www.w3.org/2000/svg" x="0" y="0" viewBox="0 0 36 36" xml:space="preserve"><style>.st0{fill:#fff}</style><path class="st0" d="M4.2 23.2V2.8l15.4-1.7-14.4 2V23l-1 .2M25.4.2c.2 0 .4.2.4.3V13l-4.4 1.3-1.1-1.5 3-4.7-4.4.8-2.4-4.3-1.5 5-4.8.9 4.4 3-.6 2.9-2.4.7s-2.5.7-2.3 4.4l.1 3.1-2.6.8c-.3 0-.5-.2-.5-.5V4.6c0-.3.2-.5.5-.5L23.6.6l-22.2.8c-.4 0-.5.3-.5.6v17c0 .2.2.4.4.4l.7-.1V2.1L18.6 1 3 2.4v18.8l-.9.2v-1.6L.6 20c-.3 0-.5-.2-.5-.5V1.1C.1.8.3.6.6.6L23.7.3l.6-.1c.6-.1.9-.1 1.1 0zm-8.5 5.7l2 3.7 3.7-.7-2.6 4 1 1.4-6.6 2 .6-2.7-3.7-2.6 4.1-.8 1.5-4.3zm10.4 15.9c-.3.2-.5.4-.3.9.2.4.6.4 1 .3l2.7-1.4c.2-.1.3-.4.1-.7-.1-.2-.3-.3-.6-.3-.5.1-2.8 1.2-2.9 1.2zm-1-1.7c-.3.2-.5.4-.4.8.2.4.6.4 1 .3l4.5-2.1c.2-.1.2-.4.1-.7-.1-.2-.4-.3-.7-.2-.3.1-4.4 1.9-4.5 1.9zm-.8-1.9c-.3.2-.5.4-.4.8.2.4.6.4 1 .3.3-.2 4.4-1.7 4.6-1.9.2-.1.2-.4.1-.7-.1-.2-.4-.3-.7-.2l-4.6 1.7zm-8.7 1.3c-.9.4-1.1.9-.7 1.8l4.4 10c.5 1.1 1.1.9 1.7.6l4.6-2.8c.6-.3.8-1 .4-1.7l-4-8.8c-.3-.7-.7-1-1.7-.7l-4.7 1.6zM29 13c.6-.2 1-.3 1.4-.2.7.1.9 1 .9 1l4.2 10c.2.5.3 1 .3 1.3 0 .9-.8 1.3-.8 1.3L22.6 35c-.8.5-1.6.9-2.1.9-1.2 0-1.6-1.3-1.6-1.3l-5.6-13.5c-.3-.5-.7-1.6-.3-2.4.4-.9 2.3-1.3 2.3-1.3L29 13zm-8.1 16.3s-.5-2.7.2-3c.6-.3 1.7.9 2 .8.3 0 .3-.3.3-.6s0-.8.3-.9c.3-.2 1.1.4 2 1.5 0 0-.2.6-.1 1L22.3 30c-.5-.6-1.4-.7-1.4-.7zm-.6-9c.8-.3 1.9.5 2.4 1.8s.3 2.6-.6 3c-.8.3-1.9-.5-2.4-1.8s-.2-2.7.6-3z"/></svg>