<svg version="1.1" id="Layer_1" xmlns="http://www.w3.org/2000/svg" x="0" y="0" viewBox="0 0 36 36" xml:space="preserve"><style>.st0{fill:#fff}</style><path class="st0" d="M35.9 31.1c-.1.7-2.1 1.2-4.5 1.2l-1.7-.1V16.4h-.1c0-.7-.8-1.2-2-1.6v-.3c.9.3 2.2.5 3.8.5 2.1 0 3.8-.4 4.5-.9V17c-.2.6-2.1 1.1-4.5 1.1v8.5c2.5 0 4.4-.5 4.5-1.2v5.7M9.8 6.1v.7c0 .1.1.3.3.4v1.1c-.8-.2-1.4-.4-1.8-.6V6.6c.4-.2.9-.3 1.5-.5zM12.4.4c-1.2 0-2.2.3-2.2.6s1 .6 2.2.6 2.2-.3 2.2-.6-1-.6-2.2-.6zm0-.3c1.5 0 2.7.3 2.7.7v4.4H14V2l-.5.1v3.2h-.4V2.1h-.5v3.2c-1 .2-1.9.5-2.3.9-.4-.1-.6-.3-.6-.5V.9c0-.4 1.2-.8 2.7-.8zM19.3 9v.7c0 .2.2.3.5.4l-.2 1c-.8-.1-1.4-.3-1.8-.5V9.5c.3-.2.9-.4 1.5-.5zm2.6-5.7c-1.2 0-2.2.3-2.2.6s1 .6 2.2.6c1.2 0 2.2-.3 2.2-.6s-1-.6-2.2-.6zm0-.3c1.5 0 2.7.3 2.7.7v4.4h-.8-.1V4.9l-.5.1v3.2h-.4V5l-.5.1v3.1c-1.1.2-2 .5-2.4.9-.5-.1-.8-.3-.8-.6V3.7c.1-.4 1.3-.7 2.8-.7zm14 10c0 .7-2 1.2-4.5 1.2-1.6 0-3-.2-3.8-.6v-1.4l1.2-.3v.7c0 .4 1.1.7 2.6.7 1.4 0 2.6-.3 2.6-.7V12c1.1.3 1.9.6 1.9 1zm-4.6-6.7c-1.2 0-2.2.3-2.2.6s1 .6 2.2.6c1.2 0 2.2-.3 2.2-.6s-.9-.6-2.2-.6zm0-.3c1.5 0 2.7.3 2.7.7v4.8c0 .2-.4.4-.9.6V7.8l-.5.2v4.3h-.4V8.1l-.5.1v4.3h-.5c-1.5 0-2.7-.3-2.7-.8V6.8c.1-.4 1.4-.8 2.8-.8zm-3.2 28.7c-.1.7-2.1 1.2-4.5 1.2s-4.4-.5-4.5-1.2v-17c.7.5 2.4.9 4.5.9s3.8-.4 4.5-.9v2.9c-.2.6-2.1 1.1-4.5 1.1v8.5c2.5 0 4.4-.5 4.5-1.2v5.7zM4.7 30c-2.4 0-4.4-.5-4.5-1.2v-17c.7.5 2.4.9 4.5.9s3.8-.4 4.5-.9v.8c-.3.2-.5.5-.6.8v1.8c-.8.4-2.2.6-3.9.6v8.5c1.7 0 3.1-.2 3.9-.6v5.6c-.8.4-2.3.7-3.9.7zm4.5-19.3c0 .7-2 1.2-4.5 1.2S.2 11.3.2 10.7c0-.4.8-.8 1.9-1v.7c0 .4 1.1.7 2.6.7 1.4 0 2.6-.3 2.6-.7v-.8c1.1.3 1.9.6 1.9 1.1zM4.7 4c-1.3 0-2.3.2-2.3.6 0 .3 1 .6 2.2.6s2.2-.3 2.2-.6c.1-.4-.9-.6-2.1-.6zm0-.3c1.5 0 2.7.3 2.7.7v4.8c0 .2-.3.4-.9.5V5.2l-.5.2v4.5h-.4V5.5l-.4.1V10h-.5c-1.5 0-2.8-.3-2.7-.8V4.4c-.1-.4 1.2-.7 2.7-.7zm9.4 29.1c-2.4 0-4.4-.5-4.5-1.2v-17c.7.5 2.4.9 4.5.9s3.8-.4 4.5-.9v.8c-.3.2-.5.5-.6.8V18c-.8.4-2.2.6-3.9.6v8.5c1.7 0 3.1-.2 3.9-.6v5.6c-.7.5-2.2.7-3.9.7zm4.6-19.3c0 .7-2 1.2-4.5 1.2s-4.5-.6-4.5-1.2c0-.4.8-.8 1.9-1v.7c0 .4 1.1.7 2.6.7 1.4 0 2.6-.3 2.6-.7v-.7c1.1.2 1.9.6 1.9 1zm-4.6-6.7c-1.2 0-2.2.3-2.2.6s1 .6 2.2.6c1.2 0 2.2-.3 2.2-.6.1-.3-.9-.6-2.2-.6zm0-.3c1.5 0 2.7.3 2.7.7V12c0 .2-.3.4-.8.5V8.2l-.5.1v4.3c-.1 0-.2 0-.4.1V8.5l-.5.1v4.3H14c-1.5 0-2.7-.3-2.7-.8V7.2c.1-.4 1.4-.7 2.8-.7zm14 10.1c0 .7-2 1.2-4.5 1.2s-4.5-.6-4.5-1.2c0-.4.8-.8 1.9-1v.7c0 .4 1.1.7 2.6.7 1.4 0 2.6-.3 2.6-.7v-.7c1.2.2 1.9.5 1.9 1zm-4.5-6.7c-1.2 0-2.2.3-2.2.6s1 .6 2.2.6 2.2-.3 2.2-.6c0-.4-.9-.6-2.2-.6zm0-.3c1.5 0 2.7.3 2.7.7v4.8c0 .2-.4.5-1.1.6v-4.3l-.5.1v4.3h-.4v-4.3l-.3.1v4.3h-.3c-1.5 0-2.7-.3-2.7-.8v-4.8c-.1-.4 1.1-.7 2.6-.7z"/></svg>