<svg version="1.1" id="Layer_1" xmlns="http://www.w3.org/2000/svg" x="0" y="0" viewBox="0 0 36 36" xml:space="preserve"><style>.st0{fill:#fff}</style><path class="st0" d="M25.3 10.8c.6.6.6 1.6 0 2.3l-5 5 5 5c.6.6.6 1.6 0 2.3-.6.6-1.6.6-2.3 0l-6-6c-.3-.3-.5-.8-.5-1.2 0-.4.1-.9.5-1.2l6-6c.6-.9 1.7-.9 2.3-.2m-7.7 0c.6.6.6 1.6 0 2.3l-5 5 5 5c.6.6.6 1.6 0 2.3-.6.6-1.6.6-2.3 0l-6-6c-.3-.5-.5-1-.5-1.4 0-.4.1-.9.5-1.2l6-6c.7-.7 1.7-.7 2.3 0zm.4-8C9.6 2.8 2.8 9.7 2.8 18.1s6.8 15.3 15.3 15.3 15.3-6.8 15.3-15.3C33.3 9.7 26.5 2.8 18 2.8zm0-2.7c9.9 0 17.9 8 17.9 17.9s-8 17.9-17.9 17.9S.1 27.9.1 18 8.1.1 18 .1z"/></svg>