<svg version="1.1" id="Layer_1" xmlns="http://www.w3.org/2000/svg" x="0" y="0" viewBox="0 0 36 36" xml:space="preserve"><style>.st0{fill:#fff}</style><path class="st0" d="M28.2 10.2c-.1.5-.5.9-1 1V8.6c.7.3 1.1 1 1 1.6m2.3-3.7c.6.1 1 .7.9 1.3l-1.1 5.4c-.4-.2-.9-.4-1.5-.6l.8-4.1c.1-.3-.1-.6-.4-.7l-2-.4V5.7l3.3.8zm-8.3.5c0 .5-.3 1-.8 1.3l-.3-2.7c.7.2 1.1.8 1.1 1.4zm1.7-4.7c.7 0 1.3.5 1.3 1.3l.2 8.6h-.3l-1.5.1-.2-7.4c0-.4-.3-.6-.7-.6h-1.8l-.2-1.9 3.2-.1zM11.8 5.8c-.2-.9.6-1.7 1.6-1.9 1.1-.2 2.1.4 2.2 1.2.2.8-.5 1.7-1.6 1.9-1 .2-2-.4-2.2-1.2zm-8 1.4c-.2-.9.6-1.7 1.6-1.9 1.1-.2 2.1.4 2.2 1.2.2.9-.5 1.8-1.6 1.9-1.1.2-2.1-.3-2.2-1.2zm3.3 14.4c-.4-2.3 1.5-4.6 4.3-5.1 1.8-.3 3.4.1 4.6 1.1l-.2-1.2c-.1-.3.2-.7.5-.7.3-.1.7.2.7.5l.4 2.3c-1.5.1-5.2.4-5.3 2.2l.1 1.2s-.6.3-.6.4v1.3s0 1.1 1 1.4c-2.6.2-5.1-1.2-5.5-3.4zM.2 4.5c-.1-.7.3-1.4 1-1.5L16.5.2c.7-.1 1.4.3 1.5 1l2.1 11.6c-.8.2-1.4.5-1.6 1l-2-11c-.1-.3-.4-.6-.7-.5L2.7 4.6c-.4.1-.6.4-.5.8l5.5 30.5H5.9L.2 4.5zm23.3 14.4h-.3V18h.3v.9zm-.4 0l-1.5-.1v-.9l1.5.1v.9zm.8 0h-.2V18h.2v.9zm-2.5-.1h-.2v-.9h.2v.9zm-.4-.1c-.5-.1-.8-.2-1.1-.3v-.9l1.1.3v.9zm6.7-.1l-.2.1v-.9l.2-.1v.9zm.8-.2l-.3.1v-.9l.3-.1v.9zm-.4.1l-.3.1v-.9l.3-.1v.9zm-1.6.3h-.3v-.9h.3v.9zm.8-.1H27v-.9h.3v.9zm-.4.1h-.3v-.9h.3v.9zm-7.4-.8v-.8l.3.2v.9c-.2-.1-.3-.2-.3-.3zm4.7.9h-.1V18h.1l1.8-.1v.9l-1.8.1zM29 18c0 .1-.1.2-.3.3v-.9l.3-.2v.8zm-4.8-.3c-2.6 0-4.7-.4-4.7-1 0-.1.1-.2.2-.3.5.5 2.5.9 5 .9 1.7 0 3.3-.2 4.2-.5-.2.6-2.2.9-4.7.9zm.2 2.5h.3v.4l-.3-.3v-.1zm-.1-.1h-.2.2zm.8 1h-.2v-.9h.2v.9zm3.8-.3l-.2.1V20l.2-.1v.9zm.8-.3l-.3.1v-.9l.3-.1v.9zm-.4.2l-.3.1v-.9l.3-.1v.9zm-1.7.3h-.3v-.9h.3v.9zm.9-.1h-.3V20h.3v.9zm-.5 0h-.3V20h.3v.9zm-2.6.2h-.1v-.9h.1l1.8-.1v.9l-1.8.1zm4.7-1c0 .1-.1.2-.3.3v-.9l.3-.2v.8zm0-1.2c0 .5-2.1 1-4.7 1-1 0-2-.1-2.8-.2l-.3-.1c-.6-.1-1.1-.3-1.4-.4.9.2 2.1.3 3.4.3 2.7 0 4.9-.5 5.1-1.1.4.1.7.3.7.5zm-5.7 4.3l-.1-.2h.1v.2zm.4 0h-.2v-.4c.3-.2.2-.4.2-.4v-.1.9zm3.7-.3l-.2.1v-1l.2-.1v1zm.9-.2l-.3.1v-.9l.3-.1v.9zm-.5.1l-.3.1V22l.3-.1v.9zm-1.6.3H27v-.9h.3v.9zm.8-.1h-.3v-.9h.3v.9zm-.4.1h-.3v-.9h.3v.9zm-2.6.1H25v-.9h.1l1.8-.1v.9l-1.8.1zm4.7-.9c0 .1-.1.2-.3.3v-.9l.3-.2v.8zm-4.7-.3h-.3v-.4h.7c1.9 0 3.5-.2 4.4-.6-.2.6-2.3 1-4.8 1zm-.5 2.4H25.4l-.4.2-.4-.2zm4.6-.7l.3-.2v.3h-.3v-.1zm-4.5.4h-.4v-.3h.7c1.9 0 3.5-.2 4.4-.6-.2.5-2.2.9-4.7.9zm0 7.4v-.9h.7l.1.4s-.3.2-.4.5v.1l-.4-.1zm.7-1.5v.3h-.7V30h.7zM24 16.8h-.3v-.9h.3v.9zm-.4 0l-1.5-.1v-.9l1.5.1v.9zm.8 0h-.2v-.9h.2v.9zm-2.5-.1h-.2v-.9h.2v.9zm-.4-.1c-.5-.1-.8-.2-1.1-.3v-.9l1.1.3v.9zm6.7-.1H28v-.9l.2-.1v1zm.8-.2l-.3.1v-.9l.3-.1v.9zm-.4.1l-.3.1v-.9l.3-.1v.9zm-1.6.3h-.3v-.9h.3v.9zm.8-.1h-.3v-.9h.3v.9zm-.4.1h-.3v-.9h.3v.9zm-7.4-.8v-.8l.3.2v.9c-.2-.1-.3-.2-.3-.3zm4.7.9h-.1v-.9h.1l1.8-.1v.9l-1.8.1zm4.8-.9c0 .1-.1.2-.3.3v-.9l.3-.2v.8zm-4.8-2.2c2.6 0 4.7.4 4.7 1 0 .5-2.1 1-4.7 1s-4.7-.4-4.7-1 2.1-1 4.7-1zm4.6 15.8H29v-.9h.3v.9zm-.5 0l-1.5-.1v-.9l1.5.1v.9zm.9 0h-.2v-.9h.2v.9zm-2.6-.2h-.2v-.9h.2v.9zm-.3 0c-.5-.1-.8-.2-1.1-.3v-1l1.1.3v1zm6.6-.1l-.2.1v-.9l.2-.1v.9zm.9-.3l-.3.1v-.9l.3-.1v.9zm-.5.2l-.3.1v-.9l.3-.1v.9zm-1.6.3h-.3v-.9h.3v.9zm.8-.1h-.3v-.9h.3v.9zm-.4 0h-.3v-.9h.3v.9zm-7.4-.8v-.8l.3.2v.9c-.2 0-.3-.2-.3-.3zm4.7 1h-.1v-.9h.1l1.8-.1v.9l-1.8.1zm4.8-1c0 .1-.1.2-.3.3v-.9l.3-.2v.8zm-4.8-.2c-2.6 0-4.7-.4-4.7-1 0-.1.1-.2.2-.3.5.5 2.5.9 5 .9 1.7 0 3.3-.2 4.2-.5-.2.5-2.2.9-4.7.9zm.5 3.3h-.3v-.9h.3v.9zm-.4 0l-1.5-.1v-.9l1.5.1v.9zm.8.1h-.2v-.9h.2v.9zm-2.5-.2h-.2v-.9h.2v.9zm-.4-.1c-.5-.1-.8-.2-1.1-.3v-.9l1.1.3v.9zm6.7-.1h-.2v-.9l.2-.1v1zm.8-.2l-.3.1v-.9l.3-.1v.9zm-.4.1l-.3.1v-.9l.3-.1v.9zm-1.7.3H33v-.9h.3v.9zm.9-.1h-.3v-.9h.3v.9zm-.5.1h-.3v-.9h.3v.9zm-7.3-.8v-.8l.3.2v.9c-.2-.1-.3-.2-.3-.3zm4.7 1H31v-.9h.1l1.8-.1v.9l-1.8.1zm4.7-1c0 .1-.1.2-.3.3v-.9l.3-.2v.8zm0-1.2c0 .5-2.1 1-4.7 1-2.1 0-3.9-.3-4.5-.7.9.2 2.1.3 3.4.3 2.7 0 4.9-.5 5.1-1.1.4.1.7.3.7.5zm-5.7 4.3h-.3v-.9h.3v.9zm-.4 0l-1.5-.1v-.9l1.5.1v.9zm.8 0h-.2v-.9h.2v.9zm-2.5-.2h-.2v-.9h.2v.9zm-.4-.1c-.5-.1-.8-.2-1.1-.3v-.9l1.1.3v.9zm6.6 0H34v-.9l.2-.1v1zm.9-.3l-.3.1v-.9l.3-.1v.9zm-.4.2l-.3.1v-.9l.3-.1v.9zm-1.7.3h-.3v-.9h.3v.9zm.8-.1h-.3v-.9h.3v.9zm-.4 0h-.3v-.9h.3v.9zm-7.4-.8V32l.3.2v.9c-.2-.1-.3-.2-.3-.3zm4.8 1h-.1v-.9h.1l1.8-.1v.9l-1.8.1zm4.7-1c0 .1-.1.2-.3.3v-.9l.3-.2v.8zm-4.7-.2c-2.6 0-4.7-.4-4.7-1 0-.1.1-.2.2-.2.6.5 2.6.8 4.9.8 1.9 0 3.5-.2 4.4-.6-.1.5-2.2 1-4.8 1zm-1 3.2h-.3v-.9h.3v.9zm-.5 0l-1.5-.1v-.9l1.5.1v.9zm.9 0H30v-.9h.2v.9zm-2.5-.2h-.2v-.9h.2v.9zm-.4 0c-.5-.1-.8-.2-1.1-.3v-.9l1.1.3v.9zm6.6-.1h-.2v-.9l.2-.1v1zm.9-.2l-.3.1v-.9l.3-.1v.9zm-.5.1l-.3.1v-.9l.3-.1v.9zm-1.6.3h-.3v-.9h.3v.9zm.8-.1h-.3v-.9h.3v.9zm-.4.1h-.3v-.9h.3v.9zm-7.4-.8v-.8l.3.2v.9c-.2-.1-.3-.2-.3-.3zm4.8.9h-.1v-.9h.1l1.8-.1v.9l-1.8.1zm4.7-.9c0 .1-.1.2-.3.3v-.9l.3-.2v.8zm-4.7-.3c-2.6 0-4.7-.4-4.7-1l.1-.2c.6.5 2.6.9 4.9.9 1.9 0 3.5-.2 4.4-.6-.3.5-2.3.9-4.7.9zm-.7-7.2h-.3v-.9h.3v.9zm-.5 0l-1.5-.1v-.9l1.5.1v.9zm.9 0H30v-.9h.2v.9zm-2.5-.2h-.2v-.9h.2v.9zm-.4-.1c-.5-.1-.8-.2-1.1-.3v-.9l1.1.3v.9zm6.6 0h-.2v-.9h.2v.9zm.9-.3l-.3.1V26l.3-.1v.9zm-.5.2l-.3.1v-.9l.3-.1v.9zm-1.6.3h-.3v-.9h.3v.9zm.8-.1h-.3v-.9h.3v.9zm-.4 0h-.3v-.9h.3v.9zm-7.4-.8v-.8l.3.2v.9c-.2-.1-.3-.2-.3-.3zm4.8 1h-.1v-.9h.1l1.8-.1v.9l-1.8.1zm4.7-1c0 .1-.1.2-.3.3v-.9l.3-.2v.8zm-4.7-2.1c2.6 0 4.7.4 4.7 1 0 .5-2.1 1-4.7 1s-4.7-.4-4.7-1c-.1-.6 2-1 4.7-1zm-12.8.7h-.3v-1h.3v1zm-.4 0l-1.5-.1V24l1.5.1v.9zm.8 0h-.2v-1h.2v1zm-2.5-.2h-.2v-.9h.2v.9zm-.4-.1c-.5-.1-.8-.2-1.1-.3v-.9l1.1.3v.9zm6.7 0l-.2.1v-.9l.2-.1v.9zm.8-.3l-.3.1v-.9l.3-.1v.9zm-.4.2H22v-.9l.3-.1v1zm-1.7.3h-.3V24h.3v.9zm.9-.2h-.3v-.9h.3v.9zm-.4.1h-.3v-.9h.3v.9zm-7.4-.8v-.8l.3.2v.9c-.2-.1-.3-.2-.3-.3zm4.7 1h-.1v-.9h.1l1.8-.1v.9l-1.8.1zm4.8-1c0 .1-.1.2-.3.3v-.9l.3-.2v.8zm-4.8-.2c-2.6 0-4.7-.4-4.7-1 0-.1.1-.2.2-.3.5.5 2.5.9 5 .9 1.7 0 3.3-.2 4.2-.5-.3.5-2.3.9-4.7.9zm.5 3.3h-.3v-.9h.3v.9zm-.4 0l-1.6-.1v-1l1.5.1v1zm.8 0h-.2v-.9h.2v.9zm-2.5-.2h-.2V26h.2v.9zm-.4 0c-.5-.1-.8-.2-1.1-.3v-.9l1.1.3v.9zm6.6-.1l-.2.1V26l.2-.1v.9zm.9-.2l-.3.1v-.9l.3-.1v.9zm-.4.1l-.3.1v-.9l.3-.1v.9zm-1.7.3h-.3v-.9h.3v.9zm.8-.1h-.3V26h.3v.9zm-.4.1H22v-.9h.3v.9zm-7.3-.9v-.8l.3.2v.9c-.3 0-.3-.1-.3-.3zm4.7 1h-.1v-.9h.1l1.8-.1v.9l-1.8.1zm4.7-.9c0 .1-.1.2-.3.3v-.9l.3-.2v.8zm0-1.3c0 .5-2.1 1-4.7 1-2.1 0-3.9-.3-4.5-.7.9.2 2.1.3 3.4.3 2.7 0 4.9-.5 5.1-1.1.4.2.7.3.7.5zm-5.7 4.3h-.3v-.9h.3v.9zm-.5 0l-1.5-.1v-.9l1.5.1v.9zm.9.1h-.2v-.9h.2v.9zm-2.5-.2h-.2v-.9h.2v.9zm-.4-.1c-.5-.1-.8-.2-1.1-.3v-.9l1.1.3v.9zm6.6-.1l-.2.1v-.9h.2v.8zm.9-.2l-.3.1v-.9l.3-.1v.9zm-.5.1l-.3.1V28l.3-.1v.9zm-1.6.3h-.3v-.9h.3v.9zm.8-.1H22v-.9h.3v.9zm-.4.1h-.3v-.9h.3v.9zm-7.4-.8v-.8l.3.2v.9c-.2-.1-.3-.2-.3-.3zm4.7 1h-.1v-.9h.1l1.8-.1v.9l-1.8.1zm4.8-1c0 .1-.1.2-.3.3v-.9l.3-.2v.8zm-4.8-.3c-2.6 0-4.7-.4-4.7-1 0-.1.1-.2.2-.2.6.5 2.6.8 4.9.8 1.9 0 3.5-.2 4.4-.6-.1.6-2.2 1-4.8 1zm-1 3.3h-.3v-.9h.3v.9zm-.4 0l-1.5-.1v-.9l1.5.1v.9zm.8 0h-.2v-.9h.2v.9zm-2.5-.2h-.2v-.9h.2v.9zm-.4-.1c-.5-.1-.8-.2-1.1-.3v-.9l1.1.3v.9zm6.7 0h-.3v-.9l.2-.1v1zm.8-.3l-.2.1v-.9l.3-.1v.9zm-.4.2l-.3.1v-1l.3-.1v1zm-1.7.3h-.3v-.9h.3v.9zm.9-.1h-.3v-.9h.3v.9zm-.4 0h-.3v-.9h.3v.9zm-7.4-.8v-.8l.3.2v.9c-.2 0-.3-.2-.3-.3zm4.7 1h-.1v-.9h.1l1.8-.1v.9l-1.8.1zm4.8-1c0 .1-.1.2-.3.3v-.9l.3-.2v.8zm-4.8-.2c-2.6 0-4.7-.4-4.7-1l.1-.2c.6.5 2.6.9 4.9.9 1.9 0 3.5-.2 4.4-.6-.2.5-2.2.9-4.7.9zm-.7 3.3h-.3v-.9h.3v.9zm-.4 0l-1.5-.1v-.9l1.5.1v.9zm.8 0h-.2v-.9h.2v.9zm-2.5-.2h-.2v-.9h.2v.9zm-.4-.1c-.5-.1-.8-.2-1.1-.3v-.9l1.1.3v.9zm6.7 0l-.2.1v-.9h.2v.8zm.8-.3l-.2.1V32l.3-.1v.9zm-.4.2h-.3v-.9l.3-.1v1zm-1.7.3h-.3v-.9h.3v.9zm.9-.1h-.3v-.9h.3v.9zm-.4 0h-.3v-.9h.3v.9zm-7.4-.8v-.8l.3.2v.9c-.2-.1-.3-.2-.3-.3zm4.7 1h-.1v-.9h.1l1.8-.1v.9l-1.8.1zm4.8-1c0 .1-.1.2-.3.3v-.9l.3-.2v.8zm0-1.2c0 .5-2.1 1-4.7 1s-4.7-.4-4.7-1v-.1c.8.4 2.6.7 4.7.7 2.1.1 3.9-.2 4.7-.6zm-5.5-8.3h-.3V22h.3v.9zm-.4-.1l-1.5-.1v-.9l1.5.1v.9zm.8.1h-.2V22h.2v.9zm-2.5-.2h-.2v-.9h.2v.9zm-.4-.1c-.5-.1-.8-.2-1.1-.3v-.9l1.1.3v.9zm6.7 0h-.2v-.9l.2-.1v1zm.8-.3l-.2.1v-.9l.3-.1v.9zm-.4.2l-.3.1v-.9l.3-.1v.9zm-1.7.3h-.3v-.9h.3v.9zm.9-.2h-.3v-.9h.3v.9zm-.4.1h-.3v-.9h.3v.9zm-7.4-.8v-.8l.3.2v.9c-.2-.1-.3-.2-.3-.3zm4.7 1h-.1V22h.1l1.8-.1v.9l-1.8.1zm4.8-1c0 .1-.1.2-.3.3v-.9l.3-.2v.8zm-4.8-2.2c2.6 0 4.7.4 4.7 1 0 .5-2.1 1-4.7 1s-4.7-.4-4.7-1c0-.5 2.1-1 4.7-1z"/></svg>