<svg version="1.1" id="Layer_1" xmlns="http://www.w3.org/2000/svg" x="0" y="0" viewBox="0 0 36 36" xml:space="preserve"><style>.st0{fill:#fff}</style><path class="st0" d="M32.3 8.5h-3l.3-.5.9-.9 1-1c.3-.3.5-.7.6-1 .1-.3.2-.7.2-1 0-.6-.2-1.1-.7-1.6-.4-.3-1-.5-1.8-.5-.7 0-1.3.2-1.8.6-.5.4-.8 1-.8 1.9l1.6.2c0-.4.1-.8.3-.9.2-.2.4-.3.7-.3.3 0 .5.1.7.3.2.2.3.4.3.8 0 .3-.1.6-.3.9-.2.2-.6.7-1.2 1.3-.8.8-1.4 1.4-1.7 1.9-.3.5-.4 1-.5 1.5h5.2V8.5M29.7.1c3.4 0 6.1 2.7 6.1 6.1 0 3.4-2.7 6.1-6.1 6.1-3.4 0-6.1-2.7-6.1-6.1 0-3.3 2.7-6.1 6.1-6.1zM1.6 23.4l-.5-.9h31.5l-.5.9H1.6zm1.5 1.8l-.8-.9h29.2l-.8.9H3.1zm2.1 1.7L4 26h25.7l-1.2.9H5.2zm12 5.4l.4-.9h6.7l-.9.9h-6.2zm-.7 1.8l.3-.9h5.6l-1.2.9h-4.7zm1.5-3.8h-1.1c-2 0-4-.3-5.8-.7h14.7l-.8.9h-7.1l.1-.2zm-1.3 5.5c-.3-.2-.4-.4-.4-.8h3.5c-1.5.8-2.6 1-3.1.8zM26.9 28l-.5.8H8.5c-.7-.3-1.3-.6-1.9-.9h20.6l-.3.1zM13.8 18h-2c0-.3-.2-.6-.3-.9h2.6l-.3.9zm.3 1.8h-2.6l.3-.9h2l.3.9zm7.6-1.8h-2.1c0-.3-.2-.6-.3-.9H22l-.3.9zm.3 1.8h-2.7l.3-.9h2.1l.3.9zM20.9 7.3h-10c1.9-.5 3.9-.8 6-.8 1.4 0 2.8.1 4 .4v.4zm.4 1.8H6.5c.6-.3 1.2-.6 1.9-.9h12.7l.2.9zm.9 1.8H3.9l1.2-.9h16.6l.5.9zm1.4 1.8H2.2l.8-1h19.7l.9 1zm2.8 1.7H1.1l.5-.9h23.1c.5.4 1.1.7 1.7.9zM6 18H.1l.1-.9h6.1L6 18zm.3 1.8H.2l-.1-.9H6l.3.9zm20.3.9h6.7l-.3.9H.7l-.3-.9H7c.5.5 1.2.7 1.9.7s1.4-.3 1.9-.7h3.9c.5.5 1.2.7 1.9.7s1.4-.3 1.9-.7h4c.5.5 1.2.7 1.9.7 1 0 1.6-.3 2.2-.7zm.9-1.8h6l-.1.9h-6.2c.2-.3.3-.6.3-.9zm-.3-1.8h6.3l.1.9h-6.1c0-.3-.1-.6-.3-.9zm-2.6-1.6c-.7 0-1.4.3-1.9.7h-4.1c-.5-.4-1.2-.7-1.9-.7s-1.4.3-1.9.7h-4c-.5-.4-1.2-.7-1.9-.7s-1.4.3-1.9.7H.4l.3-.9H33l.3.9h-6.8c-.5-.4-1.1-.7-1.9-.7z"/></svg>