<svg version="1.1" id="Layer_1" xmlns="http://www.w3.org/2000/svg" x="0" y="0" viewBox="0 0 36 36" xml:space="preserve"><style>.st0{fill:#fff}</style><path class="st0" d="M4 2.9c-.6 0-1.2.5-1.2 1.2v18.5c0 .7.5 1.2 1.2 1.2h28c.6 0 1.2-.5 1.2-1.2V4.1c0-.7-.5-1.2-1.2-1.2H4M3.3.4h29.4c1.6 0 2.9 1.3 2.9 3v20c0 1.6-1.3 3-2.9 3H3.3c-1.6 0-2.9-1.3-2.9-3v-20c0-1.7 1.3-3 2.9-3zm4.6 35.2c-.3 0-.6-.3-.6-.6v-.8c0-.3.3-.6.6-.6h4.9v-5.3c0-.3.3-.6.6-.6h9.1c.3 0 .6.3.6.6v5.3H28c.3 0 .6.3.6.6v.8c0 .3-.3.6-.6.6H7.9zm2.7-19.5h2.2c.3 0 .5.2.5.5v2.3c0 .3-.2.5-.5.5h-2.2c-.3 0-.5-.2-.5-.5v-2.3c-.1-.2.2-.5.5-.5zm-4.1 0h2.2c.3 0 .5.2.5.5v2.3c0 .3-.2.5-.5.5H6.5c-.3 0-.5-.2-.5-.5v-2.3c-.1-.2.2-.5.5-.5zm16.8 0h2.2c.3 0 .5.2.5.5v2.3c0 .3-.2.5-.5.5h-2.2c-.3 0-.5-.2-.5-.5v-2.3c-.1-.2.2-.5.5-.5zm4 0h2.2c.3 0 .5.2.5.5v2.3c0 .3-.2.5-.5.5h-2.2c-.3 0-.5-.2-.5-.5v-2.3c0-.3.2-.5.5-.5zm-12.6 0h6.8c.3 0 .5.2.5.5v2.3c0 .3-.2.5-.5.5h-6.8c-.3 0-.5-.2-.5-.5v-2.3c-.1-.2.2-.5.5-.5zm0-8.6h6.6c.3 0 .5.2.5.5v6.7c0 .3-.2.5-.5.5h-6.6c-.3 0-.5-.2-.5-.5V8.1c-.1-.3.2-.6.5-.6zm12.6 4.4h2.2c.3 0 .5.2.5.5v2.3c0 .3-.2.5-.5.5h-2.2c-.3 0-.5-.2-.5-.5v-2.3c-.1-.2.2-.5.5-.5zm0-4.4h2.2c.3 0 .5.2.5.5v2.3c0 .3-.2.5-.5.5h-2.2c-.3 0-.5-.2-.5-.5V8.1c-.1-.3.2-.6.5-.6zm-4.2 4.4h2.2c.3 0 .5.2.5.5v2.3c0 .3-.2.5-.5.5h-2.2c-.3 0-.5-.2-.5-.5v-2.3c0-.3.2-.5.5-.5zm0-4.4h2.2c.3 0 .5.2.5.5v2.3c0 .3-.2.5-.5.5h-2.2c-.3 0-.5-.2-.5-.5V8.1c0-.3.2-.6.5-.6zm-12.5 4.4h2.2c.3 0 .5.2.5.5v2.3c0 .3-.2.5-.5.5h-2.2c-.3 0-.5-.2-.5-.5v-2.3c-.1-.3.2-.5.5-.5zm0-4.4h2.2c.3 0 .5.2.5.5v2.3c0 .3-.2.5-.5.5h-2.2c-.3 0-.5-.2-.5-.5V8.1c-.1-.3.2-.6.5-.6zm-4.2 4.4h2.2c.3 0 .5.2.5.5v2.3c0 .3-.2.5-.5.5H6.4c-.3 0-.5-.2-.5-.5v-2.3c0-.3.2-.5.5-.5zm0-4.4h2.2c.3 0 .5.2.5.5v2.3c0 .3-.2.5-.5.5H6.4c-.3 0-.5-.2-.5-.5V8.1c0-.3.2-.6.5-.6z"/></svg>