<svg version="1.1" id="Layer_1" xmlns="http://www.w3.org/2000/svg" x="0" y="0" viewBox="0 0 36 36" xml:space="preserve"><style>.st0{fill:#fff}</style><path class="st0" d="M6.2 12.2c-.6-.1-1.2.3-1.3.9L4.5 15c-.1.6.3 1.2.9 1.3l2.5.5c.6.1 1.2-.3 1.3-.9l.4-1.9c.1-.6-.3-1.2-.9-1.3l-2.5-.5m17.6 14.6l-.1.8-1.2 6.1c-.4 1.2-1.5 2.2-2.9 2.2h-5.9c-1.4 0-2.9-.9-3.6-2.1-.6-1.6-.8-3.9-1.7-5.6-.9-1.7-1.6-2.7-2.3-4l-.1-.5c-.2-.4-.7-1.3.3-2 .4-.6 1.1-1.3 1.3-1.8.3-.4.4-1.2 1-1.1.8.2.9 2 .6 2.9-.3.8-.5 1-.7 1.2l1.6 2.3.1.2.1.2.3.3c.2.1 2.9 1.1 3 4.9 0 0 .2.6.5 0 0 0 1.5-2.4-.3-4.2-.7-.7 4.5-1 6.5-.7 2.1.2 2.9.6 3.5.9zm-8.5-9.4c-.5-.1-.9.2-1 .7-.1.5.2.9.7 1l11.1 2c.5.1.9-.2 1-.7.1-.5-.2-.9-.7-1l-11.1-2zm.5-3.2c-.5-.1-.9.2-1 .7-.1.5.2.9.7 1l5.2.9c.5.1.9-.2 1-.7.1-.5-.2-.9-.7-1l-5.2-.9zM5 4.5l24.3 4.3c1.3.2 2.2 1.5 1.9 2.8l-2.1 11.7c-.2 1.3-1.5 2.2-2.8 1.9l-15.2-2.7c0-.6.1-1.3-.4-2.5s-1.5-2.6-2.2-2.6c-.8 0-2 2.4-3.3 3.9L2 20.9C.7 20.7-.2 19.4.1 18.1L2.2 6.5c.3-1.3 1.5-2.2 2.8-2zm9.7-.1l-2.3-.5L9.1.7c.4-.3.8-.5 1.3-.5l4.3 4.2zm19 12.5l-.5 1.3-1.5-1.5.3-1.5 1.7 1.7zm-.8 2.5l-.5 1.3-1.3-1.3.3-1.5 1.5 1.5zm1.7-4.9l-.5 1.3-1.7-1.7.3-1.5 1.9 1.9zM22.3 4.1l2.8.9 2.4 2.4-2.3-.5-2.9-2.8zm-5-1.8l2.7 1 3.1 3.1-2.3-.5-3.5-3.6zm-5-1.7l2.7.9 3.9 3.9-2.3-.5L12.3.6zm19.5 21l.2.2-.5 1.3-1.1-1 .3-1.5 1.1 1zM8.5 3H8l.5-1.3 1.8 1.8L8.5 3zm22.8 5.3l-1.9-.4-2-2 2.7.9 1.7 1.7-.5-.2zm1.8 2.8c.1-.5 0-1.1-.2-1.6l2.5 2.5-.5 1.3-2-2 .2-.2zm-3 12.8l.1-.5.9.9c-.3.4-.6.6-1 .8l-.3-.3c.1-.4.2-.6.3-.9zm4.2-15.7c1.1.4 1.8 1.6 1.5 2.7l-3.4-3.4 1.9.7z"/></svg>