<svg version="1.1" id="Layer_1" xmlns="http://www.w3.org/2000/svg" x="0" y="0" viewBox="0 0 36 36" xml:space="preserve"><style>.st0{fill:#fff}.st1{fill:#e1d8ed}</style><path class="st0" d="M0 0h36v36H0V0"/><path class="st1" d="M29.1 20.1v1H13.8l6.6-1h8.7m-22.2 0h2.4l.2 1H6.9v-1zm17.2-4.9c0 .2-.2.3-.4.2l-1.6-.4c-.2 0-.3-.2-.2-.4l.1-.2h.1l.7.2c.2 0 .3-.1.4-.2l.3-1.2c0-.2-.1-.3-.2-.4l-.7-.2h-.1l.1-.4 2.2.5-.7 2.5zm-1-3.7l1.6.4c.2 0 .3.2.2.4l-.1.3-2.2-.6.1-.3c0-.2.2-.3.4-.2zm-1.4-3.7l.8.2c.1 0 .1.1.1.2l-.1.5c0 .1-.1.1-.2.1l-.8-.2c-.1 0-.1-.1-.1-.2l.1-.5c.1-.1.1-.2.2-.1zm-.6.8l1.6.4c.2 0 .3.2.3.3l-1.3 5.3c0 .2-.2.3-.4.2l-.6-.1-.2-1.7.9-3.8c0-.1 0-.2-.1-.2s-.2 0-.2.1l-.6 2.7-.1-1.4.4-1.6c0-.2.1-.3.3-.2zm-3.5-3.3l9.8 2.3-2.7 11.1-3.7-.8-.2-2.6 3.8.9 1.9-8.1-8.4-2-.2.9-.7.1.4-1.8zM14.4 15s.7.7 1.1-.1c0 0 .8-2.1 2 .7-.3.1-.5.6-.5 1.1l-3.5.6c-.3-.7-.9-1.2-1.5-1.2.3-1.2.9-2.5 2.4-1.1zm-.5-5.1c.8-.1 1.6.6 1.8 1.7.2 1.1-.4 2-1.2 2.2-.8.1-1.6-.6-1.8-1.7-.1-1.1.4-2 1.2-2.2zm-4.5 0l1.3 8.2 8.5-1.4L18 8.5 9.4 9.9zm-.7-.5l9.9-1.6 1.8 11.3-9.9 1.6L8.7 9.4zM24 29v-2.1h1.5v.2h-1.2v.7h1.2v.2h-1.2v.7h1.3v.3H24zm-1.6 0v-2.1h.3v1.9h1v.2h-1.3zm-1.7-.2h.7l.2-.1.1-.1v-.2l-.1-.2-.2-.1h-.8v.7zm0-1h.7l.2-.1.1-.2v-.2l-.1-.1h-.7v.6zm-.3 1.2v-2.1h.8l.4.1.2.2.1.3-.1.3-.2.2.3.2.1.3-.1.3-.2.2h-1.3zm-1.6-.9h.7l-.2-.6-.2-.4-.1.4-.2.6zm-.7.9l.8-2.1h.3L20 29h-.3l-.2-.6h-.9l-.1.6h-.4zm-1.3 0v-2.1h.3v1.9h1v.2h-1.3zm-.8 0v-2.1h.3V29H16zm-1.7-.9h.7l-.2-.6-.2-.4-.1.4-.2.6zm-.6.9l.8-2.1h.3l.8 2.1h-.3l-.2-.6h-.9l-.2.6h-.3zm-.9 0l-.8-2.1h.3l.6 1.5.1.3.1-.3.6-1.5h.3l-.9 2.1h-.3zm-2-.9h.7l-.2-.6-.2-.4-.1.4-.2.6zm-.6.9l.8-2.1h.3l.8 2.1h-.3l-.2-.6h-.9l-.2.6h-.3zM26 25.7v-3h2.2v.3h-1.8v1H28v.3h-1.6v1h1.8v.3H26zm-1.9-1.3v-.3h1.3v1.1l-.6.4c-.2.1-.4.1-.6.1-.3 0-.6-.1-.8-.2-.2-.1-.4-.3-.6-.5-.1-.2-.2-.5-.2-.8 0-.3.1-.6.2-.8.1-.3.3-.4.5-.6.2-.1.5-.2.8-.2l.6.1c.2.1.3.2.4.3l.2.5-.3.1-.2-.4-.3-.2-.4-.1-.4.1-.3.2-.2.3c-.1.2-.1.4-.1.6 0 .3 0 .5.1.7.1.2.2.3.4.4.2.1.4.1.6.1l.5-.1.3-.2v-.6h-.9zm-3.7 0h1l-.3-.8-.1-.6-.2.6-.4.8zm-.9 1.3l1.2-3h.5l1.2 3H22l-.3-.9h-1.3l-.4.9h-.5zm-3.1 0v-3h.6l.7 2.1.1.4.1-.5.7-2.1h.6v3h-.4V23l-.8 2.6h-.4l-.8-2.6v2.6h-.4zm-1.1 0v-3h.4v3h-.4zm-4.1-1.5c0 .4.1.6.3.9.2.2.4.3.7.3.3 0 .5-.1.7-.3.2-.2.3-.5.3-.9 0-.2 0-.5-.1-.6-.1-.2-.2-.3-.4-.4-.2-.1-.3-.2-.5-.2-.3 0-.5.1-.7.3-.2.1-.3.4-.3.9zm-.5 0c0-.5.1-.9.4-1.2.3-.3.6-.4 1-.4.3 0 .5.1.7.2.2.1.4.3.5.6.1.2.2.5.2.8 0 .3-.1.6-.2.8-.1.2-.3.4-.5.5-.2.1-.5.2-.7.2-.3 0-.5-.1-.8-.2-.2-.1-.4-.3-.5-.6 0-.2-.1-.5-.1-.7zm-2.8 1.5v-3h.4L9.8 25v-2.3h.4v3h-.4l-1.5-2.3v2.3h-.4z"/></svg>