<svg xmlns="http://www.w3.org/2000/svg" viewBox="0 0 36 36"><style>.st0{fill:#fff}</style><path class="st0" d="M8.6 17.2c-.5 0-.9.4-.9.9s.4.9.9.9.9-.4.9-.9-.4-.9-.9-.9m4.4 0c-.5 0-.9.4-.9.9s.4.9.9.9.9-.4.9-.9-.4-.9-.9-.9zm-2.2 0c-.5 0-.9.4-.9.9s.4.9.9.9.9-.4.9-.9-.4-.9-.9-.9zm-6.6 0c-.5 0-.9.4-.9.9s.4.9.9.9.9-.4.9-.9-.4-.9-.9-.9zm2.2 0c-.5 0-.9.4-.9.9s.4.9.9.9.9-.4.9-.9-.4-.9-.9-.9zm13.3-9.6c-.7 0-1.2.5-1.2 1.2S19 10 19.7 10H24c.7 0 1.2-.5 1.2-1.2s-.5-1.2-1.2-1.2h-4.3zm7.6 0c-.7 0-1.2.5-1.2 1.2s.5 1.2 1.2 1.2h4.3c.7 0 1.2-.5 1.2-1.2s-.5-1.2-1.2-1.2h-4.3zm.1 6.7c-.7 0-1.2.5-1.2 1.2V18c0 .7.5 1.2 1.2 1.2h4.3c.7 0 1.2-.5 1.2-1.2v-2.5c0-.7-.5-1.2-1.2-1.2h-4.3zm-23-6.7c-.7 0-1.2.5-1.2 1.2S3.7 10 4.4 10h4.3c.7 0 1.2-.5 1.2-1.2s-.5-1.2-1.2-1.2H4.4zm7.6 0c-.7 0-1.2.5-1.2 1.2S11.3 10 12 10h4.3c.7 0 1.2-.5 1.2-1.2s-.5-1.2-1.2-1.2H12zm22.3 16.6l-30 4.1c-1 .1-1.9-.5-2-1.5L2 24.2l33.9-1.4c-.2.7-.8 1.3-1.6 1.4zm.4 2.5L7.4 35.9c-.9.3-2-.2-2.3-1.1l-.8-2.4 31.6-7.5c.1.7-.4 1.5-1.2 1.8zM1.8 0H34c1 0 1.8.8 1.8 1.8v18c0 1-.8 1.8-1.8 1.8H1.8c-1 0-1.8-.8-1.8-1.8v-18C0 .8.8 0 1.8 0z" id="Layer_1"/></svg>