<svg xmlns="http://www.w3.org/2000/svg" viewBox="0 0 36 36"><style>.st0{fill:#fff}</style><path class="st0" d="M2.1 17.8l.3-.1-.2 2.1c-.2 1.8 1.1 3.4 2.7 3.5l2.5.2-.1.5-3.4 1.4 3.2 1.9.3 3.7 2.8-2.5 3.6.9-1.6-3.4 1.2-1.9 2.4.2c.2.5.7.8 1.2.7l1.7-.4 4.9.4-6.2 1.5c-.5.1-.8.7-.7 1.2.1.5.7.8 1.2.7l11.8-2.9 4.5.4.1.5c.3 1.4-.5 2.9-2 3.2L6.5 35.9c-1.4.3-2.9-.5-3.2-2L.1 21c-.3-1.4.5-2.9 2-3.2m16-3.6c-.5-.1-1 .3-1.1.8-.1.5.3 1 .8 1.1l12.4 2.2c.5.1 1-.3 1.1-.8.1-.5-.3-1-.8-1.1l-12.4-2.2zm.6-3.5c-.5-.1-1 .3-1.1.8-.1.5.3 1 .8 1.1l5.9 1c.5.1 1-.3 1.1-.8.1-.5-.3-1-.8-1.1l-5.9-1zm-2.1-1.1l-3.5-1.2-1-3.6-2.2 3-3.8-.1 2.2 3L7 14.2l3.5-1.1 2.9 2.3v-3.7l3.2-2.1zm16.9-3.5c-.7-.1-1.3.3-1.5 1-.1.7.3 1.3 1 1.5.7.1 1.3-.3 1.5-1 .2-.7-.3-1.4-1-1.5zm-26-6l26.2 4.6c1.4.3 2.4 1.6 2.2 3.1l-2.3 13.1c-.3 1.4-1.6 2.4-3.1 2.2L4.3 18.4c-1.4-.3-2.4-1.6-2.2-3.1L4.4 2.2C4.7.8 6.1-.2 7.5.1z" id="Layer_1"/></svg>