<svg xmlns="http://www.w3.org/2000/svg" viewBox="0 0 36 36"><style>.st0{fill:#fff}</style><path class="st0" d="M13.6 10.5c0 .5 0 .9-.1 1.2l-.9.8c-.5-.1-.8-.7-.8-2 0-.5.1-1 .2-1.4.2-.4.4-.6.7-.6s.5.2.7.6c.2.4.2.9.2 1.4m-4-3.3H6.4l-.7 3.1h.8c1 .1 1.6.4 1.6 1.1 0 .7-.5 1.1-1.4 1.1-.4 0-.7-.1-1-.2v1.4c.5.1.9.2 1.2.2.7 0 1.3-.2 1.8-.6.5-.5.8-1.1.8-1.9 0-.6-.2-1.2-.6-1.5-.4-.4-.9-.5-1.6-.5l.3-.9h1.7l.3-1.3zm.8-3.1C8.6 4.1 7 4.8 5.8 6l1.4-.4c.9-.6 2-.9 3.2-.9 1.2 0 2.2.3 3.2.9l1.3.4c-1.2-1.2-2.8-1.9-4.5-1.9zm0-1.2c3.8 0 6.9 2.7 7.5 6.3-1 .4-1.9.9-2.8 1.3 0-.9-.2-1.7-.6-2.3-.4-.7-1-1-1.7-1s-1.3.3-1.7 1c-.4.6-.6 1.4-.6 2.3 0 1 .2 1.8.6 2.5.2.3.4.5.6.7-.7.9-1.3 1.8-1.8 2.8-1-.1-1.9-.4-2.6-.9l-1.4-.4c1 1 2.3 1.6 3.7 1.8l-.5 1.1c-3.6-.6-6.4-3.8-6.4-7.6 0-4.2 3.4-7.6 7.7-7.6zm0-2.7c5 0 9.2 3.6 10.1 8.3l-1.3.3c-.8-4.1-4.5-7.2-8.8-7.2-5 0-9 4-9 9 0 4.4 3.2 8.1 7.3 8.9l-.3 1.3C3.7 19.8 0 15.6 0 10.5 0 4.8 4.7.2 10.4.2zM7.6 27.3L8 30l-2.3-1.3L3.4 30l.4-2.7L2 25.4l2.6-.4 1.2-2.5L6.9 25l1.5.2.2 1.1-1 1zM34.4 3.8L32 6.3l.6 3.5-3-1.7L28 9l-1.3-.4.4-2.3-2.4-2.5 3.3-.5L29.5 0 31 3.3l3.4.5zM29.5 23c0 1.7-.4 2.5-1.1 2.5-.8 0-1.1-.8-1.1-2.5 0-.7.1-1.2.3-1.7.2-.5.5-.7.8-.7.4 0 .6.2.8.7.2.5.3 1.1.3 1.7zm1.8 0c0-1.2-.2-2.1-.7-2.9-.5-.8-1.3-1.3-2.2-1.3-.9 0-1.6.4-2.2 1.3-.5.8-.7 1.7-.7 2.9 0 1.3.2 2.3.7 3.1.5.8 1.2 1.2 2.2 1.2.9 0 1.6-.4 2.2-1.2.5-.8.7-1.8.7-3.1zm-8.2 0c0 1.7-.4 2.5-1.1 2.5-.8 0-1.1-.8-1.1-2.5 0-.7.1-1.2.3-1.7.2-.5.5-.7.8-.7.4 0 .6.2.8.7.2.5.3 1.1.3 1.7zm1.7 0c0-1.2-.2-2.1-.7-2.9-.5-.8-1.3-1.3-2.2-1.3-.9 0-1.6.4-2.2 1.3-.4.8-.7 1.8-.7 2.9 0 1.3.2 2.3.7 3.1.5.8 1.2 1.2 2.2 1.2.9 0 1.6-.4 2.2-1.2.5-.8.7-1.8.7-3.1zm-6.7 4.2V19h-1.4c-.3.8-.9 1.4-1.8 1.9v1.8l.7-.3.7-.4v5.1h1.8zm5 4c2.2 0 4.2-.9 5.6-2.3l-1.7.5c-1.1.7-2.5 1.1-3.9 1.1s-2.8-.4-3.9-1.1l-1.7-.5c1.4 1.4 3.4 2.3 5.6 2.3zm0-16.1c-2.2 0-4.2.9-5.6 2.3l1.7-.5c1.1-.7 2.5-1.1 3.9-1.1s2.8.4 3.9 1.1l1.7.5c-1.4-1.4-3.4-2.3-5.6-2.3zm0-1.5c5.3 0 9.5 4.3 9.5 9.5 0 5.3-4.3 9.5-9.5 9.5-5.3 0-9.5-4.3-9.5-9.5s4.2-9.5 9.5-9.5zm0-1.6c-6.2 0-11.2 5-11.2 11.2s5 11.2 11.2 11.2 11.2-5 11.2-11.2S29.3 12 23.1 12zm0-1.7C30.2 10.3 36 16 36 23.1 36 30.2 30.2 36 23.1 36c-7.1 0-12.8-5.8-12.8-12.9 0-7.1 5.7-12.8 12.8-12.8z" id="Layer_1"/></svg>