<svg version="1.1" id="Layer_1" xmlns="http://www.w3.org/2000/svg" x="0" y="0" viewBox="0 0 36 36" xml:space="preserve"><style>.st0{fill:#fff}</style><path class="st0" d="M24.1 27.6c-.3-.3-.6-.4-1-.4-.3 0-.6.1-.9.3v-.2l-.1-.1-.1-.1h-.1c-.1 0-.2 0-.2.1L21 29l-.8-1.7-.1-.1h-.2l-.1.1-.1.1v.1c-.2-.2-.5-.3-.9-.3s-.7.1-1 .4l-.1.4-.3-.4c-.3-.3-.6-.4-1-.4s-.7.1-1 .4l-.2.3v-1.3l-.1-.1h-.2c-.1 0-.2.1-.2.1l-1.5 1.6-1.5-1.6c-.1-.1-.1-.1-.2-.1h-.2l-.1.1v3l.1.2.2.1.2-.1.1-.2v-2.3l1.2 1.3c.1.1.1.1.2.1s.2 0 .2-.1l1.2-1.3v2.3l.1.2.2.1.2-.1.1-.2v-.5l.2.3c.3.3.6.4 1 .4.3 0 .6-.1.9-.3l.1-.2-.1-.2-.2-.1-.1.2-.2.1h-.6l-.2-.1-.2-.2-.1-.2h1.9c0 .3.2.5.4.7.3.3.6.4 1 .4.3 0 .6-.1.9-.3l.1-.2-.1-.2-.2-.1-.2.1-.2.1h-.6l-.2-.1-.3-.2-.1-.2H20l.2-.1.1-.1.5 1.1c0 .1.1.1.2.1s.2 0 .2-.1l.6-1.2c0 .4.1.6.4.9.3.3.6.4 1 .4s.7-.1 1-.4c.3-.3.4-.6.4-.9l-.2-.5-.3-.4m-8.5.7l.1-.2.2-.2.2-.1h.6l.2.1.2.2.1.2h-1.6zm2.5 0l.1-.2.2-.2.2-.1h.6l.2.1.2.2.1.2h-1.6zm5.9.6l-.2.3-.3.2-.3.1-.3-.1-.3-.2-.2-.3-.1-.3.1-.3.2-.3.3-.2.3-.1.3.1.3.2.2.3.1.3-.1.3zM11.3 7.6c-.3 0-.6.3-.6.6s.3.6.6.6h7.1c.3 0 .6-.3.6-.6s-.3-.6-.6-.6h-7.1zm0-2.1c-.3 0-.6.3-.6.6s.3.6.6.6h13.3c.3 0 .6-.3.6-.6s-.3-.6-.6-.6H11.3zm0-2.1c-.3 0-.6.3-.6.6s.3.6.6.6h13.3c.3 0 .6-.3.6-.6s-.3-.6-.6-.6H11.3zm24.6 26.9v1.6l-4 4h-1.6l5.6-5.6zm0-3.5v1.6l-7.5 7.5h-1.6l9.1-9.1zM25 35.9h-1.6l4.4-4.4h1.6L25 35.9zm10.9-12.5V25l-4.5 4.5v-1.6l4.5-4.5zm0 11c0 .8-.7 1.5-1.5 1.5h-.7l2.2-2.2v.7zm-14.4 1.5H20l4.4-4.4H26l-4.5 4.4zm14.4-15.8v1.4L31.4 26v-.5c0-.3-.1-.6-.3-.8l4.8-4.8v.2zM.1 33.2v-1.6l4.4-4.4v1.6L.1 33.2zm1 2.5c-.4-.1-.6-.4-.8-.8l4.4-4.4c.1.5.3.8.7.9l-4.3 4.3zm3.3.2H2.8l4.4-4.4h1.6l-4.4 4.4zm3.4 0H6.3l4.4-4.4h1.6l-4.5 4.4zm3.4 0H9.7l4.4-4.4h1.6l-4.5 4.4zm3.4 0h-1.5l4.4-4.4H19l-4.4 4.4zm3.5 0h-1.6l4.4-4.4h1.6l-4.4 4.4zM.6 17.4c.5-1.2 3.3-5.2 4.3-6.6.8-1.2 1.4-1.5 2.3-1.5h.3v2.8L6 14.8l-.1.2v.3l.1.4c0 .3.5.6 1 .6h21.9c.7 0 1.2-.5 1.2-1.1 0-.2-.1-.5-.2-.7l-1.4-2.4V9.3h.4c.8 0 1.5.3 2.3 1.5 1 1.4 3.8 5.4 4.3 6.6l.3.9-6.1 6.1h-1.6l6.3-6.3h-1.9l-6.3 6.3h-1.5l6.3-6.3h-2l-6.3 6.3h-1.6l6.3-6.3h-1.9l-6.3 6.3h-1.6l6.3-6.3H22l-6.3 6.3h-1.6l6.3-6.3h-1.9l-6.3 6.3h-1.6l6.3-6.3H15l-6 6.3H7.4l6.3-6.3h-1.9l-6.3 6.3c-.4.1-.8.5-.9.9L.1 29.8v-1.6L10.3 18H8.4L.1 26.3v-1.6L6.8 18H5L.1 22.9v-1.6l3.2-3.2H1.5L.2 19.4c0-.5.1-1.2.4-2zm5.7 8.1h23.3c.7 0 1.2.5 1.2 1.2v3.1c0 .7-.5 1.2-1.2 1.2H6.3c-.7 0-1.2-.5-1.2-1.2v-3.1c.1-.7.6-1.2 1.2-1.2zm21.4-11.3H8.2V.2l.3.2 1.1.9 1.1-.9.3-.2.3.2 1.1.9 1.1-.9.3-.3.2.3 1.1.9 1.1-.9.3-.2 1.4 1.1h.1L19.4.2l.3.2 1.1.9 1.1-.9.3-.2.3.2 1.1.9 1.1-.9.3-.3.3.2 1.1.9 1.1-.9.3-.2v14.1z"/></svg>