<svg version="1.1" id="Layer_1" xmlns="http://www.w3.org/2000/svg" x="0" y="0" viewBox="0 0 36 36" xml:space="preserve"><style>.st0{fill:#fff}</style><path class="st0" d="M5.8 29.8c-1 0-1.8.8-1.8 1.8s.8 1.8 1.8 1.8h24.4c1 0 1.8-.8 1.8-1.8s-.8-1.8-1.8-1.8H5.8M3 14.6h1v9.7c0 1.6 1.3 3 3 3h22c1.7 0 3-1.3 3-3v-9.7h1c1.7 0 3 1.3 3 3V33c0 1.6-1.3 3-3 3H3c-1.7 0-3-1.3-3-3V17.5c0-1.6 1.4-2.9 3-2.9zM27.2.3v21.3c0 1-.8 1.8-1.8 1.8H10.6c-1 0-1.8-.8-1.8-1.8V.3 0l1.9 1.9L12.5.1l1.8 1.8L16.2.1 18 1.9 19.9.1l1.9 1.8L23.6.1l1.8 1.8L27.2 0v.3z"/></svg>