<svg version="1.1" id="Layer_1" xmlns="http://www.w3.org/2000/svg" x="0" y="0" viewBox="0 0 36 36" xml:space="preserve"><style>.st0{fill:#fff}</style><path class="st0" d="M35.1 35.9H15.3c-.2 0-.4-.1-.6-.3l8.9-5.3 1.4 1.1 1.7-1.2 9 5.4c0 .1-.3.3-.6.3m.8-12.4V35.3l-7.5-6.4 7.5-5.6v.2zM18.6 7h.6c1 0 1.7.8 1.7 1.7v5.2c-.3-.9-1.2-1.7-2.3-1.9V7zM6.2.1h8.6c.6 0 1 .5 1 1V11c0 .6-.5 1-1 1H6.2c-.6 0-1-.5-1-1V1.2c0-.6.5-1.1 1-1.1zm8.2 15.1v.6H3.5c-.6 0-1.1.5-1.1 1.1 0 .6.5 1.1 1.1 1.1h6.8c-.4.4-.8.9-1 1.5H1.9c-1 0-1.7-.8-1.7-1.7v-9c0-1 .8-1.7 1.7-1.7h.6v5.6c0 1 .8 1.7 1.7 1.7h10.3V15l-.1.2zm3.3 14c1.2 0 2.2-.5 2.8-1.3l1.7 1.3-7.5 6.3-.1-.3v-7.7c.5 1 1.7 1.7 3.1 1.7zm5.8-5.4c.8 0 1.6-.4 2.1-1.1h9.6c.3 0 .5.2.6.4l-10.7 5.6-4.1-2.1v-2.8h2.5zm-12.1-3.3c0-.8.6-1.4 1.4-1.4h3.4v-3.4c0-.8.6-1.4 1.4-1.4.8 0 1.4.6 1.4 1.4v3.4h3.4c.8 0 1.4.6 1.4 1.4 0 .8-.6 1.4-1.4 1.4H19v3.4c0 .8-.6 1.4-1.4 1.4-.8 0-1.4-.6-1.4-1.4v-3.4h-3.4c-.7 0-1.4-.6-1.4-1.4z"/></svg>