<svg xmlns="http://www.w3.org/2000/svg" width="20" height="20" viewBox="0 0 20 20" fill="none">
  <path d="M14.1182 11.4011C14.706 10.5491 15.0001 9.606 15.0001 8.57192C15.0001 8.28179 14.9703 7.96926 14.9107 7.63437L11.7858 13.2369C12.7529 12.8651 13.5304 12.2528 14.1182 11.4011ZM14.576 3.68336C14.5834 3.66859 14.5869 3.63508 14.5869 3.58298C14.5869 3.45644 14.5274 3.35617 14.4082 3.28139C14.386 3.26654 14.3135 3.22373 14.1906 3.1529C14.0728 3.08523 13.9556 3.0164 13.8392 2.94642C13.7183 2.87421 13.5955 2.80539 13.4709 2.74002C13.3369 2.6693 13.2217 2.61164 13.1251 2.56696C13.0281 2.52236 12.9613 2.5 12.9241 2.5C12.7902 2.5 12.6859 2.55961 12.6116 2.67861L12.0091 3.76127C11.3322 3.63485 10.6624 3.57152 10.0002 3.57152C7.99866 3.57152 6.15344 4.07759 4.46435 5.08946C2.77539 6.10149 1.36178 7.4816 0.223249 9.2301C0.0743903 9.46093 0 9.71764 0 10.0004C0 10.2831 0.0743903 10.5399 0.223249 10.7704C0.877946 11.7896 1.65367 12.7013 2.55026 13.5048C3.44685 14.3085 4.42706 14.9518 5.49104 15.4357C5.16365 15.9937 4.99998 16.3174 4.99998 16.4068C4.99998 16.5407 5.05956 16.6448 5.17863 16.7191C6.08628 17.2402 6.58473 17.5004 6.67409 17.5004C6.80786 17.5004 6.91212 17.4406 6.98651 17.3215L7.53339 16.3284C8.32213 14.9224 9.49764 12.8129 11.0603 10.0004C12.6228 7.18787 13.7947 5.08219 14.576 3.68336ZM6.19421 14.1857C4.25975 13.3152 2.67109 11.9202 1.42866 10.0005C2.5596 8.2445 3.97701 6.93116 5.68087 6.0608C5.22702 6.83449 5.00002 7.67158 5.00002 8.57188C5.00002 9.36797 5.18222 10.123 5.5469 10.8374C5.91151 11.5518 6.41746 12.143 7.06481 12.6118L6.19421 14.1857ZM10.3797 6.09395C10.2756 6.1982 10.1488 6.25027 10 6.25027C9.36016 6.25027 8.81316 6.47731 8.35931 6.93108C7.90534 7.38512 7.6785 7.93193 7.6785 8.57177C7.6785 8.72074 7.62627 8.84712 7.52217 8.95134C7.41788 9.0556 7.29146 9.10767 7.14272 9.10767C6.99382 9.10767 6.86732 9.05552 6.76314 8.95134C6.65889 8.84712 6.60682 8.72059 6.60682 8.57177C6.60682 7.64179 6.93987 6.84371 7.60571 6.17776C8.27159 5.51188 9.06955 5.17887 9.99969 5.17887C10.1485 5.17887 10.275 5.23109 10.3794 5.33519C10.4834 5.43933 10.5356 5.56587 10.5356 5.71465C10.5356 5.86351 10.4835 5.99 10.3797 6.09395Z" fill="#7A797B"/>
  <path d="M19.7767 9.22985C19.3525 8.52308 18.815 7.83845 18.164 7.17624C17.5133 6.51408 16.8341 5.94503 16.1272 5.46875L15.424 6.71876C16.6665 7.57439 17.7158 8.66823 18.5713 10C17.6712 11.3988 16.5494 12.5409 15.2067 13.4263C13.8636 14.3121 12.4034 14.8215 10.826 14.9553L10 16.4286C11.6519 16.4286 13.2125 16.0753 14.6819 15.3684C16.1513 14.6618 17.4444 13.6684 18.5604 12.3887C19.0811 11.7859 19.4866 11.2465 19.7769 10.7703C19.9257 10.5171 20 10.2603 20 10.0001C19.9999 9.73971 19.9256 9.483 19.7767 9.22985Z" fill="#131313"/>
</svg>