<svg width="20" height="20" viewBox="0 0 20 20" fill="none" xmlns="http://www.w3.org/2000/svg">
<g clip-path="url(#clip0_2299_2059)">
<path d="M0.555501 0.555501C1.33328 -0.222276 2.66661 -0.222276 3.44439 0.555501L9.99995 7.11106L16.5555 0.555501C17.3333 -0.222276 18.6666 -0.222276 19.4444 0.555501C20.2222 1.33328 20.2222 2.66661 19.4444 3.44439L12.8888 9.99995L19.4444 16.5555C20.2222 17.3333 20.2222 18.6666 19.4444 19.4444C18.6666 20.2222 17.3333 20.2222 16.5555 19.4444L9.99995 12.8888L3.44439 19.4444C2.66661 20.2222 1.33328 20.2222 0.555501 19.4444C-0.222276 18.6666 -0.222276 17.3333 0.555501 16.5555L7.11106 9.99995L0.555501 3.44439C-0.222276 2.66661 -0.222276 1.44439 0.555501 0.555501Z" fill="#7A797B"/>
</g>
<defs>
<clipPath id="clip0_2299_2059">
<rect width="20" height="20" fill="white"/>
</clipPath>
</defs>
</svg>
