<svg xmlns="http://www.w3.org/2000/svg" width="20" height="20" viewBox="0 0 20 20" fill="none">
<g clip-path="url(#clip0_3472_1310)">
<path d="M10.0452 -0.100098C5.54066 -0.100098 1.66679 4.03324 0.135254 9.8999C1.66679 15.7666 5.54066 19.8999 10.0452 19.8999C14.5497 19.8999 18.4235 15.7666 19.9551 9.8999C18.4235 4.03324 14.5497 -0.100098 10.0452 -0.100098ZM10.0452 16.5666C7.52264 16.5666 5.54066 13.6332 5.54066 9.8999C5.54066 6.16657 7.52264 3.23324 10.0452 3.23324C12.5677 3.23324 14.5497 6.16657 14.5497 9.8999C14.5497 13.6332 12.5677 16.5666 10.0452 16.5666ZM10.0452 5.8999C8.51363 5.8999 7.34246 7.63324 7.34246 9.8999C7.34246 12.1666 8.51363 13.8999 10.0452 13.8999C11.5767 13.8999 12.7479 12.1666 12.7479 9.8999C12.7479 7.63324 11.5767 5.8999 10.0452 5.8999Z" fill="#7A797B"/>
</g>
<defs>
<clipPath id="clip0_3472_1310">
<rect width="20" height="20" fill="white"/>
</clipPath>
</defs>
</svg>