<svg version="1.1" id="Layer_1" xmlns="http://www.w3.org/2000/svg" x="0" y="0" viewBox="0 0 36 36" xml:space="preserve"><style>.st0{fill:#fff}</style><path class="st0" d="M34.3 19.8c0-7.9-4.9-14.5-11.7-16.7 1.2.2 2.3.4 3.3.8-1.7-1.3-4.6-2.1-7.9-2.1-3.3 0-6.3.8-7.9 2.1.9-.3 2-.5 3.1-.7C6.5 5.3 1.6 12 1.6 19.8c0 .7 0 1.5.1 2.2.5-1.4 2.6-2.6 5.7-3.4-.2.3-.3.6-.3.9v.3c-1.9.7-3.1 1.5-3.1 2.5 0 2.1 6.2 3.8 13.9 3.8s13.9-1.7 13.9-3.8c0-.9-1.1-1.7-2.9-2.4v-.3c0-.3-.1-.6-.3-.9 3.1.8 5.1 2 5.6 3.4.1-.8.1-1.5.1-2.3m-1.9 8.8c-.1.4-.2.8-.2 1 0 3.4-6.4 6.2-14.2 6.2-7.9 0-14.2-2.8-14.2-6.2 0-.3-.1-.8-.3-1.4l-.9-1.5c3.1 2.1 8.9 3.6 15.6 3.6 6.7 0 12.5-1.5 15.6-3.6-.6.7-1 1.3-1.4 1.9zM18 .1c9.9 0 17.9 8 17.9 17.9 0 2.2-.4 4.2-1.1 6.1-2.5 2.7-9.1 4.6-16.8 4.6-7.6 0-14.1-1.9-16.7-4.5-.7-2-1.1-4.1-1.1-6.3C.1 8.1 8.1.1 18 .1zm.7 19.7l.3-.5 2.3 2.6-.6.1-2-2.2zm-1.5 2l.3-.5L19 23l-.4.4-1.4-1.6zm-.6 1.1l.3-.5 1.4 1.5-.3.5-1.4-1.5zm5.2-13.1l-.8-.1-.5-.5.7-.2.6.8zm.7 5.2c.8 0 1.6-.1 2.2-.2.2.9.9 4.2 2.3 6 .7.9 1.2 1.6 1.6 2.3-.5.2-1.2.4-1.9.6-.8-1.1-2.3-1.9-4.1-1.9h-.4l-2.9-3.1.2-.6 3 3.4v-1l-2.8-3.1.2-.6 2.6 2.9v-1L20.1 16l.2-.7 2.3 2.5v-1l-1.7-1.9.8.1.9 1-.1-1zm-4.4 5.7l.3-.3 1.7 1.9-.5.3-1.5-1.9zM20 23l.4-.3 1.5 1.7h-.7L20 23zm-.7 1l.3-.5.8.9h-.7l-.4-.4zm3.2-2c1.4 0 2.6.7 3.2 1.8-1 .2-2 .3-3.2.4V24L21 22.3l.6-.2 1 1.1v-1l-.3-.2h.2zm0-13c1.2 0 2.3.2 2.3.4s-1 .4-2.3.4v-.3L22 9h.5zm-2.2 4.9v-.4l.6.7c-.4-.1-.6-.2-.6-.3zm2.2.4h-.6l-1.6-1.8v-.8l2.3 2.5v-1l-2.3-2.5v-.6l.2.1 2 2.2v-1l-.9-1h.8l.2.2v-.2c1.3 0 2-.2 2.3-.3V14c-.1.1-1.1.3-2.4.3zm-12.7 4S9 18 8.2 16.7c-.1-.2.5 1.5.8 1.6.3.1.8 0 .8 0zm1.3 4.2h-.3l-.8-3.2h.3l.8 3.2zm-1.4-.2l-1-3 .5.1.9 3.1-.4-.2zm1-3.1c.8-.2 1.4-.5 1.8-.8l.4 3.2c-.2.3-.8.7-1.5.8h-.2l-.7-3.2h.2zm1.6-1.7v.3c-.3.4-.9.7-1.8.9-.8.2-1.6.1-2-.1l-.1-.3v-.2c-.7-.7-1-1.1-1.2-1.8v-.1c-.1-.6 0-1.2.4-1.7-.2.8.4 1.3.4 1.3-.4-.9-.1-1.5-.1-1.6.1-.2.2-.4.5-.5-.1.2-.6 1.1.1 2.2l1.2 1.8c0-.1-1.3-2-1.3-3.9.1-.2.4-.5.5-.5l.3.2c0-.1-.1-.5-.1-.5.2 0 .5.1.8.3.2.2.6.8.8 2 0 0 .1-1.2-.6-2.1l.3.1c.2.1.8.6.9.8.1.2 0-.3.1-.2.4.3.7.7.8 1.2v.4c0 .5-.1 1-.4 1.8l.5.2zm3 6.7v-6h-.4c-.1 0-.1 0-.1-.1s0-.1.1-.1h.4v-.2h-.6c-.1 0-.1 0-.1-.1s0-.1.1-.1h.6v-.2h-.6c-.1 0-.1 0-.1-.1s0-.1.1-.1h.6V17h-.6c-.1 0-.1 0-.1-.1s0-.1.1-.1h.6v-.2h-.6c-.1 0-.1 0-.1-.1s0-.1.1-.1h.6v-.2h-.6c-.1 0-.1 0-.1-.1s0-.1.1-.1h.6v-.2h-.6c-.1 0-.1 0-.1-.1s0-.1.1-.1h.6V15h-.6c-.1 0-.1 0-.1-.1s0-.1.1-.1h.6v-.2h-.6c-.1 0-.1 0-.1-.1s0-.1.1-.1h.6v-.2h-.6c-.1 0-.1 0-.1-.1s0-.1.1-.1h.6v-.2h-.4c-.1 0-.1 0-.1-.1s0-.1.1-.1h.4v-.2H15c-.1 0-.1 0-.1-.1s0-.1.1-.1h.3c0-.1.2-.3.4-.3s.4.1.4.3h.3c.1 0 .1 0 .1.1s0 .1-.1.1h-.3v.2h.4c.1 0 .1 0 .1.1s0 .1-.1.1h-.4v.2h.6c.1 0 .1 0 .1.1s0 .1-.1.1h-.6v.2h.6c.1 0 .1 0 .1.1s0 .1-.1.1h-.6v.2h.6c.1 0 .1 0 .1.1s0 .1-.1.1h-.6v.2h.6c.1 0 .1 0 .1.1s0 .1-.1.1h-.6v.2h.6c.1 0 .1 0 .1.1s0 .1-.1.1h-.6v.2h.6c.1 0 .1 0 .1.1s0 .1-.1.1h-.6v.2h.6c.1 0 .1 0 .1.1s0 .1-.1.1h-.6v.4h.6c.1 0 .1 0 .1.1s0 .1-.1.1h-.6v.2h.6c.1 0 .1.1.1.1 0 .1 0 .1-.1.1h-.6v.2h.4c.1 0 .1.1.1.1 0 .1 0 .1-.1.1h-.4v6l.2-.6.9.9-2.7-.1h.8zm-5.4-1.4c.3.2.9.2 1.6 0 .7-.1 1.2-.4 1.4-.7l.3 2.1c-1.1-.1-2.1-.3-3-.5l-.3-.9z"/></svg>