<svg version="1.1" id="Layer_1" xmlns="http://www.w3.org/2000/svg" x="0" y="0" viewBox="0 0 36 36" xml:space="preserve"><style>.st0{fill:#fff}</style><path class="st0" d="M10.3 27.3c-.9-.2-1.6-.2-1.8.7-.3 1.1.8 1.3.8 1.3l9.2 2.2c.7.1 1.5.2 1.9-.6.5-1.1-.9-1.4-.9-1.4l-9.2-2.2m-4.6-1.1c-.7-.1-1.3.3-1.5.9s.3 1.2 1 1.4c.7.1 1.3-.3 1.5-.9.2-.7-.3-1.3-1-1.4zm6.4-3.7c-.9-.2-1.6-.2-1.8.7-.3 1.1.8 1.3.8 1.3L21.3 27c.7.1 1.5.2 1.9-.6.5-1.1-.9-1.4-.9-1.4l-10.2-2.5zm-4.6-1.1c-.7-.1-1.3.3-1.5.9-.1.6.3 1.2 1 1.4.7.1 1.3-.3 1.5-.9.1-.7-.4-1.3-1-1.4zm2-4.4c-.7-.1-1.3.3-1.5.9s.3 1.2 1 1.4c.7.1 1.3-.3 1.5-.9.2-.7-.3-1.3-1-1.4zm7.5-6.1l1.1.2c.1.2.2.5.2.8 0 .9-.6 1.7-1.3 1.7-.7 0-1.3-.7-1.3-1.7 0-.6.3-1.2.7-1.5.2.4.6.5.6.5zm-5.3-9.2C12.6-.5 15.8.2 15.8.2S30.1 2.8 33 3.5c4.3 1 2.5 4 2.5 4s-9.4 22.9-10.3 25.4c-1.4 3.6-4.1 2.9-4.1 2.9S4.2 32.1 2 31.3c-2.2-.8-2-3.1-1.6-3.8l3.3-7.4h1.1v-2.5l1-2.2h.6c2.2-.1 3.1-.7 3.1-.7.5 2.1 1.7 3.3 2.9 4.1-.1.9.9 1.2.9 1.2l6.7 1.5c.7.1 1.5.2 1.9-.6.5-1.1-.9-1.4-.9-1.4l-.3-.1c1.3-.5 2.1-1.4 2.8-2.3l2 .4c.7.1 1.5.2 1.9-.6.5-1.1-.9-1.4-.9-1.4l-2.1-.4c.4-1.1.5-2.1.5-2.6l.9.2c.7.1 1.5.2 1.9-.6.5-1.1-.9-1.4-.9-1.4l-2-.4c-.2-1-.4-1.9-.8-2.6l5.3 1c.7.1 1.5.2 1.9-.6.5-1.1-.9-1.4-.9-1.4l-8.5-1.6c-2.1-1.5-4.6-1.4-4.6-1.4l-1.6.1-.4-.1c-.5-.1-1 .1-1.2.4-2.5.6-3.2 1.9-3.2 1.7-.1-.3-.3-.6-.5-.8l1.4-3.3zm1.7 10.2c0 1.4.3 2.4 1 3.2.7.7 1.5 1.1 2.6 1.1 1 0 1.9-.4 2.5-1.1.7-.7 1-1.8 1-3.2 0-1.4-.3-2.4-1-3.1-.6-.7-1.5-1-2.6-1s-1.9.2-2.6.9c-.6.7-.9 1.7-.9 3.2zm-2.4 0c0-1.2.2-2.3.6-3.1.3-.6.7-1.2 1.1-1.7.5-.5 1-.9 1.6-1.1.8-.3 1.6-.5 2.6-.5 1.8 0 3.2.6 4.3 1.7 1.1 1.1 1.6 2.6 1.6 4.6 0 2-.5 3.5-1.6 4.6-1.1 1.1-2.5 1.7-4.3 1.7-1.8 0-3.3-.5-4.3-1.6-1.1-1.1-1.6-2.6-1.6-4.6zM2.5 7.8v3.5H4c1.1 0 1.8-.1 2.1-.2.4-.1.7-.3.9-.5.2-.3.3-.6.3-1 0-.5-.1-.8-.4-1.1-.3-.3-.7-.5-1.1-.6-.3-.1-1-.1-1.9-.1H2.5zM.2 17.9V5.8h4c1.5 0 2.5.1 3 .2.7.2 1.3.6 1.8 1.2s.7 1.4.7 2.4c0 .7-.1 1.4-.4 1.9-.3.5-.6.9-1.1 1.2-.4.3-.9.5-1.3.6-.6.1-1.5.2-2.6.2H2.5v4.6H.2z"/></svg>