<svg version="1.1" id="Layer_1" xmlns="http://www.w3.org/2000/svg" x="0" y="0" viewBox="0 0 36 36" xml:space="preserve"><style>.st0{fill:#fff}</style><path class="st0" d="M14.7 26.8h6.5l3.7 1.9H11l3.7-1.9M2 26.8h5.1l-.3 1.9H3.2c-.5 0-.9.4-.9.9V33c0 .5.4.9.9.9h29.7c.5 0 .9-.4.9-.9v-3.3c0-.5-.4-.9-.9-.9h-3.7l-.3-1.9H34c1 0 1.8.8 1.8 1.8V34c0 1-.8 1.8-1.8 1.8H2C1 35.8.2 35 .2 34v-5.4c0-1 .8-1.8 1.8-1.8zm30-16.4l-7 6.9 1.7 9.7-8.7-4.6L9.3 27l1.7-9.7-7-6.9L13.6 9 18 .2 22.3 9l9.7 1.4zM4.4 30.2h8.8c.3 0 .6.3.6.6v.9c0 .3-.3.6-.6.6H4.4c-.3 0-.6-.3-.6-.6v-.9c0-.3.2-.6.6-.6z"/></svg>