<svg version="1.1" id="Layer_1" xmlns="http://www.w3.org/2000/svg" x="0" y="0" viewBox="0 0 36 36" xml:space="preserve"><style>.st0{fill:#fff}</style><path class="st0" d="M33.301 23.546c-.246-.363-.715-1.044-1.618-1.09-.633-.035-1.36.223-2.509.915-.012.012-.023.012-.035.023l-4.034 2.744c-.481.27-1.419.375-2.392.41.059-.399-.012-.915-.399-1.548-.786-1.313-2.157-2.099-3.658-2.099h-1.817a3.81 3.81 0 01-2.439-.868c-.75-.645-2.146-1.149-4.503.047-.481.246-.926.516-1.29.762v-.199a.786.786 0 00-.786-.786H3.167a.786.786 0 00-.786.786v12.499c0 .434.352.786.786.786h4.678a.786.786 0 00.786-.786v-.774h6.027c.879 0 1.841-.094 2.931-.27l6.003-1.032c.117 0 .223-.023.328-.035.07-.012.164-.023.211-.023h.082c.797-.082 1.384-.563 1.759-.926l7.07-6.132c.646-.563.775-1.642.259-2.404zM7.059 34.357H3.952v-10.94h3.107v10.94zm24.952-9.603l-7.094 6.156-.035.035c-.328.317-.575.469-.809.504-.117 0-.246.023-.352.035-.07.012-.164.023-.211.023-.047 0-.094 0-.129.012l-6.062 1.044c-1.008.164-1.876.246-2.673.246H8.619v-7.997l.012-.012c.844-.739 3.553-2.603 4.76-1.559.012 0 .012.012.023.012a5.4 5.4 0 003.436 1.219h1.817c.95 0 1.817.504 2.31 1.337.199.328.199.469.199.504-.106.129-.551.223-1.008.246-.188 0-.363-.012-.528-.012h-4.139a.786.786 0 000 1.572h4.116c.117.012.34.023.61.012h.211c2.24.047 4.338.023 5.487-.633.012-.012.035-.023.047-.035l4.034-2.744c.985-.586 1.419-.692 1.595-.692.059 0 .129.012.41.41.07.106.035.282 0 .317zm-6.66-14.715a4.986 4.986 0 004.983-4.983A4.986 4.986 0 0025.351.073a4.986 4.986 0 00-4.983 4.983 4.986 4.986 0 004.983 4.983zm0-8.396c1.876 0 3.412 1.536 3.412 3.412s-1.536 3.412-3.412 3.412-3.412-1.536-3.412-3.412 1.524-3.412 3.412-3.412zm-9.908 16.345v-.235a4.99 4.99 0 004.866 3.928 4.986 4.986 0 004.983-4.983 4.986 4.986 0 00-6.214-4.831 4.138 4.138 0 00-3.635-2.169 4.139 4.139 0 00-4.139 4.139c0 2.287 1.864 4.151 4.139 4.151zm8.29-1.29a3.423 3.423 0 01-3.412 3.412 3.423 3.423 0 01-3.412-3.412 3.423 3.423 0 013.412-3.412 3.416 3.416 0 013.412 3.412zm-8.29-5.428c.903 0 1.735.469 2.193 1.231a4.977 4.977 0 00-2.298 3.916 2.58 2.58 0 01-2.474-2.568 2.586 2.586 0 012.579-2.579z"/></svg>