<svg version="1.1" id="Layer_1" xmlns="http://www.w3.org/2000/svg" x="0" y="0" viewBox="0 0 36 36" xml:space="preserve"><style>.st0{fill:#9e9786}</style><g id="Tile_View"><path class="st0" d="M2 .2h6.5c1 0 1.8.8 1.8 1.8v6.5c0 1-.8 1.8-1.8 1.8H2C1 10.3.2 9.5.2 8.5V1.9C.2 1 1 .2 2 .2M27.5.2H34c1 0 1.8.8 1.8 1.8v6.5c0 1-.8 1.8-1.8 1.8h-6.5c-1 0-1.8-.8-1.8-1.8V1.9c.1-.9.9-1.7 1.8-1.7M14.7.2h6.5C22.2.2 23 1 23 2v6.5c0 1-.8 1.8-1.8 1.8h-6.5c-1 0-1.8-.8-1.8-1.8V1.9c0-.9.8-1.7 1.8-1.7M2 25.7h6.5c1 0 1.8.8 1.8 1.8V34c0 1-.8 1.8-1.8 1.8H2C1 35.8.2 35 .2 34v-6.5c0-1 .8-1.8 1.8-1.8M27.5 25.7H34c1 0 1.8.8 1.8 1.8V34c0 1-.8 1.8-1.8 1.8h-6.5c-1 0-1.8-.8-1.8-1.8v-6.5c.1-1 .9-1.8 1.8-1.8M14.7 25.7h6.5c1 0 1.8.8 1.8 1.8V34c0 1-.8 1.8-1.8 1.8h-6.5c-1 0-1.8-.8-1.8-1.8v-6.5c0-1 .8-1.8 1.8-1.8M1.9 13h6.5c1 0 1.8.8 1.8 1.8v6.5c0 1-.8 1.8-1.8 1.8H1.9c-1 0-1.8-.8-1.8-1.8v-6.5c.1-1 .8-1.8 1.8-1.8M27.5 13H34c1 0 1.8.8 1.8 1.8v6.5c0 1-.8 1.8-1.8 1.8h-6.5c-1 0-1.8-.8-1.8-1.8v-6.5c0-1 .8-1.8 1.8-1.8M14.7 13h6.5c1 0 1.8.8 1.8 1.8v6.5c0 1-.8 1.8-1.8 1.8h-6.5c-1 0-1.8-.8-1.8-1.8v-6.5c0-1 .8-1.8 1.8-1.8"/></g></svg>