<svg version="1.1" id="Layer_1" xmlns="http://www.w3.org/2000/svg" x="0" y="0" viewBox="0 0 36 36" xml:space="preserve"><style>.st0{fill:#fff}</style><path class="st0" d="M1.8 4.7h32.4c1 0 1.8.8 1.8 1.8v2.4c-.3-.5-.9-.8-1.5-.8H13.3c-.2-.3-.6-.6-1-.6H4.8c-.4 0-.8.2-1 .6H1.4c-.6.1-1.1.3-1.4.8V6.5c0-1 .8-1.8 1.8-1.8m0-4.7h32.4c1 0 1.8.8 1.8 1.8v1c-.3-.5-.9-.8-1.5-.8H1.4c-.6 0-1.1.2-1.4.6v-.8C0 .8.8 0 1.8 0zm14.7 21.4c-.4 0-.8.3-.8.8 0 .4.3.8.8.8H29c.4 0 .8-.3.8-.8 0-.4-.3-.8-.8-.8H16.5zm0-2.7c-.4 0-.8.3-.8.8 0 .4.3.8.8.8h16c.4 0 .8-.3.8-.8 0-.4-.3-.8-.8-.8h-16zm0-2.8c-.4 0-.8.3-.8.8 0 .4.3.8.8.8h8c.4 0 .8-.3.8-.8 0-.4-.3-.8-.8-.8h-8zm-8-.3c1.2 0 2.1 1.1 2.1 2.5s-.9 2.5-2.1 2.5-2.1-1.1-2.1-2.5c.1-1.4 1-2.5 2.1-2.5zm-3.7-1.4c-.7 0-1.2.5-1.2 1.2v8.3c0 .7.5 1.2 1.2 1.2h1.6c-.3-1-1-1.7-1.8-1.8.6-1.5 1.8-3 3.5-.9 0 0 .8 1 1.4.1 0 0 1.6-2.6 2.6 1.3-.5.1-.8.6-.9 1.3h1c.7 0 1.2-.5 1.2-1.2v-8.3c0-.7-.5-1.2-1.2-1.2H4.8zm-3-2.9h32.4c1 0 1.8.8 1.8 1.8v21.1c0 1-.8 1.8-1.8 1.8h-3.3v-2.2h.9c.7 0 1.3-.6 1.3-1.3 0-.7-.6-1.3-1.3-1.3h-4.7c-.7 0-1.3.6-1.3 1.3 0 .7.6 1.3 1.3 1.3h.9V36h-8.6v-2.2h.9c.7 0 1.3-.6 1.3-1.3 0-.7-.6-1.3-1.3-1.3h-4.7c-.7 0-1.3.6-1.3 1.3 0 .7.6 1.3 1.3 1.3h.9V36H7.9v-2.2h.9c.7 0 1.3-.6 1.3-1.3 0-.7-.6-1.3-1.3-1.3H4.1c-.7 0-1.3.6-1.3 1.3 0 .7.6 1.3 1.3 1.3H5V36H1.8c-1 0-1.8-.8-1.8-1.8V13.1c0-1 .8-1.8 1.8-1.8z"/></svg>