<svg version="1.1" id="Layer_1" xmlns="http://www.w3.org/2000/svg" x="0" y="0" viewBox="0 0 36 36" xml:space="preserve"><style>.st0{fill:#fff}</style><path class="st0" d="M.2 25.6c2-5 5.7-10.1 10.9-3.5l-7 5.9C3 26.6 1.7 25.7.2 25.6m24.3 1.9c-1.5.3-2.7 2.1-2.9 4.3h-4.2l5.9-8c.4.9.8 2.1 1.2 3.7zM13 .2c3.7 0 6.7 3.8 6.7 8.6s-3 8.6-6.7 8.6-6.7-3.8-6.7-8.6S9.2.2 13 .2zm16.1 9l1.3-1.3c.2-.2.5-.2.7 0l1.3 1.3c.2.2.2.5 0 .8l-1.3 1.3c-.2.2-.5.2-.7 0L29.1 10c-.2-.3-.2-.6 0-.8zM10.5 30.7c-.7-.7-1.8-.7-2.5 0s-.7 1.9 0 2.6c.7.7 1.8.7 2.5 0 .6-.7.6-1.8 0-2.6zM25 6c1.6-1.6 3.7-2.2 5.7-1.8l.5.5-3.7 3.9c-.5.5-.5 1.4 0 1.9l2.2 2.4c.5.5 1.3.5 1.8 0L35.2 9l.5.5c.4 2.1-.2 4.4-1.7 6-1.9 2-4.8 2.5-7.2 1.3l-15 18c-1.4 1.5-3.7 1.4-5.1-.1-1.4-1.5-1.5-3.9-.1-5.4l17.1-15.7C22.6 11.1 23 8 25 6z"/></svg>