<svg version="1.1" id="Layer_1" xmlns="http://www.w3.org/2000/svg" x="0" y="0" viewBox="0 0 36 36" xml:space="preserve"><style>.st0{fill:#fff}</style><path class="st0" d="M12.6 29c.1 0 2.6-1 5.3-2.2V29h-5.3m4.2-26.1v.3l-.2 3.6-.9-.5L4.9 9.5l1.2 6.4L3 17 2.7 3.3l14.1-.4zM4.9 30.3l-.2-.8 5.9-5.9.1.9-5.8 5.8zm-.4-1.8l-.2-.9 6.1-6.1.1 1-6 6zm-.9-3.9l-.2-.9 3.1-3.1 1.6-.5-4.5 4.5zm4 5.5l-2 .9 5.2-5.2.1 1-3.3 3.3zm5.4-7.8l-.1-.9 7.1-7.1v1.1l-7 6.9zm.4 4.4l-.1-1L18 21v1.1l-4.6 4.6zm-.2-2.2l-.1-1 6.8-6.8v1.1l-.5.5c-.5.2-1 .7-1.2 1.2l-5 5zm2.8 1.9l-1.9.8 3.9-3.9v1.1l-2 2zm13.6-12.3l-.2 1.3-2.7 2.7h-1.1l4-4zm-7.1-3.7l.1-1.1 5.6-5.6 1.6-.5-7.3 7.2zm.2-2.5l.1-1.1 1.9-1.9 1.6-.5-3.6 3.5zm6.4 9l-.2 1.2h-1l1.2-1.2zM23 12.3l-.6.6.1-1.1 8.9-8.9-.2 1.3-8.2 8.1zm5.4.6l1.6-1.7-.2 1.2-.2.2-5.4 5.4h-1.1l5.3-5.1zm-3.4-.2l-2.8 2.8.1-1.2 1-1L31 5.6l-.2 1.3-5.8 5.8zm1 .2l4.4-4.5-.2 1.3-2.9 2.9L22 18l.1-1.1 3.9-4zm-7 0l1.1-1.1v1.1l-7.2 7.2-.1-1 6.2-6.2zm-4.7 0l.9-.9 1.6-.5-1.2 1.2-3.2 3.2-.1-1 2-2zm-4.2 6.6l.1.9L4 26.6l-.2-.9 6.2-6.2h.1zM3 21.9l1.6-.5-1.4 1.4-.2-.9zm8.1 6.6l-1.2.5 1.2-1.2v.7zm9-18.1v.2l-2.2 2.2-5.3 5.2-.1-1 4.1-4.1 2.1-2.1 1.4-.4zM12.2 13l1-.3-1 1V13zM.1 19.5l6.6-2.1 2.9 1.1-7.2 2.4-2.3-1.4zm6.5-9.4L15 7.8l4.5 1.6-8.4 2.6-4.5-1.9zm10.3-7.5L25.6.2l5.1 1.5-8.5 2.6-5.3-1.7zm14.8 19.7c-.5 0-.9.4-.9.9v9.6h-1.3v-6.1c0-.5-.4-.9-.9-.9h-1.1c-.5 0-.9.4-.9.9v6.1h-1.3v-2.4c0-.5-.4-.9-.9-.9h-1.1c-.5 0-.9.4-.9.9v2.4h-.8c-.3 0-.6.3-.6.6s.3.6.6.6h13c.3 0 .6-.3.6-.6s-.3-.6-.6-.6h-.8v-9.6c0-.5-.4-.9-.9-.9h-1.2zm-10.3-1.9h13.2c.7 0 1.2.5 1.2 1.2v13.1c0 .7-.5 1.2-1.2 1.2H21.4c-.7 0-1.2-.5-1.2-1.2V21.6c0-.7.6-1.2 1.2-1.2z"/></svg>