<svg version="1.1" id="Layer_1" xmlns="http://www.w3.org/2000/svg" x="0" y="0" viewBox="0 0 36 36" xml:space="preserve"><style>.st0{fill:#fff}</style><path class="st0" d="M31.7 22.3c-.5 0-.9.4-.9.9v9.6h-1.3v-6.1c0-.5-.4-.9-.9-.9h-1.1c-.5 0-.9.4-.9.9v6.1h-1.3v-2.4c0-.5-.4-.9-.9-.9h-1.1c-.5 0-.9.4-.9.9v2.4h-.8c-.3 0-.6.3-.6.6s.3.6.6.6h13c.3 0 .6-.3.6-.6s-.3-.6-.6-.6h-.8v-9.6c0-.5-.4-.9-.9-.9h-1.2m-10.3-1.9h13.2c.7 0 1.2.5 1.2 1.2v13.1c0 .7-.5 1.2-1.2 1.2H21.4c-.7 0-1.2-.5-1.2-1.2V21.6c0-.7.6-1.2 1.2-1.2zm-8.1 5c-.5 0-.8.4-.8.8 0 .5.4.8.8.8.5 0 .8-.4.8-.8 0-.5-.3-.8-.8-.8zm9.4-8.9h.9l.6 1.6h-.9l-.6-1.6zm-4.9 0H22.5v1.6H19l.1.3c-.3.2-.6.5-.8.8l-.5-2.7zM4 16.5h4.3l-.7 4.1h5.2v-2.5H8.6v-1.6h9v1.6h-3.8v2.5H18v1.7H2.4c-.2 0-.4.2-.4.4v.9c0 .2.2.4.4.4H18v4.1H1c-.5 0-.9-.4-.9-.9v-5.8c0-.5.4-.9.9-.9h.3l1.6-4.1h.9l-1.6 4.1h4.5l.5-2.5H4v-1.5zM7.2 2.2c-.2 0-.4.2-.4.4v2.3c0 .2.2.4.4.4h7.4c.2 0 .4-.2.4-.4V2.6c0-.2-.2-.4-.4-.4H7.2zM6 10.1l-1.4 3.7H22l-1.4-3.7H6zM4.5 8.6h5V7.3H5.3c-.4 0-.8-.3-.8-.8V.9c0-.4.4-.8.8-.8h11.2c.4 0 .8.4.8.8v5.6c0 .4-.4.8-.8.8h-4.2v1.3h9.8l2.7 6.9h-23l2.7-6.9z"/></svg>