<svg version="1.1" id="Layer_1" xmlns="http://www.w3.org/2000/svg" x="0" y="0" viewBox="0 0 36 36" xml:space="preserve"><style>.st0{fill:#fff}</style><path class="st0" d="M20.8 8.8h3.6c.3 0 .5.2.5.4v2.7c0 .2-.2.4-.5.4h-3.6c-.3 0-.5-.2-.5-.4V9.2c0-.2.2-.4.5-.4m-5.8 0h3.6c.3 0 .5.2.5.4v2.7c0 .2-.2.4-.5.4H15c-.3 0-.5-.2-.5-.4V9.2c0-.2.2-.4.5-.4zm5.8 4.3h3.6c.3 0 .5.2.5.4v2.7c0 .2-.2.4-.5.4h-3.6c-.3 0-.5-.2-.5-.4v-2.7c0-.3.2-.4.5-.4zm-5.8 0h3.6c.3 0 .5.2.5.4v2.7c0 .2-.2.4-.5.4H15c-.3 0-.5-.2-.5-.4v-2.7c0-.3.2-.4.5-.4zm-5.7 0h3.6c.3 0 .5.2.5.4v2.7c0 .2-.2.4-.5.4H9.3c-.3 0-.5-.2-.5-.4v-2.7c.1-.3.3-.4.5-.4zm-5.7 0h3.6c.3 0 .5.2.5.4v2.7c0 .2-.2.4-.5.4H3.6c-.3 0-.5-.2-.5-.4v-2.7c0-.3.2-.4.5-.4zm17.2 4.2h3.6c.3 0 .5.2.5.4v.4h-4.6v-.4c0-.2.2-.4.5-.4zm-5.8 0h3.6c.3 0 .5.2.5.4v.7c-.7.4-1.1 1.2-1.1 2v.3h-3c-.3 0-.5-.2-.5-.4v-2.7c0-.1.2-.3.5-.3zm-5.7 0h3.6c.3 0 .5.2.5.4v2.7c0 .2-.2.4-.5.4H9.3c-.3 0-.5-.2-.5-.4v-2.7c.1-.2.3-.4.5-.4zm-5.7 0h3.6c.3 0 .5.2.5.4v2.7c0 .2-.2.4-.5.4H3.6c-.3 0-.5-.2-.5-.4v-2.7c0-.2.2-.4.5-.4zm5.7 4.2h3.6c.3 0 .5.2.5.4v2.7c0 .2-.2.4-.5.4H9.3c-.3 0-.5-.2-.5-.4v-2.7c.1-.2.3-.4.5-.4zm-5.7 0h3.6c.3 0 .5.2.5.4v2.7c0 .2-.2.4-.5.4H3.6c-.3 0-.5-.2-.5-.4v-2.7c0-.2.2-.4.5-.4zm-1.1 6.4c-1.3 0-2.3-1-2.3-2.3V5c0-1.3 1-2.3 2.3-2.3H5v1C5 5 6 6 7.2 6c1.2 0 2.2-1 2.2-2.2v-1h9.1v1c0 1.2 1 2.2 2.2 2.2C22 6 23 5 23 3.7v-1h2.6c1.3 0 2.3 1 2.3 2.3v13.1h-1.8V8.9c0-.6-.5-1.2-1.2-1.2H3.1c-.5 0-1 .4-1.1.9V25c0 .6.5 1.2 1.2 1.2H18v1.7H2.5zM20.8.1c.6 0 1.2.5 1.2 1.2v2.4c0 .5-.3 1-.8 1.1v-3c0-.2-.1-.3-.3-.3-.2 0-.3.2-.3.3v3c-.5-.1-.8-.6-.8-1.1V1.3c-.2-.6.3-1.2 1-1.2zM7.2.1c.6 0 1.2.5 1.2 1.2v2.4c0 .5-.3 1-.8 1.1v-3c0-.2-.1-.3-.3-.3-.3 0-.4.1-.4.3v3c-.5-.2-.9-.6-.9-1.1V1.3C6 .7 6.6.1 7.2.1zm24.5 22.2c-.5 0-.9.4-.9.9v9.6h-1.3v-6.1c0-.5-.4-.9-.9-.9h-1.1c-.5 0-.9.4-.9.9v6.1h-1.3v-2.4c0-.5-.4-.9-.9-.9h-1.1c-.5 0-.9.4-.9.9v2.4h-.8c-.3 0-.6.3-.6.6s.3.6.6.6h13c.3 0 .6-.3.6-.6s-.3-.6-.6-.6h-.8v-9.6c0-.5-.4-.9-.9-.9h-1.2zm-10.3-1.9h13.2c.7 0 1.2.5 1.2 1.2v13.1c0 .7-.5 1.2-1.2 1.2H21.4c-.7 0-1.2-.5-1.2-1.2V21.6c0-.7.6-1.2 1.2-1.2z"/></svg>