<svg version="1.1" id="Layer_1" xmlns="http://www.w3.org/2000/svg" x="0" y="0" viewBox="0 0 36 36" xml:space="preserve"><style>.st0{fill:#fff}</style><path class="st0" d="M31.7 22.3c-.5 0-.9.4-.9.9v9.6h-1.3v-6.1c0-.5-.4-.9-.9-.9h-1.1c-.5 0-.9.4-.9.9v6.1h-1.3v-2.4c0-.5-.4-.9-.9-.9h-1.1c-.5 0-.9.4-.9.9v2.4h-.8c-.3 0-.6.3-.6.6s.3.6.6.6h13c.3 0 .6-.3.6-.6s-.3-.6-.6-.6h-.8v-9.6c0-.5-.4-.9-.9-.9h-1.2m-10.3-1.9h13.2c.7 0 1.2.5 1.2 1.2v13.1c0 .7-.5 1.2-1.2 1.2H21.4c-.7 0-1.2-.5-1.2-1.2V21.6c0-.7.6-1.2 1.2-1.2zm6.8-4.4l-.1 2.1h-.8c.1-.6.2-1.2.2-1.8 0-3.3-1.4-5.9-3.1-5.9-.3 0-.6.1-.9.2-.2-1.2-.4-2.4-.7-3.4h3.8c1 2 1.6 5.2 1.6 8.8zm-3.7-3.7c1.4 0 2.5 2.1 2.5 4.7l-.1 1.2H24v-1.6c0-1.4-.1-2.8-.2-4.1.2-.2.4-.2.7-.2zm-1-8.5h1.8c.2 0 .3.2.3.3V6c0 .2-.2.3-.3.3h-1.8c-.2 0-.3-.2-.3-.3V4.2c0-.2.2-.4.3-.4zM17 26c.3-1 .5-2.1.7-3.3l.3.2V26h-1zm6.1-9.8v1.9h-.8l.1-1.6c0-3.7-1.5-6.6-3.4-6.6-.4 0-.9.2-1.3.5-.2-1.5-.5-2.8-.9-4h4.7c.9 2.1 1.6 5.7 1.6 9.8zM18.9 12c1.5 0 2.8 2.4 2.8 5.3v.8h-1.3c-1.3 0-2.4 1.1-2.4 2.4v1.8l-.2-.2c.2-1.7.3-3.5.3-5.5 0-1.5-.1-2.9-.2-4.3.3-.2.6-.3 1-.3zm-1.1-9.5h2.1c.2 0 .4.2.4.4V5c0 .2-.2.4-.4.4h-2.1c-.2 0-.4-.2-.4-.4V2.9c0-.2.2-.4.4-.4zM17 16.4c0 4.4-.7 8.3-1.8 10.7h-4.8c.3-1.1.5-2.3.7-3.5.4.3.8.4 1.3.4 2.1 0 3.8-3.3 3.8-7.3s-1.7-7.3-3.8-7.3c-.5 0-.9.2-1.4.5-.3-1.6-.6-3.1-1.1-4.4h5.2c1.2 2.4 1.9 6.4 1.9 10.9zm-4.6-4.6c1.7 0 3 2.6 3 5.8 0 3.2-1.4 5.8-3 5.8-.4 0-.8-.2-1.2-.4.2-1.8.4-3.8.4-5.9 0-1.7-.1-3.4-.3-4.9.3-.3.7-.4 1.1-.4zM11.2 1.3h2.3c.2 0 .4.2.4.4V4c0 .2-.2.4-.4.4h-2.3c-.2 0-.4-.2-.4-.4V1.8c0-.3.2-.5.4-.5zm-6 7.6c-2.3 0-4.1 3.6-4.1 7.9 0 4.4 1.8 7.9 4.1 7.9s4.1-3.6 4.1-7.9c0-4.3-1.8-7.9-4.1-7.9zm5 7.6c0 4.8-.8 9-2 11.7H2.1c-1.2-2.7-2-6.9-2-11.7 0-4.9.8-9.2 2.1-11.9h5.9c1.3 2.7 2.1 7 2.1 11.9zm-5-5c1.8 0 3.3 2.8 3.3 6.3S7 24.1 5.2 24.1c-1.8 0-3.3-2.8-3.3-6.3s1.5-6.3 3.3-6.3zM4 .1h2.5c.3 0 .5.2.5.5v2.5c0 .3-.2.5-.5.5H4c-.3 0-.5-.2-.5-.5V.6c0-.2.2-.5.5-.5z"/></svg>