<svg version="1.1" id="Layer_1" xmlns="http://www.w3.org/2000/svg" x="0" y="0" viewBox="0 0 36 36" xml:space="preserve"><style>.st0{fill:#fff}</style><path class="st0" d="M21.9 9.4h3.8c.3 0 .5.2.5.4v2.8c0 .2-.2.4-.5.4h-3.8c-.3 0-.5-.2-.5-.4V9.8c0-.3.2-.4.5-.4m-6 0h3.8c.3 0 .5.2.5.4v2.8c0 .2-.2.4-.5.4h-3.8c-.3 0-.5-.2-.5-.4V9.8c0-.3.2-.4.5-.4zm6 4.4h3.8c.3 0 .5.2.5.4V17c0 .2-.2.4-.5.4h-3.8c-.3 0-.5-.2-.5-.4v-2.8c0-.2.2-.4.5-.4zm-6 0h3.8c.3 0 .5.2.5.4V17c0 .2-.2.4-.5.4h-3.8c-.3 0-.5-.2-.5-.4v-2.8c0-.2.2-.4.5-.4zm-6 0h3.8c.3 0 .5.2.5.4V17c0 .2-.2.4-.5.4H9.9c-.3 0-.5-.2-.5-.4v-2.8c0-.2.2-.4.5-.4zm-6 0h3.8c.3 0 .5.2.5.4V17c0 .2-.2.4-.5.4H3.9c-.3 0-.5-.2-.5-.4v-2.8c-.1-.2.2-.4.5-.4zm12 4.5h3.5c-.8.4-1.4 1.2-1.4 2.2V22h-2.1c-.3 0-.5-.2-.5-.4v-2.8c0-.3.2-.5.5-.5zm-6 0h3.8c.3 0 .5.2.5.4v2.8c0 .2-.2.4-.5.4H9.9c-.3 0-.5-.2-.5-.4v-2.8c0-.2.2-.4.5-.4zm-6 0h3.8c.3 0 .5.2.5.4v2.8c0 .2-.2.4-.5.4H3.9c-.3 0-.5-.2-.5-.4v-2.8c-.1-.2.2-.4.5-.4zm12 4.4H18v3.7h-2.1c-.3 0-.5-.2-.5-.4v-2.8c0-.3.2-.5.5-.5zm-6 0h3.8c.3 0 .5.2.5.4V26c0 .2-.2.4-.5.4H9.9c-.3 0-.5-.2-.5-.4v-2.8c0-.3.2-.5.5-.5zm-6 0h3.8c.3 0 .5.2.5.4V26c0 .2-.2.4-.5.4H3.9c-.3 0-.5-.2-.5-.4v-2.8c-.1-.3.2-.5.5-.5zm-1.3 6.7C1.3 29.4.2 28.3.2 27V5.3C.2 4 1.3 2.9 2.6 2.9h2.6V4c0 1.3 1 2.3 2.3 2.3 1.3 0 2.3-1 2.3-2.3V2.9h9.6V4c0 1.3 1 2.3 2.3 2.3C23 6.3 24 5.3 24 4V2.9h3c1.3 0 2.4 1.1 2.4 2.4V18h-1.9V9.3c0-.7-.5-1.2-1.2-1.2h-23c-.6 0-1 .4-1.2.9v17.3c0 .7.5 1.2 1.2 1.2H18v1.8H2.6zM21.9.2c.7 0 1.2.5 1.2 1.2v2.5c0 .6-.4 1-.9 1.2V2c0-.2-.2-.4-.4-.4s-.3.2-.3.4v3.1c-.5-.2-.9-.6-.9-1.2V1.4c.1-.7.7-1.2 1.3-1.2zM7.6.2c.7 0 1.2.5 1.2 1.2v2.5c0 .6-.4 1-.9 1.2V2c0-.2-.2-.4-.4-.4s-.2.2-.2.4v3.1c-.5-.2-.9-.6-.9-1.2V1.4C6.4.7 6.9.2 7.6.2zm24.1 22.1c-.5 0-.9.4-.9.9v9.6h-1.3v-6.1c0-.5-.4-.9-.9-.9h-1.1c-.5 0-.9.4-.9.9v6.1h-1.3v-2.4c0-.5-.4-.9-.9-.9h-1.1c-.5 0-.9.4-.9.9v2.4h-.7c-.3 0-.6.3-.6.6s.3.6.6.6h12.9c.3 0 .6-.3.6-.6s-.3-.6-.6-.6h-.8v-9.6c0-.5-.4-.9-.9-.9h-1.2m-10.3-1.9h13.2c.7 0 1.2.5 1.2 1.2v13c0 .7-.5 1.2-1.2 1.2H21.4c-.7 0-1.2-.5-1.2-1.2v-13c0-.7.6-1.2 1.2-1.2z"/></svg>