<svg version="1.1" id="Layer_1" xmlns="http://www.w3.org/2000/svg" x="0" y="0" viewBox="0 0 36 36" xml:space="preserve"><style>.st0{fill:#fff}</style><path class="st0" d="M18 .1c.6 0 1.1.5 1.1 1.1v33.5c0 .6-.5 1.1-1.1 1.1-.6 0-1.1-.5-1.1-1.1V18.3l.5-.1c.8-.7 1.4-2.8.6-3.2l-.3-.1c.6-1.8 1.5-4.3 1.1-4.8-.1-.2-1.4-.4-1.9-.4V1.2C16.8.6 17.3.1 18 .1m-14.8 7c-.3.1-.5.7.2.8l6.1-1.3s.2-.4-.1-.4c-.8 0-5.8.8-6.2.9zm-.4 7.2c-.5 0-.9-.3-.9-.3l-.2-.7c2.4-.1 4.8 0 6 .1l-4.9.9zm.9 3.5c-.1 0-.2-.1-.3-.3-.1-.3-.1-.8 0-1.1.2-.4.4-.4.6-.5l4.6-1c-.3 1.2-1 2.8-1.5 3.8l-3.4-.9zm7.9-5.4c.2.3 0 1.2-.4 2.3 1.2 0 3.2.1 4.6.3.6-1.7 1.1-3.8.4-3.9 0 0-2.7-.1-5.4 0l-.2 1c.6 0 .9.1 1 .3zm2.9 15.8c0 .9-1.9 1.6-4.2 1.6-2.3 0-4.2-.7-4.2-1.6l.1-.3c-.5.3-.7.6-.7.9 0 .9 2.2 1.7 4.8 1.7s4.8-.8 4.8-1.7c0-.3-.3-.6-.7-.9l.1.3zm-2.8-1.5c1.2.2 2.2.5 2.6 1 1 .4 1.6.9 1.6 1.5 0 1.2-2.5 2.1-5.7 2.1s-5.7-.9-5.7-2.1c0-.6.6-1.1 1.6-1.5.4-.5 1.4-.9 2.6-1v-7l-1 .5s-.4-.3-.2-.4c.2-.2 3-6.7 1.8-6.9 0 0-5.2-.4-9 .2-.5.1-.2-.3 0-.3l1.1-.2C1 10.6.9 8.2.9 8.1c.5-1.5 1.5-1.9 1.5-1.9l6.7-.9c.8-.3 1.5.6 1.5.6.8.6.5 3.1.2 4.8 2.8-.3 6.5-.6 7 0 .4.4-.4 2.8-1 4.5l.4.2c.7.7.1 1.6-.2 2.2l-5.5 2.2v6.9zm-1.4.5c0 .2.2.4.4.4s.4-.2.4-.4v-7.3l-.2.1-.7-.2v7.4zM23.8 8.1v19l9.9 3.6V10.9l-9.9-2.8zm-1.2-2L35 9.6l.9-.5v23.4l-.9.5-12.3-4.6V6.1zm8.4 12l1.2-.3c.3 0 .5 0 .6.1.1.1.1.3.1.5s-.1.3-.3.4l-1 .3c-.2 0-.4.2-.4.4v2.2c0 .2 0 .3.3.3l.6-.2c.2 0 .4-.1.5 0 .1.1.3.2.3.4s-.1.4-.3.5c-.2.1-.5.2-.8.3l-.8.2c-.5 0-.8-.4-.8-.9v-3.5c0-.3.4-.7.8-.7zM23.9 5.5L34.2 3v5.3L23.9 5.5zm3.2 4.6l1.1.3L25 13v-1.3l2.1-1.6zm2.1.5l1.3.4-5.5 4.5V14l4.2-3.4z"/></svg>