<svg version="1.1" id="Layer_1" xmlns="http://www.w3.org/2000/svg" x="0" y="0" viewBox="0 0 36 36" xml:space="preserve"><style>.st0{fill:#fff}</style><path class="st0" d="M23.7 5c.2 0 .3-.1.5-.1v13.5c-.2 0-.3.1-.5.1V5m10.8 30.2l-.5.1V23.2l.5-.1v12.1zm-21.6-4.1l-.5.1V14l.5-.1v17.2zm14.7-14v-.8H33v.8h-5.4zm0-4.9v-.8H33v.8h-5.4zm0-4.8v-.8H33v.8h-5.4zM8.3 6.6v.8H2.2v-.8h6.1zm19.3-3.9v-.8H33v.8h-5.4zM8.3 1.9v.8H2.2v-.8h6.1zm17.2 2.6v13.7h-.3V4.6c.1 0 .2-.1.3-.1zM18 30.3h-1.2V11.8c-.1-1.3-2.7-2.5-6.3-2.8V4.5c1.3.6 4.2 1.1 7.5 1.1 2 0 3.9-.2 5.4-.4v13.4c-2.5.5-4.2 1.4-4.2 2.5v9.2H18zM18 .2c4.2 0 7.5.7 7.5 1.6 0 .9-3.4 1.6-7.5 1.6s-7.5-.7-7.5-1.6C10.4.9 13.8.2 18 .2zm10.8 35.6c-3.9 0-7-.6-7-1.5V22.6c1.2.6 3.9 1 7 1 1.8 0 3.5-.1 4.8-.4v12.1c-1.2.3-2.9.5-4.8.5zm7-1.4c0 .1-.1.3-.3.4v-12l.3-.1v11.7zm-7-15.7c3.9 0 7 .6 7 1.4 0 .8-3.1 1.4-7 1.4s-7-.6-7-1.4c0-.8 3.2-1.4 7-1.4zM7.2 31.8c-3.9 0-7-.6-7-1.5V13.4c1.2.6 3.9 1 7 1 1.8 0 3.5-.1 4.8-.4v17.3c-1.2.3-2.9.5-4.8.5zm7-1.5c0 .1-.1.3-.3.4V13.6l.3-.1v16.8zm-7-20.8c3.9 0 7 .6 7 1.4 0 .8-3.1 1.4-7 1.4s-7-.6-7-1.4c0-.8 3.1-1.4 7-1.4z"/></svg>