<svg version="1.1" id="Layer_1" xmlns="http://www.w3.org/2000/svg" x="0" y="0" viewBox="0 0 36 36" xml:space="preserve"><style>.st0{fill:#fff}</style><path class="st0" d="M8.5 18c.6-.6 1.3-.8 2.1-.8-2.6-4.3-2.1-10 1.7-13.8C16.6-1 23.8-1 28.1 3.4 31 6.3 32 10.3 31 14c-1.5 0-2.9 1-3.6 2.6-.4-.2-.8-.3-1.3-.4 2.5-3 2.3-7.5-.5-10.3-3-3-7.9-3-10.9 0s-3 7.9 0 10.9l1 .9c-.1.5-.2.9-.2 1.4 0 1 .3 2 .7 2.8-.7-.2-1.3-.5-1.9-.9.1.8-.2 1.5-.8 2.1L6 30.6c-1.1 1.1-2.8 1.1-3.8 0L.9 29.3c-1.1-1.1-1.1-2.8 0-3.8L8.5 18m23.9 7.4s2.1-3.7 3.5 1.9c-.6.1-1.1.9-1.2 1.8h-2.2c-.8-1.5-1.7-2.1-2.4-2.1.3-.4.5-.9.7-1.5.3.4 1 .8 1.6-.1zm-1.3-9.7c1.5 0 2.8 1.6 2.8 3.6s-1.2 3.6-2.8 3.6c0-2.3-1-4.4-2.4-5.6.5-1 1.4-1.6 2.4-1.6zm-12 9.4s.7 1.1 1.5.6l.4.9c-1.2.1-2.3 1.1-3.2 2.3h-1.1c-.4-1.4-1.3-2.5-2.4-2.6 1-2.1 2.6-4.3 4.8-1.2zm.7-9.5c1.1 0 2 .8 2.5 2-1.3 1.2-2.1 3.1-2.1 5.3h-.4c-1.5 0-2.8-1.6-2.8-3.6 0-2.1 1.2-3.7 2.8-3.7zm5 15.1s1.4 2 2.5.3c0 0 2.8-4.9 4.6 2.4-.8.2-1.5 1.2-1.6 2.4h-8.6c-.5-1.9-1.7-3.3-3.1-3.5 1.1-2.8 3.2-5.7 6.2-1.6zm.8-12.5c2 0 3.7 2.1 3.7 4.8s-1.6 4.8-3.7 4.8c-2 0-3.7-2.1-3.7-4.8s1.7-4.8 3.7-4.8z"/></svg>