<svg version="1.1" id="Layer_1" xmlns="http://www.w3.org/2000/svg" x="0" y="0" viewBox="0 0 36 36" xml:space="preserve"><style>.st0{fill:#fff}</style><path class="st0" d="M16.5 10.3c-.4 0-.8.3-.8.8 0 .4.3.8.8.8H29c.4 0 .8-.3.8-.8 0-.4-.3-.8-.8-.8H16.5m0-2.8c-.4 0-.8.3-.8.8 0 .4.3.8.8.8h15.9c.4 0 .8-.3.8-.8 0-.4-.3-.8-.8-.8H16.5zm0-2.8c-.4 0-.8.3-.8.8 0 .4.3.8.8.8h8c.4 0 .8-.3.8-.8 0-.4-.3-.8-.8-.8h-8zm-7.9-.3c1.1 0 2.1 1.1 2.1 2.5s-.9 2.5-2.1 2.5-2.1-1.1-2.1-2.5.9-2.5 2.1-2.5zM4.8 3c-.6 0-1.2.5-1.2 1.2v8.3c0 .7.5 1.2 1.2 1.2h1.6c-.3-1-.9-1.7-1.8-1.8.6-1.5 1.8-3.1 3.5-.9 0 0 .8 1.1 1.4.1 0 0 1.6-2.6 2.6 1.3-.5.1-.8.6-.9 1.3h1c.7 0 1.2-.5 1.2-1.2V4.2c0-.7-.5-1.2-1.2-1.2H4.8zM1.9.1h32.3c1 0 1.8.8 1.8 1.8V23c0 .9-.7 1.6-1.5 1.8v-1.5c0-.8-.6-1.6-1.4-1.7v-.2c0-.7-.6-1.4-1.3-1.4H31V19.7c0-3.5-2.8-6.3-6.3-6.3s-6.3 2.8-6.3 6.3v.3h-2.8c-.7 0-1.3.6-1.3 1.4 0 .4.2.8.5 1-.2.3-.3.6-.3.9v1.6H8v-2.2h.9c.7 0 1.3-.6 1.3-1.4 0-.7-.6-1.4-1.3-1.4H4.2c-.7 0-1.3.6-1.3 1.4 0 .7.6 1.4 1.3 1.4h.9v2.2H1.9c-1 0-1.8-.8-1.8-1.8V1.9C.1.9.9.1 1.9.1zm15.2 24.8h14.8c.3 0 .5.2.5.5v1.3c0 .3-.2.5-.5.5h-.4v6.5h.4c.3 0 .5.2.5.5v1.3c0 .3-.2.5-.5.5H17.1c-.3 0-.5-.2-.5-.5v-1.3c0-.3.2-.5.5-.5h.4v-6.5h-.4c-.3 0-.5-.2-.5-.5v-1.3c0-.3.2-.5.5-.5zm7.4-9.4c2.4 0 4.3 1.9 4.3 4.2v3.9H27v-3.9c0-1.4-1.1-2.5-2.6-2.5S22 18.3 22 19.7v3.9h-1.8v-3.9c0-2.3 1.9-4.2 4.3-4.2z"/></svg>