<svg version="1.1" id="Layer_1" xmlns="http://www.w3.org/2000/svg" x="0" y="0" viewBox="0 0 36 36" xml:space="preserve"><style>.st0{fill:#fff}</style><path class="st0" d="M5.4 20.8h3.2c.4 0 .7.2.7.5V23c0 .3-.3.5-.7.5H5.4c-.4 0-.7-.2-.7-.5v-1.7c0-.3.3-.5.7-.5m.1-15.3h3.2c.4 0 .7.2.7.5v1.7c0 .3-.3.5-.7.5H5.5c-.4 0-.7-.2-.7-.5V6c0-.3.4-.5.7-.5zm-.7-.9c-.6 0-1.1.4-1.1 1v2.5c0 .5.5 1 1.1 1h20.5c.6 0 1.1-.4 1.1-1V5.6c0-.5-.5-1-1.1-1H4.8zM2.8.1h24.6c1.5 0 2.7 1.1 2.7 2.4v11.7c-.9-.6-2.1-.7-3.7-.7v-.2c0-.5-.5-1-1.1-1H4.8c-.6 0-1.1.4-1.1 1v2.5c0 .5.5 1 1.1 1h15.5c-.3.5-.4 1.2-.4 2V20H4.8c-.6 0-1.1.4-1.1 1v2.5c0 .5.5 1 1.1 1h11.4v2.7s-.1.7.7.7V29H2.8C1.3 29 .1 27.9.1 26.6v-24C.1 1.2 1.3.1 2.8.1zm8.6 13.2h3.2c.4 0 .7.2.7.5v1.7c0 .3-.3.5-.7.5h-3.2c-.4 0-.7-.2-.7-.5v-1.7c0-.2.3-.5.7-.5zM19 24.8h16.3c.3 0 .6.2.6.5v1.3c0 .3-.3.5-.6.5h-.5v6.5h.5c.3 0 .6.2.6.5v1.3c0 .3-.3.5-.6.5H19c-.3 0-.6-.2-.6-.5v-1.3c0-.3.3-.5.6-.5h.5v-6.5H19c-.3 0-.6-.2-.6-.5v-1.3c0-.2.3-.5.6-.5zm8.1-9.3c2.6 0 4.8 1.9 4.8 4.2v3.9H30v-3.9c0-1.4-1.3-2.5-2.8-2.5-1.6 0-2.8 1.1-2.8 2.5v3.9h-1.9v-3.9c-.1-2.4 2-4.2 4.6-4.2z"/></svg>