<svg version="1.1" id="Layer_1" xmlns="http://www.w3.org/2000/svg" x="0" y="0" viewBox="0 0 36 36" xml:space="preserve"><style>.st0-red{fill:red}</style><path class="st0-red" d="M17.9 32.1c7.7 0 14-6.3 14-14 0-3.1-1-5.9-2.6-8.2L9.8 29.4c2.3 1.7 5.1 2.7 8.1 2.7m0-28c-7.7 0-14 6.3-14 14 0 3 1 5.9 2.6 8.2L26.1 6.7c-2.3-1.6-5.1-2.6-8.2-2.6zM18 .2c4.1 0 7.9 1.4 10.9 3.7l1.5-1.5c.9-.9 2.3-.9 3.2 0 .9.9.9 2.3 0 3.2l-1.5 1.5c2.3 3 3.7 6.8 3.7 10.9 0 9.9-8 17.8-17.8 17.8-4.1 0-7.9-1.4-10.9-3.7l-1.5 1.5c-.9.9-2.3.9-3.2 0-.9-.9-.9-2.3 0-3.2l1.5-1.5C1.6 25.9.2 22.1.2 18 .2 8.1 8.1.2 18 .2z"/></svg>