<svg version="1.1" id="Layer_2" xmlns="http://www.w3.org/2000/svg" x="0" y="0" viewBox="0 0 36 36" xml:space="preserve"><style>.st0{fill:#449ed7}.st1{fill:#fff}</style><path class="st0" d="M35.9 28.5c0 4.1-3.3 7.3-7.3 7.3h-21c-4.1 0-7.3-3.3-7.3-7.3v-21C.3 3.4 3.6.2 7.6.2h21c4.1 0 7.3 3.3 7.3 7.3v21z"/><path class="st1" d="M29.2 11.1c-.8.4-1.7.6-2.6.7.9-.6 1.6-1.4 2-2.5-.9.5-1.8.9-2.9 1.1-.8-.9-2-1.4-3.3-1.4-2.5 0-4.5 2-4.5 4.5 0 .4 0 .7.1 1-3.7-.2-7.1-2-9.3-4.7-.4.7-.6 1.4-.6 2.3 0 1.6.8 2.9 2 3.8-.7 0-1.4-.2-2-.6v.1c0 2.2 1.6 4 3.6 4.4-.4.1-.8.2-1.2.2-.3 0-.6 0-.8-.1.6 1.8 2.2 3.1 4.2 3.1-1.5 1.2-3.5 1.9-5.6 1.9-.4 0-.7 0-1.1-.1 2 1.3 4.4 2 6.9 2C22.4 26.9 27 20 27 14.1v-.6c.8-.7 1.6-1.5 2.2-2.4zm0 0"/></svg>