<svg version="1.1" id="Layer_2" xmlns="http://www.w3.org/2000/svg" x="0" y="0" viewBox="0 0 36 36" xml:space="preserve"><style>.st0{fill:#c2303f}.st1{fill:#fff}</style><path class="st0" d="M35.9 28.5c0 4.1-3.3 7.3-7.3 7.3h-21c-4.1 0-7.3-3.3-7.3-7.3v-21C.3 3.4 3.6.2 7.6.2h21c4.1 0 7.3 3.3 7.3 7.3v21z"/><g id="Icons_31_"><g id="Color-_31_" transform="translate(-300 -260)"><path id="Pinterest" class="st1" d="M318 265.4c-7 0-12.6 5.6-12.6 12.6 0 5.2 3.1 9.6 7.5 11.5 0-.9 0-1.9.2-2.9s1.6-6.9 1.6-6.9-.4-.8-.4-2c0-1.9 1.1-3.3 2.4-3.3 1.1 0 1.7.9 1.7 1.9 0 1.2-.7 2.9-1.1 4.5-.3 1.3.7 2.4 2 2.4 2.4 0 4-3.1 4-6.7 0-2.8-1.9-4.8-5.2-4.8-3.8 0-6.2 2.8-6.2 6 0 1.1.3 1.9.8 2.5.2.3.3.4.2.7-.1.2-.2.8-.3 1-.1.3-.3.4-.6.3-1.8-.7-2.6-2.6-2.6-4.8 0-3.6 3-7.9 9-7.9 4.8 0 8 3.5 8 7.2 0 4.9-2.7 8.6-6.8 8.6-1.4 0-2.6-.7-3.1-1.6 0 0-.7 2.9-.9 3.5-.3 1-.8 1.9-1.3 2.7 1.1.3 2.3.5 3.6.5 7 0 12.6-5.6 12.6-12.6.1-6.8-5.5-12.4-12.5-12.4"/></g></g></svg>