<svg version="1.1" id="Layer_1" xmlns="http://www.w3.org/2000/svg" x="0" y="0" viewBox="0 0 36 36" xml:space="preserve"><style>.st0{fill:#fff}</style><path class="st0" d="M2 35.8C1 35.8.2 35 .2 34c0-.7.5-1.4 1.1-1.7.9 1.2 2.2 2.3 4 3.4H2M2 3.8C1 3.8.2 3 .2 2S1 .2 2 .2h5.6v3.6H2zm0 16.1c-1 0-1.8-.8-1.8-1.8S1 16.3 2 16.3h3c-.4.6-.9 1.2-1.4 1.8 0 0-.7.7-1.6 1.8zm30.2 12.3v-4.1h-3.1c-1 0-1.8-.8-1.8-1.8s.8-1.8 1.8-1.8h3.1v-4.7h-7.5l-.3-.3c-1-1-1.8-2.1-2.3-3.2h10v-4.6H29c-1 0-1.8-.8-1.8-1.8S28 8.1 29 8.1h3.1V3.8H20.6V.2H34c1 0 1.8.8 1.8 1.8v32c0 1-.8 1.8-1.8 1.8H23.1c1.2-1.2 2.1-2.4 2.7-3.6h6.4zm-14.9 3.6h-1.5l-2.3-2.3 1.4-.1 2.4 2.4zm2.6-.6c-.2.3-.5.5-.9.6L16.3 33l1-.4 2.6 2.6zm3.2-3.1l-.6.8-2.5-2.4.6-.9 2.5 2.5zm-1.5 1.7l-.9.6-2.3-2.4.8-.6 2.4 2.4zM15.5 10l1.2-.2.3.3.4 1.8-1.9-1.9zm-.9 11.8c1 .2 1.8.6 2.6 1.2l1 1c.6.7.9 1.6 1.1 2.5l-4.7-4.7zm-.3-19.3l1.3-.1 1.5 1.5v1.4l-2.8-2.8zm6.9 24.8V27l2.9 2.9-.4 1.1-2.6-2.7.1-1zM2.6 28.4c-.1-3.9.8-5.5 3.5-8.8 2.3-2.9 3.5-8.3 3.7-9.8.9.2 2.2.4 3.6.4h.5l4.2 4.3.9 2.4-5.7-5.8v1.7l9.2 9.3c.6.9 1 1.8 1.3 2.7L13.4 14.2V16l10.8 10.9v1.5L19.9 24l-.8-.8-5.7-5.8v1.7l2.3 2.3c-.5-.1-1.1-.2-1.7-.3l-.6-.6v.6c-4.3 0-7.8 2.7-7.8 6.1 0 3.4 3.5 6.1 7.8 6.1v1.6l.7.7H7.9c-.6 0-1.2-.5-1.2-1.2-4.4-1.7-4.1-6-4.1-6zm10.8 4.4c-3.2 0-5.9-2.5-5.9-5.6 0-3.1 2.6-5.6 5.9-5.6v.7l5.8 5.9c-.1.4-.2.8-.3 1.1l-5.5-5.5v1.7l4.8 4.9-.7.8-4.2-4.2v1.7l3.2 3.2-1 .5-2.2-2.3v1.7l.9.9-.8.1zM17.1.9c0 .2-.3.3-.8.4l-1-1c1.1.1 1.8.3 1.8.6zM13.4.2h.1l1.3 1.3-1.4.1c-2 0-3.7-.3-3.7-.7 0-.4 1.6-.7 3.7-.7zm0 8.8c-2 0-3.7-.3-3.7-.7V2c.4.1 1.5.5 3.7.5v.8L17.1 7 17 8.4l-3.6-3.7v1.7l2.3 2.4-1.2.2-1.1-1.1V9z"/></svg>