<svg version="1.1" id="Layer_1" xmlns="http://www.w3.org/2000/svg" x="0" y="0" viewBox="0 0 36 36" xml:space="preserve"><style>.st0{fill:#50ba0b}</style><path class="st0" d="M4 16.3c-.7 0-1.2.5-1.2 1.1v.2c0 .6.6 1.1 1.2 1.1h6.4c.7 0 1.2-.5 1.2-1.1v-.2c0-.6-.6-1.1-1.2-1.1H4M4 12c-.7 0-1.2.5-1.2 1.1v.2c0 .6.6 1.1 1.2 1.1h12.5c.7 0 1.2-.5 1.2-1.1v-.2c0-.6-.6-1.1-1.2-1.1H4zm0-4.4c-.7 0-1.2.5-1.2 1.1v.2c-.1.6.5 1.1 1.2 1.1h12.5c.7 0 1.2-.5 1.2-1.1v-.2c0-.6-.6-1.1-1.2-1.1H4zM4 3c-.7 0-1.3.5-1.3 1.1v.2c0 .6.6 1.1 1.2 1.1h12.5c.7 0 1.2-.5 1.2-1.1v-.2c0-.6-.6-1.1-1.2-1.1H4zM1.4.1h18.5c.7 0 1.2.5 1.2 1.1V13L13 21.3c-.4.4-.8.8-1 1.3l-.3.5-.8 2H1.4C.7 25.1.2 24.6.2 24V1.2C.1.6.7.1 1.4.1zM35 16.5l-1.4 1.4-6-6 1.4-1.4c.9-.9 2.3-1.1 3-.4l3.3 3.3c.8.8.7 2.2-.3 3.1zM11.2 35.8c-.4.2-.9.1-1.2-.2-.3-.3-.4-.8-.2-1.2l3.8-8 .2-.3c.1-.3.3-.6.6-.8l11.9-11.9 6 6-11.9 11.8c-.3.3-.5.5-.8.6l-.4.2-8 3.8z"/></svg>