<svg version="1.1" id="Layer_1" xmlns="http://www.w3.org/2000/svg" x="0" y="0" viewBox="0 0 36 36" xml:space="preserve"><style>.st0{fill:red}</style><path class="st0" d="M4 16.3c-.7 0-1.2.5-1.2 1.1v.2c0 .6.6 1.1 1.2 1.1h6.4c.7 0 1.2-.5 1.2-1.1v-.2c0-.6-.6-1.1-1.2-1.1H4M4 12c-.7 0-1.2.5-1.2 1.1v.2c0 .6.6 1.1 1.2 1.1h12.5c.7 0 1.2-.5 1.2-1.1v-.2c0-.6-.6-1.1-1.2-1.1H4zm0-4.4c-.7 0-1.2.5-1.2 1.1v.2c-.1.6.5 1.1 1.2 1.1h12.5c.7 0 1.2-.5 1.2-1.1v-.2c0-.6-.6-1.1-1.2-1.1H4zM4 3c-.7 0-1.3.5-1.3 1.1v.2c0 .6.6 1.1 1.2 1.1h12.5c.7 0 1.2-.5 1.2-1.1v-.2c0-.6-.6-1.1-1.2-1.1H4zM1.4.1h18.5c.7 0 1.2.5 1.2 1.1v8.5c-1.5 1.4-2.5 3.4-2.5 5.6V20h-2.3c-1.1 0-1.9.9-1.9 1.9v2.3c0 .3.1.6.2.9H1.4C.7 25.1.2 24.6.2 24V1.2C.1.6.7.1 1.4.1zm15.7 21.7h18.1c.4 0 .6.3.6.6V24c0 .4-.3.6-.6.6h-.5V33h.5c.4 0 .6.3.6.6v1.6c0 .4-.3.6-.6.6H17.1c-.4 0-.6-.3-.6-.6v-1.6c0-.4.3-.6.6-.6h.5v-8.3h-.5c-.4 0-.6-.3-.6-.6v-1.6c0-.4.3-.7.6-.7zm9.1-11.9c2.9 0 5.3 2.4 5.3 5.3v4.9h-2.2v-4.9c0-1.7-1.4-3.1-3.1-3.1-1.7 0-3.1 1.4-3.1 3.1v4.9h-2.2v-4.9c0-2.9 2.3-5.3 5.3-5.3z"/></svg>