<svg version="1.1" id="Layer_1" xmlns="http://www.w3.org/2000/svg" x="0" y="0" viewBox="0 0 36 36" xml:space="preserve"><style>.st0{fill:#fff}</style><path class="st0" d="M5.1 19.9c-.6 0-1.1.5-1.1 1.1 0 .6.5 1.1 1.1 1.1h1.8v-2.2H5.1m0-3.6c-.6 0-1.1.5-1.1 1.1 0 .6.5 1.1 1.1 1.1h1.8v-2.2H5.1zM17 12.7H8.9v2.2H17c.6 0 1.1-.5 1.1-1.1 0-.6-.5-1.1-1.1-1.1zm-11.9 0c-.6 0-1.1.5-1.1 1.1 0 .6.5 1.1 1.1 1.1h1.8v-2.2H5.1zM17 9.1H8.9v2.2H17c.6 0 1.1-.5 1.1-1.1 0-.6-.5-1.1-1.1-1.1zm-11.9 0c-.6 0-1.1.5-1.1 1.1 0 .6.5 1.1 1.1 1.1h1.8V9.1H5.1zM17 5.5H8.9v2.2H17c.6 0 1.1-.5 1.1-1.1 0-.6-.5-1.1-1.1-1.1zm-11.9 0C4.5 5.5 4 6 4 6.6c0 .6.5 1.1 1.1 1.1h1.8V5.5H5.1zM21.9.2v11.2l-5.1 4.9H8.9v2.2h5.6l-2 1.9c-.2-.3-.5-.6-1-.6H8.9V22h2.4l-2.6 4.6L7.4 28h-.1l-1.8-1.9L3.7 28 2 26.2.2 28.1V.2L2 2.1 3.8.2l1.8 1.9 1.8-2 1.8 2L11 .2l1.8 1.9 1.8-2 1.8 2L18.2.2 20 2.1 21.9.2zM35 16.7l-1.4 1.4-5.9-5.9 1.4-1.4c.9-.9 2.3-1.1 3-.4l3.3 3.3c.7.8.6 2.1-.4 3zM11.6 35.8c-.4.2-.9.1-1.2-.2-.3-.3-.4-.8-.2-1.2l3.7-7.9.2-.3c.1-.3.3-.6.6-.8l11.7-11.8 5.9 5.9-11.7 11.7c-.3.3-.5.5-.8.6l-.2.2-8 3.8z"/></svg>