<svg version="1.1" id="Layer_1" xmlns="http://www.w3.org/2000/svg" x="0" y="0" viewBox="0 0 36 36" xml:space="preserve"><style>.st0{fill:#fff}</style><path class="st0" d="M28.5 12.7l.9.3c.2.1.3.1.3.3V16c0 .2-.1.2-.3.3l-.9.6v10.4c-5.7 1.2-8.4 3.9-9.6 5.7V17.1c2.2-1.7 5.9-5 9.6-6.8v2.4m-21 14.5V7.7s3.5.3 7.3 2.6c-1.4 2.1-3.2 5.8-3.8 11.9l.7.3s2.1-3.3 5.5-4.3V33c-1.3-1.8-4-4.5-9.7-5.8zm-3.8 2.2V9.5s.8 0 2 .2v18.6c6 .5 9.6 3.2 11.2 5-.4.1-.7.2-.9.4-1.8-1.4-5.7-3.7-12.3-4.3zM34 30.5v-5l.7-.5c.2-.1.3-.1.3-.3V22c0-.2-.1-.2-.3-.3l-.7-.2V12l1.8.1v19.6c-6.5-.3-12.1 1.6-15.2 2.9v.1c0 .6-1.1 1.1-2.6 1.1l-.1-.1c-1.4 0-2.6-.5-2.6-1.1v-.1c-3.1-1.3-8.6-3.1-15.2-2.9V12.1L2 12v18.4c6.7.2 11.7 2.1 14 3.3-.1.1-.2.2-.2.4 0 .5 1 1 2.2 1 1.2 0 2.2-.4 2.2-1 0-.1 0-.2-.1-.3 2.2-1.2 7.2-3.1 13.9-3.3zm-3.7-2.2V18l.6-.4c.2-.1.3-.1.3-.3v-2.7c0-.2-.1-.2-.3-.3l-.6-.2V9.7c1.2-.2 2-.2 2-.2v10.6l.9.3c.2.1.3.1.3.3v2.7c0 .2-.1.2-.3.3l-.9.6v5.1c-6.7.7-10.5 2.9-12.3 4.4-.2-.2-.5-.4-1-.5 1.7-1.8 5.3-4.5 11.3-5zm-18-8.9c1.2-2 2.2-3 2.2-3 7.4-12.5 14.9-15 17-15.4-10.7 2-18.3 16-19.2 18.4zm-.8 2s.2-1 .8-2.9l.5-1.6c0-.3 1.5-3.2 3.7-6.5l.3 1.1.3-2c1.8-2.5 3.9-5 6.2-6.6l-.2 2 1-2.5c.5-.3 1-.5 1.4-.7C32-.9 32.8.3 32.8 1.1c0 .2 0 .6-.1 1l-2.8.1c-.2 0 1.7.5 2.6.7-.4.9-1.3 2-3.3 3l-.7.4h-5.8l3.9 1.1c-1.9 1.2-3.7 2.5-5.1 3.8h-3.4l2.6.7-.6.6-4.1 4.3c-.5.6-.9.3-1.4.7 0 0-.5.1-1.1.8-.6.6-1.2 2.2-1.8 3.1h-.2z"/></svg>