<?xml version="1.0" encoding="utf-8"?>
<!-- Generator: Adobe Illustrator 27.2.0, SVG Export Plug-In . SVG Version: 6.00 Build 0)  -->
<svg version="1.1" id="Layer_1" xmlns="http://www.w3.org/2000/svg" xmlns:xlink="http://www.w3.org/1999/xlink" x="0px" y="0px"
	 viewBox="0 0 36 36" style="enable-background:new 0 0 36 36;" xml:space="preserve">
<style type="text/css">
	.st0{fill:#FFFFFF;}
</style>
<path class="st0" d="M0.07,11.5h1.76v11.7H7.8v1.65H0.07V11.5z M15.56,24.83c-0.99,0-1.9-0.17-2.73-0.52s-1.54-0.83-2.14-1.44
	c-0.59-0.61-1.06-1.33-1.39-2.17c-0.34-0.83-0.5-1.73-0.5-2.7s0.17-1.87,0.5-2.7c0.34-0.83,0.8-1.55,1.39-2.17
	c0.59-0.61,1.31-1.09,2.14-1.44c0.83-0.35,1.74-0.52,2.73-0.52c0.99,0,1.9,0.17,2.73,0.52c0.83,0.35,1.54,0.83,2.14,1.44
	c0.59,0.61,1.06,1.33,1.39,2.17c0.34,0.83,0.5,1.73,0.5,2.7s-0.17,1.87-0.5,2.7c-0.34,0.83-0.8,1.55-1.39,2.17
	c-0.59,0.61-1.31,1.09-2.14,1.44C17.46,24.65,16.55,24.83,15.56,24.83z M15.56,23.17c0.75,0,1.42-0.14,2.02-0.41
	c0.6-0.28,1.11-0.65,1.54-1.11c0.43-0.46,0.76-1.01,0.99-1.64c0.23-0.63,0.35-1.3,0.35-2.01s-0.12-1.38-0.35-2.01
	c-0.23-0.63-0.56-1.18-0.99-1.64c-0.43-0.46-0.94-0.83-1.54-1.11c-0.6-0.27-1.27-0.41-2.02-0.41c-0.75,0-1.42,0.14-2.02,0.41
	c-0.6,0.28-1.11,0.65-1.54,1.11c-0.43,0.46-0.76,1.01-0.99,1.64c-0.23,0.63-0.35,1.3-0.35,2.01s0.12,1.38,0.35,2.01
	c0.23,0.63,0.56,1.18,0.99,1.64c0.43,0.47,0.94,0.83,1.54,1.11C14.14,23.04,14.81,23.17,15.56,23.17z M35.93,17.23v6.4
	c-0.32,0.2-0.68,0.37-1.08,0.52c-0.4,0.15-0.82,0.27-1.26,0.37c-0.43,0.1-0.88,0.18-1.32,0.23c-0.45,0.05-0.86,0.07-1.26,0.07
	c-1.1,0-2.08-0.18-2.95-0.55c-0.86-0.37-1.59-0.86-2.18-1.49c-0.59-0.62-1.05-1.35-1.36-2.17c-0.31-0.83-0.47-1.7-0.47-2.61
	c0-0.97,0.17-1.87,0.5-2.7c0.34-0.83,0.8-1.55,1.39-2.17c0.59-0.61,1.31-1.09,2.14-1.44c0.83-0.35,1.74-0.52,2.73-0.52
	c1.2,0,2.18,0.15,2.94,0.45c0.76,0.3,1.39,0.71,1.91,1.24l-1.25,1.34c-0.54-0.51-1.11-0.87-1.71-1.07c-0.6-0.2-1.23-0.3-1.89-0.3
	c-0.75,0-1.42,0.14-2.02,0.41c-0.6,0.28-1.11,0.65-1.54,1.11s-0.76,1.01-0.99,1.64c-0.23,0.63-0.35,1.3-0.35,2.01
	c0,0.73,0.13,1.42,0.39,2.05c0.26,0.63,0.61,1.18,1.06,1.64c0.45,0.46,0.98,0.83,1.6,1.09c0.61,0.26,1.28,0.39,2,0.39
	c0.62,0,1.21-0.06,1.77-0.17c0.56-0.12,1.03-0.29,1.42-0.5v-3.62h-2.88v-1.65H35.93z"/>
</svg>
