<?xml version="1.0" encoding="utf-8"?>
<!-- Generator: Adobe Illustrator 27.2.0, SVG Export Plug-In . SVG Version: 6.00 Build 0)  -->
<svg version="1.1" id="Layer_1" xmlns="http://www.w3.org/2000/svg" xmlns:xlink="http://www.w3.org/1999/xlink" x="0px" y="0px"
	 viewBox="0 0 36 36" style="enable-background:new 0 0 36 36;" xml:space="preserve">
<style type="text/css">
	.st0{fill:#FFFFFF;}
</style>
<path class="st0" d="M29.3,6.7c3.45,3.45,3.45,9.04,0,12.49s-9.04,3.45-12.49,0s-3.45-9.04,0-12.49S25.85,3.25,29.3,6.7 M9.62,20.5
	l-8.64,8.64c-1.21,1.21-1.21,3.16,0,4.36l1.51,1.51c1.2,1.21,3.16,1.21,4.36,0l8.64-8.64c0.66-0.66,0.96-1.54,0.9-2.41
	c4.95,3,11.49,2.36,15.76-1.92c5.03-5.03,5.03-13.18,0-18.21s-13.18-5.03-18.21,0c-4.28,4.28-4.92,10.81-1.92,15.76
	C11.16,19.55,10.28,19.84,9.62,20.5z"/>
</svg>
